M48
; DRILL file {KiCad (5.1.5)-3} date 19/09/2020 13:04:31
; FORMAT={-:-/ absolute / inch / decimal}
; #@! TF.CreationDate,2020-09-19T13:04:31+02:00
; #@! TF.GenerationSoftware,Kicad,Pcbnew,(5.1.5)-3
; #@! TF.FileFunction,NonPlated,1,2,NPTH
FMAT,2
INCH
T1C0.0256
T2C0.0591
T3C0.0669
T4C0.1201
T5C0.1575
%
G90
G05
T1
X14.2612Y-1.4336
X14.4888Y-1.4336
T2
X9.125Y-1.2505
X9.125Y-1.5261
T3
X11.3625Y-3.2188
X11.7625Y-3.2188
X10.6125Y-3.2188
X11.0125Y-3.2188
X12.3Y-1.7188
X12.7Y-1.7188
X13.8Y-1.7188
X14.2Y-1.7188
X8.175Y-2.4688
X8.575Y-2.4688
X13.8Y-4.7188
X14.2Y-4.7188
X11.55Y-1.7188
X11.95Y-1.7188
X9.675Y-2.4688
X10.075Y-2.4688
X11.175Y-2.4688
X11.575Y-2.4688
X12.675Y-2.4688
X13.075Y-2.4688
X13.6125Y-2.4688
X14.0125Y-2.4688
X12.3Y-4.7188
X12.7Y-4.7188
X10.425Y-2.4688
X10.825Y-2.4688
X9.1125Y-3.2188
X9.5125Y-3.2188
X11.925Y-2.4688
X12.325Y-2.4688
X8.925Y-2.4688
X9.325Y-2.4688
X9.8625Y-3.2188
X10.2625Y-3.2188
X13.05Y-1.7188
X13.45Y-1.7188
X8.7375Y-3.9688
X9.1375Y-3.9688
X9.3937Y-4.7188
X9.7937Y-4.7188
X8.3625Y-3.2188
X8.7625Y-3.2188
X13.3312Y-3.2188
X13.7312Y-3.2188
X11.7375Y-3.9688
X12.1375Y-3.9688
X10.2375Y-3.9688
X10.6375Y-3.9688
X14.55Y-1.7188
X14.95Y-1.7188
X10.8Y-4.7188
X11.2Y-4.7188
X14.55Y-4.7188
X14.95Y-4.7188
X10.9875Y-3.9688
X11.3875Y-3.9688
X10.05Y-1.7188
X10.45Y-1.7188
X14.55Y-3.2188
X14.95Y-3.2188
X12.1125Y-3.2188
X12.5125Y-3.2188
X12.7687Y-3.9688
X13.1687Y-3.9688
X14.55Y-2.4688
X14.95Y-2.4688
X11.55Y-4.7188
X11.95Y-4.7188
X9.3Y-1.7188
X9.7Y-1.7188
X10.8Y-1.7188
X11.2Y-1.7188
X13.8Y-3.9688
X14.2Y-3.9688
X13.05Y-4.7188
X13.45Y-4.7188
X9.4875Y-3.9688
X9.8875Y-3.9688
X8.55Y-1.7188
X8.95Y-1.7188
X14.55Y-3.9688
X14.95Y-3.9688
T4
X9.1252Y-4.9943
X10.0623Y-4.9943
X13.0627Y-2.9432
X13.9998Y-2.9432
T5
X8.75Y-1.7188
X14.75Y-3.9688
X11.5625Y-3.2188
X10.8125Y-3.2188
X12.5Y-1.7188
X14.0Y-1.7188
X8.375Y-2.4688
X14.0Y-4.7188
X11.75Y-1.7188
X9.875Y-2.4688
X11.375Y-2.4688
X12.875Y-2.4688
X13.8125Y-2.4688
X12.5Y-4.7188
X10.625Y-2.4688
X9.3125Y-3.2188
X12.125Y-2.4688
X9.125Y-2.4688
X10.0625Y-3.2188
X13.25Y-1.7188
X8.9375Y-3.9688
X9.1252Y-4.3943
X9.5938Y-4.7188
X10.0623Y-4.3943
X8.5625Y-3.2188
X13.0627Y-3.5432
X13.5312Y-3.2188
X13.9998Y-3.5432
X11.9375Y-3.9688
X10.4375Y-3.9688
X14.75Y-1.7188
X11.0Y-4.7188
X14.75Y-4.7188
X11.1875Y-3.9688
X10.25Y-1.7188
X14.75Y-3.2188
X12.3125Y-3.2188
X12.9688Y-3.9688
X14.75Y-2.4688
X11.75Y-4.7188
X9.5Y-1.7188
X11.0Y-1.7188
X14.0Y-3.9688
X13.25Y-4.7188
X9.6875Y-3.9688
T0
M30
