M48
; DRILL file {KiCad (5.1.5)-3} date 19/09/2020 13:04:31
; FORMAT={-:-/ absolute / inch / decimal}
; #@! TF.CreationDate,2020-09-19T13:04:31+02:00
; #@! TF.GenerationSoftware,Kicad,Pcbnew,(5.1.5)-3
; #@! TF.FileFunction,Plated,1,2,PTH
FMAT,2
INCH
T1C0.0157
T2C0.0236
T3C0.0394
T4C0.0591
T5C0.0866
%
G90
G05
T1
X8.94Y-2.67
X8.94Y-2.67
X9.215Y-1.9685
X9.69Y-2.67
X9.9Y-4.44
X10.395Y-4.45
X10.44Y-2.67
X11.185Y-2.67
X11.935Y-2.67
X12.665Y-2.675
X13.185Y-2.575
X13.185Y-2.6785
X13.1875Y-2.875
X13.1886Y-3.0181
X13.23Y-4.34
X13.28Y-1.31
X13.475Y-2.84
X13.525Y-2.545
X13.6341Y-2.8585
X13.755Y-2.6
X13.77Y-3.095
X13.86Y-1.965
X13.875Y-2.67
X13.89Y-4.35
X13.9Y-2.935
X13.94Y-3.18
X14.0312Y-1.9375
X14.06Y-2.36
X14.06Y-2.55
X14.09Y-2.65
X14.14Y-3.07
X14.15Y-2.345
X14.1875Y-3.3125
X14.2086Y-2.6358
X14.22Y-3.344
X14.235Y-2.665
X14.265Y-1.75
X14.2726Y-2.95
X14.275Y-1.5893
X14.28Y-4.355
X14.2831Y-1.635
X14.2865Y-4.19
X14.345Y-3.345
X14.3706Y-1.96
X14.375Y-2.205
X14.385Y-3.345
X14.4Y-2.405
X14.41Y-1.96
X14.425Y-4.915
X14.44Y-1.5893
X14.455Y-3.23
X14.46Y-4.085
X14.465Y-2.97
X14.4658Y-1.635
X14.52Y-1.585
X14.53Y-2.925
X14.5302Y-2.8844
X14.5308Y-2.8057
X14.5308Y-2.6876
X14.5308Y-2.727
X14.5308Y-2.7663
X14.5308Y-2.8451
X14.565Y-2.245
X14.605Y-2.565
X14.84Y-2.14
X14.95Y-2.37
X11.1225Y-3.1875
X11.1416Y-3.1416
X11.1416Y-3.2334
X11.1875Y-3.1225
X11.1875Y-3.2525
X11.2334Y-3.1416
X11.2334Y-3.2334
X11.2525Y-3.1875
X13.56Y-2.0938
X13.5791Y-2.0478
X13.5791Y-2.1397
X13.625Y-2.0288
X13.625Y-2.1587
X13.6709Y-2.0478
X13.6709Y-2.1397
X13.69Y-2.0938
X13.56Y-4.3438
X13.5791Y-4.2978
X13.5791Y-4.3897
X13.625Y-4.2788
X13.625Y-4.4087
X13.6709Y-4.2978
X13.6709Y-4.3897
X13.69Y-4.3438
X10.2788Y-4.7188
X10.2978Y-4.6728
X10.2978Y-4.7647
X10.3438Y-4.6538
X10.3438Y-4.7837
X10.3897Y-4.6728
X10.3897Y-4.7647
X10.4087Y-4.7188
X9.435Y-2.0938
X9.4541Y-2.0478
X9.4541Y-2.1397
X9.5Y-2.0288
X9.5Y-2.1587
X9.5459Y-2.0478
X9.5459Y-2.1397
X9.565Y-2.0938
T3
X14.515Y-2.05
X14.515Y-2.15
X14.615Y-2.05
X14.615Y-2.15
X14.715Y-2.05
X14.715Y-2.15
T4
X11.0375Y-3.8687
X11.2875Y-3.7687
X10.1Y-1.6187
X10.35Y-1.5188
X14.6Y-3.1187
X14.85Y-3.0187
X12.1625Y-3.1187
X12.4125Y-3.0187
X12.8187Y-3.8687
X13.0687Y-3.7687
X14.6Y-2.3687
X14.85Y-2.2687
X11.6Y-4.6187
X11.85Y-4.5187
X9.35Y-1.6187
X9.6Y-1.5188
X10.85Y-1.6187
X11.1Y-1.5188
X13.85Y-3.8687
X14.1Y-3.7687
X13.1Y-4.6187
X13.35Y-4.5187
X9.5375Y-3.8687
X9.7875Y-3.7687
X8.6Y-1.6187
X8.85Y-1.5188
X14.6Y-3.8687
X14.85Y-3.7687
X11.4125Y-3.1187
X11.6625Y-3.0187
X10.6625Y-3.1187
X10.9125Y-3.0187
X12.35Y-1.6187
X12.6Y-1.5188
X13.85Y-1.6187
X14.1Y-1.5188
X8.225Y-2.3687
X8.475Y-2.2687
X13.85Y-4.6187
X14.1Y-4.5187
X11.6Y-1.6187
X11.85Y-1.5188
X9.725Y-2.3687
X9.975Y-2.2687
X11.225Y-2.3687
X11.475Y-2.2687
X12.725Y-2.3687
X12.975Y-2.2687
X13.6625Y-2.3687
X13.9125Y-2.2687
X12.35Y-4.6187
X12.6Y-4.5187
X10.475Y-2.3687
X10.725Y-2.2687
X9.1625Y-3.1187
X9.4125Y-3.0187
X11.975Y-2.3687
X12.225Y-2.2687
X8.975Y-2.3687
X9.225Y-2.2687
X9.9125Y-3.1187
X10.1625Y-3.0187
X13.1Y-1.6187
X13.35Y-1.5188
X8.7875Y-3.8687
X9.0375Y-3.7687
X9.4437Y-4.6187
X9.6937Y-4.5187
X8.4125Y-3.1187
X8.6625Y-3.0187
X13.3812Y-3.1187
X13.6312Y-3.0187
X11.7875Y-3.8687
X12.0375Y-3.7687
X10.2875Y-3.8687
X10.5375Y-3.7687
X14.6Y-1.6187
X14.85Y-1.5188
X10.85Y-4.6187
X11.1Y-4.5187
X14.6Y-4.6187
X14.85Y-4.5187
T5
X9.5Y-2.0938
X11.1875Y-3.1875
X13.625Y-2.0938
X13.625Y-4.3438
X10.3438Y-4.7188
T2
G00X14.2049Y-1.2781
M15
G01X14.2049Y-1.3017
M16
G05
G00X14.2049Y-1.4328
M15
G01X14.2049Y-1.4761
M16
G05
G00X14.5451Y-1.2781
M15
G01X14.5451Y-1.3017
M16
G05
G00X14.5451Y-1.4328
M15
G01X14.5451Y-1.4761
M16
G05
G00X9.0344Y-1.3017
M15
G01X9.0344Y-1.3253
M16
G05
G00X9.0344Y-1.4198
M15
G01X9.0344Y-1.4434
M16
G05
G00X9.0344Y-1.5773
M15
G01X9.0344Y-1.6009
M16
G05
G00X9.2156Y-1.6206
M15
G01X9.2156Y-1.6442
M16
G05
T0
M30
