G04 #@! TF.GenerationSoftware,KiCad,Pcbnew,(5.1.5)-3*
G04 #@! TF.CreationDate,2020-09-19T13:04:25+02:00*
G04 #@! TF.ProjectId,split65right,73706c69-7436-4357-9269-6768742e6b69,rev?*
G04 #@! TF.SameCoordinates,Original*
G04 #@! TF.FileFunction,Legend,Bot*
G04 #@! TF.FilePolarity,Positive*
%FSLAX46Y46*%
G04 Gerber Fmt 4.6, Leading zero omitted, Abs format (unit mm)*
G04 Created by KiCad (PCBNEW (5.1.5)-3) date 2020-09-19 13:04:25*
%MOMM*%
%LPD*%
G04 APERTURE LIST*
%ADD10C,0.010000*%
%ADD11C,0.120000*%
%ADD12C,0.200000*%
%ADD13C,0.150000*%
G04 APERTURE END LIST*
D10*
G36*
X225702090Y-118400348D02*
G01*
X225623546Y-118400778D01*
X225566702Y-118401942D01*
X225527895Y-118404207D01*
X225503462Y-118407940D01*
X225489738Y-118413506D01*
X225483060Y-118421273D01*
X225479764Y-118431605D01*
X225479444Y-118432943D01*
X225474438Y-118457079D01*
X225465171Y-118504701D01*
X225452608Y-118570741D01*
X225437713Y-118650128D01*
X225421449Y-118737796D01*
X225420881Y-118740875D01*
X225404590Y-118826789D01*
X225389348Y-118902696D01*
X225376139Y-118964045D01*
X225365946Y-119006282D01*
X225359752Y-119024855D01*
X225359457Y-119025184D01*
X225341212Y-119034253D01*
X225303595Y-119049367D01*
X225254729Y-119067262D01*
X225254457Y-119067358D01*
X225192907Y-119090493D01*
X225120343Y-119119965D01*
X225051943Y-119149597D01*
X225048706Y-119151062D01*
X224937298Y-119201626D01*
X224690601Y-119033160D01*
X224614923Y-118981803D01*
X224546369Y-118935889D01*
X224488912Y-118898030D01*
X224446524Y-118870837D01*
X224423175Y-118856921D01*
X224420958Y-118855889D01*
X224403990Y-118860484D01*
X224372299Y-118882655D01*
X224324648Y-118923447D01*
X224259802Y-118983905D01*
X224193603Y-119048227D01*
X224129786Y-119111612D01*
X224072671Y-119169451D01*
X224025695Y-119218175D01*
X223992297Y-119254210D01*
X223975915Y-119273984D01*
X223975306Y-119275002D01*
X223973495Y-119288572D01*
X223980317Y-119310733D01*
X223997460Y-119344478D01*
X224026607Y-119392800D01*
X224069445Y-119458692D01*
X224126552Y-119543517D01*
X224177234Y-119618177D01*
X224222539Y-119685140D01*
X224259850Y-119740516D01*
X224286548Y-119780420D01*
X224300015Y-119800962D01*
X224300863Y-119802356D01*
X224299219Y-119822038D01*
X224286755Y-119860293D01*
X224265952Y-119909889D01*
X224258538Y-119925728D01*
X224226186Y-119996290D01*
X224191672Y-120076353D01*
X224163635Y-120145629D01*
X224143432Y-120197045D01*
X224127385Y-120236119D01*
X224118112Y-120256541D01*
X224116959Y-120258114D01*
X224099904Y-120260721D01*
X224059702Y-120267863D01*
X224001698Y-120278523D01*
X223931237Y-120291685D01*
X223853665Y-120306333D01*
X223774328Y-120321449D01*
X223698569Y-120336018D01*
X223631736Y-120349022D01*
X223579172Y-120359445D01*
X223546224Y-120366270D01*
X223538143Y-120368199D01*
X223529795Y-120372962D01*
X223523494Y-120383718D01*
X223518955Y-120404098D01*
X223515896Y-120437734D01*
X223514033Y-120488255D01*
X223513082Y-120559292D01*
X223512760Y-120654476D01*
X223512743Y-120693492D01*
X223512743Y-121010799D01*
X223588943Y-121025839D01*
X223631337Y-121033995D01*
X223694600Y-121045899D01*
X223771038Y-121060116D01*
X223852957Y-121075210D01*
X223875600Y-121079355D01*
X223951194Y-121094053D01*
X224017047Y-121108505D01*
X224067634Y-121121375D01*
X224097426Y-121131322D01*
X224102388Y-121134287D01*
X224114574Y-121155283D01*
X224132047Y-121195967D01*
X224151423Y-121248322D01*
X224155266Y-121259600D01*
X224180661Y-121329523D01*
X224212183Y-121408418D01*
X224243031Y-121479266D01*
X224243183Y-121479595D01*
X224294553Y-121590733D01*
X224125601Y-121839253D01*
X223956648Y-122087772D01*
X224173571Y-122305058D01*
X224239181Y-122369726D01*
X224299021Y-122426733D01*
X224349733Y-122473033D01*
X224387954Y-122505584D01*
X224410325Y-122521343D01*
X224413534Y-122522343D01*
X224432374Y-122514469D01*
X224470820Y-122492578D01*
X224524670Y-122459267D01*
X224589724Y-122417131D01*
X224660060Y-122369943D01*
X224731445Y-122321810D01*
X224795092Y-122279928D01*
X224846959Y-122246871D01*
X224883005Y-122225218D01*
X224899133Y-122217543D01*
X224918811Y-122224037D01*
X224956125Y-122241150D01*
X225003379Y-122265326D01*
X225008388Y-122268013D01*
X225072023Y-122299927D01*
X225115659Y-122315579D01*
X225142798Y-122315745D01*
X225156943Y-122301204D01*
X225157025Y-122301000D01*
X225164095Y-122283779D01*
X225180958Y-122242899D01*
X225206305Y-122181525D01*
X225238829Y-122102819D01*
X225277222Y-122009947D01*
X225320178Y-121906072D01*
X225361778Y-121805502D01*
X225407496Y-121694516D01*
X225449474Y-121591703D01*
X225486452Y-121500215D01*
X225517173Y-121423201D01*
X225540378Y-121363815D01*
X225554810Y-121325209D01*
X225559257Y-121310800D01*
X225548104Y-121294272D01*
X225518931Y-121267930D01*
X225480029Y-121238887D01*
X225369243Y-121147039D01*
X225282649Y-121041759D01*
X225221284Y-120925266D01*
X225186185Y-120799776D01*
X225178392Y-120667507D01*
X225184057Y-120606457D01*
X225214922Y-120479795D01*
X225268080Y-120367941D01*
X225340233Y-120272001D01*
X225428083Y-120193076D01*
X225528335Y-120132270D01*
X225637690Y-120090687D01*
X225752853Y-120069428D01*
X225870525Y-120069599D01*
X225987410Y-120092301D01*
X226100211Y-120138638D01*
X226205631Y-120209713D01*
X226249632Y-120249911D01*
X226334021Y-120353129D01*
X226392778Y-120465925D01*
X226426296Y-120585010D01*
X226434965Y-120707095D01*
X226419177Y-120828893D01*
X226379322Y-120947116D01*
X226315793Y-121058475D01*
X226228979Y-121159684D01*
X226131971Y-121238887D01*
X226091563Y-121269162D01*
X226063018Y-121295219D01*
X226052743Y-121310825D01*
X226058123Y-121327843D01*
X226073425Y-121368500D01*
X226097388Y-121429642D01*
X226128756Y-121508119D01*
X226166268Y-121600780D01*
X226208667Y-121704472D01*
X226250337Y-121805526D01*
X226296310Y-121916607D01*
X226338893Y-122019541D01*
X226376779Y-122111165D01*
X226408660Y-122188316D01*
X226433229Y-122247831D01*
X226449180Y-122286544D01*
X226455090Y-122301000D01*
X226469052Y-122315685D01*
X226496060Y-122315642D01*
X226539587Y-122300099D01*
X226603110Y-122268284D01*
X226603612Y-122268013D01*
X226651440Y-122243323D01*
X226690103Y-122225338D01*
X226711905Y-122217614D01*
X226712867Y-122217543D01*
X226729279Y-122225378D01*
X226765513Y-122247165D01*
X226817526Y-122280328D01*
X226881275Y-122322291D01*
X226951940Y-122369943D01*
X227023884Y-122418191D01*
X227088726Y-122460151D01*
X227142265Y-122493227D01*
X227180303Y-122514821D01*
X227198467Y-122522343D01*
X227215192Y-122512457D01*
X227248820Y-122484826D01*
X227295990Y-122442495D01*
X227353342Y-122388505D01*
X227417516Y-122325899D01*
X227438503Y-122304983D01*
X227655501Y-122087623D01*
X227490332Y-121845220D01*
X227440136Y-121770781D01*
X227396081Y-121703972D01*
X227360638Y-121648665D01*
X227336281Y-121608729D01*
X227325478Y-121588036D01*
X227325162Y-121586563D01*
X227330857Y-121567058D01*
X227346174Y-121527822D01*
X227368463Y-121475430D01*
X227384107Y-121440355D01*
X227413359Y-121373201D01*
X227440906Y-121305358D01*
X227462263Y-121248034D01*
X227468065Y-121230572D01*
X227484548Y-121183938D01*
X227500660Y-121147905D01*
X227509510Y-121134287D01*
X227529040Y-121125952D01*
X227571666Y-121114137D01*
X227631855Y-121100181D01*
X227704078Y-121085422D01*
X227736400Y-121079355D01*
X227818478Y-121064273D01*
X227897205Y-121049669D01*
X227964891Y-121036980D01*
X228013840Y-121027642D01*
X228023057Y-121025839D01*
X228099257Y-121010799D01*
X228099257Y-120693492D01*
X228099086Y-120589154D01*
X228098384Y-120510213D01*
X228096866Y-120453038D01*
X228094251Y-120413999D01*
X228090254Y-120389465D01*
X228084591Y-120375805D01*
X228076980Y-120369389D01*
X228073857Y-120368199D01*
X228055022Y-120363980D01*
X228013412Y-120355562D01*
X227954370Y-120343961D01*
X227883243Y-120330195D01*
X227805375Y-120315280D01*
X227726113Y-120300232D01*
X227650802Y-120286069D01*
X227584787Y-120273806D01*
X227533413Y-120264461D01*
X227502025Y-120259050D01*
X227495041Y-120258114D01*
X227488715Y-120245596D01*
X227474710Y-120212246D01*
X227455645Y-120164377D01*
X227448366Y-120145629D01*
X227419004Y-120073195D01*
X227384429Y-119993170D01*
X227353463Y-119925728D01*
X227330677Y-119874159D01*
X227315518Y-119831785D01*
X227310458Y-119805834D01*
X227311264Y-119802356D01*
X227321959Y-119785936D01*
X227346380Y-119749417D01*
X227381905Y-119696687D01*
X227425913Y-119631635D01*
X227475783Y-119558151D01*
X227485644Y-119543645D01*
X227543508Y-119457704D01*
X227586044Y-119392261D01*
X227614946Y-119344304D01*
X227631910Y-119310820D01*
X227638633Y-119288795D01*
X227636810Y-119275217D01*
X227636764Y-119275131D01*
X227622414Y-119257297D01*
X227590677Y-119222817D01*
X227544990Y-119175268D01*
X227488796Y-119118222D01*
X227425532Y-119055255D01*
X227418398Y-119048227D01*
X227338670Y-118971020D01*
X227277143Y-118914330D01*
X227232579Y-118877110D01*
X227203743Y-118858315D01*
X227191042Y-118855889D01*
X227172506Y-118866471D01*
X227134039Y-118890916D01*
X227079614Y-118926612D01*
X227013202Y-118970947D01*
X226938775Y-119021311D01*
X226921399Y-119033160D01*
X226674703Y-119201626D01*
X226563294Y-119151062D01*
X226495543Y-119121595D01*
X226422817Y-119091959D01*
X226360297Y-119068330D01*
X226357543Y-119067358D01*
X226308640Y-119049457D01*
X226270943Y-119034320D01*
X226252575Y-119025210D01*
X226252544Y-119025184D01*
X226246715Y-119008717D01*
X226236808Y-118968219D01*
X226223805Y-118908242D01*
X226208691Y-118833340D01*
X226192448Y-118748064D01*
X226191119Y-118740875D01*
X226174825Y-118653014D01*
X226159867Y-118573260D01*
X226147209Y-118506681D01*
X226137814Y-118458347D01*
X226132646Y-118433325D01*
X226132556Y-118432943D01*
X226129411Y-118422299D01*
X226123296Y-118414262D01*
X226110547Y-118408467D01*
X226087500Y-118404547D01*
X226050491Y-118402135D01*
X225995856Y-118400865D01*
X225919933Y-118400371D01*
X225819056Y-118400286D01*
X225806000Y-118400286D01*
X225702090Y-118400348D01*
G37*
X225702090Y-118400348D02*
X225623546Y-118400778D01*
X225566702Y-118401942D01*
X225527895Y-118404207D01*
X225503462Y-118407940D01*
X225489738Y-118413506D01*
X225483060Y-118421273D01*
X225479764Y-118431605D01*
X225479444Y-118432943D01*
X225474438Y-118457079D01*
X225465171Y-118504701D01*
X225452608Y-118570741D01*
X225437713Y-118650128D01*
X225421449Y-118737796D01*
X225420881Y-118740875D01*
X225404590Y-118826789D01*
X225389348Y-118902696D01*
X225376139Y-118964045D01*
X225365946Y-119006282D01*
X225359752Y-119024855D01*
X225359457Y-119025184D01*
X225341212Y-119034253D01*
X225303595Y-119049367D01*
X225254729Y-119067262D01*
X225254457Y-119067358D01*
X225192907Y-119090493D01*
X225120343Y-119119965D01*
X225051943Y-119149597D01*
X225048706Y-119151062D01*
X224937298Y-119201626D01*
X224690601Y-119033160D01*
X224614923Y-118981803D01*
X224546369Y-118935889D01*
X224488912Y-118898030D01*
X224446524Y-118870837D01*
X224423175Y-118856921D01*
X224420958Y-118855889D01*
X224403990Y-118860484D01*
X224372299Y-118882655D01*
X224324648Y-118923447D01*
X224259802Y-118983905D01*
X224193603Y-119048227D01*
X224129786Y-119111612D01*
X224072671Y-119169451D01*
X224025695Y-119218175D01*
X223992297Y-119254210D01*
X223975915Y-119273984D01*
X223975306Y-119275002D01*
X223973495Y-119288572D01*
X223980317Y-119310733D01*
X223997460Y-119344478D01*
X224026607Y-119392800D01*
X224069445Y-119458692D01*
X224126552Y-119543517D01*
X224177234Y-119618177D01*
X224222539Y-119685140D01*
X224259850Y-119740516D01*
X224286548Y-119780420D01*
X224300015Y-119800962D01*
X224300863Y-119802356D01*
X224299219Y-119822038D01*
X224286755Y-119860293D01*
X224265952Y-119909889D01*
X224258538Y-119925728D01*
X224226186Y-119996290D01*
X224191672Y-120076353D01*
X224163635Y-120145629D01*
X224143432Y-120197045D01*
X224127385Y-120236119D01*
X224118112Y-120256541D01*
X224116959Y-120258114D01*
X224099904Y-120260721D01*
X224059702Y-120267863D01*
X224001698Y-120278523D01*
X223931237Y-120291685D01*
X223853665Y-120306333D01*
X223774328Y-120321449D01*
X223698569Y-120336018D01*
X223631736Y-120349022D01*
X223579172Y-120359445D01*
X223546224Y-120366270D01*
X223538143Y-120368199D01*
X223529795Y-120372962D01*
X223523494Y-120383718D01*
X223518955Y-120404098D01*
X223515896Y-120437734D01*
X223514033Y-120488255D01*
X223513082Y-120559292D01*
X223512760Y-120654476D01*
X223512743Y-120693492D01*
X223512743Y-121010799D01*
X223588943Y-121025839D01*
X223631337Y-121033995D01*
X223694600Y-121045899D01*
X223771038Y-121060116D01*
X223852957Y-121075210D01*
X223875600Y-121079355D01*
X223951194Y-121094053D01*
X224017047Y-121108505D01*
X224067634Y-121121375D01*
X224097426Y-121131322D01*
X224102388Y-121134287D01*
X224114574Y-121155283D01*
X224132047Y-121195967D01*
X224151423Y-121248322D01*
X224155266Y-121259600D01*
X224180661Y-121329523D01*
X224212183Y-121408418D01*
X224243031Y-121479266D01*
X224243183Y-121479595D01*
X224294553Y-121590733D01*
X224125601Y-121839253D01*
X223956648Y-122087772D01*
X224173571Y-122305058D01*
X224239181Y-122369726D01*
X224299021Y-122426733D01*
X224349733Y-122473033D01*
X224387954Y-122505584D01*
X224410325Y-122521343D01*
X224413534Y-122522343D01*
X224432374Y-122514469D01*
X224470820Y-122492578D01*
X224524670Y-122459267D01*
X224589724Y-122417131D01*
X224660060Y-122369943D01*
X224731445Y-122321810D01*
X224795092Y-122279928D01*
X224846959Y-122246871D01*
X224883005Y-122225218D01*
X224899133Y-122217543D01*
X224918811Y-122224037D01*
X224956125Y-122241150D01*
X225003379Y-122265326D01*
X225008388Y-122268013D01*
X225072023Y-122299927D01*
X225115659Y-122315579D01*
X225142798Y-122315745D01*
X225156943Y-122301204D01*
X225157025Y-122301000D01*
X225164095Y-122283779D01*
X225180958Y-122242899D01*
X225206305Y-122181525D01*
X225238829Y-122102819D01*
X225277222Y-122009947D01*
X225320178Y-121906072D01*
X225361778Y-121805502D01*
X225407496Y-121694516D01*
X225449474Y-121591703D01*
X225486452Y-121500215D01*
X225517173Y-121423201D01*
X225540378Y-121363815D01*
X225554810Y-121325209D01*
X225559257Y-121310800D01*
X225548104Y-121294272D01*
X225518931Y-121267930D01*
X225480029Y-121238887D01*
X225369243Y-121147039D01*
X225282649Y-121041759D01*
X225221284Y-120925266D01*
X225186185Y-120799776D01*
X225178392Y-120667507D01*
X225184057Y-120606457D01*
X225214922Y-120479795D01*
X225268080Y-120367941D01*
X225340233Y-120272001D01*
X225428083Y-120193076D01*
X225528335Y-120132270D01*
X225637690Y-120090687D01*
X225752853Y-120069428D01*
X225870525Y-120069599D01*
X225987410Y-120092301D01*
X226100211Y-120138638D01*
X226205631Y-120209713D01*
X226249632Y-120249911D01*
X226334021Y-120353129D01*
X226392778Y-120465925D01*
X226426296Y-120585010D01*
X226434965Y-120707095D01*
X226419177Y-120828893D01*
X226379322Y-120947116D01*
X226315793Y-121058475D01*
X226228979Y-121159684D01*
X226131971Y-121238887D01*
X226091563Y-121269162D01*
X226063018Y-121295219D01*
X226052743Y-121310825D01*
X226058123Y-121327843D01*
X226073425Y-121368500D01*
X226097388Y-121429642D01*
X226128756Y-121508119D01*
X226166268Y-121600780D01*
X226208667Y-121704472D01*
X226250337Y-121805526D01*
X226296310Y-121916607D01*
X226338893Y-122019541D01*
X226376779Y-122111165D01*
X226408660Y-122188316D01*
X226433229Y-122247831D01*
X226449180Y-122286544D01*
X226455090Y-122301000D01*
X226469052Y-122315685D01*
X226496060Y-122315642D01*
X226539587Y-122300099D01*
X226603110Y-122268284D01*
X226603612Y-122268013D01*
X226651440Y-122243323D01*
X226690103Y-122225338D01*
X226711905Y-122217614D01*
X226712867Y-122217543D01*
X226729279Y-122225378D01*
X226765513Y-122247165D01*
X226817526Y-122280328D01*
X226881275Y-122322291D01*
X226951940Y-122369943D01*
X227023884Y-122418191D01*
X227088726Y-122460151D01*
X227142265Y-122493227D01*
X227180303Y-122514821D01*
X227198467Y-122522343D01*
X227215192Y-122512457D01*
X227248820Y-122484826D01*
X227295990Y-122442495D01*
X227353342Y-122388505D01*
X227417516Y-122325899D01*
X227438503Y-122304983D01*
X227655501Y-122087623D01*
X227490332Y-121845220D01*
X227440136Y-121770781D01*
X227396081Y-121703972D01*
X227360638Y-121648665D01*
X227336281Y-121608729D01*
X227325478Y-121588036D01*
X227325162Y-121586563D01*
X227330857Y-121567058D01*
X227346174Y-121527822D01*
X227368463Y-121475430D01*
X227384107Y-121440355D01*
X227413359Y-121373201D01*
X227440906Y-121305358D01*
X227462263Y-121248034D01*
X227468065Y-121230572D01*
X227484548Y-121183938D01*
X227500660Y-121147905D01*
X227509510Y-121134287D01*
X227529040Y-121125952D01*
X227571666Y-121114137D01*
X227631855Y-121100181D01*
X227704078Y-121085422D01*
X227736400Y-121079355D01*
X227818478Y-121064273D01*
X227897205Y-121049669D01*
X227964891Y-121036980D01*
X228013840Y-121027642D01*
X228023057Y-121025839D01*
X228099257Y-121010799D01*
X228099257Y-120693492D01*
X228099086Y-120589154D01*
X228098384Y-120510213D01*
X228096866Y-120453038D01*
X228094251Y-120413999D01*
X228090254Y-120389465D01*
X228084591Y-120375805D01*
X228076980Y-120369389D01*
X228073857Y-120368199D01*
X228055022Y-120363980D01*
X228013412Y-120355562D01*
X227954370Y-120343961D01*
X227883243Y-120330195D01*
X227805375Y-120315280D01*
X227726113Y-120300232D01*
X227650802Y-120286069D01*
X227584787Y-120273806D01*
X227533413Y-120264461D01*
X227502025Y-120259050D01*
X227495041Y-120258114D01*
X227488715Y-120245596D01*
X227474710Y-120212246D01*
X227455645Y-120164377D01*
X227448366Y-120145629D01*
X227419004Y-120073195D01*
X227384429Y-119993170D01*
X227353463Y-119925728D01*
X227330677Y-119874159D01*
X227315518Y-119831785D01*
X227310458Y-119805834D01*
X227311264Y-119802356D01*
X227321959Y-119785936D01*
X227346380Y-119749417D01*
X227381905Y-119696687D01*
X227425913Y-119631635D01*
X227475783Y-119558151D01*
X227485644Y-119543645D01*
X227543508Y-119457704D01*
X227586044Y-119392261D01*
X227614946Y-119344304D01*
X227631910Y-119310820D01*
X227638633Y-119288795D01*
X227636810Y-119275217D01*
X227636764Y-119275131D01*
X227622414Y-119257297D01*
X227590677Y-119222817D01*
X227544990Y-119175268D01*
X227488796Y-119118222D01*
X227425532Y-119055255D01*
X227418398Y-119048227D01*
X227338670Y-118971020D01*
X227277143Y-118914330D01*
X227232579Y-118877110D01*
X227203743Y-118858315D01*
X227191042Y-118855889D01*
X227172506Y-118866471D01*
X227134039Y-118890916D01*
X227079614Y-118926612D01*
X227013202Y-118970947D01*
X226938775Y-119021311D01*
X226921399Y-119033160D01*
X226674703Y-119201626D01*
X226563294Y-119151062D01*
X226495543Y-119121595D01*
X226422817Y-119091959D01*
X226360297Y-119068330D01*
X226357543Y-119067358D01*
X226308640Y-119049457D01*
X226270943Y-119034320D01*
X226252575Y-119025210D01*
X226252544Y-119025184D01*
X226246715Y-119008717D01*
X226236808Y-118968219D01*
X226223805Y-118908242D01*
X226208691Y-118833340D01*
X226192448Y-118748064D01*
X226191119Y-118740875D01*
X226174825Y-118653014D01*
X226159867Y-118573260D01*
X226147209Y-118506681D01*
X226137814Y-118458347D01*
X226132646Y-118433325D01*
X226132556Y-118432943D01*
X226129411Y-118422299D01*
X226123296Y-118414262D01*
X226110547Y-118408467D01*
X226087500Y-118404547D01*
X226050491Y-118402135D01*
X225995856Y-118400865D01*
X225919933Y-118400371D01*
X225819056Y-118400286D01*
X225806000Y-118400286D01*
X225702090Y-118400348D01*
G36*
X222652405Y-123124966D02*
G01*
X222594979Y-123162497D01*
X222567281Y-123196096D01*
X222545338Y-123257064D01*
X222543595Y-123305308D01*
X222547543Y-123369816D01*
X222696314Y-123434934D01*
X222768651Y-123468202D01*
X222815916Y-123494964D01*
X222840493Y-123518144D01*
X222844763Y-123540667D01*
X222831111Y-123565455D01*
X222816057Y-123581886D01*
X222772254Y-123608235D01*
X222724611Y-123610081D01*
X222680855Y-123589546D01*
X222648711Y-123548752D01*
X222642962Y-123534347D01*
X222615424Y-123489356D01*
X222583742Y-123470182D01*
X222540286Y-123453779D01*
X222540286Y-123515966D01*
X222544128Y-123558283D01*
X222559177Y-123593969D01*
X222590720Y-123634943D01*
X222595408Y-123640267D01*
X222630494Y-123676720D01*
X222660653Y-123696283D01*
X222698385Y-123705283D01*
X222729665Y-123708230D01*
X222785615Y-123708965D01*
X222825445Y-123699660D01*
X222850292Y-123685846D01*
X222889344Y-123655467D01*
X222916375Y-123622613D01*
X222933483Y-123581294D01*
X222942762Y-123525521D01*
X222946307Y-123449305D01*
X222946590Y-123410622D01*
X222945628Y-123364247D01*
X222857993Y-123364247D01*
X222856977Y-123389126D01*
X222854444Y-123393200D01*
X222837726Y-123387665D01*
X222801751Y-123373017D01*
X222753669Y-123352190D01*
X222743614Y-123347714D01*
X222682848Y-123316814D01*
X222649368Y-123289657D01*
X222642010Y-123264220D01*
X222659609Y-123238481D01*
X222674144Y-123227109D01*
X222726590Y-123204364D01*
X222775678Y-123208122D01*
X222816773Y-123235884D01*
X222845242Y-123285152D01*
X222854369Y-123324257D01*
X222857993Y-123364247D01*
X222945628Y-123364247D01*
X222944715Y-123320249D01*
X222937804Y-123253384D01*
X222924116Y-123204695D01*
X222901904Y-123168849D01*
X222869426Y-123140513D01*
X222855267Y-123131355D01*
X222790947Y-123107507D01*
X222720527Y-123106006D01*
X222652405Y-123124966D01*
G37*
X222652405Y-123124966D02*
X222594979Y-123162497D01*
X222567281Y-123196096D01*
X222545338Y-123257064D01*
X222543595Y-123305308D01*
X222547543Y-123369816D01*
X222696314Y-123434934D01*
X222768651Y-123468202D01*
X222815916Y-123494964D01*
X222840493Y-123518144D01*
X222844763Y-123540667D01*
X222831111Y-123565455D01*
X222816057Y-123581886D01*
X222772254Y-123608235D01*
X222724611Y-123610081D01*
X222680855Y-123589546D01*
X222648711Y-123548752D01*
X222642962Y-123534347D01*
X222615424Y-123489356D01*
X222583742Y-123470182D01*
X222540286Y-123453779D01*
X222540286Y-123515966D01*
X222544128Y-123558283D01*
X222559177Y-123593969D01*
X222590720Y-123634943D01*
X222595408Y-123640267D01*
X222630494Y-123676720D01*
X222660653Y-123696283D01*
X222698385Y-123705283D01*
X222729665Y-123708230D01*
X222785615Y-123708965D01*
X222825445Y-123699660D01*
X222850292Y-123685846D01*
X222889344Y-123655467D01*
X222916375Y-123622613D01*
X222933483Y-123581294D01*
X222942762Y-123525521D01*
X222946307Y-123449305D01*
X222946590Y-123410622D01*
X222945628Y-123364247D01*
X222857993Y-123364247D01*
X222856977Y-123389126D01*
X222854444Y-123393200D01*
X222837726Y-123387665D01*
X222801751Y-123373017D01*
X222753669Y-123352190D01*
X222743614Y-123347714D01*
X222682848Y-123316814D01*
X222649368Y-123289657D01*
X222642010Y-123264220D01*
X222659609Y-123238481D01*
X222674144Y-123227109D01*
X222726590Y-123204364D01*
X222775678Y-123208122D01*
X222816773Y-123235884D01*
X222845242Y-123285152D01*
X222854369Y-123324257D01*
X222857993Y-123364247D01*
X222945628Y-123364247D01*
X222944715Y-123320249D01*
X222937804Y-123253384D01*
X222924116Y-123204695D01*
X222901904Y-123168849D01*
X222869426Y-123140513D01*
X222855267Y-123131355D01*
X222790947Y-123107507D01*
X222720527Y-123106006D01*
X222652405Y-123124966D01*
G36*
X223153400Y-123116752D02*
G01*
X223136052Y-123124334D01*
X223094644Y-123157128D01*
X223059235Y-123204547D01*
X223037336Y-123255151D01*
X223033771Y-123280098D01*
X223045721Y-123314927D01*
X223071933Y-123333357D01*
X223100036Y-123344516D01*
X223112905Y-123346572D01*
X223119171Y-123331649D01*
X223131544Y-123299175D01*
X223136972Y-123284502D01*
X223167410Y-123233744D01*
X223211480Y-123208427D01*
X223267990Y-123209206D01*
X223272175Y-123210203D01*
X223302345Y-123224507D01*
X223324524Y-123252393D01*
X223339673Y-123297287D01*
X223348750Y-123362615D01*
X223352714Y-123451804D01*
X223353086Y-123499261D01*
X223353270Y-123574071D01*
X223354478Y-123625069D01*
X223357691Y-123657471D01*
X223363891Y-123676495D01*
X223374060Y-123687356D01*
X223389181Y-123695272D01*
X223390054Y-123695670D01*
X223419172Y-123707981D01*
X223433597Y-123712514D01*
X223435814Y-123698809D01*
X223437711Y-123660925D01*
X223439153Y-123603715D01*
X223440002Y-123532027D01*
X223440171Y-123479565D01*
X223439308Y-123378047D01*
X223435930Y-123301032D01*
X223428858Y-123244023D01*
X223416912Y-123202526D01*
X223398910Y-123172043D01*
X223373673Y-123148080D01*
X223348753Y-123131355D01*
X223288829Y-123109097D01*
X223219089Y-123104076D01*
X223153400Y-123116752D01*
G37*
X223153400Y-123116752D02*
X223136052Y-123124334D01*
X223094644Y-123157128D01*
X223059235Y-123204547D01*
X223037336Y-123255151D01*
X223033771Y-123280098D01*
X223045721Y-123314927D01*
X223071933Y-123333357D01*
X223100036Y-123344516D01*
X223112905Y-123346572D01*
X223119171Y-123331649D01*
X223131544Y-123299175D01*
X223136972Y-123284502D01*
X223167410Y-123233744D01*
X223211480Y-123208427D01*
X223267990Y-123209206D01*
X223272175Y-123210203D01*
X223302345Y-123224507D01*
X223324524Y-123252393D01*
X223339673Y-123297287D01*
X223348750Y-123362615D01*
X223352714Y-123451804D01*
X223353086Y-123499261D01*
X223353270Y-123574071D01*
X223354478Y-123625069D01*
X223357691Y-123657471D01*
X223363891Y-123676495D01*
X223374060Y-123687356D01*
X223389181Y-123695272D01*
X223390054Y-123695670D01*
X223419172Y-123707981D01*
X223433597Y-123712514D01*
X223435814Y-123698809D01*
X223437711Y-123660925D01*
X223439153Y-123603715D01*
X223440002Y-123532027D01*
X223440171Y-123479565D01*
X223439308Y-123378047D01*
X223435930Y-123301032D01*
X223428858Y-123244023D01*
X223416912Y-123202526D01*
X223398910Y-123172043D01*
X223373673Y-123148080D01*
X223348753Y-123131355D01*
X223288829Y-123109097D01*
X223219089Y-123104076D01*
X223153400Y-123116752D01*
G36*
X223661124Y-123114335D02*
G01*
X223619333Y-123133344D01*
X223586531Y-123156378D01*
X223562497Y-123182133D01*
X223545903Y-123215358D01*
X223535423Y-123260800D01*
X223529729Y-123323207D01*
X223527493Y-123407327D01*
X223527257Y-123462721D01*
X223527257Y-123678826D01*
X223564226Y-123695670D01*
X223593344Y-123707981D01*
X223607769Y-123712514D01*
X223610528Y-123699025D01*
X223612718Y-123662653D01*
X223614058Y-123609542D01*
X223614343Y-123567372D01*
X223615566Y-123506447D01*
X223618864Y-123458115D01*
X223623679Y-123428518D01*
X223627504Y-123422229D01*
X223653217Y-123428652D01*
X223693582Y-123445125D01*
X223740321Y-123467458D01*
X223785155Y-123491457D01*
X223819807Y-123512930D01*
X223835998Y-123527685D01*
X223836062Y-123527845D01*
X223834670Y-123555152D01*
X223822182Y-123581219D01*
X223800257Y-123602392D01*
X223768257Y-123609474D01*
X223740908Y-123608649D01*
X223702174Y-123608042D01*
X223681842Y-123617116D01*
X223669631Y-123641092D01*
X223668091Y-123645613D01*
X223662797Y-123679806D01*
X223676953Y-123700568D01*
X223713852Y-123710462D01*
X223753711Y-123712292D01*
X223825438Y-123698727D01*
X223862568Y-123679355D01*
X223908424Y-123633845D01*
X223932744Y-123577983D01*
X223934927Y-123518957D01*
X223914371Y-123463953D01*
X223883451Y-123429486D01*
X223852580Y-123410189D01*
X223804058Y-123385759D01*
X223747515Y-123360985D01*
X223738090Y-123357199D01*
X223675981Y-123329791D01*
X223640178Y-123305634D01*
X223628663Y-123281619D01*
X223639420Y-123254635D01*
X223657886Y-123233543D01*
X223701531Y-123207572D01*
X223749554Y-123205624D01*
X223793594Y-123225637D01*
X223825291Y-123265551D01*
X223829451Y-123275848D01*
X223853673Y-123313724D01*
X223889035Y-123341842D01*
X223933657Y-123364917D01*
X223933657Y-123299485D01*
X223931031Y-123259506D01*
X223919770Y-123227997D01*
X223894801Y-123194378D01*
X223870831Y-123168484D01*
X223833559Y-123131817D01*
X223804599Y-123112121D01*
X223773495Y-123104220D01*
X223738287Y-123102914D01*
X223661124Y-123114335D01*
G37*
X223661124Y-123114335D02*
X223619333Y-123133344D01*
X223586531Y-123156378D01*
X223562497Y-123182133D01*
X223545903Y-123215358D01*
X223535423Y-123260800D01*
X223529729Y-123323207D01*
X223527493Y-123407327D01*
X223527257Y-123462721D01*
X223527257Y-123678826D01*
X223564226Y-123695670D01*
X223593344Y-123707981D01*
X223607769Y-123712514D01*
X223610528Y-123699025D01*
X223612718Y-123662653D01*
X223614058Y-123609542D01*
X223614343Y-123567372D01*
X223615566Y-123506447D01*
X223618864Y-123458115D01*
X223623679Y-123428518D01*
X223627504Y-123422229D01*
X223653217Y-123428652D01*
X223693582Y-123445125D01*
X223740321Y-123467458D01*
X223785155Y-123491457D01*
X223819807Y-123512930D01*
X223835998Y-123527685D01*
X223836062Y-123527845D01*
X223834670Y-123555152D01*
X223822182Y-123581219D01*
X223800257Y-123602392D01*
X223768257Y-123609474D01*
X223740908Y-123608649D01*
X223702174Y-123608042D01*
X223681842Y-123617116D01*
X223669631Y-123641092D01*
X223668091Y-123645613D01*
X223662797Y-123679806D01*
X223676953Y-123700568D01*
X223713852Y-123710462D01*
X223753711Y-123712292D01*
X223825438Y-123698727D01*
X223862568Y-123679355D01*
X223908424Y-123633845D01*
X223932744Y-123577983D01*
X223934927Y-123518957D01*
X223914371Y-123463953D01*
X223883451Y-123429486D01*
X223852580Y-123410189D01*
X223804058Y-123385759D01*
X223747515Y-123360985D01*
X223738090Y-123357199D01*
X223675981Y-123329791D01*
X223640178Y-123305634D01*
X223628663Y-123281619D01*
X223639420Y-123254635D01*
X223657886Y-123233543D01*
X223701531Y-123207572D01*
X223749554Y-123205624D01*
X223793594Y-123225637D01*
X223825291Y-123265551D01*
X223829451Y-123275848D01*
X223853673Y-123313724D01*
X223889035Y-123341842D01*
X223933657Y-123364917D01*
X223933657Y-123299485D01*
X223931031Y-123259506D01*
X223919770Y-123227997D01*
X223894801Y-123194378D01*
X223870831Y-123168484D01*
X223833559Y-123131817D01*
X223804599Y-123112121D01*
X223773495Y-123104220D01*
X223738287Y-123102914D01*
X223661124Y-123114335D01*
G36*
X224026167Y-123116663D02*
G01*
X224023952Y-123154850D01*
X224022216Y-123212886D01*
X224021101Y-123286180D01*
X224020743Y-123363055D01*
X224020743Y-123623196D01*
X224066674Y-123669127D01*
X224098325Y-123697429D01*
X224126110Y-123708893D01*
X224164085Y-123708168D01*
X224179160Y-123706321D01*
X224226274Y-123700948D01*
X224265244Y-123697869D01*
X224274743Y-123697585D01*
X224306767Y-123699445D01*
X224352568Y-123704114D01*
X224370326Y-123706321D01*
X224413943Y-123709735D01*
X224443255Y-123702320D01*
X224472320Y-123679427D01*
X224482812Y-123669127D01*
X224528743Y-123623196D01*
X224528743Y-123136602D01*
X224491774Y-123119758D01*
X224459941Y-123107282D01*
X224441317Y-123102914D01*
X224436542Y-123116718D01*
X224432079Y-123155286D01*
X224428225Y-123214356D01*
X224425278Y-123289663D01*
X224423857Y-123353286D01*
X224419886Y-123603657D01*
X224385241Y-123608556D01*
X224353732Y-123605131D01*
X224338292Y-123594041D01*
X224333977Y-123573308D01*
X224330292Y-123529145D01*
X224327531Y-123467146D01*
X224325988Y-123392909D01*
X224325765Y-123354706D01*
X224325543Y-123134783D01*
X224279834Y-123118849D01*
X224247482Y-123108015D01*
X224229885Y-123102962D01*
X224229377Y-123102914D01*
X224227612Y-123116648D01*
X224225671Y-123154730D01*
X224223718Y-123212482D01*
X224221916Y-123285227D01*
X224220657Y-123353286D01*
X224216686Y-123603657D01*
X224129600Y-123603657D01*
X224125604Y-123375240D01*
X224121608Y-123146822D01*
X224079153Y-123124868D01*
X224047808Y-123109793D01*
X224029256Y-123102951D01*
X224028721Y-123102914D01*
X224026167Y-123116663D01*
G37*
X224026167Y-123116663D02*
X224023952Y-123154850D01*
X224022216Y-123212886D01*
X224021101Y-123286180D01*
X224020743Y-123363055D01*
X224020743Y-123623196D01*
X224066674Y-123669127D01*
X224098325Y-123697429D01*
X224126110Y-123708893D01*
X224164085Y-123708168D01*
X224179160Y-123706321D01*
X224226274Y-123700948D01*
X224265244Y-123697869D01*
X224274743Y-123697585D01*
X224306767Y-123699445D01*
X224352568Y-123704114D01*
X224370326Y-123706321D01*
X224413943Y-123709735D01*
X224443255Y-123702320D01*
X224472320Y-123679427D01*
X224482812Y-123669127D01*
X224528743Y-123623196D01*
X224528743Y-123136602D01*
X224491774Y-123119758D01*
X224459941Y-123107282D01*
X224441317Y-123102914D01*
X224436542Y-123116718D01*
X224432079Y-123155286D01*
X224428225Y-123214356D01*
X224425278Y-123289663D01*
X224423857Y-123353286D01*
X224419886Y-123603657D01*
X224385241Y-123608556D01*
X224353732Y-123605131D01*
X224338292Y-123594041D01*
X224333977Y-123573308D01*
X224330292Y-123529145D01*
X224327531Y-123467146D01*
X224325988Y-123392909D01*
X224325765Y-123354706D01*
X224325543Y-123134783D01*
X224279834Y-123118849D01*
X224247482Y-123108015D01*
X224229885Y-123102962D01*
X224229377Y-123102914D01*
X224227612Y-123116648D01*
X224225671Y-123154730D01*
X224223718Y-123212482D01*
X224221916Y-123285227D01*
X224220657Y-123353286D01*
X224216686Y-123603657D01*
X224129600Y-123603657D01*
X224125604Y-123375240D01*
X224121608Y-123146822D01*
X224079153Y-123124868D01*
X224047808Y-123109793D01*
X224029256Y-123102951D01*
X224028721Y-123102914D01*
X224026167Y-123116663D01*
G36*
X224615883Y-123223358D02*
G01*
X224616067Y-123331837D01*
X224616781Y-123415287D01*
X224618325Y-123477704D01*
X224620999Y-123523085D01*
X224625106Y-123555429D01*
X224630945Y-123578733D01*
X224638818Y-123596995D01*
X224644779Y-123607418D01*
X224694145Y-123663945D01*
X224756736Y-123699377D01*
X224825987Y-123712090D01*
X224895332Y-123700463D01*
X224936625Y-123679568D01*
X224979975Y-123643422D01*
X225009519Y-123599276D01*
X225027345Y-123541462D01*
X225035537Y-123464313D01*
X225036698Y-123407714D01*
X225036542Y-123403647D01*
X224935143Y-123403647D01*
X224934524Y-123468550D01*
X224931686Y-123511514D01*
X224925160Y-123539622D01*
X224913477Y-123559953D01*
X224899517Y-123575288D01*
X224852635Y-123604890D01*
X224802299Y-123607419D01*
X224754724Y-123582705D01*
X224751021Y-123579356D01*
X224735217Y-123561935D01*
X224725307Y-123541209D01*
X224719942Y-123510362D01*
X224717772Y-123462577D01*
X224717429Y-123409748D01*
X224718173Y-123343381D01*
X224721252Y-123299106D01*
X224727939Y-123270009D01*
X224739504Y-123249173D01*
X224748987Y-123238107D01*
X224793040Y-123210198D01*
X224843776Y-123206843D01*
X224892204Y-123228159D01*
X224901550Y-123236073D01*
X224917460Y-123253647D01*
X224927390Y-123274587D01*
X224932722Y-123305782D01*
X224934837Y-123354122D01*
X224935143Y-123403647D01*
X225036542Y-123403647D01*
X225033190Y-123316568D01*
X225021274Y-123248086D01*
X224998865Y-123196600D01*
X224963876Y-123156443D01*
X224936625Y-123135861D01*
X224887093Y-123113625D01*
X224829684Y-123103304D01*
X224776318Y-123106067D01*
X224746457Y-123117212D01*
X224734739Y-123120383D01*
X224726963Y-123108557D01*
X224721535Y-123076866D01*
X224717429Y-123028593D01*
X224712933Y-122974829D01*
X224706687Y-122942482D01*
X224695324Y-122923985D01*
X224675472Y-122911770D01*
X224663000Y-122906362D01*
X224615829Y-122886601D01*
X224615883Y-123223358D01*
G37*
X224615883Y-123223358D02*
X224616067Y-123331837D01*
X224616781Y-123415287D01*
X224618325Y-123477704D01*
X224620999Y-123523085D01*
X224625106Y-123555429D01*
X224630945Y-123578733D01*
X224638818Y-123596995D01*
X224644779Y-123607418D01*
X224694145Y-123663945D01*
X224756736Y-123699377D01*
X224825987Y-123712090D01*
X224895332Y-123700463D01*
X224936625Y-123679568D01*
X224979975Y-123643422D01*
X225009519Y-123599276D01*
X225027345Y-123541462D01*
X225035537Y-123464313D01*
X225036698Y-123407714D01*
X225036542Y-123403647D01*
X224935143Y-123403647D01*
X224934524Y-123468550D01*
X224931686Y-123511514D01*
X224925160Y-123539622D01*
X224913477Y-123559953D01*
X224899517Y-123575288D01*
X224852635Y-123604890D01*
X224802299Y-123607419D01*
X224754724Y-123582705D01*
X224751021Y-123579356D01*
X224735217Y-123561935D01*
X224725307Y-123541209D01*
X224719942Y-123510362D01*
X224717772Y-123462577D01*
X224717429Y-123409748D01*
X224718173Y-123343381D01*
X224721252Y-123299106D01*
X224727939Y-123270009D01*
X224739504Y-123249173D01*
X224748987Y-123238107D01*
X224793040Y-123210198D01*
X224843776Y-123206843D01*
X224892204Y-123228159D01*
X224901550Y-123236073D01*
X224917460Y-123253647D01*
X224927390Y-123274587D01*
X224932722Y-123305782D01*
X224934837Y-123354122D01*
X224935143Y-123403647D01*
X225036542Y-123403647D01*
X225033190Y-123316568D01*
X225021274Y-123248086D01*
X224998865Y-123196600D01*
X224963876Y-123156443D01*
X224936625Y-123135861D01*
X224887093Y-123113625D01*
X224829684Y-123103304D01*
X224776318Y-123106067D01*
X224746457Y-123117212D01*
X224734739Y-123120383D01*
X224726963Y-123108557D01*
X224721535Y-123076866D01*
X224717429Y-123028593D01*
X224712933Y-122974829D01*
X224706687Y-122942482D01*
X224695324Y-122923985D01*
X224675472Y-122911770D01*
X224663000Y-122906362D01*
X224615829Y-122886601D01*
X224615883Y-123223358D01*
G36*
X225276074Y-123107755D02*
G01*
X225210142Y-123132084D01*
X225156727Y-123175117D01*
X225135836Y-123205409D01*
X225113061Y-123260994D01*
X225113534Y-123301186D01*
X225137438Y-123328217D01*
X225146283Y-123332813D01*
X225184470Y-123347144D01*
X225203972Y-123343472D01*
X225210578Y-123319407D01*
X225210914Y-123306114D01*
X225223008Y-123257210D01*
X225254529Y-123222999D01*
X225298341Y-123206476D01*
X225347305Y-123210634D01*
X225387106Y-123232227D01*
X225400550Y-123244544D01*
X225410079Y-123259487D01*
X225416515Y-123282075D01*
X225420683Y-123317328D01*
X225423403Y-123370266D01*
X225425498Y-123445907D01*
X225426040Y-123469857D01*
X225428019Y-123551790D01*
X225430269Y-123609455D01*
X225433643Y-123647608D01*
X225438994Y-123671004D01*
X225447176Y-123684398D01*
X225459041Y-123692545D01*
X225466638Y-123696144D01*
X225498898Y-123708452D01*
X225517889Y-123712514D01*
X225524164Y-123698948D01*
X225527994Y-123657934D01*
X225529400Y-123588999D01*
X225528402Y-123491669D01*
X225528092Y-123476657D01*
X225525899Y-123387859D01*
X225523307Y-123323019D01*
X225519618Y-123277067D01*
X225514136Y-123244935D01*
X225506165Y-123221553D01*
X225495007Y-123201852D01*
X225489170Y-123193410D01*
X225455704Y-123156057D01*
X225418273Y-123127003D01*
X225413691Y-123124467D01*
X225346574Y-123104443D01*
X225276074Y-123107755D01*
G37*
X225276074Y-123107755D02*
X225210142Y-123132084D01*
X225156727Y-123175117D01*
X225135836Y-123205409D01*
X225113061Y-123260994D01*
X225113534Y-123301186D01*
X225137438Y-123328217D01*
X225146283Y-123332813D01*
X225184470Y-123347144D01*
X225203972Y-123343472D01*
X225210578Y-123319407D01*
X225210914Y-123306114D01*
X225223008Y-123257210D01*
X225254529Y-123222999D01*
X225298341Y-123206476D01*
X225347305Y-123210634D01*
X225387106Y-123232227D01*
X225400550Y-123244544D01*
X225410079Y-123259487D01*
X225416515Y-123282075D01*
X225420683Y-123317328D01*
X225423403Y-123370266D01*
X225425498Y-123445907D01*
X225426040Y-123469857D01*
X225428019Y-123551790D01*
X225430269Y-123609455D01*
X225433643Y-123647608D01*
X225438994Y-123671004D01*
X225447176Y-123684398D01*
X225459041Y-123692545D01*
X225466638Y-123696144D01*
X225498898Y-123708452D01*
X225517889Y-123712514D01*
X225524164Y-123698948D01*
X225527994Y-123657934D01*
X225529400Y-123588999D01*
X225528402Y-123491669D01*
X225528092Y-123476657D01*
X225525899Y-123387859D01*
X225523307Y-123323019D01*
X225519618Y-123277067D01*
X225514136Y-123244935D01*
X225506165Y-123221553D01*
X225495007Y-123201852D01*
X225489170Y-123193410D01*
X225455704Y-123156057D01*
X225418273Y-123127003D01*
X225413691Y-123124467D01*
X225346574Y-123104443D01*
X225276074Y-123107755D01*
G36*
X225766256Y-123108968D02*
G01*
X225709384Y-123130087D01*
X225708733Y-123130493D01*
X225673560Y-123156380D01*
X225647593Y-123186633D01*
X225629330Y-123226058D01*
X225617268Y-123279462D01*
X225609904Y-123351651D01*
X225605736Y-123447432D01*
X225605371Y-123461078D01*
X225600124Y-123666842D01*
X225644284Y-123689678D01*
X225676237Y-123705110D01*
X225695530Y-123712423D01*
X225696422Y-123712514D01*
X225699761Y-123699022D01*
X225702413Y-123662626D01*
X225704044Y-123609452D01*
X225704400Y-123566393D01*
X225704408Y-123496641D01*
X225707597Y-123452837D01*
X225718712Y-123431944D01*
X225742499Y-123430925D01*
X225783704Y-123446741D01*
X225845914Y-123475815D01*
X225891659Y-123499963D01*
X225915187Y-123520913D01*
X225922104Y-123543747D01*
X225922114Y-123544877D01*
X225910701Y-123584212D01*
X225876908Y-123605462D01*
X225825191Y-123608539D01*
X225787939Y-123608006D01*
X225768297Y-123618735D01*
X225756048Y-123644505D01*
X225748998Y-123677337D01*
X225759158Y-123695966D01*
X225762983Y-123698632D01*
X225798999Y-123709340D01*
X225849434Y-123710856D01*
X225901374Y-123703759D01*
X225938178Y-123690788D01*
X225989062Y-123647585D01*
X226017986Y-123587446D01*
X226023714Y-123540462D01*
X226019343Y-123498082D01*
X226003525Y-123463488D01*
X225972203Y-123432763D01*
X225921322Y-123401990D01*
X225846824Y-123367252D01*
X225842286Y-123365288D01*
X225775179Y-123334287D01*
X225733768Y-123308862D01*
X225716019Y-123286014D01*
X225719893Y-123262745D01*
X225743357Y-123236056D01*
X225750373Y-123229914D01*
X225797370Y-123206100D01*
X225846067Y-123207103D01*
X225888478Y-123230451D01*
X225916616Y-123273675D01*
X225919231Y-123282160D01*
X225944692Y-123323308D01*
X225976999Y-123343128D01*
X226023714Y-123362770D01*
X226023714Y-123311950D01*
X226009504Y-123238082D01*
X225967325Y-123170327D01*
X225945376Y-123147661D01*
X225895483Y-123118569D01*
X225832033Y-123105400D01*
X225766256Y-123108968D01*
G37*
X225766256Y-123108968D02*
X225709384Y-123130087D01*
X225708733Y-123130493D01*
X225673560Y-123156380D01*
X225647593Y-123186633D01*
X225629330Y-123226058D01*
X225617268Y-123279462D01*
X225609904Y-123351651D01*
X225605736Y-123447432D01*
X225605371Y-123461078D01*
X225600124Y-123666842D01*
X225644284Y-123689678D01*
X225676237Y-123705110D01*
X225695530Y-123712423D01*
X225696422Y-123712514D01*
X225699761Y-123699022D01*
X225702413Y-123662626D01*
X225704044Y-123609452D01*
X225704400Y-123566393D01*
X225704408Y-123496641D01*
X225707597Y-123452837D01*
X225718712Y-123431944D01*
X225742499Y-123430925D01*
X225783704Y-123446741D01*
X225845914Y-123475815D01*
X225891659Y-123499963D01*
X225915187Y-123520913D01*
X225922104Y-123543747D01*
X225922114Y-123544877D01*
X225910701Y-123584212D01*
X225876908Y-123605462D01*
X225825191Y-123608539D01*
X225787939Y-123608006D01*
X225768297Y-123618735D01*
X225756048Y-123644505D01*
X225748998Y-123677337D01*
X225759158Y-123695966D01*
X225762983Y-123698632D01*
X225798999Y-123709340D01*
X225849434Y-123710856D01*
X225901374Y-123703759D01*
X225938178Y-123690788D01*
X225989062Y-123647585D01*
X226017986Y-123587446D01*
X226023714Y-123540462D01*
X226019343Y-123498082D01*
X226003525Y-123463488D01*
X225972203Y-123432763D01*
X225921322Y-123401990D01*
X225846824Y-123367252D01*
X225842286Y-123365288D01*
X225775179Y-123334287D01*
X225733768Y-123308862D01*
X225716019Y-123286014D01*
X225719893Y-123262745D01*
X225743357Y-123236056D01*
X225750373Y-123229914D01*
X225797370Y-123206100D01*
X225846067Y-123207103D01*
X225888478Y-123230451D01*
X225916616Y-123273675D01*
X225919231Y-123282160D01*
X225944692Y-123323308D01*
X225976999Y-123343128D01*
X226023714Y-123362770D01*
X226023714Y-123311950D01*
X226009504Y-123238082D01*
X225967325Y-123170327D01*
X225945376Y-123147661D01*
X225895483Y-123118569D01*
X225832033Y-123105400D01*
X225766256Y-123108968D01*
G36*
X226430114Y-123009289D02*
G01*
X226425861Y-123068613D01*
X226420975Y-123103572D01*
X226414205Y-123118820D01*
X226404298Y-123119015D01*
X226401086Y-123117195D01*
X226358356Y-123104015D01*
X226302773Y-123104785D01*
X226246263Y-123118333D01*
X226210918Y-123135861D01*
X226174679Y-123163861D01*
X226148187Y-123195549D01*
X226130001Y-123235813D01*
X226118678Y-123289543D01*
X226112778Y-123361626D01*
X226110857Y-123456951D01*
X226110823Y-123475237D01*
X226110800Y-123680646D01*
X226156509Y-123696580D01*
X226188973Y-123707420D01*
X226206785Y-123712468D01*
X226207309Y-123712514D01*
X226209063Y-123698828D01*
X226210556Y-123661076D01*
X226211674Y-123604224D01*
X226212303Y-123533234D01*
X226212400Y-123490073D01*
X226212602Y-123404973D01*
X226213642Y-123343981D01*
X226216169Y-123302177D01*
X226220836Y-123274642D01*
X226228293Y-123256456D01*
X226239189Y-123242698D01*
X226245993Y-123236073D01*
X226292728Y-123209375D01*
X226343728Y-123207375D01*
X226389999Y-123229955D01*
X226398556Y-123238107D01*
X226411107Y-123253436D01*
X226419812Y-123271618D01*
X226425369Y-123297909D01*
X226428474Y-123337562D01*
X226429824Y-123395832D01*
X226430114Y-123476173D01*
X226430114Y-123680646D01*
X226475823Y-123696580D01*
X226508287Y-123707420D01*
X226526099Y-123712468D01*
X226526623Y-123712514D01*
X226527963Y-123698623D01*
X226529172Y-123659439D01*
X226530199Y-123598700D01*
X226530998Y-123520141D01*
X226531519Y-123427498D01*
X226531714Y-123324509D01*
X226531714Y-122927342D01*
X226484543Y-122907444D01*
X226437371Y-122887547D01*
X226430114Y-123009289D01*
G37*
X226430114Y-123009289D02*
X226425861Y-123068613D01*
X226420975Y-123103572D01*
X226414205Y-123118820D01*
X226404298Y-123119015D01*
X226401086Y-123117195D01*
X226358356Y-123104015D01*
X226302773Y-123104785D01*
X226246263Y-123118333D01*
X226210918Y-123135861D01*
X226174679Y-123163861D01*
X226148187Y-123195549D01*
X226130001Y-123235813D01*
X226118678Y-123289543D01*
X226112778Y-123361626D01*
X226110857Y-123456951D01*
X226110823Y-123475237D01*
X226110800Y-123680646D01*
X226156509Y-123696580D01*
X226188973Y-123707420D01*
X226206785Y-123712468D01*
X226207309Y-123712514D01*
X226209063Y-123698828D01*
X226210556Y-123661076D01*
X226211674Y-123604224D01*
X226212303Y-123533234D01*
X226212400Y-123490073D01*
X226212602Y-123404973D01*
X226213642Y-123343981D01*
X226216169Y-123302177D01*
X226220836Y-123274642D01*
X226228293Y-123256456D01*
X226239189Y-123242698D01*
X226245993Y-123236073D01*
X226292728Y-123209375D01*
X226343728Y-123207375D01*
X226389999Y-123229955D01*
X226398556Y-123238107D01*
X226411107Y-123253436D01*
X226419812Y-123271618D01*
X226425369Y-123297909D01*
X226428474Y-123337562D01*
X226429824Y-123395832D01*
X226430114Y-123476173D01*
X226430114Y-123680646D01*
X226475823Y-123696580D01*
X226508287Y-123707420D01*
X226526099Y-123712468D01*
X226526623Y-123712514D01*
X226527963Y-123698623D01*
X226529172Y-123659439D01*
X226530199Y-123598700D01*
X226530998Y-123520141D01*
X226531519Y-123427498D01*
X226531714Y-123324509D01*
X226531714Y-122927342D01*
X226484543Y-122907444D01*
X226437371Y-122887547D01*
X226430114Y-123009289D01*
G36*
X227637697Y-123089239D02*
G01*
X227580473Y-123127735D01*
X227536251Y-123183335D01*
X227509833Y-123254086D01*
X227504490Y-123306162D01*
X227505097Y-123327893D01*
X227510178Y-123344531D01*
X227524145Y-123359437D01*
X227551411Y-123375973D01*
X227596388Y-123397498D01*
X227663489Y-123427374D01*
X227663829Y-123427524D01*
X227725593Y-123455813D01*
X227776241Y-123480933D01*
X227810596Y-123500179D01*
X227823482Y-123510848D01*
X227823486Y-123510934D01*
X227812128Y-123534166D01*
X227785569Y-123559774D01*
X227755077Y-123578221D01*
X227739630Y-123581886D01*
X227697485Y-123569212D01*
X227661192Y-123537471D01*
X227643483Y-123502572D01*
X227626448Y-123476845D01*
X227593078Y-123447546D01*
X227553851Y-123422235D01*
X227519244Y-123408471D01*
X227512007Y-123407714D01*
X227503861Y-123420160D01*
X227503370Y-123451972D01*
X227509357Y-123494866D01*
X227520643Y-123540558D01*
X227536050Y-123580761D01*
X227536829Y-123582322D01*
X227583196Y-123647062D01*
X227643289Y-123691097D01*
X227711535Y-123712711D01*
X227782362Y-123710185D01*
X227850196Y-123681804D01*
X227853212Y-123679808D01*
X227906573Y-123631448D01*
X227941660Y-123568352D01*
X227961078Y-123485387D01*
X227963684Y-123462078D01*
X227968299Y-123352055D01*
X227962767Y-123300748D01*
X227823486Y-123300748D01*
X227821676Y-123332753D01*
X227811778Y-123342093D01*
X227787102Y-123335105D01*
X227748205Y-123318587D01*
X227704725Y-123297881D01*
X227703644Y-123297333D01*
X227666791Y-123277949D01*
X227652000Y-123265013D01*
X227655647Y-123251451D01*
X227671005Y-123233632D01*
X227710077Y-123207845D01*
X227752154Y-123205950D01*
X227789897Y-123224717D01*
X227815966Y-123260915D01*
X227823486Y-123300748D01*
X227962767Y-123300748D01*
X227958806Y-123264027D01*
X227934450Y-123194212D01*
X227900544Y-123145302D01*
X227839347Y-123095878D01*
X227771937Y-123071359D01*
X227703120Y-123069797D01*
X227637697Y-123089239D01*
G37*
X227637697Y-123089239D02*
X227580473Y-123127735D01*
X227536251Y-123183335D01*
X227509833Y-123254086D01*
X227504490Y-123306162D01*
X227505097Y-123327893D01*
X227510178Y-123344531D01*
X227524145Y-123359437D01*
X227551411Y-123375973D01*
X227596388Y-123397498D01*
X227663489Y-123427374D01*
X227663829Y-123427524D01*
X227725593Y-123455813D01*
X227776241Y-123480933D01*
X227810596Y-123500179D01*
X227823482Y-123510848D01*
X227823486Y-123510934D01*
X227812128Y-123534166D01*
X227785569Y-123559774D01*
X227755077Y-123578221D01*
X227739630Y-123581886D01*
X227697485Y-123569212D01*
X227661192Y-123537471D01*
X227643483Y-123502572D01*
X227626448Y-123476845D01*
X227593078Y-123447546D01*
X227553851Y-123422235D01*
X227519244Y-123408471D01*
X227512007Y-123407714D01*
X227503861Y-123420160D01*
X227503370Y-123451972D01*
X227509357Y-123494866D01*
X227520643Y-123540558D01*
X227536050Y-123580761D01*
X227536829Y-123582322D01*
X227583196Y-123647062D01*
X227643289Y-123691097D01*
X227711535Y-123712711D01*
X227782362Y-123710185D01*
X227850196Y-123681804D01*
X227853212Y-123679808D01*
X227906573Y-123631448D01*
X227941660Y-123568352D01*
X227961078Y-123485387D01*
X227963684Y-123462078D01*
X227968299Y-123352055D01*
X227962767Y-123300748D01*
X227823486Y-123300748D01*
X227821676Y-123332753D01*
X227811778Y-123342093D01*
X227787102Y-123335105D01*
X227748205Y-123318587D01*
X227704725Y-123297881D01*
X227703644Y-123297333D01*
X227666791Y-123277949D01*
X227652000Y-123265013D01*
X227655647Y-123251451D01*
X227671005Y-123233632D01*
X227710077Y-123207845D01*
X227752154Y-123205950D01*
X227789897Y-123224717D01*
X227815966Y-123260915D01*
X227823486Y-123300748D01*
X227962767Y-123300748D01*
X227958806Y-123264027D01*
X227934450Y-123194212D01*
X227900544Y-123145302D01*
X227839347Y-123095878D01*
X227771937Y-123071359D01*
X227703120Y-123069797D01*
X227637697Y-123089239D01*
G36*
X228764885Y-123079962D02*
G01*
X228696855Y-123115733D01*
X228646649Y-123173301D01*
X228628815Y-123210312D01*
X228614937Y-123265882D01*
X228607833Y-123336096D01*
X228607160Y-123412727D01*
X228612573Y-123487552D01*
X228623730Y-123552342D01*
X228640286Y-123598873D01*
X228645374Y-123606887D01*
X228705645Y-123666707D01*
X228777231Y-123702535D01*
X228854908Y-123713020D01*
X228933452Y-123696810D01*
X228955311Y-123687092D01*
X228997878Y-123657143D01*
X229035237Y-123617433D01*
X229038768Y-123612397D01*
X229053119Y-123588124D01*
X229062606Y-123562178D01*
X229068210Y-123528022D01*
X229070914Y-123479119D01*
X229071701Y-123408935D01*
X229071714Y-123393200D01*
X229071678Y-123388192D01*
X228926571Y-123388192D01*
X228925727Y-123454430D01*
X228922404Y-123498386D01*
X228915417Y-123526779D01*
X228903584Y-123546325D01*
X228897543Y-123552857D01*
X228862814Y-123577680D01*
X228829097Y-123576548D01*
X228795005Y-123555016D01*
X228774671Y-123532029D01*
X228762629Y-123498478D01*
X228755866Y-123445569D01*
X228755402Y-123439399D01*
X228754248Y-123343513D01*
X228766312Y-123272299D01*
X228791430Y-123226194D01*
X228829440Y-123205635D01*
X228843008Y-123204514D01*
X228878636Y-123210152D01*
X228903006Y-123229686D01*
X228917907Y-123267042D01*
X228925125Y-123326150D01*
X228926571Y-123388192D01*
X229071678Y-123388192D01*
X229071174Y-123318413D01*
X229068904Y-123266159D01*
X229063932Y-123229949D01*
X229055287Y-123203299D01*
X229041995Y-123179722D01*
X229039057Y-123175338D01*
X228989687Y-123116249D01*
X228935891Y-123081947D01*
X228870398Y-123068331D01*
X228848158Y-123067665D01*
X228764885Y-123079962D01*
G37*
X228764885Y-123079962D02*
X228696855Y-123115733D01*
X228646649Y-123173301D01*
X228628815Y-123210312D01*
X228614937Y-123265882D01*
X228607833Y-123336096D01*
X228607160Y-123412727D01*
X228612573Y-123487552D01*
X228623730Y-123552342D01*
X228640286Y-123598873D01*
X228645374Y-123606887D01*
X228705645Y-123666707D01*
X228777231Y-123702535D01*
X228854908Y-123713020D01*
X228933452Y-123696810D01*
X228955311Y-123687092D01*
X228997878Y-123657143D01*
X229035237Y-123617433D01*
X229038768Y-123612397D01*
X229053119Y-123588124D01*
X229062606Y-123562178D01*
X229068210Y-123528022D01*
X229070914Y-123479119D01*
X229071701Y-123408935D01*
X229071714Y-123393200D01*
X229071678Y-123388192D01*
X228926571Y-123388192D01*
X228925727Y-123454430D01*
X228922404Y-123498386D01*
X228915417Y-123526779D01*
X228903584Y-123546325D01*
X228897543Y-123552857D01*
X228862814Y-123577680D01*
X228829097Y-123576548D01*
X228795005Y-123555016D01*
X228774671Y-123532029D01*
X228762629Y-123498478D01*
X228755866Y-123445569D01*
X228755402Y-123439399D01*
X228754248Y-123343513D01*
X228766312Y-123272299D01*
X228791430Y-123226194D01*
X228829440Y-123205635D01*
X228843008Y-123204514D01*
X228878636Y-123210152D01*
X228903006Y-123229686D01*
X228917907Y-123267042D01*
X228925125Y-123326150D01*
X228926571Y-123388192D01*
X229071678Y-123388192D01*
X229071174Y-123318413D01*
X229068904Y-123266159D01*
X229063932Y-123229949D01*
X229055287Y-123203299D01*
X229041995Y-123179722D01*
X229039057Y-123175338D01*
X228989687Y-123116249D01*
X228935891Y-123081947D01*
X228870398Y-123068331D01*
X228848158Y-123067665D01*
X228764885Y-123079962D01*
G36*
X227089907Y-123085780D02*
G01*
X227043328Y-123112723D01*
X227010943Y-123139466D01*
X226987258Y-123167484D01*
X226970941Y-123201748D01*
X226960661Y-123247227D01*
X226955086Y-123308892D01*
X226952884Y-123391711D01*
X226952629Y-123451246D01*
X226952629Y-123670391D01*
X227014314Y-123698044D01*
X227076000Y-123725697D01*
X227083257Y-123485670D01*
X227086256Y-123396028D01*
X227089402Y-123330962D01*
X227093299Y-123286026D01*
X227098553Y-123256770D01*
X227105769Y-123238748D01*
X227115550Y-123227511D01*
X227118688Y-123225079D01*
X227166239Y-123206083D01*
X227214303Y-123213600D01*
X227242914Y-123233543D01*
X227254553Y-123247675D01*
X227262609Y-123266220D01*
X227267729Y-123294334D01*
X227270559Y-123337173D01*
X227271744Y-123399895D01*
X227271943Y-123465261D01*
X227271982Y-123547268D01*
X227273386Y-123605316D01*
X227278086Y-123644465D01*
X227288013Y-123669780D01*
X227305097Y-123686323D01*
X227331268Y-123699156D01*
X227366225Y-123712491D01*
X227404404Y-123727007D01*
X227399859Y-123469389D01*
X227398029Y-123376519D01*
X227395888Y-123307889D01*
X227392819Y-123258711D01*
X227388206Y-123224198D01*
X227381432Y-123199562D01*
X227371881Y-123180016D01*
X227360366Y-123162770D01*
X227304810Y-123107680D01*
X227237020Y-123075822D01*
X227163287Y-123068191D01*
X227089907Y-123085780D01*
G37*
X227089907Y-123085780D02*
X227043328Y-123112723D01*
X227010943Y-123139466D01*
X226987258Y-123167484D01*
X226970941Y-123201748D01*
X226960661Y-123247227D01*
X226955086Y-123308892D01*
X226952884Y-123391711D01*
X226952629Y-123451246D01*
X226952629Y-123670391D01*
X227014314Y-123698044D01*
X227076000Y-123725697D01*
X227083257Y-123485670D01*
X227086256Y-123396028D01*
X227089402Y-123330962D01*
X227093299Y-123286026D01*
X227098553Y-123256770D01*
X227105769Y-123238748D01*
X227115550Y-123227511D01*
X227118688Y-123225079D01*
X227166239Y-123206083D01*
X227214303Y-123213600D01*
X227242914Y-123233543D01*
X227254553Y-123247675D01*
X227262609Y-123266220D01*
X227267729Y-123294334D01*
X227270559Y-123337173D01*
X227271744Y-123399895D01*
X227271943Y-123465261D01*
X227271982Y-123547268D01*
X227273386Y-123605316D01*
X227278086Y-123644465D01*
X227288013Y-123669780D01*
X227305097Y-123686323D01*
X227331268Y-123699156D01*
X227366225Y-123712491D01*
X227404404Y-123727007D01*
X227399859Y-123469389D01*
X227398029Y-123376519D01*
X227395888Y-123307889D01*
X227392819Y-123258711D01*
X227388206Y-123224198D01*
X227381432Y-123199562D01*
X227371881Y-123180016D01*
X227360366Y-123162770D01*
X227304810Y-123107680D01*
X227237020Y-123075822D01*
X227163287Y-123068191D01*
X227089907Y-123085780D01*
G36*
X228206256Y-123077918D02*
G01*
X228150799Y-123105568D01*
X228101852Y-123156480D01*
X228088371Y-123175338D01*
X228073686Y-123200015D01*
X228064158Y-123226816D01*
X228058707Y-123262587D01*
X228056253Y-123314169D01*
X228055714Y-123382267D01*
X228058148Y-123475588D01*
X228066606Y-123545657D01*
X228082826Y-123597931D01*
X228108546Y-123637869D01*
X228145503Y-123670929D01*
X228148218Y-123672886D01*
X228184640Y-123692908D01*
X228228498Y-123702815D01*
X228284276Y-123705257D01*
X228374952Y-123705257D01*
X228374990Y-123793283D01*
X228375834Y-123842308D01*
X228380976Y-123871065D01*
X228394413Y-123888311D01*
X228420142Y-123902808D01*
X228426321Y-123905769D01*
X228455236Y-123919648D01*
X228477624Y-123928414D01*
X228494271Y-123929171D01*
X228505964Y-123919023D01*
X228513490Y-123895073D01*
X228517634Y-123854426D01*
X228519185Y-123794186D01*
X228518929Y-123711455D01*
X228517651Y-123603339D01*
X228517252Y-123571000D01*
X228515815Y-123459524D01*
X228514528Y-123386603D01*
X228375029Y-123386603D01*
X228374245Y-123448499D01*
X228370760Y-123488997D01*
X228362876Y-123515708D01*
X228348895Y-123536244D01*
X228339403Y-123546260D01*
X228300596Y-123575567D01*
X228266237Y-123577952D01*
X228230784Y-123553750D01*
X228229886Y-123552857D01*
X228215461Y-123534153D01*
X228206687Y-123508732D01*
X228202261Y-123469584D01*
X228200882Y-123409697D01*
X228200857Y-123396430D01*
X228204188Y-123313901D01*
X228215031Y-123256691D01*
X228234660Y-123221766D01*
X228264350Y-123206094D01*
X228281509Y-123204514D01*
X228322234Y-123211926D01*
X228350168Y-123236330D01*
X228366983Y-123280980D01*
X228374350Y-123349130D01*
X228375029Y-123386603D01*
X228514528Y-123386603D01*
X228514292Y-123373245D01*
X228512323Y-123308333D01*
X228509550Y-123260958D01*
X228505612Y-123227290D01*
X228500151Y-123203498D01*
X228492808Y-123185753D01*
X228483223Y-123170224D01*
X228479113Y-123164381D01*
X228424595Y-123109185D01*
X228355664Y-123077890D01*
X228275928Y-123069165D01*
X228206256Y-123077918D01*
G37*
X228206256Y-123077918D02*
X228150799Y-123105568D01*
X228101852Y-123156480D01*
X228088371Y-123175338D01*
X228073686Y-123200015D01*
X228064158Y-123226816D01*
X228058707Y-123262587D01*
X228056253Y-123314169D01*
X228055714Y-123382267D01*
X228058148Y-123475588D01*
X228066606Y-123545657D01*
X228082826Y-123597931D01*
X228108546Y-123637869D01*
X228145503Y-123670929D01*
X228148218Y-123672886D01*
X228184640Y-123692908D01*
X228228498Y-123702815D01*
X228284276Y-123705257D01*
X228374952Y-123705257D01*
X228374990Y-123793283D01*
X228375834Y-123842308D01*
X228380976Y-123871065D01*
X228394413Y-123888311D01*
X228420142Y-123902808D01*
X228426321Y-123905769D01*
X228455236Y-123919648D01*
X228477624Y-123928414D01*
X228494271Y-123929171D01*
X228505964Y-123919023D01*
X228513490Y-123895073D01*
X228517634Y-123854426D01*
X228519185Y-123794186D01*
X228518929Y-123711455D01*
X228517651Y-123603339D01*
X228517252Y-123571000D01*
X228515815Y-123459524D01*
X228514528Y-123386603D01*
X228375029Y-123386603D01*
X228374245Y-123448499D01*
X228370760Y-123488997D01*
X228362876Y-123515708D01*
X228348895Y-123536244D01*
X228339403Y-123546260D01*
X228300596Y-123575567D01*
X228266237Y-123577952D01*
X228230784Y-123553750D01*
X228229886Y-123552857D01*
X228215461Y-123534153D01*
X228206687Y-123508732D01*
X228202261Y-123469584D01*
X228200882Y-123409697D01*
X228200857Y-123396430D01*
X228204188Y-123313901D01*
X228215031Y-123256691D01*
X228234660Y-123221766D01*
X228264350Y-123206094D01*
X228281509Y-123204514D01*
X228322234Y-123211926D01*
X228350168Y-123236330D01*
X228366983Y-123280980D01*
X228374350Y-123349130D01*
X228375029Y-123386603D01*
X228514528Y-123386603D01*
X228514292Y-123373245D01*
X228512323Y-123308333D01*
X228509550Y-123260958D01*
X228505612Y-123227290D01*
X228500151Y-123203498D01*
X228492808Y-123185753D01*
X228483223Y-123170224D01*
X228479113Y-123164381D01*
X228424595Y-123109185D01*
X228355664Y-123077890D01*
X228275928Y-123069165D01*
X228206256Y-123077918D01*
D11*
X355099252Y-66242000D02*
X354576748Y-66242000D01*
X355099252Y-64822000D02*
X354576748Y-64822000D01*
X236168000Y-111513252D02*
X236168000Y-110990748D01*
X234748000Y-111513252D02*
X234748000Y-110990748D01*
X277443000Y-111513252D02*
X277443000Y-110990748D01*
X276023000Y-111513252D02*
X276023000Y-110990748D01*
X329640000Y-112021252D02*
X329640000Y-111498748D01*
X328220000Y-112021252D02*
X328220000Y-111498748D01*
X359993000Y-111640252D02*
X359993000Y-111117748D01*
X358573000Y-111640252D02*
X358573000Y-111117748D01*
X354464252Y-84126000D02*
X353941748Y-84126000D01*
X354464252Y-85546000D02*
X353941748Y-85546000D01*
X361072500Y-50267502D02*
X361072500Y-49744998D01*
X359652500Y-50267502D02*
X359652500Y-49744998D01*
X318695000Y-53840748D02*
X318695000Y-54363252D01*
X320115000Y-53840748D02*
X320115000Y-54363252D01*
X277420000Y-53840748D02*
X277420000Y-54363252D01*
X278840000Y-53840748D02*
X278840000Y-54363252D01*
X236272000Y-51935748D02*
X236272000Y-52458252D01*
X237692000Y-51935748D02*
X237692000Y-52458252D01*
X356691000Y-70604748D02*
X356691000Y-71127252D01*
X355271000Y-70604748D02*
X355271000Y-71127252D01*
D12*
X371850000Y-125025000D02*
X377750000Y-125025000D01*
X371850000Y-122625000D02*
X371850000Y-125025000D01*
X377750000Y-122625000D02*
X371850000Y-122625000D01*
X377450000Y-125025000D02*
X377450000Y-122625000D01*
X377350000Y-125025000D02*
X377350000Y-122625000D01*
X377550000Y-125025000D02*
X377550000Y-122625000D01*
X377650000Y-125025000D02*
X377650000Y-122625000D01*
X377750000Y-125025000D02*
X377750000Y-122625000D01*
X352800000Y-125025000D02*
X358700000Y-125025000D01*
X352800000Y-122625000D02*
X352800000Y-125025000D01*
X358700000Y-122625000D02*
X352800000Y-122625000D01*
X358400000Y-125025000D02*
X358400000Y-122625000D01*
X358300000Y-125025000D02*
X358300000Y-122625000D01*
X358500000Y-125025000D02*
X358500000Y-122625000D01*
X358600000Y-125025000D02*
X358600000Y-122625000D01*
X358700000Y-125025000D02*
X358700000Y-122625000D01*
X369468750Y-105975000D02*
X375368750Y-105975000D01*
X369468750Y-103575000D02*
X369468750Y-105975000D01*
X375368750Y-103575000D02*
X369468750Y-103575000D01*
X375068750Y-105975000D02*
X375068750Y-103575000D01*
X374968750Y-105975000D02*
X374968750Y-103575000D01*
X375168750Y-105975000D02*
X375168750Y-103575000D01*
X375268750Y-105975000D02*
X375268750Y-103575000D01*
X375368750Y-105975000D02*
X375368750Y-103575000D01*
X352800000Y-105975000D02*
X358700000Y-105975000D01*
X352800000Y-103575000D02*
X352800000Y-105975000D01*
X358700000Y-103575000D02*
X352800000Y-103575000D01*
X358400000Y-105975000D02*
X358400000Y-103575000D01*
X358300000Y-105975000D02*
X358300000Y-103575000D01*
X358500000Y-105975000D02*
X358500000Y-103575000D01*
X358600000Y-105975000D02*
X358600000Y-103575000D01*
X358700000Y-105975000D02*
X358700000Y-103575000D01*
X371850000Y-86925000D02*
X377750000Y-86925000D01*
X371850000Y-84525000D02*
X371850000Y-86925000D01*
X377750000Y-84525000D02*
X371850000Y-84525000D01*
X377450000Y-86925000D02*
X377450000Y-84525000D01*
X377350000Y-86925000D02*
X377350000Y-84525000D01*
X377550000Y-86925000D02*
X377550000Y-84525000D01*
X377650000Y-86925000D02*
X377650000Y-84525000D01*
X377750000Y-86925000D02*
X377750000Y-84525000D01*
X340893750Y-86925000D02*
X346793750Y-86925000D01*
X340893750Y-84525000D02*
X340893750Y-86925000D01*
X346793750Y-84525000D02*
X340893750Y-84525000D01*
X346493750Y-86925000D02*
X346493750Y-84525000D01*
X346393750Y-86925000D02*
X346393750Y-84525000D01*
X346593750Y-86925000D02*
X346593750Y-84525000D01*
X346693750Y-86925000D02*
X346693750Y-84525000D01*
X346793750Y-86925000D02*
X346793750Y-84525000D01*
X375831250Y-65462500D02*
X375831250Y-71362500D01*
X378231250Y-65462500D02*
X375831250Y-65462500D01*
X378231250Y-71362500D02*
X378231250Y-65462500D01*
X375831250Y-71062500D02*
X378231250Y-71062500D01*
X375831250Y-70962500D02*
X378231250Y-70962500D01*
X375831250Y-71162500D02*
X378231250Y-71162500D01*
X375831250Y-71262500D02*
X378231250Y-71262500D01*
X375831250Y-71362500D02*
X378231250Y-71362500D01*
X338512500Y-67875000D02*
X344412500Y-67875000D01*
X338512500Y-65475000D02*
X338512500Y-67875000D01*
X344412500Y-65475000D02*
X338512500Y-65475000D01*
X344112500Y-67875000D02*
X344112500Y-65475000D01*
X344012500Y-67875000D02*
X344012500Y-65475000D01*
X344212500Y-67875000D02*
X344212500Y-65475000D01*
X344312500Y-67875000D02*
X344312500Y-65475000D01*
X344412500Y-67875000D02*
X344412500Y-65475000D01*
X324225000Y-67875000D02*
X330125000Y-67875000D01*
X324225000Y-65475000D02*
X324225000Y-67875000D01*
X330125000Y-65475000D02*
X324225000Y-65475000D01*
X329825000Y-67875000D02*
X329825000Y-65475000D01*
X329725000Y-67875000D02*
X329725000Y-65475000D01*
X329925000Y-67875000D02*
X329925000Y-65475000D01*
X330025000Y-67875000D02*
X330025000Y-65475000D01*
X330125000Y-67875000D02*
X330125000Y-65475000D01*
X371056250Y-48825000D02*
X376956250Y-48825000D01*
X371056250Y-46425000D02*
X371056250Y-48825000D01*
X376956250Y-46425000D02*
X371056250Y-46425000D01*
X376656250Y-48825000D02*
X376656250Y-46425000D01*
X376556250Y-48825000D02*
X376556250Y-46425000D01*
X376756250Y-48825000D02*
X376756250Y-46425000D01*
X376856250Y-48825000D02*
X376856250Y-46425000D01*
X376956250Y-48825000D02*
X376956250Y-46425000D01*
X352800000Y-48825000D02*
X358700000Y-48825000D01*
X352800000Y-46425000D02*
X352800000Y-48825000D01*
X358700000Y-46425000D02*
X352800000Y-46425000D01*
X358400000Y-48825000D02*
X358400000Y-46425000D01*
X358300000Y-48825000D02*
X358300000Y-46425000D01*
X358500000Y-48825000D02*
X358500000Y-46425000D01*
X358600000Y-48825000D02*
X358600000Y-46425000D01*
X358700000Y-48825000D02*
X358700000Y-46425000D01*
X333750000Y-48825000D02*
X339650000Y-48825000D01*
X333750000Y-46425000D02*
X333750000Y-48825000D01*
X339650000Y-46425000D02*
X333750000Y-46425000D01*
X339350000Y-48825000D02*
X339350000Y-46425000D01*
X339250000Y-48825000D02*
X339250000Y-46425000D01*
X339450000Y-48825000D02*
X339450000Y-46425000D01*
X339550000Y-48825000D02*
X339550000Y-46425000D01*
X339650000Y-48825000D02*
X339650000Y-46425000D01*
D11*
X244156250Y-107581250D02*
X244156250Y-108731250D01*
X236856250Y-107581250D02*
X244156250Y-107581250D01*
X236856250Y-113081250D02*
X244156250Y-113081250D01*
X278395833Y-113081250D02*
X285695833Y-113081250D01*
X278395833Y-107581250D02*
X285695833Y-107581250D01*
X285695833Y-107581250D02*
X285695833Y-108731250D01*
X319935416Y-113081250D02*
X327235416Y-113081250D01*
X319935416Y-107581250D02*
X327235416Y-107581250D01*
X327235416Y-107581250D02*
X327235416Y-108731250D01*
X361475000Y-113081250D02*
X368775000Y-113081250D01*
X361475000Y-107581250D02*
X368775000Y-107581250D01*
X368775000Y-107581250D02*
X368775000Y-108731250D01*
X357662500Y-78212500D02*
X350362500Y-78212500D01*
X357662500Y-83712500D02*
X350362500Y-83712500D01*
X350362500Y-83712500D02*
X350362500Y-82562500D01*
X359250000Y-50431250D02*
X351950000Y-50431250D01*
X359250000Y-55931250D02*
X351950000Y-55931250D01*
X351950000Y-55931250D02*
X351950000Y-54781250D01*
X317975000Y-50431250D02*
X310675000Y-50431250D01*
X317975000Y-55931250D02*
X310675000Y-55931250D01*
X310675000Y-55931250D02*
X310675000Y-54781250D01*
X276700000Y-50431250D02*
X269400000Y-50431250D01*
X276700000Y-55931250D02*
X269400000Y-55931250D01*
X269400000Y-55931250D02*
X269400000Y-54781250D01*
X235425000Y-50431250D02*
X228125000Y-50431250D01*
X235425000Y-55931250D02*
X228125000Y-55931250D01*
X228125000Y-55931250D02*
X228125000Y-54781250D01*
X366293250Y-43968000D02*
X363343250Y-43968000D01*
X363893250Y-40868000D02*
X366293250Y-40868000D01*
X367351000Y-50740000D02*
X367351000Y-52070000D01*
X368681000Y-50740000D02*
X367351000Y-50740000D01*
X367351000Y-53340000D02*
X367351000Y-55940000D01*
X369951000Y-53340000D02*
X367351000Y-53340000D01*
X369951000Y-50740000D02*
X369951000Y-53340000D01*
X367351000Y-55940000D02*
X375091000Y-55940000D01*
X369951000Y-50740000D02*
X375091000Y-50740000D01*
X375091000Y-50740000D02*
X375091000Y-55940000D01*
X366426500Y-60451000D02*
X362426500Y-60451000D01*
X366426500Y-57151000D02*
X366426500Y-60451000D01*
X354576748Y-66854000D02*
X355099252Y-66854000D01*
X354576748Y-68274000D02*
X355099252Y-68274000D01*
X372797000Y-77232252D02*
X372797000Y-76709748D01*
X374217000Y-77232252D02*
X374217000Y-76709748D01*
X350572000Y-71127252D02*
X350572000Y-70604748D01*
X351992000Y-71127252D02*
X351992000Y-70604748D01*
X370942502Y-114216250D02*
X370419998Y-114216250D01*
X370942502Y-112796250D02*
X370419998Y-112796250D01*
X348222500Y-71127252D02*
X348222500Y-70604748D01*
X349642500Y-71127252D02*
X349642500Y-70604748D01*
X366796250Y-46997252D02*
X366796250Y-46474748D01*
X368216250Y-46997252D02*
X368216250Y-46474748D01*
X361970250Y-46997252D02*
X361970250Y-46474748D01*
X363390250Y-46997252D02*
X363390250Y-46474748D01*
X354341500Y-70604748D02*
X354341500Y-71127252D01*
X352921500Y-70604748D02*
X352921500Y-71127252D01*
X361688748Y-81078000D02*
X362211252Y-81078000D01*
X361688748Y-82498000D02*
X362211252Y-82498000D01*
X361771000Y-58539748D02*
X361771000Y-59062252D01*
X360351000Y-58539748D02*
X360351000Y-59062252D01*
X372352500Y-66936252D02*
X372352500Y-66413748D01*
X373772500Y-66936252D02*
X373772500Y-66413748D01*
X367082000Y-59062252D02*
X367082000Y-58539748D01*
X368502000Y-59062252D02*
X368502000Y-58539748D01*
X367545252Y-80466000D02*
X367022748Y-80466000D01*
X367545252Y-79046000D02*
X367022748Y-79046000D01*
X361688748Y-79046000D02*
X362211252Y-79046000D01*
X361688748Y-80466000D02*
X362211252Y-80466000D01*
X362211252Y-63067000D02*
X361688748Y-63067000D01*
X362211252Y-61647000D02*
X361688748Y-61647000D01*
X364183250Y-47465064D02*
X364183250Y-46260936D01*
X366003250Y-47465064D02*
X366003250Y-46260936D01*
D12*
X326606250Y-105975000D02*
X332506250Y-105975000D01*
X326606250Y-103575000D02*
X326606250Y-105975000D01*
X332506250Y-103575000D02*
X326606250Y-103575000D01*
X332206250Y-105975000D02*
X332206250Y-103575000D01*
X332106250Y-105975000D02*
X332106250Y-103575000D01*
X332306250Y-105975000D02*
X332306250Y-103575000D01*
X332406250Y-105975000D02*
X332406250Y-103575000D01*
X332506250Y-105975000D02*
X332506250Y-103575000D01*
X309937500Y-86925000D02*
X315837500Y-86925000D01*
X309937500Y-84525000D02*
X309937500Y-86925000D01*
X315837500Y-84525000D02*
X309937500Y-84525000D01*
X315537500Y-86925000D02*
X315537500Y-84525000D01*
X315437500Y-86925000D02*
X315437500Y-84525000D01*
X315637500Y-86925000D02*
X315637500Y-84525000D01*
X315737500Y-86925000D02*
X315737500Y-84525000D01*
X315837500Y-86925000D02*
X315837500Y-84525000D01*
X305175000Y-67875000D02*
X311075000Y-67875000D01*
X305175000Y-65475000D02*
X305175000Y-67875000D01*
X311075000Y-65475000D02*
X305175000Y-65475000D01*
X310775000Y-67875000D02*
X310775000Y-65475000D01*
X310675000Y-67875000D02*
X310675000Y-65475000D01*
X310875000Y-67875000D02*
X310875000Y-65475000D01*
X310975000Y-67875000D02*
X310975000Y-65475000D01*
X311075000Y-67875000D02*
X311075000Y-65475000D01*
X314700000Y-48825000D02*
X320600000Y-48825000D01*
X314700000Y-46425000D02*
X314700000Y-48825000D01*
X320600000Y-46425000D02*
X314700000Y-46425000D01*
X320300000Y-48825000D02*
X320300000Y-46425000D01*
X320200000Y-48825000D02*
X320200000Y-46425000D01*
X320400000Y-48825000D02*
X320400000Y-46425000D01*
X320500000Y-48825000D02*
X320500000Y-46425000D01*
X320600000Y-48825000D02*
X320600000Y-46425000D01*
X333750000Y-125025000D02*
X339650000Y-125025000D01*
X333750000Y-122625000D02*
X333750000Y-125025000D01*
X339650000Y-122625000D02*
X333750000Y-122625000D01*
X339350000Y-125025000D02*
X339350000Y-122625000D01*
X339250000Y-125025000D02*
X339250000Y-122625000D01*
X339450000Y-125025000D02*
X339450000Y-122625000D01*
X339550000Y-125025000D02*
X339550000Y-122625000D01*
X339650000Y-125025000D02*
X339650000Y-122625000D01*
X300412500Y-105975000D02*
X306312500Y-105975000D01*
X300412500Y-103575000D02*
X300412500Y-105975000D01*
X306312500Y-103575000D02*
X300412500Y-103575000D01*
X306012500Y-105975000D02*
X306012500Y-103575000D01*
X305912500Y-105975000D02*
X305912500Y-103575000D01*
X306112500Y-105975000D02*
X306112500Y-103575000D01*
X306212500Y-105975000D02*
X306212500Y-103575000D01*
X306312500Y-105975000D02*
X306312500Y-103575000D01*
X290887500Y-86925000D02*
X296787500Y-86925000D01*
X290887500Y-84525000D02*
X290887500Y-86925000D01*
X296787500Y-84525000D02*
X290887500Y-84525000D01*
X296487500Y-86925000D02*
X296487500Y-84525000D01*
X296387500Y-86925000D02*
X296387500Y-84525000D01*
X296587500Y-86925000D02*
X296587500Y-84525000D01*
X296687500Y-86925000D02*
X296687500Y-84525000D01*
X296787500Y-86925000D02*
X296787500Y-84525000D01*
X286125000Y-67875000D02*
X292025000Y-67875000D01*
X286125000Y-65475000D02*
X286125000Y-67875000D01*
X292025000Y-65475000D02*
X286125000Y-65475000D01*
X291725000Y-67875000D02*
X291725000Y-65475000D01*
X291625000Y-67875000D02*
X291625000Y-65475000D01*
X291825000Y-67875000D02*
X291825000Y-65475000D01*
X291925000Y-67875000D02*
X291925000Y-65475000D01*
X292025000Y-67875000D02*
X292025000Y-65475000D01*
X295650000Y-48825000D02*
X301550000Y-48825000D01*
X295650000Y-46425000D02*
X295650000Y-48825000D01*
X301550000Y-46425000D02*
X295650000Y-46425000D01*
X301250000Y-48825000D02*
X301250000Y-46425000D01*
X301150000Y-48825000D02*
X301150000Y-46425000D01*
X301350000Y-48825000D02*
X301350000Y-46425000D01*
X301450000Y-48825000D02*
X301450000Y-46425000D01*
X301550000Y-48825000D02*
X301550000Y-46425000D01*
X314700000Y-125025000D02*
X320600000Y-125025000D01*
X314700000Y-122625000D02*
X314700000Y-125025000D01*
X320600000Y-122625000D02*
X314700000Y-122625000D01*
X320300000Y-125025000D02*
X320300000Y-122625000D01*
X320200000Y-125025000D02*
X320200000Y-122625000D01*
X320400000Y-125025000D02*
X320400000Y-122625000D01*
X320500000Y-125025000D02*
X320500000Y-122625000D01*
X320600000Y-125025000D02*
X320600000Y-122625000D01*
X281362500Y-105848000D02*
X287262500Y-105848000D01*
X281362500Y-103448000D02*
X281362500Y-105848000D01*
X287262500Y-103448000D02*
X281362500Y-103448000D01*
X286962500Y-105848000D02*
X286962500Y-103448000D01*
X286862500Y-105848000D02*
X286862500Y-103448000D01*
X287062500Y-105848000D02*
X287062500Y-103448000D01*
X287162500Y-105848000D02*
X287162500Y-103448000D01*
X287262500Y-105848000D02*
X287262500Y-103448000D01*
X271837500Y-86798000D02*
X277737500Y-86798000D01*
X271837500Y-84398000D02*
X271837500Y-86798000D01*
X277737500Y-84398000D02*
X271837500Y-84398000D01*
X277437500Y-86798000D02*
X277437500Y-84398000D01*
X277337500Y-86798000D02*
X277337500Y-84398000D01*
X277537500Y-86798000D02*
X277537500Y-84398000D01*
X277637500Y-86798000D02*
X277637500Y-84398000D01*
X277737500Y-86798000D02*
X277737500Y-84398000D01*
X267075000Y-67875000D02*
X272975000Y-67875000D01*
X267075000Y-65475000D02*
X267075000Y-67875000D01*
X272975000Y-65475000D02*
X267075000Y-65475000D01*
X272675000Y-67875000D02*
X272675000Y-65475000D01*
X272575000Y-67875000D02*
X272575000Y-65475000D01*
X272775000Y-67875000D02*
X272775000Y-65475000D01*
X272875000Y-67875000D02*
X272875000Y-65475000D01*
X272975000Y-67875000D02*
X272975000Y-65475000D01*
X276600000Y-48825000D02*
X282500000Y-48825000D01*
X276600000Y-46425000D02*
X276600000Y-48825000D01*
X282500000Y-46425000D02*
X276600000Y-46425000D01*
X282200000Y-48825000D02*
X282200000Y-46425000D01*
X282100000Y-48825000D02*
X282100000Y-46425000D01*
X282300000Y-48825000D02*
X282300000Y-46425000D01*
X282400000Y-48825000D02*
X282400000Y-46425000D01*
X282500000Y-48825000D02*
X282500000Y-46425000D01*
X295650000Y-125025000D02*
X301550000Y-125025000D01*
X295650000Y-122625000D02*
X295650000Y-125025000D01*
X301550000Y-122625000D02*
X295650000Y-122625000D01*
X301250000Y-125025000D02*
X301250000Y-122625000D01*
X301150000Y-125025000D02*
X301150000Y-122625000D01*
X301350000Y-125025000D02*
X301350000Y-122625000D01*
X301450000Y-125025000D02*
X301450000Y-122625000D01*
X301550000Y-125025000D02*
X301550000Y-122625000D01*
X262312500Y-105975000D02*
X268212500Y-105975000D01*
X262312500Y-103575000D02*
X262312500Y-105975000D01*
X268212500Y-103575000D02*
X262312500Y-103575000D01*
X267912500Y-105975000D02*
X267912500Y-103575000D01*
X267812500Y-105975000D02*
X267812500Y-103575000D01*
X268012500Y-105975000D02*
X268012500Y-103575000D01*
X268112500Y-105975000D02*
X268112500Y-103575000D01*
X268212500Y-105975000D02*
X268212500Y-103575000D01*
X252787500Y-86925000D02*
X258687500Y-86925000D01*
X252787500Y-84525000D02*
X252787500Y-86925000D01*
X258687500Y-84525000D02*
X252787500Y-84525000D01*
X258387500Y-86925000D02*
X258387500Y-84525000D01*
X258287500Y-86925000D02*
X258287500Y-84525000D01*
X258487500Y-86925000D02*
X258487500Y-84525000D01*
X258587500Y-86925000D02*
X258587500Y-84525000D01*
X258687500Y-86925000D02*
X258687500Y-84525000D01*
X248025000Y-67748000D02*
X253925000Y-67748000D01*
X248025000Y-65348000D02*
X248025000Y-67748000D01*
X253925000Y-65348000D02*
X248025000Y-65348000D01*
X253625000Y-67748000D02*
X253625000Y-65348000D01*
X253525000Y-67748000D02*
X253525000Y-65348000D01*
X253725000Y-67748000D02*
X253725000Y-65348000D01*
X253825000Y-67748000D02*
X253825000Y-65348000D01*
X253925000Y-67748000D02*
X253925000Y-65348000D01*
X257550000Y-48698000D02*
X263450000Y-48698000D01*
X257550000Y-46298000D02*
X257550000Y-48698000D01*
X263450000Y-46298000D02*
X257550000Y-46298000D01*
X263150000Y-48698000D02*
X263150000Y-46298000D01*
X263050000Y-48698000D02*
X263050000Y-46298000D01*
X263250000Y-48698000D02*
X263250000Y-46298000D01*
X263350000Y-48698000D02*
X263350000Y-46298000D01*
X263450000Y-48698000D02*
X263450000Y-46298000D01*
X276600000Y-125025000D02*
X282500000Y-125025000D01*
X276600000Y-122625000D02*
X276600000Y-125025000D01*
X282500000Y-122625000D02*
X276600000Y-122625000D01*
X282200000Y-125025000D02*
X282200000Y-122625000D01*
X282100000Y-125025000D02*
X282100000Y-122625000D01*
X282300000Y-125025000D02*
X282300000Y-122625000D01*
X282400000Y-125025000D02*
X282400000Y-122625000D01*
X282500000Y-125025000D02*
X282500000Y-122625000D01*
X243262500Y-105848000D02*
X249162500Y-105848000D01*
X243262500Y-103448000D02*
X243262500Y-105848000D01*
X249162500Y-103448000D02*
X243262500Y-103448000D01*
X248862500Y-105848000D02*
X248862500Y-103448000D01*
X248762500Y-105848000D02*
X248762500Y-103448000D01*
X248962500Y-105848000D02*
X248962500Y-103448000D01*
X249062500Y-105848000D02*
X249062500Y-103448000D01*
X249162500Y-105848000D02*
X249162500Y-103448000D01*
X233737500Y-86925000D02*
X239637500Y-86925000D01*
X233737500Y-84525000D02*
X233737500Y-86925000D01*
X239637500Y-84525000D02*
X233737500Y-84525000D01*
X239337500Y-86925000D02*
X239337500Y-84525000D01*
X239237500Y-86925000D02*
X239237500Y-84525000D01*
X239437500Y-86925000D02*
X239437500Y-84525000D01*
X239537500Y-86925000D02*
X239537500Y-84525000D01*
X239637500Y-86925000D02*
X239637500Y-84525000D01*
X228975000Y-67748000D02*
X234875000Y-67748000D01*
X228975000Y-65348000D02*
X228975000Y-67748000D01*
X234875000Y-65348000D02*
X228975000Y-65348000D01*
X234575000Y-67748000D02*
X234575000Y-65348000D01*
X234475000Y-67748000D02*
X234475000Y-65348000D01*
X234675000Y-67748000D02*
X234675000Y-65348000D01*
X234775000Y-67748000D02*
X234775000Y-65348000D01*
X234875000Y-67748000D02*
X234875000Y-65348000D01*
X238500000Y-48698000D02*
X244400000Y-48698000D01*
X238500000Y-46298000D02*
X238500000Y-48698000D01*
X244400000Y-46298000D02*
X238500000Y-46298000D01*
X244100000Y-48698000D02*
X244100000Y-46298000D01*
X244000000Y-48698000D02*
X244000000Y-46298000D01*
X244200000Y-48698000D02*
X244200000Y-46298000D01*
X244300000Y-48698000D02*
X244300000Y-46298000D01*
X244400000Y-48698000D02*
X244400000Y-46298000D01*
X240881250Y-125025000D02*
X246781250Y-125025000D01*
X240881250Y-122625000D02*
X240881250Y-125025000D01*
X246781250Y-122625000D02*
X240881250Y-122625000D01*
X246481250Y-125025000D02*
X246481250Y-122625000D01*
X246381250Y-125025000D02*
X246381250Y-122625000D01*
X246581250Y-125025000D02*
X246581250Y-122625000D01*
X246681250Y-125025000D02*
X246681250Y-122625000D01*
X246781250Y-125025000D02*
X246781250Y-122625000D01*
X224212500Y-105975000D02*
X230112500Y-105975000D01*
X224212500Y-103575000D02*
X224212500Y-105975000D01*
X230112500Y-103575000D02*
X224212500Y-103575000D01*
X229812500Y-105975000D02*
X229812500Y-103575000D01*
X229712500Y-105975000D02*
X229712500Y-103575000D01*
X229912500Y-105975000D02*
X229912500Y-103575000D01*
X230012500Y-105975000D02*
X230012500Y-103575000D01*
X230112500Y-105975000D02*
X230112500Y-103575000D01*
X214687500Y-86925000D02*
X220587500Y-86925000D01*
X214687500Y-84525000D02*
X214687500Y-86925000D01*
X220587500Y-84525000D02*
X214687500Y-84525000D01*
X220287500Y-86925000D02*
X220287500Y-84525000D01*
X220187500Y-86925000D02*
X220187500Y-84525000D01*
X220387500Y-86925000D02*
X220387500Y-84525000D01*
X220487500Y-86925000D02*
X220487500Y-84525000D01*
X220587500Y-86925000D02*
X220587500Y-84525000D01*
X209925000Y-67748000D02*
X215825000Y-67748000D01*
X209925000Y-65348000D02*
X209925000Y-67748000D01*
X215825000Y-65348000D02*
X209925000Y-65348000D01*
X215525000Y-67748000D02*
X215525000Y-65348000D01*
X215425000Y-67748000D02*
X215425000Y-65348000D01*
X215625000Y-67748000D02*
X215625000Y-65348000D01*
X215725000Y-67748000D02*
X215725000Y-65348000D01*
X215825000Y-67748000D02*
X215825000Y-65348000D01*
X219450000Y-48825000D02*
X225350000Y-48825000D01*
X219450000Y-46425000D02*
X219450000Y-48825000D01*
X225350000Y-46425000D02*
X219450000Y-46425000D01*
X225050000Y-48825000D02*
X225050000Y-46425000D01*
X224950000Y-48825000D02*
X224950000Y-46425000D01*
X225150000Y-48825000D02*
X225150000Y-46425000D01*
X225250000Y-48825000D02*
X225250000Y-46425000D01*
X225350000Y-48825000D02*
X225350000Y-46425000D01*
D13*
X359823000Y-75705000D02*
X358548000Y-75705000D01*
X370173000Y-76280000D02*
X369498000Y-76280000D01*
X370173000Y-65930000D02*
X369498000Y-65930000D01*
X359823000Y-65930000D02*
X360498000Y-65930000D01*
X359823000Y-76280000D02*
X360498000Y-76280000D01*
X359823000Y-65930000D02*
X359823000Y-66605000D01*
X370173000Y-65930000D02*
X370173000Y-66605000D01*
X370173000Y-76280000D02*
X370173000Y-75605000D01*
X359823000Y-76280000D02*
X359823000Y-75705000D01*
D11*
X373200000Y-112257500D02*
X372710000Y-111767500D01*
X376100000Y-112257500D02*
X373200000Y-112257500D01*
X376100000Y-112257500D02*
X376590000Y-111767500D01*
X376100000Y-106817500D02*
X373200000Y-106817500D01*
X376100000Y-106817500D02*
X376590000Y-107307500D01*
X371930000Y-110577500D02*
X371930000Y-108497500D01*
X373200000Y-106817500D02*
X372710000Y-107307500D01*
X377370000Y-110577500D02*
X377370000Y-108497500D01*
D13*
X235477380Y-32329166D02*
X236191666Y-32329166D01*
X236334523Y-32281547D01*
X236429761Y-32186309D01*
X236477380Y-32043452D01*
X236477380Y-31948214D01*
X235572619Y-32757738D02*
X235525000Y-32805357D01*
X235477380Y-32900595D01*
X235477380Y-33138690D01*
X235525000Y-33233928D01*
X235572619Y-33281547D01*
X235667857Y-33329166D01*
X235763095Y-33329166D01*
X235905952Y-33281547D01*
X236477380Y-32710119D01*
X236477380Y-33329166D01*
X352178857Y-65889142D02*
X352226476Y-65936761D01*
X352369333Y-65984380D01*
X352464571Y-65984380D01*
X352607428Y-65936761D01*
X352702666Y-65841523D01*
X352750285Y-65746285D01*
X352797904Y-65555809D01*
X352797904Y-65412952D01*
X352750285Y-65222476D01*
X352702666Y-65127238D01*
X352607428Y-65032000D01*
X352464571Y-64984380D01*
X352369333Y-64984380D01*
X352226476Y-65032000D01*
X352178857Y-65079619D01*
X351226476Y-65984380D02*
X351797904Y-65984380D01*
X351512190Y-65984380D02*
X351512190Y-64984380D01*
X351607428Y-65127238D01*
X351702666Y-65222476D01*
X351797904Y-65270095D01*
X350607428Y-64984380D02*
X350512190Y-64984380D01*
X350416952Y-65032000D01*
X350369333Y-65079619D01*
X350321714Y-65174857D01*
X350274095Y-65365333D01*
X350274095Y-65603428D01*
X350321714Y-65793904D01*
X350369333Y-65889142D01*
X350416952Y-65936761D01*
X350512190Y-65984380D01*
X350607428Y-65984380D01*
X350702666Y-65936761D01*
X350750285Y-65889142D01*
X350797904Y-65793904D01*
X350845523Y-65603428D01*
X350845523Y-65365333D01*
X350797904Y-65174857D01*
X350750285Y-65079619D01*
X350702666Y-65032000D01*
X350607428Y-64984380D01*
X235624666Y-109069142D02*
X235672285Y-109116761D01*
X235815142Y-109164380D01*
X235910380Y-109164380D01*
X236053238Y-109116761D01*
X236148476Y-109021523D01*
X236196095Y-108926285D01*
X236243714Y-108735809D01*
X236243714Y-108592952D01*
X236196095Y-108402476D01*
X236148476Y-108307238D01*
X236053238Y-108212000D01*
X235910380Y-108164380D01*
X235815142Y-108164380D01*
X235672285Y-108212000D01*
X235624666Y-108259619D01*
X235148476Y-109164380D02*
X234958000Y-109164380D01*
X234862761Y-109116761D01*
X234815142Y-109069142D01*
X234719904Y-108926285D01*
X234672285Y-108735809D01*
X234672285Y-108354857D01*
X234719904Y-108259619D01*
X234767523Y-108212000D01*
X234862761Y-108164380D01*
X235053238Y-108164380D01*
X235148476Y-108212000D01*
X235196095Y-108259619D01*
X235243714Y-108354857D01*
X235243714Y-108592952D01*
X235196095Y-108688190D01*
X235148476Y-108735809D01*
X235053238Y-108783428D01*
X234862761Y-108783428D01*
X234767523Y-108735809D01*
X234719904Y-108688190D01*
X234672285Y-108592952D01*
X275502642Y-111085333D02*
X275550261Y-111037714D01*
X275597880Y-110894857D01*
X275597880Y-110799619D01*
X275550261Y-110656761D01*
X275455023Y-110561523D01*
X275359785Y-110513904D01*
X275169309Y-110466285D01*
X275026452Y-110466285D01*
X274835976Y-110513904D01*
X274740738Y-110561523D01*
X274645500Y-110656761D01*
X274597880Y-110799619D01*
X274597880Y-110894857D01*
X274645500Y-111037714D01*
X274693119Y-111085333D01*
X275026452Y-111656761D02*
X274978833Y-111561523D01*
X274931214Y-111513904D01*
X274835976Y-111466285D01*
X274788357Y-111466285D01*
X274693119Y-111513904D01*
X274645500Y-111561523D01*
X274597880Y-111656761D01*
X274597880Y-111847238D01*
X274645500Y-111942476D01*
X274693119Y-111990095D01*
X274788357Y-112037714D01*
X274835976Y-112037714D01*
X274931214Y-111990095D01*
X274978833Y-111942476D01*
X275026452Y-111847238D01*
X275026452Y-111656761D01*
X275074071Y-111561523D01*
X275121690Y-111513904D01*
X275216928Y-111466285D01*
X275407404Y-111466285D01*
X275502642Y-111513904D01*
X275550261Y-111561523D01*
X275597880Y-111656761D01*
X275597880Y-111847238D01*
X275550261Y-111942476D01*
X275502642Y-111990095D01*
X275407404Y-112037714D01*
X275216928Y-112037714D01*
X275121690Y-111990095D01*
X275074071Y-111942476D01*
X275026452Y-111847238D01*
X330937142Y-111593333D02*
X330984761Y-111545714D01*
X331032380Y-111402857D01*
X331032380Y-111307619D01*
X330984761Y-111164761D01*
X330889523Y-111069523D01*
X330794285Y-111021904D01*
X330603809Y-110974285D01*
X330460952Y-110974285D01*
X330270476Y-111021904D01*
X330175238Y-111069523D01*
X330080000Y-111164761D01*
X330032380Y-111307619D01*
X330032380Y-111402857D01*
X330080000Y-111545714D01*
X330127619Y-111593333D01*
X330032380Y-111926666D02*
X330032380Y-112593333D01*
X331032380Y-112164761D01*
X358052642Y-111275833D02*
X358100261Y-111228214D01*
X358147880Y-111085357D01*
X358147880Y-110990119D01*
X358100261Y-110847261D01*
X358005023Y-110752023D01*
X357909785Y-110704404D01*
X357719309Y-110656785D01*
X357576452Y-110656785D01*
X357385976Y-110704404D01*
X357290738Y-110752023D01*
X357195500Y-110847261D01*
X357147880Y-110990119D01*
X357147880Y-111085357D01*
X357195500Y-111228214D01*
X357243119Y-111275833D01*
X357147880Y-112132976D02*
X357147880Y-111942500D01*
X357195500Y-111847261D01*
X357243119Y-111799642D01*
X357385976Y-111704404D01*
X357576452Y-111656785D01*
X357957404Y-111656785D01*
X358052642Y-111704404D01*
X358100261Y-111752023D01*
X358147880Y-111847261D01*
X358147880Y-112037738D01*
X358100261Y-112132976D01*
X358052642Y-112180595D01*
X357957404Y-112228214D01*
X357719309Y-112228214D01*
X357624071Y-112180595D01*
X357576452Y-112132976D01*
X357528833Y-112037738D01*
X357528833Y-111847261D01*
X357576452Y-111752023D01*
X357624071Y-111704404D01*
X357719309Y-111656785D01*
X354369666Y-83543142D02*
X354417285Y-83590761D01*
X354560142Y-83638380D01*
X354655380Y-83638380D01*
X354798238Y-83590761D01*
X354893476Y-83495523D01*
X354941095Y-83400285D01*
X354988714Y-83209809D01*
X354988714Y-83066952D01*
X354941095Y-82876476D01*
X354893476Y-82781238D01*
X354798238Y-82686000D01*
X354655380Y-82638380D01*
X354560142Y-82638380D01*
X354417285Y-82686000D01*
X354369666Y-82733619D01*
X353464904Y-82638380D02*
X353941095Y-82638380D01*
X353988714Y-83114571D01*
X353941095Y-83066952D01*
X353845857Y-83019333D01*
X353607761Y-83019333D01*
X353512523Y-83066952D01*
X353464904Y-83114571D01*
X353417285Y-83209809D01*
X353417285Y-83447904D01*
X353464904Y-83543142D01*
X353512523Y-83590761D01*
X353607761Y-83638380D01*
X353845857Y-83638380D01*
X353941095Y-83590761D01*
X353988714Y-83543142D01*
X362369642Y-49839583D02*
X362417261Y-49791964D01*
X362464880Y-49649107D01*
X362464880Y-49553869D01*
X362417261Y-49411011D01*
X362322023Y-49315773D01*
X362226785Y-49268154D01*
X362036309Y-49220535D01*
X361893452Y-49220535D01*
X361702976Y-49268154D01*
X361607738Y-49315773D01*
X361512500Y-49411011D01*
X361464880Y-49553869D01*
X361464880Y-49649107D01*
X361512500Y-49791964D01*
X361560119Y-49839583D01*
X361798214Y-50696726D02*
X362464880Y-50696726D01*
X361417261Y-50458630D02*
X362131547Y-50220535D01*
X362131547Y-50839583D01*
X321476642Y-53935333D02*
X321524261Y-53887714D01*
X321571880Y-53744857D01*
X321571880Y-53649619D01*
X321524261Y-53506761D01*
X321429023Y-53411523D01*
X321333785Y-53363904D01*
X321143309Y-53316285D01*
X321000452Y-53316285D01*
X320809976Y-53363904D01*
X320714738Y-53411523D01*
X320619500Y-53506761D01*
X320571880Y-53649619D01*
X320571880Y-53744857D01*
X320619500Y-53887714D01*
X320667119Y-53935333D01*
X320571880Y-54268666D02*
X320571880Y-54887714D01*
X320952833Y-54554380D01*
X320952833Y-54697238D01*
X321000452Y-54792476D01*
X321048071Y-54840095D01*
X321143309Y-54887714D01*
X321381404Y-54887714D01*
X321476642Y-54840095D01*
X321524261Y-54792476D01*
X321571880Y-54697238D01*
X321571880Y-54411523D01*
X321524261Y-54316285D01*
X321476642Y-54268666D01*
X280392142Y-53935333D02*
X280439761Y-53887714D01*
X280487380Y-53744857D01*
X280487380Y-53649619D01*
X280439761Y-53506761D01*
X280344523Y-53411523D01*
X280249285Y-53363904D01*
X280058809Y-53316285D01*
X279915952Y-53316285D01*
X279725476Y-53363904D01*
X279630238Y-53411523D01*
X279535000Y-53506761D01*
X279487380Y-53649619D01*
X279487380Y-53744857D01*
X279535000Y-53887714D01*
X279582619Y-53935333D01*
X279582619Y-54316285D02*
X279535000Y-54363904D01*
X279487380Y-54459142D01*
X279487380Y-54697238D01*
X279535000Y-54792476D01*
X279582619Y-54840095D01*
X279677857Y-54887714D01*
X279773095Y-54887714D01*
X279915952Y-54840095D01*
X280487380Y-54268666D01*
X280487380Y-54887714D01*
X237085166Y-55348142D02*
X237132785Y-55395761D01*
X237275642Y-55443380D01*
X237370880Y-55443380D01*
X237513738Y-55395761D01*
X237608976Y-55300523D01*
X237656595Y-55205285D01*
X237704214Y-55014809D01*
X237704214Y-54871952D01*
X237656595Y-54681476D01*
X237608976Y-54586238D01*
X237513738Y-54491000D01*
X237370880Y-54443380D01*
X237275642Y-54443380D01*
X237132785Y-54491000D01*
X237085166Y-54538619D01*
X236132785Y-55443380D02*
X236704214Y-55443380D01*
X236418500Y-55443380D02*
X236418500Y-54443380D01*
X236513738Y-54586238D01*
X236608976Y-54681476D01*
X236704214Y-54729095D01*
X357862142Y-70223142D02*
X357909761Y-70175523D01*
X357957380Y-70032666D01*
X357957380Y-69937428D01*
X357909761Y-69794571D01*
X357814523Y-69699333D01*
X357719285Y-69651714D01*
X357528809Y-69604095D01*
X357385952Y-69604095D01*
X357195476Y-69651714D01*
X357100238Y-69699333D01*
X357005000Y-69794571D01*
X356957380Y-69937428D01*
X356957380Y-70032666D01*
X357005000Y-70175523D01*
X357052619Y-70223142D01*
X357957380Y-71175523D02*
X357957380Y-70604095D01*
X357957380Y-70889809D02*
X356957380Y-70889809D01*
X357100238Y-70794571D01*
X357195476Y-70699333D01*
X357243095Y-70604095D01*
X357290714Y-72032666D02*
X357957380Y-72032666D01*
X356909761Y-71794571D02*
X357624047Y-71556476D01*
X357624047Y-72175523D01*
X375621428Y-126111904D02*
X375621428Y-125311904D01*
X375430952Y-125311904D01*
X375316666Y-125350000D01*
X375240476Y-125426190D01*
X375202380Y-125502380D01*
X375164285Y-125654761D01*
X375164285Y-125769047D01*
X375202380Y-125921428D01*
X375240476Y-125997619D01*
X375316666Y-126073809D01*
X375430952Y-126111904D01*
X375621428Y-126111904D01*
X374478571Y-125578571D02*
X374478571Y-126111904D01*
X374669047Y-125273809D02*
X374859523Y-125845238D01*
X374364285Y-125845238D01*
X373640476Y-126111904D02*
X374097619Y-126111904D01*
X373869047Y-126111904D02*
X373869047Y-125311904D01*
X373945238Y-125426190D01*
X374021428Y-125502380D01*
X374097619Y-125540476D01*
X356571428Y-126111904D02*
X356571428Y-125311904D01*
X356380952Y-125311904D01*
X356266666Y-125350000D01*
X356190476Y-125426190D01*
X356152380Y-125502380D01*
X356114285Y-125654761D01*
X356114285Y-125769047D01*
X356152380Y-125921428D01*
X356190476Y-125997619D01*
X356266666Y-126073809D01*
X356380952Y-126111904D01*
X356571428Y-126111904D01*
X355428571Y-125578571D02*
X355428571Y-126111904D01*
X355619047Y-125273809D02*
X355809523Y-125845238D01*
X355314285Y-125845238D01*
X354857142Y-125311904D02*
X354780952Y-125311904D01*
X354704761Y-125350000D01*
X354666666Y-125388095D01*
X354628571Y-125464285D01*
X354590476Y-125616666D01*
X354590476Y-125807142D01*
X354628571Y-125959523D01*
X354666666Y-126035714D01*
X354704761Y-126073809D01*
X354780952Y-126111904D01*
X354857142Y-126111904D01*
X354933333Y-126073809D01*
X354971428Y-126035714D01*
X355009523Y-125959523D01*
X355047619Y-125807142D01*
X355047619Y-125616666D01*
X355009523Y-125464285D01*
X354971428Y-125388095D01*
X354933333Y-125350000D01*
X354857142Y-125311904D01*
X376535904Y-103803571D02*
X375735904Y-103803571D01*
X375735904Y-103994047D01*
X375774000Y-104108333D01*
X375850190Y-104184523D01*
X375926380Y-104222619D01*
X376078761Y-104260714D01*
X376193047Y-104260714D01*
X376345428Y-104222619D01*
X376421619Y-104184523D01*
X376497809Y-104108333D01*
X376535904Y-103994047D01*
X376535904Y-103803571D01*
X375735904Y-104527380D02*
X375735904Y-105022619D01*
X376040666Y-104755952D01*
X376040666Y-104870238D01*
X376078761Y-104946428D01*
X376116857Y-104984523D01*
X376193047Y-105022619D01*
X376383523Y-105022619D01*
X376459714Y-104984523D01*
X376497809Y-104946428D01*
X376535904Y-104870238D01*
X376535904Y-104641666D01*
X376497809Y-104565476D01*
X376459714Y-104527380D01*
X376002571Y-105708333D02*
X376535904Y-105708333D01*
X375697809Y-105517857D02*
X376269238Y-105327380D01*
X376269238Y-105822619D01*
X356571428Y-107061904D02*
X356571428Y-106261904D01*
X356380952Y-106261904D01*
X356266666Y-106300000D01*
X356190476Y-106376190D01*
X356152380Y-106452380D01*
X356114285Y-106604761D01*
X356114285Y-106719047D01*
X356152380Y-106871428D01*
X356190476Y-106947619D01*
X356266666Y-107023809D01*
X356380952Y-107061904D01*
X356571428Y-107061904D01*
X355847619Y-106261904D02*
X355352380Y-106261904D01*
X355619047Y-106566666D01*
X355504761Y-106566666D01*
X355428571Y-106604761D01*
X355390476Y-106642857D01*
X355352380Y-106719047D01*
X355352380Y-106909523D01*
X355390476Y-106985714D01*
X355428571Y-107023809D01*
X355504761Y-107061904D01*
X355733333Y-107061904D01*
X355809523Y-107023809D01*
X355847619Y-106985714D01*
X355085714Y-106261904D02*
X354590476Y-106261904D01*
X354857142Y-106566666D01*
X354742857Y-106566666D01*
X354666666Y-106604761D01*
X354628571Y-106642857D01*
X354590476Y-106719047D01*
X354590476Y-106909523D01*
X354628571Y-106985714D01*
X354666666Y-107023809D01*
X354742857Y-107061904D01*
X354971428Y-107061904D01*
X355047619Y-107023809D01*
X355085714Y-106985714D01*
X375621428Y-88011904D02*
X375621428Y-87211904D01*
X375430952Y-87211904D01*
X375316666Y-87250000D01*
X375240476Y-87326190D01*
X375202380Y-87402380D01*
X375164285Y-87554761D01*
X375164285Y-87669047D01*
X375202380Y-87821428D01*
X375240476Y-87897619D01*
X375316666Y-87973809D01*
X375430952Y-88011904D01*
X375621428Y-88011904D01*
X374859523Y-87288095D02*
X374821428Y-87250000D01*
X374745238Y-87211904D01*
X374554761Y-87211904D01*
X374478571Y-87250000D01*
X374440476Y-87288095D01*
X374402380Y-87364285D01*
X374402380Y-87440476D01*
X374440476Y-87554761D01*
X374897619Y-88011904D01*
X374402380Y-88011904D01*
X373716666Y-87211904D02*
X373869047Y-87211904D01*
X373945238Y-87250000D01*
X373983333Y-87288095D01*
X374059523Y-87402380D01*
X374097619Y-87554761D01*
X374097619Y-87859523D01*
X374059523Y-87935714D01*
X374021428Y-87973809D01*
X373945238Y-88011904D01*
X373792857Y-88011904D01*
X373716666Y-87973809D01*
X373678571Y-87935714D01*
X373640476Y-87859523D01*
X373640476Y-87669047D01*
X373678571Y-87592857D01*
X373716666Y-87554761D01*
X373792857Y-87516666D01*
X373945238Y-87516666D01*
X374021428Y-87554761D01*
X374059523Y-87592857D01*
X374097619Y-87669047D01*
X344665178Y-88011904D02*
X344665178Y-87211904D01*
X344474702Y-87211904D01*
X344360416Y-87250000D01*
X344284226Y-87326190D01*
X344246130Y-87402380D01*
X344208035Y-87554761D01*
X344208035Y-87669047D01*
X344246130Y-87821428D01*
X344284226Y-87897619D01*
X344360416Y-87973809D01*
X344474702Y-88011904D01*
X344665178Y-88011904D01*
X343903273Y-87288095D02*
X343865178Y-87250000D01*
X343788988Y-87211904D01*
X343598511Y-87211904D01*
X343522321Y-87250000D01*
X343484226Y-87288095D01*
X343446130Y-87364285D01*
X343446130Y-87440476D01*
X343484226Y-87554761D01*
X343941369Y-88011904D01*
X343446130Y-88011904D01*
X342722321Y-87211904D02*
X343103273Y-87211904D01*
X343141369Y-87592857D01*
X343103273Y-87554761D01*
X343027083Y-87516666D01*
X342836607Y-87516666D01*
X342760416Y-87554761D01*
X342722321Y-87592857D01*
X342684226Y-87669047D01*
X342684226Y-87859523D01*
X342722321Y-87935714D01*
X342760416Y-87973809D01*
X342836607Y-88011904D01*
X343027083Y-88011904D01*
X343103273Y-87973809D01*
X343141369Y-87935714D01*
X375468154Y-67291071D02*
X374668154Y-67291071D01*
X374668154Y-67481547D01*
X374706250Y-67595833D01*
X374782440Y-67672023D01*
X374858630Y-67710119D01*
X375011011Y-67748214D01*
X375125297Y-67748214D01*
X375277678Y-67710119D01*
X375353869Y-67672023D01*
X375430059Y-67595833D01*
X375468154Y-67481547D01*
X375468154Y-67291071D01*
X375468154Y-68510119D02*
X375468154Y-68052976D01*
X375468154Y-68281547D02*
X374668154Y-68281547D01*
X374782440Y-68205357D01*
X374858630Y-68129166D01*
X374896726Y-68052976D01*
X375011011Y-68967261D02*
X374972916Y-68891071D01*
X374934821Y-68852976D01*
X374858630Y-68814880D01*
X374820535Y-68814880D01*
X374744345Y-68852976D01*
X374706250Y-68891071D01*
X374668154Y-68967261D01*
X374668154Y-69119642D01*
X374706250Y-69195833D01*
X374744345Y-69233928D01*
X374820535Y-69272023D01*
X374858630Y-69272023D01*
X374934821Y-69233928D01*
X374972916Y-69195833D01*
X375011011Y-69119642D01*
X375011011Y-68967261D01*
X375049107Y-68891071D01*
X375087202Y-68852976D01*
X375163392Y-68814880D01*
X375315773Y-68814880D01*
X375391964Y-68852976D01*
X375430059Y-68891071D01*
X375468154Y-68967261D01*
X375468154Y-69119642D01*
X375430059Y-69195833D01*
X375391964Y-69233928D01*
X375315773Y-69272023D01*
X375163392Y-69272023D01*
X375087202Y-69233928D01*
X375049107Y-69195833D01*
X375011011Y-69119642D01*
X342283928Y-68961904D02*
X342283928Y-68161904D01*
X342093452Y-68161904D01*
X341979166Y-68200000D01*
X341902976Y-68276190D01*
X341864880Y-68352380D01*
X341826785Y-68504761D01*
X341826785Y-68619047D01*
X341864880Y-68771428D01*
X341902976Y-68847619D01*
X341979166Y-68923809D01*
X342093452Y-68961904D01*
X342283928Y-68961904D01*
X341064880Y-68961904D02*
X341522023Y-68961904D01*
X341293452Y-68961904D02*
X341293452Y-68161904D01*
X341369642Y-68276190D01*
X341445833Y-68352380D01*
X341522023Y-68390476D01*
X340798214Y-68161904D02*
X340264880Y-68161904D01*
X340607738Y-68961904D01*
X327996428Y-68961904D02*
X327996428Y-68161904D01*
X327805952Y-68161904D01*
X327691666Y-68200000D01*
X327615476Y-68276190D01*
X327577380Y-68352380D01*
X327539285Y-68504761D01*
X327539285Y-68619047D01*
X327577380Y-68771428D01*
X327615476Y-68847619D01*
X327691666Y-68923809D01*
X327805952Y-68961904D01*
X327996428Y-68961904D01*
X326777380Y-68961904D02*
X327234523Y-68961904D01*
X327005952Y-68961904D02*
X327005952Y-68161904D01*
X327082142Y-68276190D01*
X327158333Y-68352380D01*
X327234523Y-68390476D01*
X326091666Y-68161904D02*
X326244047Y-68161904D01*
X326320238Y-68200000D01*
X326358333Y-68238095D01*
X326434523Y-68352380D01*
X326472619Y-68504761D01*
X326472619Y-68809523D01*
X326434523Y-68885714D01*
X326396428Y-68923809D01*
X326320238Y-68961904D01*
X326167857Y-68961904D01*
X326091666Y-68923809D01*
X326053571Y-68885714D01*
X326015476Y-68809523D01*
X326015476Y-68619047D01*
X326053571Y-68542857D01*
X326091666Y-68504761D01*
X326167857Y-68466666D01*
X326320238Y-68466666D01*
X326396428Y-68504761D01*
X326434523Y-68542857D01*
X326472619Y-68619047D01*
X374446726Y-49911904D02*
X374446726Y-49111904D01*
X374256250Y-49111904D01*
X374141964Y-49150000D01*
X374065773Y-49226190D01*
X374027678Y-49302380D01*
X373989583Y-49454761D01*
X373989583Y-49569047D01*
X374027678Y-49721428D01*
X374065773Y-49797619D01*
X374141964Y-49873809D01*
X374256250Y-49911904D01*
X374446726Y-49911904D01*
X373608630Y-49911904D02*
X373456250Y-49911904D01*
X373380059Y-49873809D01*
X373341964Y-49835714D01*
X373265773Y-49721428D01*
X373227678Y-49569047D01*
X373227678Y-49264285D01*
X373265773Y-49188095D01*
X373303869Y-49150000D01*
X373380059Y-49111904D01*
X373532440Y-49111904D01*
X373608630Y-49150000D01*
X373646726Y-49188095D01*
X373684821Y-49264285D01*
X373684821Y-49454761D01*
X373646726Y-49530952D01*
X373608630Y-49569047D01*
X373532440Y-49607142D01*
X373380059Y-49607142D01*
X373303869Y-49569047D01*
X373265773Y-49530952D01*
X373227678Y-49454761D01*
X352278904Y-46907523D02*
X351478904Y-46907523D01*
X351478904Y-47098000D01*
X351517000Y-47212285D01*
X351593190Y-47288476D01*
X351669380Y-47326571D01*
X351821761Y-47364666D01*
X351936047Y-47364666D01*
X352088428Y-47326571D01*
X352164619Y-47288476D01*
X352240809Y-47212285D01*
X352278904Y-47098000D01*
X352278904Y-46907523D01*
X351821761Y-47821809D02*
X351783666Y-47745619D01*
X351745571Y-47707523D01*
X351669380Y-47669428D01*
X351631285Y-47669428D01*
X351555095Y-47707523D01*
X351517000Y-47745619D01*
X351478904Y-47821809D01*
X351478904Y-47974190D01*
X351517000Y-48050380D01*
X351555095Y-48088476D01*
X351631285Y-48126571D01*
X351669380Y-48126571D01*
X351745571Y-48088476D01*
X351783666Y-48050380D01*
X351821761Y-47974190D01*
X351821761Y-47821809D01*
X351859857Y-47745619D01*
X351897952Y-47707523D01*
X351974142Y-47669428D01*
X352126523Y-47669428D01*
X352202714Y-47707523D01*
X352240809Y-47745619D01*
X352278904Y-47821809D01*
X352278904Y-47974190D01*
X352240809Y-48050380D01*
X352202714Y-48088476D01*
X352126523Y-48126571D01*
X351974142Y-48126571D01*
X351897952Y-48088476D01*
X351859857Y-48050380D01*
X351821761Y-47974190D01*
X337140476Y-49911904D02*
X337140476Y-49111904D01*
X336950000Y-49111904D01*
X336835714Y-49150000D01*
X336759523Y-49226190D01*
X336721428Y-49302380D01*
X336683333Y-49454761D01*
X336683333Y-49569047D01*
X336721428Y-49721428D01*
X336759523Y-49797619D01*
X336835714Y-49873809D01*
X336950000Y-49911904D01*
X337140476Y-49911904D01*
X336416666Y-49111904D02*
X335883333Y-49111904D01*
X336226190Y-49911904D01*
X241672916Y-114283630D02*
X242006250Y-113807440D01*
X242244345Y-114283630D02*
X242244345Y-113283630D01*
X241863392Y-113283630D01*
X241768154Y-113331250D01*
X241720535Y-113378869D01*
X241672916Y-113474107D01*
X241672916Y-113616964D01*
X241720535Y-113712202D01*
X241768154Y-113759821D01*
X241863392Y-113807440D01*
X242244345Y-113807440D01*
X240720535Y-113331250D02*
X240815773Y-113283630D01*
X240958630Y-113283630D01*
X241101488Y-113331250D01*
X241196726Y-113426488D01*
X241244345Y-113521726D01*
X241291964Y-113712202D01*
X241291964Y-113855059D01*
X241244345Y-114045535D01*
X241196726Y-114140773D01*
X241101488Y-114236011D01*
X240958630Y-114283630D01*
X240863392Y-114283630D01*
X240720535Y-114236011D01*
X240672916Y-114188392D01*
X240672916Y-113855059D01*
X240863392Y-113855059D01*
X239911011Y-113759821D02*
X239768154Y-113807440D01*
X239720535Y-113855059D01*
X239672916Y-113950297D01*
X239672916Y-114093154D01*
X239720535Y-114188392D01*
X239768154Y-114236011D01*
X239863392Y-114283630D01*
X240244345Y-114283630D01*
X240244345Y-113283630D01*
X239911011Y-113283630D01*
X239815773Y-113331250D01*
X239768154Y-113378869D01*
X239720535Y-113474107D01*
X239720535Y-113569345D01*
X239768154Y-113664583D01*
X239815773Y-113712202D01*
X239911011Y-113759821D01*
X240244345Y-113759821D01*
X239196726Y-114283630D02*
X239006250Y-114283630D01*
X238911011Y-114236011D01*
X238863392Y-114188392D01*
X238768154Y-114045535D01*
X238720535Y-113855059D01*
X238720535Y-113474107D01*
X238768154Y-113378869D01*
X238815773Y-113331250D01*
X238911011Y-113283630D01*
X239101488Y-113283630D01*
X239196726Y-113331250D01*
X239244345Y-113378869D01*
X239291964Y-113474107D01*
X239291964Y-113712202D01*
X239244345Y-113807440D01*
X239196726Y-113855059D01*
X239101488Y-113902678D01*
X238911011Y-113902678D01*
X238815773Y-113855059D01*
X238768154Y-113807440D01*
X238720535Y-113712202D01*
X236070535Y-112383630D02*
X236641964Y-112383630D01*
X236356250Y-112383630D02*
X236356250Y-111383630D01*
X236451488Y-111526488D01*
X236546726Y-111621726D01*
X236641964Y-111669345D01*
X286535666Y-114561880D02*
X286869000Y-114085690D01*
X287107095Y-114561880D02*
X287107095Y-113561880D01*
X286726142Y-113561880D01*
X286630904Y-113609500D01*
X286583285Y-113657119D01*
X286535666Y-113752357D01*
X286535666Y-113895214D01*
X286583285Y-113990452D01*
X286630904Y-114038071D01*
X286726142Y-114085690D01*
X287107095Y-114085690D01*
X285583285Y-113609500D02*
X285678523Y-113561880D01*
X285821380Y-113561880D01*
X285964238Y-113609500D01*
X286059476Y-113704738D01*
X286107095Y-113799976D01*
X286154714Y-113990452D01*
X286154714Y-114133309D01*
X286107095Y-114323785D01*
X286059476Y-114419023D01*
X285964238Y-114514261D01*
X285821380Y-114561880D01*
X285726142Y-114561880D01*
X285583285Y-114514261D01*
X285535666Y-114466642D01*
X285535666Y-114133309D01*
X285726142Y-114133309D01*
X284773761Y-114038071D02*
X284630904Y-114085690D01*
X284583285Y-114133309D01*
X284535666Y-114228547D01*
X284535666Y-114371404D01*
X284583285Y-114466642D01*
X284630904Y-114514261D01*
X284726142Y-114561880D01*
X285107095Y-114561880D01*
X285107095Y-113561880D01*
X284773761Y-113561880D01*
X284678523Y-113609500D01*
X284630904Y-113657119D01*
X284583285Y-113752357D01*
X284583285Y-113847595D01*
X284630904Y-113942833D01*
X284678523Y-113990452D01*
X284773761Y-114038071D01*
X285107095Y-114038071D01*
X283964238Y-113990452D02*
X284059476Y-113942833D01*
X284107095Y-113895214D01*
X284154714Y-113799976D01*
X284154714Y-113752357D01*
X284107095Y-113657119D01*
X284059476Y-113609500D01*
X283964238Y-113561880D01*
X283773761Y-113561880D01*
X283678523Y-113609500D01*
X283630904Y-113657119D01*
X283583285Y-113752357D01*
X283583285Y-113799976D01*
X283630904Y-113895214D01*
X283678523Y-113942833D01*
X283773761Y-113990452D01*
X283964238Y-113990452D01*
X284059476Y-114038071D01*
X284107095Y-114085690D01*
X284154714Y-114180928D01*
X284154714Y-114371404D01*
X284107095Y-114466642D01*
X284059476Y-114514261D01*
X283964238Y-114561880D01*
X283773761Y-114561880D01*
X283678523Y-114514261D01*
X283630904Y-114466642D01*
X283583285Y-114371404D01*
X283583285Y-114180928D01*
X283630904Y-114085690D01*
X283678523Y-114038071D01*
X283773761Y-113990452D01*
X277610118Y-112383630D02*
X278181547Y-112383630D01*
X277895833Y-112383630D02*
X277895833Y-111383630D01*
X277991071Y-111526488D01*
X278086309Y-111621726D01*
X278181547Y-111669345D01*
X324487498Y-106814880D02*
X324820832Y-106338690D01*
X325058927Y-106814880D02*
X325058927Y-105814880D01*
X324677974Y-105814880D01*
X324582736Y-105862500D01*
X324535117Y-105910119D01*
X324487498Y-106005357D01*
X324487498Y-106148214D01*
X324535117Y-106243452D01*
X324582736Y-106291071D01*
X324677974Y-106338690D01*
X325058927Y-106338690D01*
X323535117Y-105862500D02*
X323630355Y-105814880D01*
X323773212Y-105814880D01*
X323916070Y-105862500D01*
X324011308Y-105957738D01*
X324058927Y-106052976D01*
X324106546Y-106243452D01*
X324106546Y-106386309D01*
X324058927Y-106576785D01*
X324011308Y-106672023D01*
X323916070Y-106767261D01*
X323773212Y-106814880D01*
X323677974Y-106814880D01*
X323535117Y-106767261D01*
X323487498Y-106719642D01*
X323487498Y-106386309D01*
X323677974Y-106386309D01*
X322725593Y-106291071D02*
X322582736Y-106338690D01*
X322535117Y-106386309D01*
X322487498Y-106481547D01*
X322487498Y-106624404D01*
X322535117Y-106719642D01*
X322582736Y-106767261D01*
X322677974Y-106814880D01*
X323058927Y-106814880D01*
X323058927Y-105814880D01*
X322725593Y-105814880D01*
X322630355Y-105862500D01*
X322582736Y-105910119D01*
X322535117Y-106005357D01*
X322535117Y-106100595D01*
X322582736Y-106195833D01*
X322630355Y-106243452D01*
X322725593Y-106291071D01*
X323058927Y-106291071D01*
X322154165Y-105814880D02*
X321487498Y-105814880D01*
X321916070Y-106814880D01*
X319149701Y-112383630D02*
X319721130Y-112383630D01*
X319435416Y-112383630D02*
X319435416Y-111383630D01*
X319530654Y-111526488D01*
X319625892Y-111621726D01*
X319721130Y-111669345D01*
X366799666Y-107132380D02*
X367133000Y-106656190D01*
X367371095Y-107132380D02*
X367371095Y-106132380D01*
X366990142Y-106132380D01*
X366894904Y-106180000D01*
X366847285Y-106227619D01*
X366799666Y-106322857D01*
X366799666Y-106465714D01*
X366847285Y-106560952D01*
X366894904Y-106608571D01*
X366990142Y-106656190D01*
X367371095Y-106656190D01*
X365847285Y-106180000D02*
X365942523Y-106132380D01*
X366085380Y-106132380D01*
X366228238Y-106180000D01*
X366323476Y-106275238D01*
X366371095Y-106370476D01*
X366418714Y-106560952D01*
X366418714Y-106703809D01*
X366371095Y-106894285D01*
X366323476Y-106989523D01*
X366228238Y-107084761D01*
X366085380Y-107132380D01*
X365990142Y-107132380D01*
X365847285Y-107084761D01*
X365799666Y-107037142D01*
X365799666Y-106703809D01*
X365990142Y-106703809D01*
X365037761Y-106608571D02*
X364894904Y-106656190D01*
X364847285Y-106703809D01*
X364799666Y-106799047D01*
X364799666Y-106941904D01*
X364847285Y-107037142D01*
X364894904Y-107084761D01*
X364990142Y-107132380D01*
X365371095Y-107132380D01*
X365371095Y-106132380D01*
X365037761Y-106132380D01*
X364942523Y-106180000D01*
X364894904Y-106227619D01*
X364847285Y-106322857D01*
X364847285Y-106418095D01*
X364894904Y-106513333D01*
X364942523Y-106560952D01*
X365037761Y-106608571D01*
X365371095Y-106608571D01*
X363942523Y-106132380D02*
X364133000Y-106132380D01*
X364228238Y-106180000D01*
X364275857Y-106227619D01*
X364371095Y-106370476D01*
X364418714Y-106560952D01*
X364418714Y-106941904D01*
X364371095Y-107037142D01*
X364323476Y-107084761D01*
X364228238Y-107132380D01*
X364037761Y-107132380D01*
X363942523Y-107084761D01*
X363894904Y-107037142D01*
X363847285Y-106941904D01*
X363847285Y-106703809D01*
X363894904Y-106608571D01*
X363942523Y-106560952D01*
X364037761Y-106513333D01*
X364228238Y-106513333D01*
X364323476Y-106560952D01*
X364371095Y-106608571D01*
X364418714Y-106703809D01*
X360689285Y-112383630D02*
X361260714Y-112383630D01*
X360975000Y-112383630D02*
X360975000Y-111383630D01*
X361070238Y-111526488D01*
X361165476Y-111621726D01*
X361260714Y-111669345D01*
X355179166Y-77914880D02*
X355512500Y-77438690D01*
X355750595Y-77914880D02*
X355750595Y-76914880D01*
X355369642Y-76914880D01*
X355274404Y-76962500D01*
X355226785Y-77010119D01*
X355179166Y-77105357D01*
X355179166Y-77248214D01*
X355226785Y-77343452D01*
X355274404Y-77391071D01*
X355369642Y-77438690D01*
X355750595Y-77438690D01*
X354226785Y-76962500D02*
X354322023Y-76914880D01*
X354464880Y-76914880D01*
X354607738Y-76962500D01*
X354702976Y-77057738D01*
X354750595Y-77152976D01*
X354798214Y-77343452D01*
X354798214Y-77486309D01*
X354750595Y-77676785D01*
X354702976Y-77772023D01*
X354607738Y-77867261D01*
X354464880Y-77914880D01*
X354369642Y-77914880D01*
X354226785Y-77867261D01*
X354179166Y-77819642D01*
X354179166Y-77486309D01*
X354369642Y-77486309D01*
X353417261Y-77391071D02*
X353274404Y-77438690D01*
X353226785Y-77486309D01*
X353179166Y-77581547D01*
X353179166Y-77724404D01*
X353226785Y-77819642D01*
X353274404Y-77867261D01*
X353369642Y-77914880D01*
X353750595Y-77914880D01*
X353750595Y-76914880D01*
X353417261Y-76914880D01*
X353322023Y-76962500D01*
X353274404Y-77010119D01*
X353226785Y-77105357D01*
X353226785Y-77200595D01*
X353274404Y-77295833D01*
X353322023Y-77343452D01*
X353417261Y-77391071D01*
X353750595Y-77391071D01*
X352274404Y-76914880D02*
X352750595Y-76914880D01*
X352798214Y-77391071D01*
X352750595Y-77343452D01*
X352655357Y-77295833D01*
X352417261Y-77295833D01*
X352322023Y-77343452D01*
X352274404Y-77391071D01*
X352226785Y-77486309D01*
X352226785Y-77724404D01*
X352274404Y-77819642D01*
X352322023Y-77867261D01*
X352417261Y-77914880D01*
X352655357Y-77914880D01*
X352750595Y-77867261D01*
X352798214Y-77819642D01*
X357727285Y-79319380D02*
X358298714Y-79319380D01*
X358013000Y-79319380D02*
X358013000Y-78319380D01*
X358108238Y-78462238D01*
X358203476Y-78557476D01*
X358298714Y-78605095D01*
X356766666Y-50133630D02*
X357100000Y-49657440D01*
X357338095Y-50133630D02*
X357338095Y-49133630D01*
X356957142Y-49133630D01*
X356861904Y-49181250D01*
X356814285Y-49228869D01*
X356766666Y-49324107D01*
X356766666Y-49466964D01*
X356814285Y-49562202D01*
X356861904Y-49609821D01*
X356957142Y-49657440D01*
X357338095Y-49657440D01*
X355814285Y-49181250D02*
X355909523Y-49133630D01*
X356052380Y-49133630D01*
X356195238Y-49181250D01*
X356290476Y-49276488D01*
X356338095Y-49371726D01*
X356385714Y-49562202D01*
X356385714Y-49705059D01*
X356338095Y-49895535D01*
X356290476Y-49990773D01*
X356195238Y-50086011D01*
X356052380Y-50133630D01*
X355957142Y-50133630D01*
X355814285Y-50086011D01*
X355766666Y-50038392D01*
X355766666Y-49705059D01*
X355957142Y-49705059D01*
X355004761Y-49609821D02*
X354861904Y-49657440D01*
X354814285Y-49705059D01*
X354766666Y-49800297D01*
X354766666Y-49943154D01*
X354814285Y-50038392D01*
X354861904Y-50086011D01*
X354957142Y-50133630D01*
X355338095Y-50133630D01*
X355338095Y-49133630D01*
X355004761Y-49133630D01*
X354909523Y-49181250D01*
X354861904Y-49228869D01*
X354814285Y-49324107D01*
X354814285Y-49419345D01*
X354861904Y-49514583D01*
X354909523Y-49562202D01*
X355004761Y-49609821D01*
X355338095Y-49609821D01*
X353909523Y-49466964D02*
X353909523Y-50133630D01*
X354147619Y-49086011D02*
X354385714Y-49800297D01*
X353766666Y-49800297D01*
X358552785Y-50109380D02*
X359124214Y-50109380D01*
X358838500Y-50109380D02*
X358838500Y-49109380D01*
X358933738Y-49252238D01*
X359028976Y-49347476D01*
X359124214Y-49395095D01*
X315491666Y-50133630D02*
X315825000Y-49657440D01*
X316063095Y-50133630D02*
X316063095Y-49133630D01*
X315682142Y-49133630D01*
X315586904Y-49181250D01*
X315539285Y-49228869D01*
X315491666Y-49324107D01*
X315491666Y-49466964D01*
X315539285Y-49562202D01*
X315586904Y-49609821D01*
X315682142Y-49657440D01*
X316063095Y-49657440D01*
X314539285Y-49181250D02*
X314634523Y-49133630D01*
X314777380Y-49133630D01*
X314920238Y-49181250D01*
X315015476Y-49276488D01*
X315063095Y-49371726D01*
X315110714Y-49562202D01*
X315110714Y-49705059D01*
X315063095Y-49895535D01*
X315015476Y-49990773D01*
X314920238Y-50086011D01*
X314777380Y-50133630D01*
X314682142Y-50133630D01*
X314539285Y-50086011D01*
X314491666Y-50038392D01*
X314491666Y-49705059D01*
X314682142Y-49705059D01*
X313729761Y-49609821D02*
X313586904Y-49657440D01*
X313539285Y-49705059D01*
X313491666Y-49800297D01*
X313491666Y-49943154D01*
X313539285Y-50038392D01*
X313586904Y-50086011D01*
X313682142Y-50133630D01*
X314063095Y-50133630D01*
X314063095Y-49133630D01*
X313729761Y-49133630D01*
X313634523Y-49181250D01*
X313586904Y-49228869D01*
X313539285Y-49324107D01*
X313539285Y-49419345D01*
X313586904Y-49514583D01*
X313634523Y-49562202D01*
X313729761Y-49609821D01*
X314063095Y-49609821D01*
X313158333Y-49133630D02*
X312539285Y-49133630D01*
X312872619Y-49514583D01*
X312729761Y-49514583D01*
X312634523Y-49562202D01*
X312586904Y-49609821D01*
X312539285Y-49705059D01*
X312539285Y-49943154D01*
X312586904Y-50038392D01*
X312634523Y-50086011D01*
X312729761Y-50133630D01*
X313015476Y-50133630D01*
X313110714Y-50086011D01*
X313158333Y-50038392D01*
X318189285Y-52033630D02*
X318760714Y-52033630D01*
X318475000Y-52033630D02*
X318475000Y-51033630D01*
X318570238Y-51176488D01*
X318665476Y-51271726D01*
X318760714Y-51319345D01*
X274216666Y-50133630D02*
X274550000Y-49657440D01*
X274788095Y-50133630D02*
X274788095Y-49133630D01*
X274407142Y-49133630D01*
X274311904Y-49181250D01*
X274264285Y-49228869D01*
X274216666Y-49324107D01*
X274216666Y-49466964D01*
X274264285Y-49562202D01*
X274311904Y-49609821D01*
X274407142Y-49657440D01*
X274788095Y-49657440D01*
X273264285Y-49181250D02*
X273359523Y-49133630D01*
X273502380Y-49133630D01*
X273645238Y-49181250D01*
X273740476Y-49276488D01*
X273788095Y-49371726D01*
X273835714Y-49562202D01*
X273835714Y-49705059D01*
X273788095Y-49895535D01*
X273740476Y-49990773D01*
X273645238Y-50086011D01*
X273502380Y-50133630D01*
X273407142Y-50133630D01*
X273264285Y-50086011D01*
X273216666Y-50038392D01*
X273216666Y-49705059D01*
X273407142Y-49705059D01*
X272454761Y-49609821D02*
X272311904Y-49657440D01*
X272264285Y-49705059D01*
X272216666Y-49800297D01*
X272216666Y-49943154D01*
X272264285Y-50038392D01*
X272311904Y-50086011D01*
X272407142Y-50133630D01*
X272788095Y-50133630D01*
X272788095Y-49133630D01*
X272454761Y-49133630D01*
X272359523Y-49181250D01*
X272311904Y-49228869D01*
X272264285Y-49324107D01*
X272264285Y-49419345D01*
X272311904Y-49514583D01*
X272359523Y-49562202D01*
X272454761Y-49609821D01*
X272788095Y-49609821D01*
X271835714Y-49228869D02*
X271788095Y-49181250D01*
X271692857Y-49133630D01*
X271454761Y-49133630D01*
X271359523Y-49181250D01*
X271311904Y-49228869D01*
X271264285Y-49324107D01*
X271264285Y-49419345D01*
X271311904Y-49562202D01*
X271883333Y-50133630D01*
X271264285Y-50133630D01*
X276914285Y-52033630D02*
X277485714Y-52033630D01*
X277200000Y-52033630D02*
X277200000Y-51033630D01*
X277295238Y-51176488D01*
X277390476Y-51271726D01*
X277485714Y-51319345D01*
X232941666Y-50133630D02*
X233275000Y-49657440D01*
X233513095Y-50133630D02*
X233513095Y-49133630D01*
X233132142Y-49133630D01*
X233036904Y-49181250D01*
X232989285Y-49228869D01*
X232941666Y-49324107D01*
X232941666Y-49466964D01*
X232989285Y-49562202D01*
X233036904Y-49609821D01*
X233132142Y-49657440D01*
X233513095Y-49657440D01*
X231989285Y-49181250D02*
X232084523Y-49133630D01*
X232227380Y-49133630D01*
X232370238Y-49181250D01*
X232465476Y-49276488D01*
X232513095Y-49371726D01*
X232560714Y-49562202D01*
X232560714Y-49705059D01*
X232513095Y-49895535D01*
X232465476Y-49990773D01*
X232370238Y-50086011D01*
X232227380Y-50133630D01*
X232132142Y-50133630D01*
X231989285Y-50086011D01*
X231941666Y-50038392D01*
X231941666Y-49705059D01*
X232132142Y-49705059D01*
X231179761Y-49609821D02*
X231036904Y-49657440D01*
X230989285Y-49705059D01*
X230941666Y-49800297D01*
X230941666Y-49943154D01*
X230989285Y-50038392D01*
X231036904Y-50086011D01*
X231132142Y-50133630D01*
X231513095Y-50133630D01*
X231513095Y-49133630D01*
X231179761Y-49133630D01*
X231084523Y-49181250D01*
X231036904Y-49228869D01*
X230989285Y-49324107D01*
X230989285Y-49419345D01*
X231036904Y-49514583D01*
X231084523Y-49562202D01*
X231179761Y-49609821D01*
X231513095Y-49609821D01*
X229989285Y-50133630D02*
X230560714Y-50133630D01*
X230275000Y-50133630D02*
X230275000Y-49133630D01*
X230370238Y-49276488D01*
X230465476Y-49371726D01*
X230560714Y-49419345D01*
X235639285Y-52033630D02*
X236210714Y-52033630D01*
X235925000Y-52033630D02*
X235925000Y-51033630D01*
X236020238Y-51176488D01*
X236115476Y-51271726D01*
X236210714Y-51319345D01*
X362370535Y-41727380D02*
X362370535Y-40727380D01*
X362132440Y-40727380D01*
X361989583Y-40775000D01*
X361894345Y-40870238D01*
X361846726Y-40965476D01*
X361799107Y-41155952D01*
X361799107Y-41298809D01*
X361846726Y-41489285D01*
X361894345Y-41584523D01*
X361989583Y-41679761D01*
X362132440Y-41727380D01*
X362370535Y-41727380D01*
X360941964Y-41060714D02*
X360941964Y-41727380D01*
X361180059Y-40679761D02*
X361418154Y-41394047D01*
X360799107Y-41394047D01*
X360465773Y-40822619D02*
X360418154Y-40775000D01*
X360322916Y-40727380D01*
X360084821Y-40727380D01*
X359989583Y-40775000D01*
X359941964Y-40822619D01*
X359894345Y-40917857D01*
X359894345Y-41013095D01*
X359941964Y-41155952D01*
X360513392Y-41727380D01*
X359894345Y-41727380D01*
X365803380Y-53006666D02*
X366517666Y-53006666D01*
X366660523Y-52959047D01*
X366755761Y-52863809D01*
X366803380Y-52720952D01*
X366803380Y-52625714D01*
X366803380Y-54006666D02*
X366803380Y-53435238D01*
X366803380Y-53720952D02*
X365803380Y-53720952D01*
X365946238Y-53625714D01*
X366041476Y-53530476D01*
X366089095Y-53435238D01*
X364902690Y-56327190D02*
X364902690Y-56803380D01*
X365236023Y-55803380D02*
X364902690Y-56327190D01*
X364569357Y-55803380D01*
X363712214Y-56803380D02*
X364283642Y-56803380D01*
X363997928Y-56803380D02*
X363997928Y-55803380D01*
X364093166Y-55946238D01*
X364188404Y-56041476D01*
X364283642Y-56089095D01*
X352147166Y-67508380D02*
X352480500Y-67032190D01*
X352718595Y-67508380D02*
X352718595Y-66508380D01*
X352337642Y-66508380D01*
X352242404Y-66556000D01*
X352194785Y-66603619D01*
X352147166Y-66698857D01*
X352147166Y-66841714D01*
X352194785Y-66936952D01*
X352242404Y-66984571D01*
X352337642Y-67032190D01*
X352718595Y-67032190D01*
X351194785Y-67508380D02*
X351766214Y-67508380D01*
X351480500Y-67508380D02*
X351480500Y-66508380D01*
X351575738Y-66651238D01*
X351670976Y-66746476D01*
X351766214Y-66794095D01*
X375609380Y-76804333D02*
X375133190Y-76471000D01*
X375609380Y-76232904D02*
X374609380Y-76232904D01*
X374609380Y-76613857D01*
X374657000Y-76709095D01*
X374704619Y-76756714D01*
X374799857Y-76804333D01*
X374942714Y-76804333D01*
X375037952Y-76756714D01*
X375085571Y-76709095D01*
X375133190Y-76613857D01*
X375133190Y-76232904D01*
X374609380Y-77709095D02*
X374609380Y-77232904D01*
X375085571Y-77185285D01*
X375037952Y-77232904D01*
X374990333Y-77328142D01*
X374990333Y-77566238D01*
X375037952Y-77661476D01*
X375085571Y-77709095D01*
X375180809Y-77756714D01*
X375418904Y-77756714D01*
X375514142Y-77709095D01*
X375561761Y-77661476D01*
X375609380Y-77566238D01*
X375609380Y-77328142D01*
X375561761Y-77232904D01*
X375514142Y-77185285D01*
X351797880Y-73556833D02*
X351321690Y-73223500D01*
X351797880Y-72985404D02*
X350797880Y-72985404D01*
X350797880Y-73366357D01*
X350845500Y-73461595D01*
X350893119Y-73509214D01*
X350988357Y-73556833D01*
X351131214Y-73556833D01*
X351226452Y-73509214D01*
X351274071Y-73461595D01*
X351321690Y-73366357D01*
X351321690Y-72985404D01*
X350893119Y-73937785D02*
X350845500Y-73985404D01*
X350797880Y-74080642D01*
X350797880Y-74318738D01*
X350845500Y-74413976D01*
X350893119Y-74461595D01*
X350988357Y-74509214D01*
X351083595Y-74509214D01*
X351226452Y-74461595D01*
X351797880Y-73890166D01*
X351797880Y-74509214D01*
X370752666Y-115641380D02*
X371086000Y-115165190D01*
X371324095Y-115641380D02*
X371324095Y-114641380D01*
X370943142Y-114641380D01*
X370847904Y-114689000D01*
X370800285Y-114736619D01*
X370752666Y-114831857D01*
X370752666Y-114974714D01*
X370800285Y-115069952D01*
X370847904Y-115117571D01*
X370943142Y-115165190D01*
X371324095Y-115165190D01*
X369895523Y-114641380D02*
X370086000Y-114641380D01*
X370181238Y-114689000D01*
X370228857Y-114736619D01*
X370324095Y-114879476D01*
X370371714Y-115069952D01*
X370371714Y-115450904D01*
X370324095Y-115546142D01*
X370276476Y-115593761D01*
X370181238Y-115641380D01*
X369990761Y-115641380D01*
X369895523Y-115593761D01*
X369847904Y-115546142D01*
X369800285Y-115450904D01*
X369800285Y-115212809D01*
X369847904Y-115117571D01*
X369895523Y-115069952D01*
X369990761Y-115022333D01*
X370181238Y-115022333D01*
X370276476Y-115069952D01*
X370324095Y-115117571D01*
X370371714Y-115212809D01*
X349384880Y-73556833D02*
X348908690Y-73223500D01*
X349384880Y-72985404D02*
X348384880Y-72985404D01*
X348384880Y-73366357D01*
X348432500Y-73461595D01*
X348480119Y-73509214D01*
X348575357Y-73556833D01*
X348718214Y-73556833D01*
X348813452Y-73509214D01*
X348861071Y-73461595D01*
X348908690Y-73366357D01*
X348908690Y-72985404D01*
X348384880Y-73890166D02*
X348384880Y-74509214D01*
X348765833Y-74175880D01*
X348765833Y-74318738D01*
X348813452Y-74413976D01*
X348861071Y-74461595D01*
X348956309Y-74509214D01*
X349194404Y-74509214D01*
X349289642Y-74461595D01*
X349337261Y-74413976D01*
X349384880Y-74318738D01*
X349384880Y-74033023D01*
X349337261Y-73937785D01*
X349289642Y-73890166D01*
X369608630Y-46569333D02*
X369132440Y-46236000D01*
X369608630Y-45997904D02*
X368608630Y-45997904D01*
X368608630Y-46378857D01*
X368656250Y-46474095D01*
X368703869Y-46521714D01*
X368799107Y-46569333D01*
X368941964Y-46569333D01*
X369037202Y-46521714D01*
X369084821Y-46474095D01*
X369132440Y-46378857D01*
X369132440Y-45997904D01*
X369037202Y-47140761D02*
X368989583Y-47045523D01*
X368941964Y-46997904D01*
X368846726Y-46950285D01*
X368799107Y-46950285D01*
X368703869Y-46997904D01*
X368656250Y-47045523D01*
X368608630Y-47140761D01*
X368608630Y-47331238D01*
X368656250Y-47426476D01*
X368703869Y-47474095D01*
X368799107Y-47521714D01*
X368846726Y-47521714D01*
X368941964Y-47474095D01*
X368989583Y-47426476D01*
X369037202Y-47331238D01*
X369037202Y-47140761D01*
X369084821Y-47045523D01*
X369132440Y-46997904D01*
X369227678Y-46950285D01*
X369418154Y-46950285D01*
X369513392Y-46997904D01*
X369561011Y-47045523D01*
X369608630Y-47140761D01*
X369608630Y-47331238D01*
X369561011Y-47426476D01*
X369513392Y-47474095D01*
X369418154Y-47521714D01*
X369227678Y-47521714D01*
X369132440Y-47474095D01*
X369084821Y-47426476D01*
X369037202Y-47331238D01*
X361545130Y-46569333D02*
X361068940Y-46236000D01*
X361545130Y-45997904D02*
X360545130Y-45997904D01*
X360545130Y-46378857D01*
X360592750Y-46474095D01*
X360640369Y-46521714D01*
X360735607Y-46569333D01*
X360878464Y-46569333D01*
X360973702Y-46521714D01*
X361021321Y-46474095D01*
X361068940Y-46378857D01*
X361068940Y-45997904D01*
X360545130Y-46902666D02*
X360545130Y-47569333D01*
X361545130Y-47140761D01*
X353544142Y-73461642D02*
X353591761Y-73414023D01*
X353639380Y-73271166D01*
X353639380Y-73175928D01*
X353591761Y-73033071D01*
X353496523Y-72937833D01*
X353401285Y-72890214D01*
X353210809Y-72842595D01*
X353067952Y-72842595D01*
X352877476Y-72890214D01*
X352782238Y-72937833D01*
X352687000Y-73033071D01*
X352639380Y-73175928D01*
X352639380Y-73271166D01*
X352687000Y-73414023D01*
X352734619Y-73461642D01*
X353639380Y-74414023D02*
X353639380Y-73842595D01*
X353639380Y-74128309D02*
X352639380Y-74128309D01*
X352782238Y-74033071D01*
X352877476Y-73937833D01*
X352925095Y-73842595D01*
X352639380Y-74747357D02*
X352639380Y-75366404D01*
X353020333Y-75033071D01*
X353020333Y-75175928D01*
X353067952Y-75271166D01*
X353115571Y-75318785D01*
X353210809Y-75366404D01*
X353448904Y-75366404D01*
X353544142Y-75318785D01*
X353591761Y-75271166D01*
X353639380Y-75175928D01*
X353639380Y-74890214D01*
X353591761Y-74794976D01*
X353544142Y-74747357D01*
X359767142Y-81145142D02*
X359814761Y-81097523D01*
X359862380Y-80954666D01*
X359862380Y-80859428D01*
X359814761Y-80716571D01*
X359719523Y-80621333D01*
X359624285Y-80573714D01*
X359433809Y-80526095D01*
X359290952Y-80526095D01*
X359100476Y-80573714D01*
X359005238Y-80621333D01*
X358910000Y-80716571D01*
X358862380Y-80859428D01*
X358862380Y-80954666D01*
X358910000Y-81097523D01*
X358957619Y-81145142D01*
X359862380Y-82097523D02*
X359862380Y-81526095D01*
X359862380Y-81811809D02*
X358862380Y-81811809D01*
X359005238Y-81716571D01*
X359100476Y-81621333D01*
X359148095Y-81526095D01*
X359862380Y-82573714D02*
X359862380Y-82764190D01*
X359814761Y-82859428D01*
X359767142Y-82907047D01*
X359624285Y-83002285D01*
X359433809Y-83049904D01*
X359052857Y-83049904D01*
X358957619Y-83002285D01*
X358910000Y-82954666D01*
X358862380Y-82859428D01*
X358862380Y-82668952D01*
X358910000Y-82573714D01*
X358957619Y-82526095D01*
X359052857Y-82478476D01*
X359290952Y-82478476D01*
X359386190Y-82526095D01*
X359433809Y-82573714D01*
X359481428Y-82668952D01*
X359481428Y-82859428D01*
X359433809Y-82954666D01*
X359386190Y-83002285D01*
X359290952Y-83049904D01*
X361703857Y-56618142D02*
X361751476Y-56665761D01*
X361894333Y-56713380D01*
X361989571Y-56713380D01*
X362132428Y-56665761D01*
X362227666Y-56570523D01*
X362275285Y-56475285D01*
X362322904Y-56284809D01*
X362322904Y-56141952D01*
X362275285Y-55951476D01*
X362227666Y-55856238D01*
X362132428Y-55761000D01*
X361989571Y-55713380D01*
X361894333Y-55713380D01*
X361751476Y-55761000D01*
X361703857Y-55808619D01*
X360751476Y-56713380D02*
X361322904Y-56713380D01*
X361037190Y-56713380D02*
X361037190Y-55713380D01*
X361132428Y-55856238D01*
X361227666Y-55951476D01*
X361322904Y-55999095D01*
X360370523Y-55808619D02*
X360322904Y-55761000D01*
X360227666Y-55713380D01*
X359989571Y-55713380D01*
X359894333Y-55761000D01*
X359846714Y-55808619D01*
X359799095Y-55903857D01*
X359799095Y-55999095D01*
X359846714Y-56141952D01*
X360418142Y-56713380D01*
X359799095Y-56713380D01*
X373705357Y-69699142D02*
X373752976Y-69746761D01*
X373895833Y-69794380D01*
X373991071Y-69794380D01*
X374133928Y-69746761D01*
X374229166Y-69651523D01*
X374276785Y-69556285D01*
X374324404Y-69365809D01*
X374324404Y-69222952D01*
X374276785Y-69032476D01*
X374229166Y-68937238D01*
X374133928Y-68842000D01*
X373991071Y-68794380D01*
X373895833Y-68794380D01*
X373752976Y-68842000D01*
X373705357Y-68889619D01*
X372752976Y-69794380D02*
X373324404Y-69794380D01*
X373038690Y-69794380D02*
X373038690Y-68794380D01*
X373133928Y-68937238D01*
X373229166Y-69032476D01*
X373324404Y-69080095D01*
X372181547Y-69222952D02*
X372276785Y-69175333D01*
X372324404Y-69127714D01*
X372372023Y-69032476D01*
X372372023Y-68984857D01*
X372324404Y-68889619D01*
X372276785Y-68842000D01*
X372181547Y-68794380D01*
X371991071Y-68794380D01*
X371895833Y-68842000D01*
X371848214Y-68889619D01*
X371800595Y-68984857D01*
X371800595Y-69032476D01*
X371848214Y-69127714D01*
X371895833Y-69175333D01*
X371991071Y-69222952D01*
X372181547Y-69222952D01*
X372276785Y-69270571D01*
X372324404Y-69318190D01*
X372372023Y-69413428D01*
X372372023Y-69603904D01*
X372324404Y-69699142D01*
X372276785Y-69746761D01*
X372181547Y-69794380D01*
X371991071Y-69794380D01*
X371895833Y-69746761D01*
X371848214Y-69699142D01*
X371800595Y-69603904D01*
X371800595Y-69413428D01*
X371848214Y-69318190D01*
X371895833Y-69270571D01*
X371991071Y-69222952D01*
X368307857Y-61698142D02*
X368355476Y-61745761D01*
X368498333Y-61793380D01*
X368593571Y-61793380D01*
X368736428Y-61745761D01*
X368831666Y-61650523D01*
X368879285Y-61555285D01*
X368926904Y-61364809D01*
X368926904Y-61221952D01*
X368879285Y-61031476D01*
X368831666Y-60936238D01*
X368736428Y-60841000D01*
X368593571Y-60793380D01*
X368498333Y-60793380D01*
X368355476Y-60841000D01*
X368307857Y-60888619D01*
X367355476Y-61793380D02*
X367926904Y-61793380D01*
X367641190Y-61793380D02*
X367641190Y-60793380D01*
X367736428Y-60936238D01*
X367831666Y-61031476D01*
X367926904Y-61079095D01*
X366403095Y-61793380D02*
X366974523Y-61793380D01*
X366688809Y-61793380D02*
X366688809Y-60793380D01*
X366784047Y-60936238D01*
X366879285Y-61031476D01*
X366974523Y-61079095D01*
X367926857Y-78843142D02*
X367974476Y-78890761D01*
X368117333Y-78938380D01*
X368212571Y-78938380D01*
X368355428Y-78890761D01*
X368450666Y-78795523D01*
X368498285Y-78700285D01*
X368545904Y-78509809D01*
X368545904Y-78366952D01*
X368498285Y-78176476D01*
X368450666Y-78081238D01*
X368355428Y-77986000D01*
X368212571Y-77938380D01*
X368117333Y-77938380D01*
X367974476Y-77986000D01*
X367926857Y-78033619D01*
X366974476Y-78938380D02*
X367545904Y-78938380D01*
X367260190Y-78938380D02*
X367260190Y-77938380D01*
X367355428Y-78081238D01*
X367450666Y-78176476D01*
X367545904Y-78224095D01*
X366641142Y-77938380D02*
X365974476Y-77938380D01*
X366403047Y-78938380D01*
X359767142Y-79113142D02*
X359814761Y-79065523D01*
X359862380Y-78922666D01*
X359862380Y-78827428D01*
X359814761Y-78684571D01*
X359719523Y-78589333D01*
X359624285Y-78541714D01*
X359433809Y-78494095D01*
X359290952Y-78494095D01*
X359100476Y-78541714D01*
X359005238Y-78589333D01*
X358910000Y-78684571D01*
X358862380Y-78827428D01*
X358862380Y-78922666D01*
X358910000Y-79065523D01*
X358957619Y-79113142D01*
X359862380Y-80065523D02*
X359862380Y-79494095D01*
X359862380Y-79779809D02*
X358862380Y-79779809D01*
X359005238Y-79684571D01*
X359100476Y-79589333D01*
X359148095Y-79494095D01*
X358862380Y-80922666D02*
X358862380Y-80732190D01*
X358910000Y-80636952D01*
X358957619Y-80589333D01*
X359100476Y-80494095D01*
X359290952Y-80446476D01*
X359671904Y-80446476D01*
X359767142Y-80494095D01*
X359814761Y-80541714D01*
X359862380Y-80636952D01*
X359862380Y-80827428D01*
X359814761Y-80922666D01*
X359767142Y-80970285D01*
X359671904Y-81017904D01*
X359433809Y-81017904D01*
X359338571Y-80970285D01*
X359290952Y-80922666D01*
X359243333Y-80827428D01*
X359243333Y-80636952D01*
X359290952Y-80541714D01*
X359338571Y-80494095D01*
X359433809Y-80446476D01*
X359694642Y-61745892D02*
X359742261Y-61698273D01*
X359789880Y-61555416D01*
X359789880Y-61460178D01*
X359742261Y-61317321D01*
X359647023Y-61222083D01*
X359551785Y-61174464D01*
X359361309Y-61126845D01*
X359218452Y-61126845D01*
X359027976Y-61174464D01*
X358932738Y-61222083D01*
X358837500Y-61317321D01*
X358789880Y-61460178D01*
X358789880Y-61555416D01*
X358837500Y-61698273D01*
X358885119Y-61745892D01*
X359789880Y-62698273D02*
X359789880Y-62126845D01*
X359789880Y-62412559D02*
X358789880Y-62412559D01*
X358932738Y-62317321D01*
X359027976Y-62222083D01*
X359075595Y-62126845D01*
X358789880Y-63603035D02*
X358789880Y-63126845D01*
X359266071Y-63079226D01*
X359218452Y-63126845D01*
X359170833Y-63222083D01*
X359170833Y-63460178D01*
X359218452Y-63555416D01*
X359266071Y-63603035D01*
X359361309Y-63650654D01*
X359599404Y-63650654D01*
X359694642Y-63603035D01*
X359742261Y-63555416D01*
X359789880Y-63460178D01*
X359789880Y-63222083D01*
X359742261Y-63126845D01*
X359694642Y-63079226D01*
X365426583Y-50093571D02*
X365759916Y-50093571D01*
X365759916Y-50617380D02*
X365759916Y-49617380D01*
X365283726Y-49617380D01*
X364378964Y-50617380D02*
X364950392Y-50617380D01*
X364664678Y-50617380D02*
X364664678Y-49617380D01*
X364759916Y-49760238D01*
X364855154Y-49855476D01*
X364950392Y-49903095D01*
X330377678Y-107061904D02*
X330377678Y-106261904D01*
X330187202Y-106261904D01*
X330072916Y-106300000D01*
X329996726Y-106376190D01*
X329958630Y-106452380D01*
X329920535Y-106604761D01*
X329920535Y-106719047D01*
X329958630Y-106871428D01*
X329996726Y-106947619D01*
X330072916Y-107023809D01*
X330187202Y-107061904D01*
X330377678Y-107061904D01*
X329653869Y-106261904D02*
X329158630Y-106261904D01*
X329425297Y-106566666D01*
X329311011Y-106566666D01*
X329234821Y-106604761D01*
X329196726Y-106642857D01*
X329158630Y-106719047D01*
X329158630Y-106909523D01*
X329196726Y-106985714D01*
X329234821Y-107023809D01*
X329311011Y-107061904D01*
X329539583Y-107061904D01*
X329615773Y-107023809D01*
X329653869Y-106985714D01*
X328853869Y-106338095D02*
X328815773Y-106300000D01*
X328739583Y-106261904D01*
X328549107Y-106261904D01*
X328472916Y-106300000D01*
X328434821Y-106338095D01*
X328396726Y-106414285D01*
X328396726Y-106490476D01*
X328434821Y-106604761D01*
X328891964Y-107061904D01*
X328396726Y-107061904D01*
X313708928Y-88011904D02*
X313708928Y-87211904D01*
X313518452Y-87211904D01*
X313404166Y-87250000D01*
X313327976Y-87326190D01*
X313289880Y-87402380D01*
X313251785Y-87554761D01*
X313251785Y-87669047D01*
X313289880Y-87821428D01*
X313327976Y-87897619D01*
X313404166Y-87973809D01*
X313518452Y-88011904D01*
X313708928Y-88011904D01*
X312947023Y-87288095D02*
X312908928Y-87250000D01*
X312832738Y-87211904D01*
X312642261Y-87211904D01*
X312566071Y-87250000D01*
X312527976Y-87288095D01*
X312489880Y-87364285D01*
X312489880Y-87440476D01*
X312527976Y-87554761D01*
X312985119Y-88011904D01*
X312489880Y-88011904D01*
X311804166Y-87478571D02*
X311804166Y-88011904D01*
X311994642Y-87173809D02*
X312185119Y-87745238D01*
X311689880Y-87745238D01*
X308946428Y-68961904D02*
X308946428Y-68161904D01*
X308755952Y-68161904D01*
X308641666Y-68200000D01*
X308565476Y-68276190D01*
X308527380Y-68352380D01*
X308489285Y-68504761D01*
X308489285Y-68619047D01*
X308527380Y-68771428D01*
X308565476Y-68847619D01*
X308641666Y-68923809D01*
X308755952Y-68961904D01*
X308946428Y-68961904D01*
X307727380Y-68961904D02*
X308184523Y-68961904D01*
X307955952Y-68961904D02*
X307955952Y-68161904D01*
X308032142Y-68276190D01*
X308108333Y-68352380D01*
X308184523Y-68390476D01*
X307003571Y-68161904D02*
X307384523Y-68161904D01*
X307422619Y-68542857D01*
X307384523Y-68504761D01*
X307308333Y-68466666D01*
X307117857Y-68466666D01*
X307041666Y-68504761D01*
X307003571Y-68542857D01*
X306965476Y-68619047D01*
X306965476Y-68809523D01*
X307003571Y-68885714D01*
X307041666Y-68923809D01*
X307117857Y-68961904D01*
X307308333Y-68961904D01*
X307384523Y-68923809D01*
X307422619Y-68885714D01*
X318090476Y-49911904D02*
X318090476Y-49111904D01*
X317900000Y-49111904D01*
X317785714Y-49150000D01*
X317709523Y-49226190D01*
X317671428Y-49302380D01*
X317633333Y-49454761D01*
X317633333Y-49569047D01*
X317671428Y-49721428D01*
X317709523Y-49797619D01*
X317785714Y-49873809D01*
X317900000Y-49911904D01*
X318090476Y-49911904D01*
X316947619Y-49111904D02*
X317100000Y-49111904D01*
X317176190Y-49150000D01*
X317214285Y-49188095D01*
X317290476Y-49302380D01*
X317328571Y-49454761D01*
X317328571Y-49759523D01*
X317290476Y-49835714D01*
X317252380Y-49873809D01*
X317176190Y-49911904D01*
X317023809Y-49911904D01*
X316947619Y-49873809D01*
X316909523Y-49835714D01*
X316871428Y-49759523D01*
X316871428Y-49569047D01*
X316909523Y-49492857D01*
X316947619Y-49454761D01*
X317023809Y-49416666D01*
X317176190Y-49416666D01*
X317252380Y-49454761D01*
X317290476Y-49492857D01*
X317328571Y-49569047D01*
X337521428Y-126111904D02*
X337521428Y-125311904D01*
X337330952Y-125311904D01*
X337216666Y-125350000D01*
X337140476Y-125426190D01*
X337102380Y-125502380D01*
X337064285Y-125654761D01*
X337064285Y-125769047D01*
X337102380Y-125921428D01*
X337140476Y-125997619D01*
X337216666Y-126073809D01*
X337330952Y-126111904D01*
X337521428Y-126111904D01*
X336797619Y-125311904D02*
X336302380Y-125311904D01*
X336569047Y-125616666D01*
X336454761Y-125616666D01*
X336378571Y-125654761D01*
X336340476Y-125692857D01*
X336302380Y-125769047D01*
X336302380Y-125959523D01*
X336340476Y-126035714D01*
X336378571Y-126073809D01*
X336454761Y-126111904D01*
X336683333Y-126111904D01*
X336759523Y-126073809D01*
X336797619Y-126035714D01*
X335921428Y-126111904D02*
X335769047Y-126111904D01*
X335692857Y-126073809D01*
X335654761Y-126035714D01*
X335578571Y-125921428D01*
X335540476Y-125769047D01*
X335540476Y-125464285D01*
X335578571Y-125388095D01*
X335616666Y-125350000D01*
X335692857Y-125311904D01*
X335845238Y-125311904D01*
X335921428Y-125350000D01*
X335959523Y-125388095D01*
X335997619Y-125464285D01*
X335997619Y-125654761D01*
X335959523Y-125730952D01*
X335921428Y-125769047D01*
X335845238Y-125807142D01*
X335692857Y-125807142D01*
X335616666Y-125769047D01*
X335578571Y-125730952D01*
X335540476Y-125654761D01*
X304183928Y-107061904D02*
X304183928Y-106261904D01*
X303993452Y-106261904D01*
X303879166Y-106300000D01*
X303802976Y-106376190D01*
X303764880Y-106452380D01*
X303726785Y-106604761D01*
X303726785Y-106719047D01*
X303764880Y-106871428D01*
X303802976Y-106947619D01*
X303879166Y-107023809D01*
X303993452Y-107061904D01*
X304183928Y-107061904D01*
X303460119Y-106261904D02*
X302964880Y-106261904D01*
X303231547Y-106566666D01*
X303117261Y-106566666D01*
X303041071Y-106604761D01*
X303002976Y-106642857D01*
X302964880Y-106719047D01*
X302964880Y-106909523D01*
X303002976Y-106985714D01*
X303041071Y-107023809D01*
X303117261Y-107061904D01*
X303345833Y-107061904D01*
X303422023Y-107023809D01*
X303460119Y-106985714D01*
X302202976Y-107061904D02*
X302660119Y-107061904D01*
X302431547Y-107061904D02*
X302431547Y-106261904D01*
X302507738Y-106376190D01*
X302583928Y-106452380D01*
X302660119Y-106490476D01*
X294658928Y-88011904D02*
X294658928Y-87211904D01*
X294468452Y-87211904D01*
X294354166Y-87250000D01*
X294277976Y-87326190D01*
X294239880Y-87402380D01*
X294201785Y-87554761D01*
X294201785Y-87669047D01*
X294239880Y-87821428D01*
X294277976Y-87897619D01*
X294354166Y-87973809D01*
X294468452Y-88011904D01*
X294658928Y-88011904D01*
X293897023Y-87288095D02*
X293858928Y-87250000D01*
X293782738Y-87211904D01*
X293592261Y-87211904D01*
X293516071Y-87250000D01*
X293477976Y-87288095D01*
X293439880Y-87364285D01*
X293439880Y-87440476D01*
X293477976Y-87554761D01*
X293935119Y-88011904D01*
X293439880Y-88011904D01*
X293173214Y-87211904D02*
X292677976Y-87211904D01*
X292944642Y-87516666D01*
X292830357Y-87516666D01*
X292754166Y-87554761D01*
X292716071Y-87592857D01*
X292677976Y-87669047D01*
X292677976Y-87859523D01*
X292716071Y-87935714D01*
X292754166Y-87973809D01*
X292830357Y-88011904D01*
X293058928Y-88011904D01*
X293135119Y-87973809D01*
X293173214Y-87935714D01*
X289896428Y-68961904D02*
X289896428Y-68161904D01*
X289705952Y-68161904D01*
X289591666Y-68200000D01*
X289515476Y-68276190D01*
X289477380Y-68352380D01*
X289439285Y-68504761D01*
X289439285Y-68619047D01*
X289477380Y-68771428D01*
X289515476Y-68847619D01*
X289591666Y-68923809D01*
X289705952Y-68961904D01*
X289896428Y-68961904D01*
X288677380Y-68961904D02*
X289134523Y-68961904D01*
X288905952Y-68961904D02*
X288905952Y-68161904D01*
X288982142Y-68276190D01*
X289058333Y-68352380D01*
X289134523Y-68390476D01*
X287991666Y-68428571D02*
X287991666Y-68961904D01*
X288182142Y-68123809D02*
X288372619Y-68695238D01*
X287877380Y-68695238D01*
X299040476Y-49911904D02*
X299040476Y-49111904D01*
X298850000Y-49111904D01*
X298735714Y-49150000D01*
X298659523Y-49226190D01*
X298621428Y-49302380D01*
X298583333Y-49454761D01*
X298583333Y-49569047D01*
X298621428Y-49721428D01*
X298659523Y-49797619D01*
X298735714Y-49873809D01*
X298850000Y-49911904D01*
X299040476Y-49911904D01*
X297859523Y-49111904D02*
X298240476Y-49111904D01*
X298278571Y-49492857D01*
X298240476Y-49454761D01*
X298164285Y-49416666D01*
X297973809Y-49416666D01*
X297897619Y-49454761D01*
X297859523Y-49492857D01*
X297821428Y-49569047D01*
X297821428Y-49759523D01*
X297859523Y-49835714D01*
X297897619Y-49873809D01*
X297973809Y-49911904D01*
X298164285Y-49911904D01*
X298240476Y-49873809D01*
X298278571Y-49835714D01*
X318471428Y-126111904D02*
X318471428Y-125311904D01*
X318280952Y-125311904D01*
X318166666Y-125350000D01*
X318090476Y-125426190D01*
X318052380Y-125502380D01*
X318014285Y-125654761D01*
X318014285Y-125769047D01*
X318052380Y-125921428D01*
X318090476Y-125997619D01*
X318166666Y-126073809D01*
X318280952Y-126111904D01*
X318471428Y-126111904D01*
X317747619Y-125311904D02*
X317252380Y-125311904D01*
X317519047Y-125616666D01*
X317404761Y-125616666D01*
X317328571Y-125654761D01*
X317290476Y-125692857D01*
X317252380Y-125769047D01*
X317252380Y-125959523D01*
X317290476Y-126035714D01*
X317328571Y-126073809D01*
X317404761Y-126111904D01*
X317633333Y-126111904D01*
X317709523Y-126073809D01*
X317747619Y-126035714D01*
X316795238Y-125654761D02*
X316871428Y-125616666D01*
X316909523Y-125578571D01*
X316947619Y-125502380D01*
X316947619Y-125464285D01*
X316909523Y-125388095D01*
X316871428Y-125350000D01*
X316795238Y-125311904D01*
X316642857Y-125311904D01*
X316566666Y-125350000D01*
X316528571Y-125388095D01*
X316490476Y-125464285D01*
X316490476Y-125502380D01*
X316528571Y-125578571D01*
X316566666Y-125616666D01*
X316642857Y-125654761D01*
X316795238Y-125654761D01*
X316871428Y-125692857D01*
X316909523Y-125730952D01*
X316947619Y-125807142D01*
X316947619Y-125959523D01*
X316909523Y-126035714D01*
X316871428Y-126073809D01*
X316795238Y-126111904D01*
X316642857Y-126111904D01*
X316566666Y-126073809D01*
X316528571Y-126035714D01*
X316490476Y-125959523D01*
X316490476Y-125807142D01*
X316528571Y-125730952D01*
X316566666Y-125692857D01*
X316642857Y-125654761D01*
X285133928Y-106934904D02*
X285133928Y-106134904D01*
X284943452Y-106134904D01*
X284829166Y-106173000D01*
X284752976Y-106249190D01*
X284714880Y-106325380D01*
X284676785Y-106477761D01*
X284676785Y-106592047D01*
X284714880Y-106744428D01*
X284752976Y-106820619D01*
X284829166Y-106896809D01*
X284943452Y-106934904D01*
X285133928Y-106934904D01*
X284410119Y-106134904D02*
X283914880Y-106134904D01*
X284181547Y-106439666D01*
X284067261Y-106439666D01*
X283991071Y-106477761D01*
X283952976Y-106515857D01*
X283914880Y-106592047D01*
X283914880Y-106782523D01*
X283952976Y-106858714D01*
X283991071Y-106896809D01*
X284067261Y-106934904D01*
X284295833Y-106934904D01*
X284372023Y-106896809D01*
X284410119Y-106858714D01*
X283419642Y-106134904D02*
X283343452Y-106134904D01*
X283267261Y-106173000D01*
X283229166Y-106211095D01*
X283191071Y-106287285D01*
X283152976Y-106439666D01*
X283152976Y-106630142D01*
X283191071Y-106782523D01*
X283229166Y-106858714D01*
X283267261Y-106896809D01*
X283343452Y-106934904D01*
X283419642Y-106934904D01*
X283495833Y-106896809D01*
X283533928Y-106858714D01*
X283572023Y-106782523D01*
X283610119Y-106630142D01*
X283610119Y-106439666D01*
X283572023Y-106287285D01*
X283533928Y-106211095D01*
X283495833Y-106173000D01*
X283419642Y-106134904D01*
X275608928Y-87884904D02*
X275608928Y-87084904D01*
X275418452Y-87084904D01*
X275304166Y-87123000D01*
X275227976Y-87199190D01*
X275189880Y-87275380D01*
X275151785Y-87427761D01*
X275151785Y-87542047D01*
X275189880Y-87694428D01*
X275227976Y-87770619D01*
X275304166Y-87846809D01*
X275418452Y-87884904D01*
X275608928Y-87884904D01*
X274847023Y-87161095D02*
X274808928Y-87123000D01*
X274732738Y-87084904D01*
X274542261Y-87084904D01*
X274466071Y-87123000D01*
X274427976Y-87161095D01*
X274389880Y-87237285D01*
X274389880Y-87313476D01*
X274427976Y-87427761D01*
X274885119Y-87884904D01*
X274389880Y-87884904D01*
X274085119Y-87161095D02*
X274047023Y-87123000D01*
X273970833Y-87084904D01*
X273780357Y-87084904D01*
X273704166Y-87123000D01*
X273666071Y-87161095D01*
X273627976Y-87237285D01*
X273627976Y-87313476D01*
X273666071Y-87427761D01*
X274123214Y-87884904D01*
X273627976Y-87884904D01*
X270846428Y-68961904D02*
X270846428Y-68161904D01*
X270655952Y-68161904D01*
X270541666Y-68200000D01*
X270465476Y-68276190D01*
X270427380Y-68352380D01*
X270389285Y-68504761D01*
X270389285Y-68619047D01*
X270427380Y-68771428D01*
X270465476Y-68847619D01*
X270541666Y-68923809D01*
X270655952Y-68961904D01*
X270846428Y-68961904D01*
X269627380Y-68961904D02*
X270084523Y-68961904D01*
X269855952Y-68961904D02*
X269855952Y-68161904D01*
X269932142Y-68276190D01*
X270008333Y-68352380D01*
X270084523Y-68390476D01*
X269360714Y-68161904D02*
X268865476Y-68161904D01*
X269132142Y-68466666D01*
X269017857Y-68466666D01*
X268941666Y-68504761D01*
X268903571Y-68542857D01*
X268865476Y-68619047D01*
X268865476Y-68809523D01*
X268903571Y-68885714D01*
X268941666Y-68923809D01*
X269017857Y-68961904D01*
X269246428Y-68961904D01*
X269322619Y-68923809D01*
X269360714Y-68885714D01*
X279990476Y-49911904D02*
X279990476Y-49111904D01*
X279800000Y-49111904D01*
X279685714Y-49150000D01*
X279609523Y-49226190D01*
X279571428Y-49302380D01*
X279533333Y-49454761D01*
X279533333Y-49569047D01*
X279571428Y-49721428D01*
X279609523Y-49797619D01*
X279685714Y-49873809D01*
X279800000Y-49911904D01*
X279990476Y-49911904D01*
X278847619Y-49378571D02*
X278847619Y-49911904D01*
X279038095Y-49073809D02*
X279228571Y-49645238D01*
X278733333Y-49645238D01*
X299421428Y-126111904D02*
X299421428Y-125311904D01*
X299230952Y-125311904D01*
X299116666Y-125350000D01*
X299040476Y-125426190D01*
X299002380Y-125502380D01*
X298964285Y-125654761D01*
X298964285Y-125769047D01*
X299002380Y-125921428D01*
X299040476Y-125997619D01*
X299116666Y-126073809D01*
X299230952Y-126111904D01*
X299421428Y-126111904D01*
X298697619Y-125311904D02*
X298202380Y-125311904D01*
X298469047Y-125616666D01*
X298354761Y-125616666D01*
X298278571Y-125654761D01*
X298240476Y-125692857D01*
X298202380Y-125769047D01*
X298202380Y-125959523D01*
X298240476Y-126035714D01*
X298278571Y-126073809D01*
X298354761Y-126111904D01*
X298583333Y-126111904D01*
X298659523Y-126073809D01*
X298697619Y-126035714D01*
X297935714Y-125311904D02*
X297402380Y-125311904D01*
X297745238Y-126111904D01*
X266083928Y-107061904D02*
X266083928Y-106261904D01*
X265893452Y-106261904D01*
X265779166Y-106300000D01*
X265702976Y-106376190D01*
X265664880Y-106452380D01*
X265626785Y-106604761D01*
X265626785Y-106719047D01*
X265664880Y-106871428D01*
X265702976Y-106947619D01*
X265779166Y-107023809D01*
X265893452Y-107061904D01*
X266083928Y-107061904D01*
X265322023Y-106338095D02*
X265283928Y-106300000D01*
X265207738Y-106261904D01*
X265017261Y-106261904D01*
X264941071Y-106300000D01*
X264902976Y-106338095D01*
X264864880Y-106414285D01*
X264864880Y-106490476D01*
X264902976Y-106604761D01*
X265360119Y-107061904D01*
X264864880Y-107061904D01*
X264483928Y-107061904D02*
X264331547Y-107061904D01*
X264255357Y-107023809D01*
X264217261Y-106985714D01*
X264141071Y-106871428D01*
X264102976Y-106719047D01*
X264102976Y-106414285D01*
X264141071Y-106338095D01*
X264179166Y-106300000D01*
X264255357Y-106261904D01*
X264407738Y-106261904D01*
X264483928Y-106300000D01*
X264522023Y-106338095D01*
X264560119Y-106414285D01*
X264560119Y-106604761D01*
X264522023Y-106680952D01*
X264483928Y-106719047D01*
X264407738Y-106757142D01*
X264255357Y-106757142D01*
X264179166Y-106719047D01*
X264141071Y-106680952D01*
X264102976Y-106604761D01*
X256558928Y-88011904D02*
X256558928Y-87211904D01*
X256368452Y-87211904D01*
X256254166Y-87250000D01*
X256177976Y-87326190D01*
X256139880Y-87402380D01*
X256101785Y-87554761D01*
X256101785Y-87669047D01*
X256139880Y-87821428D01*
X256177976Y-87897619D01*
X256254166Y-87973809D01*
X256368452Y-88011904D01*
X256558928Y-88011904D01*
X255797023Y-87288095D02*
X255758928Y-87250000D01*
X255682738Y-87211904D01*
X255492261Y-87211904D01*
X255416071Y-87250000D01*
X255377976Y-87288095D01*
X255339880Y-87364285D01*
X255339880Y-87440476D01*
X255377976Y-87554761D01*
X255835119Y-88011904D01*
X255339880Y-88011904D01*
X254577976Y-88011904D02*
X255035119Y-88011904D01*
X254806547Y-88011904D02*
X254806547Y-87211904D01*
X254882738Y-87326190D01*
X254958928Y-87402380D01*
X255035119Y-87440476D01*
X251796428Y-68834904D02*
X251796428Y-68034904D01*
X251605952Y-68034904D01*
X251491666Y-68073000D01*
X251415476Y-68149190D01*
X251377380Y-68225380D01*
X251339285Y-68377761D01*
X251339285Y-68492047D01*
X251377380Y-68644428D01*
X251415476Y-68720619D01*
X251491666Y-68796809D01*
X251605952Y-68834904D01*
X251796428Y-68834904D01*
X250577380Y-68834904D02*
X251034523Y-68834904D01*
X250805952Y-68834904D02*
X250805952Y-68034904D01*
X250882142Y-68149190D01*
X250958333Y-68225380D01*
X251034523Y-68263476D01*
X250272619Y-68111095D02*
X250234523Y-68073000D01*
X250158333Y-68034904D01*
X249967857Y-68034904D01*
X249891666Y-68073000D01*
X249853571Y-68111095D01*
X249815476Y-68187285D01*
X249815476Y-68263476D01*
X249853571Y-68377761D01*
X250310714Y-68834904D01*
X249815476Y-68834904D01*
X260940476Y-49784904D02*
X260940476Y-48984904D01*
X260750000Y-48984904D01*
X260635714Y-49023000D01*
X260559523Y-49099190D01*
X260521428Y-49175380D01*
X260483333Y-49327761D01*
X260483333Y-49442047D01*
X260521428Y-49594428D01*
X260559523Y-49670619D01*
X260635714Y-49746809D01*
X260750000Y-49784904D01*
X260940476Y-49784904D01*
X260216666Y-48984904D02*
X259721428Y-48984904D01*
X259988095Y-49289666D01*
X259873809Y-49289666D01*
X259797619Y-49327761D01*
X259759523Y-49365857D01*
X259721428Y-49442047D01*
X259721428Y-49632523D01*
X259759523Y-49708714D01*
X259797619Y-49746809D01*
X259873809Y-49784904D01*
X260102380Y-49784904D01*
X260178571Y-49746809D01*
X260216666Y-49708714D01*
X280371428Y-126111904D02*
X280371428Y-125311904D01*
X280180952Y-125311904D01*
X280066666Y-125350000D01*
X279990476Y-125426190D01*
X279952380Y-125502380D01*
X279914285Y-125654761D01*
X279914285Y-125769047D01*
X279952380Y-125921428D01*
X279990476Y-125997619D01*
X280066666Y-126073809D01*
X280180952Y-126111904D01*
X280371428Y-126111904D01*
X279647619Y-125311904D02*
X279152380Y-125311904D01*
X279419047Y-125616666D01*
X279304761Y-125616666D01*
X279228571Y-125654761D01*
X279190476Y-125692857D01*
X279152380Y-125769047D01*
X279152380Y-125959523D01*
X279190476Y-126035714D01*
X279228571Y-126073809D01*
X279304761Y-126111904D01*
X279533333Y-126111904D01*
X279609523Y-126073809D01*
X279647619Y-126035714D01*
X278466666Y-125311904D02*
X278619047Y-125311904D01*
X278695238Y-125350000D01*
X278733333Y-125388095D01*
X278809523Y-125502380D01*
X278847619Y-125654761D01*
X278847619Y-125959523D01*
X278809523Y-126035714D01*
X278771428Y-126073809D01*
X278695238Y-126111904D01*
X278542857Y-126111904D01*
X278466666Y-126073809D01*
X278428571Y-126035714D01*
X278390476Y-125959523D01*
X278390476Y-125769047D01*
X278428571Y-125692857D01*
X278466666Y-125654761D01*
X278542857Y-125616666D01*
X278695238Y-125616666D01*
X278771428Y-125654761D01*
X278809523Y-125692857D01*
X278847619Y-125769047D01*
X247033928Y-106934904D02*
X247033928Y-106134904D01*
X246843452Y-106134904D01*
X246729166Y-106173000D01*
X246652976Y-106249190D01*
X246614880Y-106325380D01*
X246576785Y-106477761D01*
X246576785Y-106592047D01*
X246614880Y-106744428D01*
X246652976Y-106820619D01*
X246729166Y-106896809D01*
X246843452Y-106934904D01*
X247033928Y-106934904D01*
X246272023Y-106211095D02*
X246233928Y-106173000D01*
X246157738Y-106134904D01*
X245967261Y-106134904D01*
X245891071Y-106173000D01*
X245852976Y-106211095D01*
X245814880Y-106287285D01*
X245814880Y-106363476D01*
X245852976Y-106477761D01*
X246310119Y-106934904D01*
X245814880Y-106934904D01*
X245357738Y-106477761D02*
X245433928Y-106439666D01*
X245472023Y-106401571D01*
X245510119Y-106325380D01*
X245510119Y-106287285D01*
X245472023Y-106211095D01*
X245433928Y-106173000D01*
X245357738Y-106134904D01*
X245205357Y-106134904D01*
X245129166Y-106173000D01*
X245091071Y-106211095D01*
X245052976Y-106287285D01*
X245052976Y-106325380D01*
X245091071Y-106401571D01*
X245129166Y-106439666D01*
X245205357Y-106477761D01*
X245357738Y-106477761D01*
X245433928Y-106515857D01*
X245472023Y-106553952D01*
X245510119Y-106630142D01*
X245510119Y-106782523D01*
X245472023Y-106858714D01*
X245433928Y-106896809D01*
X245357738Y-106934904D01*
X245205357Y-106934904D01*
X245129166Y-106896809D01*
X245091071Y-106858714D01*
X245052976Y-106782523D01*
X245052976Y-106630142D01*
X245091071Y-106553952D01*
X245129166Y-106515857D01*
X245205357Y-106477761D01*
X237508928Y-88011904D02*
X237508928Y-87211904D01*
X237318452Y-87211904D01*
X237204166Y-87250000D01*
X237127976Y-87326190D01*
X237089880Y-87402380D01*
X237051785Y-87554761D01*
X237051785Y-87669047D01*
X237089880Y-87821428D01*
X237127976Y-87897619D01*
X237204166Y-87973809D01*
X237318452Y-88011904D01*
X237508928Y-88011904D01*
X236747023Y-87288095D02*
X236708928Y-87250000D01*
X236632738Y-87211904D01*
X236442261Y-87211904D01*
X236366071Y-87250000D01*
X236327976Y-87288095D01*
X236289880Y-87364285D01*
X236289880Y-87440476D01*
X236327976Y-87554761D01*
X236785119Y-88011904D01*
X236289880Y-88011904D01*
X235794642Y-87211904D02*
X235718452Y-87211904D01*
X235642261Y-87250000D01*
X235604166Y-87288095D01*
X235566071Y-87364285D01*
X235527976Y-87516666D01*
X235527976Y-87707142D01*
X235566071Y-87859523D01*
X235604166Y-87935714D01*
X235642261Y-87973809D01*
X235718452Y-88011904D01*
X235794642Y-88011904D01*
X235870833Y-87973809D01*
X235908928Y-87935714D01*
X235947023Y-87859523D01*
X235985119Y-87707142D01*
X235985119Y-87516666D01*
X235947023Y-87364285D01*
X235908928Y-87288095D01*
X235870833Y-87250000D01*
X235794642Y-87211904D01*
X232746428Y-68834904D02*
X232746428Y-68034904D01*
X232555952Y-68034904D01*
X232441666Y-68073000D01*
X232365476Y-68149190D01*
X232327380Y-68225380D01*
X232289285Y-68377761D01*
X232289285Y-68492047D01*
X232327380Y-68644428D01*
X232365476Y-68720619D01*
X232441666Y-68796809D01*
X232555952Y-68834904D01*
X232746428Y-68834904D01*
X231527380Y-68834904D02*
X231984523Y-68834904D01*
X231755952Y-68834904D02*
X231755952Y-68034904D01*
X231832142Y-68149190D01*
X231908333Y-68225380D01*
X231984523Y-68263476D01*
X230765476Y-68834904D02*
X231222619Y-68834904D01*
X230994047Y-68834904D02*
X230994047Y-68034904D01*
X231070238Y-68149190D01*
X231146428Y-68225380D01*
X231222619Y-68263476D01*
X241890476Y-49784904D02*
X241890476Y-48984904D01*
X241700000Y-48984904D01*
X241585714Y-49023000D01*
X241509523Y-49099190D01*
X241471428Y-49175380D01*
X241433333Y-49327761D01*
X241433333Y-49442047D01*
X241471428Y-49594428D01*
X241509523Y-49670619D01*
X241585714Y-49746809D01*
X241700000Y-49784904D01*
X241890476Y-49784904D01*
X241128571Y-49061095D02*
X241090476Y-49023000D01*
X241014285Y-48984904D01*
X240823809Y-48984904D01*
X240747619Y-49023000D01*
X240709523Y-49061095D01*
X240671428Y-49137285D01*
X240671428Y-49213476D01*
X240709523Y-49327761D01*
X241166666Y-49784904D01*
X240671428Y-49784904D01*
X244652678Y-126111904D02*
X244652678Y-125311904D01*
X244462202Y-125311904D01*
X244347916Y-125350000D01*
X244271726Y-125426190D01*
X244233630Y-125502380D01*
X244195535Y-125654761D01*
X244195535Y-125769047D01*
X244233630Y-125921428D01*
X244271726Y-125997619D01*
X244347916Y-126073809D01*
X244462202Y-126111904D01*
X244652678Y-126111904D01*
X243928869Y-125311904D02*
X243433630Y-125311904D01*
X243700297Y-125616666D01*
X243586011Y-125616666D01*
X243509821Y-125654761D01*
X243471726Y-125692857D01*
X243433630Y-125769047D01*
X243433630Y-125959523D01*
X243471726Y-126035714D01*
X243509821Y-126073809D01*
X243586011Y-126111904D01*
X243814583Y-126111904D01*
X243890773Y-126073809D01*
X243928869Y-126035714D01*
X242709821Y-125311904D02*
X243090773Y-125311904D01*
X243128869Y-125692857D01*
X243090773Y-125654761D01*
X243014583Y-125616666D01*
X242824107Y-125616666D01*
X242747916Y-125654761D01*
X242709821Y-125692857D01*
X242671726Y-125769047D01*
X242671726Y-125959523D01*
X242709821Y-126035714D01*
X242747916Y-126073809D01*
X242824107Y-126111904D01*
X243014583Y-126111904D01*
X243090773Y-126073809D01*
X243128869Y-126035714D01*
X227983928Y-107061904D02*
X227983928Y-106261904D01*
X227793452Y-106261904D01*
X227679166Y-106300000D01*
X227602976Y-106376190D01*
X227564880Y-106452380D01*
X227526785Y-106604761D01*
X227526785Y-106719047D01*
X227564880Y-106871428D01*
X227602976Y-106947619D01*
X227679166Y-107023809D01*
X227793452Y-107061904D01*
X227983928Y-107061904D01*
X227222023Y-106338095D02*
X227183928Y-106300000D01*
X227107738Y-106261904D01*
X226917261Y-106261904D01*
X226841071Y-106300000D01*
X226802976Y-106338095D01*
X226764880Y-106414285D01*
X226764880Y-106490476D01*
X226802976Y-106604761D01*
X227260119Y-107061904D01*
X226764880Y-107061904D01*
X226498214Y-106261904D02*
X225964880Y-106261904D01*
X226307738Y-107061904D01*
X218458928Y-88011904D02*
X218458928Y-87211904D01*
X218268452Y-87211904D01*
X218154166Y-87250000D01*
X218077976Y-87326190D01*
X218039880Y-87402380D01*
X218001785Y-87554761D01*
X218001785Y-87669047D01*
X218039880Y-87821428D01*
X218077976Y-87897619D01*
X218154166Y-87973809D01*
X218268452Y-88011904D01*
X218458928Y-88011904D01*
X217239880Y-88011904D02*
X217697023Y-88011904D01*
X217468452Y-88011904D02*
X217468452Y-87211904D01*
X217544642Y-87326190D01*
X217620833Y-87402380D01*
X217697023Y-87440476D01*
X216858928Y-88011904D02*
X216706547Y-88011904D01*
X216630357Y-87973809D01*
X216592261Y-87935714D01*
X216516071Y-87821428D01*
X216477976Y-87669047D01*
X216477976Y-87364285D01*
X216516071Y-87288095D01*
X216554166Y-87250000D01*
X216630357Y-87211904D01*
X216782738Y-87211904D01*
X216858928Y-87250000D01*
X216897023Y-87288095D01*
X216935119Y-87364285D01*
X216935119Y-87554761D01*
X216897023Y-87630952D01*
X216858928Y-87669047D01*
X216782738Y-87707142D01*
X216630357Y-87707142D01*
X216554166Y-87669047D01*
X216516071Y-87630952D01*
X216477976Y-87554761D01*
X213696428Y-68834904D02*
X213696428Y-68034904D01*
X213505952Y-68034904D01*
X213391666Y-68073000D01*
X213315476Y-68149190D01*
X213277380Y-68225380D01*
X213239285Y-68377761D01*
X213239285Y-68492047D01*
X213277380Y-68644428D01*
X213315476Y-68720619D01*
X213391666Y-68796809D01*
X213505952Y-68834904D01*
X213696428Y-68834904D01*
X212477380Y-68834904D02*
X212934523Y-68834904D01*
X212705952Y-68834904D02*
X212705952Y-68034904D01*
X212782142Y-68149190D01*
X212858333Y-68225380D01*
X212934523Y-68263476D01*
X211982142Y-68034904D02*
X211905952Y-68034904D01*
X211829761Y-68073000D01*
X211791666Y-68111095D01*
X211753571Y-68187285D01*
X211715476Y-68339666D01*
X211715476Y-68530142D01*
X211753571Y-68682523D01*
X211791666Y-68758714D01*
X211829761Y-68796809D01*
X211905952Y-68834904D01*
X211982142Y-68834904D01*
X212058333Y-68796809D01*
X212096428Y-68758714D01*
X212134523Y-68682523D01*
X212172619Y-68530142D01*
X212172619Y-68339666D01*
X212134523Y-68187285D01*
X212096428Y-68111095D01*
X212058333Y-68073000D01*
X211982142Y-68034904D01*
X222840476Y-49911904D02*
X222840476Y-49111904D01*
X222650000Y-49111904D01*
X222535714Y-49150000D01*
X222459523Y-49226190D01*
X222421428Y-49302380D01*
X222383333Y-49454761D01*
X222383333Y-49569047D01*
X222421428Y-49721428D01*
X222459523Y-49797619D01*
X222535714Y-49873809D01*
X222650000Y-49911904D01*
X222840476Y-49911904D01*
X221621428Y-49911904D02*
X222078571Y-49911904D01*
X221850000Y-49911904D02*
X221850000Y-49111904D01*
X221926190Y-49226190D01*
X222002380Y-49302380D01*
X222078571Y-49340476D01*
X366863095Y-34377380D02*
X366863095Y-35186904D01*
X366815476Y-35282142D01*
X366767857Y-35329761D01*
X366672619Y-35377380D01*
X366482142Y-35377380D01*
X366386904Y-35329761D01*
X366339285Y-35282142D01*
X366291666Y-35186904D01*
X366291666Y-34377380D01*
X365863095Y-35329761D02*
X365720238Y-35377380D01*
X365482142Y-35377380D01*
X365386904Y-35329761D01*
X365339285Y-35282142D01*
X365291666Y-35186904D01*
X365291666Y-35091666D01*
X365339285Y-34996428D01*
X365386904Y-34948809D01*
X365482142Y-34901190D01*
X365672619Y-34853571D01*
X365767857Y-34805952D01*
X365815476Y-34758333D01*
X365863095Y-34663095D01*
X365863095Y-34567857D01*
X365815476Y-34472619D01*
X365767857Y-34425000D01*
X365672619Y-34377380D01*
X365434523Y-34377380D01*
X365291666Y-34425000D01*
X364529761Y-34853571D02*
X364386904Y-34901190D01*
X364339285Y-34948809D01*
X364291666Y-35044047D01*
X364291666Y-35186904D01*
X364339285Y-35282142D01*
X364386904Y-35329761D01*
X364482142Y-35377380D01*
X364863095Y-35377380D01*
X364863095Y-34377380D01*
X364529761Y-34377380D01*
X364434523Y-34425000D01*
X364386904Y-34472619D01*
X364339285Y-34567857D01*
X364339285Y-34663095D01*
X364386904Y-34758333D01*
X364434523Y-34805952D01*
X364529761Y-34853571D01*
X364863095Y-34853571D01*
X363339285Y-35377380D02*
X363910714Y-35377380D01*
X363625000Y-35377380D02*
X363625000Y-34377380D01*
X363720238Y-34520238D01*
X363815476Y-34615476D01*
X363910714Y-34663095D01*
X365759904Y-70430380D02*
X365759904Y-71239904D01*
X365712285Y-71335142D01*
X365664666Y-71382761D01*
X365569428Y-71430380D01*
X365378952Y-71430380D01*
X365283714Y-71382761D01*
X365236095Y-71335142D01*
X365188476Y-71239904D01*
X365188476Y-70430380D01*
X364188476Y-71430380D02*
X364759904Y-71430380D01*
X364474190Y-71430380D02*
X364474190Y-70430380D01*
X364569428Y-70573238D01*
X364664666Y-70668476D01*
X364759904Y-70716095D01*
X380436380Y-107545428D02*
X379960190Y-107212095D01*
X380436380Y-106974000D02*
X379436380Y-106974000D01*
X379436380Y-107354952D01*
X379484000Y-107450190D01*
X379531619Y-107497809D01*
X379626857Y-107545428D01*
X379769714Y-107545428D01*
X379864952Y-107497809D01*
X379912571Y-107450190D01*
X379960190Y-107354952D01*
X379960190Y-106974000D01*
X379912571Y-107974000D02*
X379912571Y-108307333D01*
X380436380Y-108450190D02*
X380436380Y-107974000D01*
X379436380Y-107974000D01*
X379436380Y-108450190D01*
X380388761Y-108831142D02*
X380436380Y-108974000D01*
X380436380Y-109212095D01*
X380388761Y-109307333D01*
X380341142Y-109354952D01*
X380245904Y-109402571D01*
X380150666Y-109402571D01*
X380055428Y-109354952D01*
X380007809Y-109307333D01*
X379960190Y-109212095D01*
X379912571Y-109021619D01*
X379864952Y-108926380D01*
X379817333Y-108878761D01*
X379722095Y-108831142D01*
X379626857Y-108831142D01*
X379531619Y-108878761D01*
X379484000Y-108926380D01*
X379436380Y-109021619D01*
X379436380Y-109259714D01*
X379484000Y-109402571D01*
X379912571Y-109831142D02*
X379912571Y-110164476D01*
X380436380Y-110307333D02*
X380436380Y-109831142D01*
X379436380Y-109831142D01*
X379436380Y-110307333D01*
X379436380Y-110593047D02*
X379436380Y-111164476D01*
X380436380Y-110878761D02*
X379436380Y-110878761D01*
X380436380Y-112021619D02*
X380436380Y-111450190D01*
X380436380Y-111735904D02*
X379436380Y-111735904D01*
X379579238Y-111640666D01*
X379674476Y-111545428D01*
X379722095Y-111450190D01*
M02*
