M48
; DRILL file {KiCad (5.1.5)-3} date 19/09/2020 12:39:05
; FORMAT={-:-/ absolute / inch / decimal}
; #@! TF.CreationDate,2020-09-19T12:39:05+02:00
; #@! TF.GenerationSoftware,Kicad,Pcbnew,(5.1.5)-3
; #@! TF.FileFunction,Plated,1,2,PTH
FMAT,2
INCH
T1C0.0157
T2C0.0236
T3C0.0394
T4C0.0591
T5C0.0866
%
G90
G05
T1
X0.505Y-2.25
X0.585Y-3.125
X0.775Y-2.29
X0.78Y-2.85
X0.825Y-2.535
X0.935Y-3.34
X0.9375Y-1.7812
X0.9688Y-1.655
X1.01Y-3.19
X1.045Y-1.83
X1.06Y-3.13
X1.07Y-2.505
X1.135Y-2.855
X1.178Y-3.81
X1.19Y-4.08
X1.23Y-2.55
X1.25Y-2.245
X1.27Y-3.225
X1.28Y-2.325
X1.345Y-3.025
X1.39Y-1.68
X1.4688Y-1.5938
X1.47Y-2.245
X1.5356Y-2.3735
X1.56Y-1.37
X1.5608Y-1.285
X1.5847Y-2.3247
X1.5938Y-1.2143
X1.64Y-2.35
X1.64Y-2.58
X1.6503Y-2.1906
X1.651Y-2.2315
X1.6562Y-1.5938
X1.675Y-2.16
X1.7137Y-2.3119
X1.7243Y-1.2127
X1.735Y-3.015
X1.75Y-1.285
X1.75Y-1.37
X1.75Y-1.655
X1.75Y-3.9375
X1.7586Y-2.5458
X1.7704Y-2.18
X1.805Y-2.21
X1.82Y-2.305
X1.82Y-2.915
X1.8737Y-2.3775
X1.88Y-2.4785
X1.885Y-2.67
X1.915Y-2.37
X1.94Y-3.01
X1.95Y-2.35
X1.9587Y-4.5938
X2.045Y-2.82
X2.0625Y-2.9375
X2.0937Y-1.5625
X2.14Y-2.224
X2.17Y-2.18
X2.2026Y-2.68
X2.21Y-2.385
X2.23Y-2.24
X2.3386Y-2.5836
X2.37Y-2.435
X2.41Y-1.925
X2.47Y-1.305
X2.47Y-1.36
X2.505Y-2.595
X2.695Y-2.46
X2.83Y-3.915
X3.0Y-2.948
X3.07Y-3.105
X3.21Y-2.465
X3.305Y-3.475
X3.79Y-3.96
X3.88Y-1.175
X4.0062Y-2.4888
X4.5625Y-4.6562
X4.755Y-2.465
X4.765Y-3.995
X5.555Y-2.505
X5.635Y-3.76
X5.715Y-3.865
X5.3287Y-4.3307
X5.3478Y-4.2848
X5.3478Y-4.3766
X5.3937Y-4.2657
X5.3937Y-4.3957
X5.4396Y-4.2848
X5.4396Y-4.3766
X5.4587Y-4.3307
X4.5807Y-1.6929
X4.5997Y-1.647
X4.5997Y-1.7388
X4.6457Y-1.628
X4.6457Y-1.7579
X4.6916Y-1.647
X4.6916Y-1.7388
X4.7106Y-1.6929
X2.9Y-2.7188
X2.9191Y-2.6728
X2.9191Y-2.7647
X2.965Y-2.6538
X2.965Y-2.7837
X3.0109Y-2.6728
X3.0109Y-2.7647
X3.03Y-2.7188
X0.7475Y-4.3438
X0.7666Y-4.2978
X0.7666Y-4.3897
X0.8125Y-4.2788
X0.8125Y-4.4087
X0.8584Y-4.2978
X0.8584Y-4.3897
X0.8775Y-4.3438
X1.095Y-1.715
X1.1141Y-1.6691
X1.1141Y-1.7609
X1.16Y-1.65
X1.16Y-1.78
X1.2059Y-1.6691
X1.2059Y-1.7609
X1.225Y-1.715
T3
X0.8375Y-2.0
X0.8375Y-2.1
X0.8375Y-2.2
X0.9375Y-2.0
X0.9375Y-2.1
X0.9375Y-2.2
T4
X1.6Y-3.4937
X1.85Y-3.3937
X0.1938Y-1.2437
X0.4437Y-1.1438
X3.7563Y-1.9937
X4.0062Y-1.8938
X5.6312Y-1.2437
X5.8812Y-1.1438
X4.6937Y-2.7437
X4.9437Y-2.6437
X2.1625Y-4.2437
X2.4125Y-4.1437
X3.0063Y-1.9937
X3.2563Y-1.8938
X1.4125Y-2.7437
X1.6625Y-2.6437
X3.3813Y-1.2437
X3.6313Y-1.1438
X5.8187Y-3.4937
X6.0687Y-3.3937
X4.5062Y-1.9937
X4.7562Y-1.8938
X2.2563Y-1.9937
X2.5063Y-1.8938
X2.4438Y-2.7437
X2.6938Y-2.6437
X3.1Y-4.2437
X3.35Y-4.1437
X5.2562Y-1.9937
X5.5062Y-1.8938
X2.6313Y-1.2437
X2.8813Y-1.1438
X0.1938Y-1.9937
X0.4437Y-1.8938
X0.1938Y-2.7437
X0.4437Y-2.6437
X4.1312Y-1.2437
X4.3812Y-1.1438
X5.4437Y-2.7437
X5.6937Y-2.6437
X2.8188Y-3.4937
X3.0688Y-3.3937
X1.3187Y-1.9937
X1.5687Y-1.8938
X3.9438Y-2.7437
X4.1937Y-2.6437
X4.4125Y-4.2437
X4.6625Y-4.1437
X4.8812Y-1.2437
X5.1312Y-1.1438
X1.8812Y-1.2437
X2.1313Y-1.1438
X0.1938Y-4.2437
X0.4437Y-4.1437
X1.1312Y-1.2437
X1.3812Y-1.1438
X0.1938Y-3.4937
X0.4437Y-3.3937
X4.3187Y-3.4937
X4.5687Y-3.3937
X3.5688Y-3.4937
X3.8188Y-3.3937
X5.725Y-4.2437
X5.975Y-4.1437
X1.225Y-4.2437
X1.475Y-4.1437
X3.1938Y-2.7437
X3.4438Y-2.6437
X5.0687Y-3.4937
X5.3187Y-3.3937
T5
X1.16Y-1.715
X5.3937Y-4.3307
X4.6457Y-1.6929
X2.965Y-2.7188
X0.8125Y-4.3438
T2
G00X1.4862Y-0.9031
M15
G01X1.4862Y-0.9267
M16
G05
G00X1.4862Y-1.0578
M15
G01X1.4862Y-1.1011
M16
G05
G00X1.8263Y-0.9031
M15
G01X1.8263Y-0.9267
M16
G05
G00X1.8263Y-1.0578
M15
G01X1.8263Y-1.1011
M16
G05
G00X5.3157Y-0.9267
M15
G01X5.3157Y-0.9503
M16
G05
G00X5.3157Y-1.0448
M15
G01X5.3157Y-1.0684
M16
G05
G00X5.3157Y-1.2023
M15
G01X5.3157Y-1.2259
M16
G05
G00X5.4968Y-1.2456
M15
G01X5.4968Y-1.2692
M16
G05
T0
M30
