M48
; DRILL file {KiCad (5.1.5)-3} date 19/09/2020 12:39:05
; FORMAT={-:-/ absolute / inch / decimal}
; #@! TF.CreationDate,2020-09-19T12:39:05+02:00
; #@! TF.GenerationSoftware,Kicad,Pcbnew,(5.1.5)-3
; #@! TF.FileFunction,NonPlated,1,2,NPTH
FMAT,2
INCH
T1C0.0256
T2C0.0591
T3C0.0669
T4C0.1201
T5C0.1575
%
G90
G05
T1
X1.5425Y-1.0586
X1.77Y-1.0586
T2
X5.4062Y-0.8755
X5.4062Y-1.1511
T3
X2.2062Y-2.0938
X2.6062Y-2.0938
X2.3937Y-2.8438
X2.7937Y-2.8438
X3.05Y-4.3438
X3.45Y-4.3438
X5.2062Y-2.0938
X5.6063Y-2.0938
X2.5812Y-1.3438
X2.9812Y-1.3438
X0.1437Y-2.0938
X0.5437Y-2.0938
X0.1437Y-2.8438
X0.5437Y-2.8438
X4.0812Y-1.3438
X4.4813Y-1.3438
X5.3937Y-2.8438
X5.7938Y-2.8438
X2.7687Y-3.5938
X3.1687Y-3.5938
X1.2688Y-2.0938
X1.6687Y-2.0938
X3.8937Y-2.8438
X4.2938Y-2.8438
X4.3625Y-4.3438
X4.7625Y-4.3438
X4.8312Y-1.3438
X5.2313Y-1.3438
X1.8313Y-1.3438
X2.2312Y-1.3438
X0.1437Y-4.3438
X0.5437Y-4.3438
X1.0813Y-1.3438
X1.4812Y-1.3438
X0.1437Y-3.5938
X0.5437Y-3.5938
X4.2687Y-3.5938
X4.6688Y-3.5938
X3.5187Y-3.5938
X3.9187Y-3.5938
X5.675Y-4.3438
X6.075Y-4.3438
X1.175Y-4.3438
X1.575Y-4.3438
X3.1437Y-2.8438
X3.5437Y-2.8438
X5.0187Y-3.5938
X5.4188Y-3.5938
X1.55Y-3.5938
X1.95Y-3.5938
X0.1437Y-1.3438
X0.5437Y-1.3438
X3.7062Y-2.0938
X4.1063Y-2.0938
X5.5812Y-1.3438
X5.9813Y-1.3438
X4.6437Y-2.8438
X5.0438Y-2.8438
X2.1125Y-4.3438
X2.5125Y-4.3438
X2.9562Y-2.0938
X3.3562Y-2.0938
X1.3625Y-2.8438
X1.7625Y-2.8438
X3.3312Y-1.3438
X3.7312Y-1.3438
X5.7687Y-3.5938
X6.1688Y-3.5938
X4.4562Y-2.0938
X4.8563Y-2.0938
T4
X4.094Y-4.6193
X5.031Y-4.6193
X1.2815Y-3.3182
X2.2185Y-3.3182
T5
X4.6562Y-2.0938
X2.4062Y-2.0938
X2.5938Y-2.8438
X3.25Y-4.3438
X5.4062Y-2.0938
X2.7812Y-1.3438
X0.3438Y-2.0938
X0.3438Y-2.8438
X4.2812Y-1.3438
X5.5938Y-2.8438
X2.9688Y-3.5938
X1.4688Y-2.0938
X4.0938Y-2.8438
X4.094Y-4.0193
X4.5625Y-4.3438
X5.031Y-4.0193
X5.0312Y-1.3438
X2.0312Y-1.3438
X0.3438Y-4.3438
X1.2812Y-1.3438
X0.3438Y-3.5938
X4.4688Y-3.5938
X3.7188Y-3.5938
X5.875Y-4.3438
X1.375Y-4.3438
X3.3438Y-2.8438
X5.2188Y-3.5938
X1.2815Y-3.9182
X1.75Y-3.5938
X2.2185Y-3.9182
X0.3438Y-1.3438
X3.9062Y-2.0938
X5.7812Y-1.3438
X4.8438Y-2.8438
X2.3125Y-4.3438
X3.1562Y-2.0938
X1.5625Y-2.8438
X3.5312Y-1.3438
X5.9688Y-3.5938
T0
M30
