G04 #@! TF.GenerationSoftware,KiCad,Pcbnew,(5.1.5)-3*
G04 #@! TF.CreationDate,2020-09-19T12:38:58+02:00*
G04 #@! TF.ProjectId,split65left,73706c69-7436-4356-9c65-66742e6b6963,rev?*
G04 #@! TF.SameCoordinates,Original*
G04 #@! TF.FileFunction,Legend,Bot*
G04 #@! TF.FilePolarity,Positive*
%FSLAX46Y46*%
G04 Gerber Fmt 4.6, Leading zero omitted, Abs format (unit mm)*
G04 Created by KiCad (PCBNEW (5.1.5)-3) date 2020-09-19 12:38:58*
%MOMM*%
%LPD*%
G04 APERTURE LIST*
%ADD10C,0.010000*%
%ADD11C,0.120000*%
%ADD12C,0.200000*%
%ADD13C,0.150000*%
G04 APERTURE END LIST*
D10*
G36*
X20597090Y-28230348D02*
G01*
X20518546Y-28230778D01*
X20461702Y-28231942D01*
X20422895Y-28234207D01*
X20398462Y-28237940D01*
X20384738Y-28243506D01*
X20378060Y-28251273D01*
X20374764Y-28261605D01*
X20374444Y-28262943D01*
X20369438Y-28287079D01*
X20360171Y-28334701D01*
X20347608Y-28400741D01*
X20332713Y-28480128D01*
X20316449Y-28567796D01*
X20315881Y-28570875D01*
X20299590Y-28656789D01*
X20284348Y-28732696D01*
X20271139Y-28794045D01*
X20260946Y-28836282D01*
X20254752Y-28854855D01*
X20254457Y-28855184D01*
X20236212Y-28864253D01*
X20198595Y-28879367D01*
X20149729Y-28897262D01*
X20149457Y-28897358D01*
X20087907Y-28920493D01*
X20015343Y-28949965D01*
X19946943Y-28979597D01*
X19943706Y-28981062D01*
X19832298Y-29031626D01*
X19585601Y-28863160D01*
X19509923Y-28811803D01*
X19441369Y-28765889D01*
X19383912Y-28728030D01*
X19341524Y-28700837D01*
X19318175Y-28686921D01*
X19315958Y-28685889D01*
X19298990Y-28690484D01*
X19267299Y-28712655D01*
X19219648Y-28753447D01*
X19154802Y-28813905D01*
X19088603Y-28878227D01*
X19024786Y-28941612D01*
X18967671Y-28999451D01*
X18920695Y-29048175D01*
X18887297Y-29084210D01*
X18870915Y-29103984D01*
X18870306Y-29105002D01*
X18868495Y-29118572D01*
X18875317Y-29140733D01*
X18892460Y-29174478D01*
X18921607Y-29222800D01*
X18964445Y-29288692D01*
X19021552Y-29373517D01*
X19072234Y-29448177D01*
X19117539Y-29515140D01*
X19154850Y-29570516D01*
X19181548Y-29610420D01*
X19195015Y-29630962D01*
X19195863Y-29632356D01*
X19194219Y-29652038D01*
X19181755Y-29690293D01*
X19160952Y-29739889D01*
X19153538Y-29755728D01*
X19121186Y-29826290D01*
X19086672Y-29906353D01*
X19058635Y-29975629D01*
X19038432Y-30027045D01*
X19022385Y-30066119D01*
X19013112Y-30086541D01*
X19011959Y-30088114D01*
X18994904Y-30090721D01*
X18954702Y-30097863D01*
X18896698Y-30108523D01*
X18826237Y-30121685D01*
X18748665Y-30136333D01*
X18669328Y-30151449D01*
X18593569Y-30166018D01*
X18526736Y-30179022D01*
X18474172Y-30189445D01*
X18441224Y-30196270D01*
X18433143Y-30198199D01*
X18424795Y-30202962D01*
X18418494Y-30213718D01*
X18413955Y-30234098D01*
X18410896Y-30267734D01*
X18409033Y-30318255D01*
X18408082Y-30389292D01*
X18407760Y-30484476D01*
X18407743Y-30523492D01*
X18407743Y-30840799D01*
X18483943Y-30855839D01*
X18526337Y-30863995D01*
X18589600Y-30875899D01*
X18666038Y-30890116D01*
X18747957Y-30905210D01*
X18770600Y-30909355D01*
X18846194Y-30924053D01*
X18912047Y-30938505D01*
X18962634Y-30951375D01*
X18992426Y-30961322D01*
X18997388Y-30964287D01*
X19009574Y-30985283D01*
X19027047Y-31025967D01*
X19046423Y-31078322D01*
X19050266Y-31089600D01*
X19075661Y-31159523D01*
X19107183Y-31238418D01*
X19138031Y-31309266D01*
X19138183Y-31309595D01*
X19189553Y-31420733D01*
X19020601Y-31669253D01*
X18851648Y-31917772D01*
X19068571Y-32135058D01*
X19134181Y-32199726D01*
X19194021Y-32256733D01*
X19244733Y-32303033D01*
X19282954Y-32335584D01*
X19305325Y-32351343D01*
X19308534Y-32352343D01*
X19327374Y-32344469D01*
X19365820Y-32322578D01*
X19419670Y-32289267D01*
X19484724Y-32247131D01*
X19555060Y-32199943D01*
X19626445Y-32151810D01*
X19690092Y-32109928D01*
X19741959Y-32076871D01*
X19778005Y-32055218D01*
X19794133Y-32047543D01*
X19813811Y-32054037D01*
X19851125Y-32071150D01*
X19898379Y-32095326D01*
X19903388Y-32098013D01*
X19967023Y-32129927D01*
X20010659Y-32145579D01*
X20037798Y-32145745D01*
X20051943Y-32131204D01*
X20052025Y-32131000D01*
X20059095Y-32113779D01*
X20075958Y-32072899D01*
X20101305Y-32011525D01*
X20133829Y-31932819D01*
X20172222Y-31839947D01*
X20215178Y-31736072D01*
X20256778Y-31635502D01*
X20302496Y-31524516D01*
X20344474Y-31421703D01*
X20381452Y-31330215D01*
X20412173Y-31253201D01*
X20435378Y-31193815D01*
X20449810Y-31155209D01*
X20454257Y-31140800D01*
X20443104Y-31124272D01*
X20413931Y-31097930D01*
X20375029Y-31068887D01*
X20264243Y-30977039D01*
X20177649Y-30871759D01*
X20116284Y-30755266D01*
X20081185Y-30629776D01*
X20073392Y-30497507D01*
X20079057Y-30436457D01*
X20109922Y-30309795D01*
X20163080Y-30197941D01*
X20235233Y-30102001D01*
X20323083Y-30023076D01*
X20423335Y-29962270D01*
X20532690Y-29920687D01*
X20647853Y-29899428D01*
X20765525Y-29899599D01*
X20882410Y-29922301D01*
X20995211Y-29968638D01*
X21100631Y-30039713D01*
X21144632Y-30079911D01*
X21229021Y-30183129D01*
X21287778Y-30295925D01*
X21321296Y-30415010D01*
X21329965Y-30537095D01*
X21314177Y-30658893D01*
X21274322Y-30777116D01*
X21210793Y-30888475D01*
X21123979Y-30989684D01*
X21026971Y-31068887D01*
X20986563Y-31099162D01*
X20958018Y-31125219D01*
X20947743Y-31140825D01*
X20953123Y-31157843D01*
X20968425Y-31198500D01*
X20992388Y-31259642D01*
X21023756Y-31338119D01*
X21061268Y-31430780D01*
X21103667Y-31534472D01*
X21145337Y-31635526D01*
X21191310Y-31746607D01*
X21233893Y-31849541D01*
X21271779Y-31941165D01*
X21303660Y-32018316D01*
X21328229Y-32077831D01*
X21344180Y-32116544D01*
X21350090Y-32131000D01*
X21364052Y-32145685D01*
X21391060Y-32145642D01*
X21434587Y-32130099D01*
X21498110Y-32098284D01*
X21498612Y-32098013D01*
X21546440Y-32073323D01*
X21585103Y-32055338D01*
X21606905Y-32047614D01*
X21607867Y-32047543D01*
X21624279Y-32055378D01*
X21660513Y-32077165D01*
X21712526Y-32110328D01*
X21776275Y-32152291D01*
X21846940Y-32199943D01*
X21918884Y-32248191D01*
X21983726Y-32290151D01*
X22037265Y-32323227D01*
X22075303Y-32344821D01*
X22093467Y-32352343D01*
X22110192Y-32342457D01*
X22143820Y-32314826D01*
X22190990Y-32272495D01*
X22248342Y-32218505D01*
X22312516Y-32155899D01*
X22333503Y-32134983D01*
X22550501Y-31917623D01*
X22385332Y-31675220D01*
X22335136Y-31600781D01*
X22291081Y-31533972D01*
X22255638Y-31478665D01*
X22231281Y-31438729D01*
X22220478Y-31418036D01*
X22220162Y-31416563D01*
X22225857Y-31397058D01*
X22241174Y-31357822D01*
X22263463Y-31305430D01*
X22279107Y-31270355D01*
X22308359Y-31203201D01*
X22335906Y-31135358D01*
X22357263Y-31078034D01*
X22363065Y-31060572D01*
X22379548Y-31013938D01*
X22395660Y-30977905D01*
X22404510Y-30964287D01*
X22424040Y-30955952D01*
X22466666Y-30944137D01*
X22526855Y-30930181D01*
X22599078Y-30915422D01*
X22631400Y-30909355D01*
X22713478Y-30894273D01*
X22792205Y-30879669D01*
X22859891Y-30866980D01*
X22908840Y-30857642D01*
X22918057Y-30855839D01*
X22994257Y-30840799D01*
X22994257Y-30523492D01*
X22994086Y-30419154D01*
X22993384Y-30340213D01*
X22991866Y-30283038D01*
X22989251Y-30243999D01*
X22985254Y-30219465D01*
X22979591Y-30205805D01*
X22971980Y-30199389D01*
X22968857Y-30198199D01*
X22950022Y-30193980D01*
X22908412Y-30185562D01*
X22849370Y-30173961D01*
X22778243Y-30160195D01*
X22700375Y-30145280D01*
X22621113Y-30130232D01*
X22545802Y-30116069D01*
X22479787Y-30103806D01*
X22428413Y-30094461D01*
X22397025Y-30089050D01*
X22390041Y-30088114D01*
X22383715Y-30075596D01*
X22369710Y-30042246D01*
X22350645Y-29994377D01*
X22343366Y-29975629D01*
X22314004Y-29903195D01*
X22279429Y-29823170D01*
X22248463Y-29755728D01*
X22225677Y-29704159D01*
X22210518Y-29661785D01*
X22205458Y-29635834D01*
X22206264Y-29632356D01*
X22216959Y-29615936D01*
X22241380Y-29579417D01*
X22276905Y-29526687D01*
X22320913Y-29461635D01*
X22370783Y-29388151D01*
X22380644Y-29373645D01*
X22438508Y-29287704D01*
X22481044Y-29222261D01*
X22509946Y-29174304D01*
X22526910Y-29140820D01*
X22533633Y-29118795D01*
X22531810Y-29105217D01*
X22531764Y-29105131D01*
X22517414Y-29087297D01*
X22485677Y-29052817D01*
X22439990Y-29005268D01*
X22383796Y-28948222D01*
X22320532Y-28885255D01*
X22313398Y-28878227D01*
X22233670Y-28801020D01*
X22172143Y-28744330D01*
X22127579Y-28707110D01*
X22098743Y-28688315D01*
X22086042Y-28685889D01*
X22067506Y-28696471D01*
X22029039Y-28720916D01*
X21974614Y-28756612D01*
X21908202Y-28800947D01*
X21833775Y-28851311D01*
X21816399Y-28863160D01*
X21569703Y-29031626D01*
X21458294Y-28981062D01*
X21390543Y-28951595D01*
X21317817Y-28921959D01*
X21255297Y-28898330D01*
X21252543Y-28897358D01*
X21203640Y-28879457D01*
X21165943Y-28864320D01*
X21147575Y-28855210D01*
X21147544Y-28855184D01*
X21141715Y-28838717D01*
X21131808Y-28798219D01*
X21118805Y-28738242D01*
X21103691Y-28663340D01*
X21087448Y-28578064D01*
X21086119Y-28570875D01*
X21069825Y-28483014D01*
X21054867Y-28403260D01*
X21042209Y-28336681D01*
X21032814Y-28288347D01*
X21027646Y-28263325D01*
X21027556Y-28262943D01*
X21024411Y-28252299D01*
X21018296Y-28244262D01*
X21005547Y-28238467D01*
X20982500Y-28234547D01*
X20945491Y-28232135D01*
X20890856Y-28230865D01*
X20814933Y-28230371D01*
X20714056Y-28230286D01*
X20701000Y-28230286D01*
X20597090Y-28230348D01*
G37*
X20597090Y-28230348D02*
X20518546Y-28230778D01*
X20461702Y-28231942D01*
X20422895Y-28234207D01*
X20398462Y-28237940D01*
X20384738Y-28243506D01*
X20378060Y-28251273D01*
X20374764Y-28261605D01*
X20374444Y-28262943D01*
X20369438Y-28287079D01*
X20360171Y-28334701D01*
X20347608Y-28400741D01*
X20332713Y-28480128D01*
X20316449Y-28567796D01*
X20315881Y-28570875D01*
X20299590Y-28656789D01*
X20284348Y-28732696D01*
X20271139Y-28794045D01*
X20260946Y-28836282D01*
X20254752Y-28854855D01*
X20254457Y-28855184D01*
X20236212Y-28864253D01*
X20198595Y-28879367D01*
X20149729Y-28897262D01*
X20149457Y-28897358D01*
X20087907Y-28920493D01*
X20015343Y-28949965D01*
X19946943Y-28979597D01*
X19943706Y-28981062D01*
X19832298Y-29031626D01*
X19585601Y-28863160D01*
X19509923Y-28811803D01*
X19441369Y-28765889D01*
X19383912Y-28728030D01*
X19341524Y-28700837D01*
X19318175Y-28686921D01*
X19315958Y-28685889D01*
X19298990Y-28690484D01*
X19267299Y-28712655D01*
X19219648Y-28753447D01*
X19154802Y-28813905D01*
X19088603Y-28878227D01*
X19024786Y-28941612D01*
X18967671Y-28999451D01*
X18920695Y-29048175D01*
X18887297Y-29084210D01*
X18870915Y-29103984D01*
X18870306Y-29105002D01*
X18868495Y-29118572D01*
X18875317Y-29140733D01*
X18892460Y-29174478D01*
X18921607Y-29222800D01*
X18964445Y-29288692D01*
X19021552Y-29373517D01*
X19072234Y-29448177D01*
X19117539Y-29515140D01*
X19154850Y-29570516D01*
X19181548Y-29610420D01*
X19195015Y-29630962D01*
X19195863Y-29632356D01*
X19194219Y-29652038D01*
X19181755Y-29690293D01*
X19160952Y-29739889D01*
X19153538Y-29755728D01*
X19121186Y-29826290D01*
X19086672Y-29906353D01*
X19058635Y-29975629D01*
X19038432Y-30027045D01*
X19022385Y-30066119D01*
X19013112Y-30086541D01*
X19011959Y-30088114D01*
X18994904Y-30090721D01*
X18954702Y-30097863D01*
X18896698Y-30108523D01*
X18826237Y-30121685D01*
X18748665Y-30136333D01*
X18669328Y-30151449D01*
X18593569Y-30166018D01*
X18526736Y-30179022D01*
X18474172Y-30189445D01*
X18441224Y-30196270D01*
X18433143Y-30198199D01*
X18424795Y-30202962D01*
X18418494Y-30213718D01*
X18413955Y-30234098D01*
X18410896Y-30267734D01*
X18409033Y-30318255D01*
X18408082Y-30389292D01*
X18407760Y-30484476D01*
X18407743Y-30523492D01*
X18407743Y-30840799D01*
X18483943Y-30855839D01*
X18526337Y-30863995D01*
X18589600Y-30875899D01*
X18666038Y-30890116D01*
X18747957Y-30905210D01*
X18770600Y-30909355D01*
X18846194Y-30924053D01*
X18912047Y-30938505D01*
X18962634Y-30951375D01*
X18992426Y-30961322D01*
X18997388Y-30964287D01*
X19009574Y-30985283D01*
X19027047Y-31025967D01*
X19046423Y-31078322D01*
X19050266Y-31089600D01*
X19075661Y-31159523D01*
X19107183Y-31238418D01*
X19138031Y-31309266D01*
X19138183Y-31309595D01*
X19189553Y-31420733D01*
X19020601Y-31669253D01*
X18851648Y-31917772D01*
X19068571Y-32135058D01*
X19134181Y-32199726D01*
X19194021Y-32256733D01*
X19244733Y-32303033D01*
X19282954Y-32335584D01*
X19305325Y-32351343D01*
X19308534Y-32352343D01*
X19327374Y-32344469D01*
X19365820Y-32322578D01*
X19419670Y-32289267D01*
X19484724Y-32247131D01*
X19555060Y-32199943D01*
X19626445Y-32151810D01*
X19690092Y-32109928D01*
X19741959Y-32076871D01*
X19778005Y-32055218D01*
X19794133Y-32047543D01*
X19813811Y-32054037D01*
X19851125Y-32071150D01*
X19898379Y-32095326D01*
X19903388Y-32098013D01*
X19967023Y-32129927D01*
X20010659Y-32145579D01*
X20037798Y-32145745D01*
X20051943Y-32131204D01*
X20052025Y-32131000D01*
X20059095Y-32113779D01*
X20075958Y-32072899D01*
X20101305Y-32011525D01*
X20133829Y-31932819D01*
X20172222Y-31839947D01*
X20215178Y-31736072D01*
X20256778Y-31635502D01*
X20302496Y-31524516D01*
X20344474Y-31421703D01*
X20381452Y-31330215D01*
X20412173Y-31253201D01*
X20435378Y-31193815D01*
X20449810Y-31155209D01*
X20454257Y-31140800D01*
X20443104Y-31124272D01*
X20413931Y-31097930D01*
X20375029Y-31068887D01*
X20264243Y-30977039D01*
X20177649Y-30871759D01*
X20116284Y-30755266D01*
X20081185Y-30629776D01*
X20073392Y-30497507D01*
X20079057Y-30436457D01*
X20109922Y-30309795D01*
X20163080Y-30197941D01*
X20235233Y-30102001D01*
X20323083Y-30023076D01*
X20423335Y-29962270D01*
X20532690Y-29920687D01*
X20647853Y-29899428D01*
X20765525Y-29899599D01*
X20882410Y-29922301D01*
X20995211Y-29968638D01*
X21100631Y-30039713D01*
X21144632Y-30079911D01*
X21229021Y-30183129D01*
X21287778Y-30295925D01*
X21321296Y-30415010D01*
X21329965Y-30537095D01*
X21314177Y-30658893D01*
X21274322Y-30777116D01*
X21210793Y-30888475D01*
X21123979Y-30989684D01*
X21026971Y-31068887D01*
X20986563Y-31099162D01*
X20958018Y-31125219D01*
X20947743Y-31140825D01*
X20953123Y-31157843D01*
X20968425Y-31198500D01*
X20992388Y-31259642D01*
X21023756Y-31338119D01*
X21061268Y-31430780D01*
X21103667Y-31534472D01*
X21145337Y-31635526D01*
X21191310Y-31746607D01*
X21233893Y-31849541D01*
X21271779Y-31941165D01*
X21303660Y-32018316D01*
X21328229Y-32077831D01*
X21344180Y-32116544D01*
X21350090Y-32131000D01*
X21364052Y-32145685D01*
X21391060Y-32145642D01*
X21434587Y-32130099D01*
X21498110Y-32098284D01*
X21498612Y-32098013D01*
X21546440Y-32073323D01*
X21585103Y-32055338D01*
X21606905Y-32047614D01*
X21607867Y-32047543D01*
X21624279Y-32055378D01*
X21660513Y-32077165D01*
X21712526Y-32110328D01*
X21776275Y-32152291D01*
X21846940Y-32199943D01*
X21918884Y-32248191D01*
X21983726Y-32290151D01*
X22037265Y-32323227D01*
X22075303Y-32344821D01*
X22093467Y-32352343D01*
X22110192Y-32342457D01*
X22143820Y-32314826D01*
X22190990Y-32272495D01*
X22248342Y-32218505D01*
X22312516Y-32155899D01*
X22333503Y-32134983D01*
X22550501Y-31917623D01*
X22385332Y-31675220D01*
X22335136Y-31600781D01*
X22291081Y-31533972D01*
X22255638Y-31478665D01*
X22231281Y-31438729D01*
X22220478Y-31418036D01*
X22220162Y-31416563D01*
X22225857Y-31397058D01*
X22241174Y-31357822D01*
X22263463Y-31305430D01*
X22279107Y-31270355D01*
X22308359Y-31203201D01*
X22335906Y-31135358D01*
X22357263Y-31078034D01*
X22363065Y-31060572D01*
X22379548Y-31013938D01*
X22395660Y-30977905D01*
X22404510Y-30964287D01*
X22424040Y-30955952D01*
X22466666Y-30944137D01*
X22526855Y-30930181D01*
X22599078Y-30915422D01*
X22631400Y-30909355D01*
X22713478Y-30894273D01*
X22792205Y-30879669D01*
X22859891Y-30866980D01*
X22908840Y-30857642D01*
X22918057Y-30855839D01*
X22994257Y-30840799D01*
X22994257Y-30523492D01*
X22994086Y-30419154D01*
X22993384Y-30340213D01*
X22991866Y-30283038D01*
X22989251Y-30243999D01*
X22985254Y-30219465D01*
X22979591Y-30205805D01*
X22971980Y-30199389D01*
X22968857Y-30198199D01*
X22950022Y-30193980D01*
X22908412Y-30185562D01*
X22849370Y-30173961D01*
X22778243Y-30160195D01*
X22700375Y-30145280D01*
X22621113Y-30130232D01*
X22545802Y-30116069D01*
X22479787Y-30103806D01*
X22428413Y-30094461D01*
X22397025Y-30089050D01*
X22390041Y-30088114D01*
X22383715Y-30075596D01*
X22369710Y-30042246D01*
X22350645Y-29994377D01*
X22343366Y-29975629D01*
X22314004Y-29903195D01*
X22279429Y-29823170D01*
X22248463Y-29755728D01*
X22225677Y-29704159D01*
X22210518Y-29661785D01*
X22205458Y-29635834D01*
X22206264Y-29632356D01*
X22216959Y-29615936D01*
X22241380Y-29579417D01*
X22276905Y-29526687D01*
X22320913Y-29461635D01*
X22370783Y-29388151D01*
X22380644Y-29373645D01*
X22438508Y-29287704D01*
X22481044Y-29222261D01*
X22509946Y-29174304D01*
X22526910Y-29140820D01*
X22533633Y-29118795D01*
X22531810Y-29105217D01*
X22531764Y-29105131D01*
X22517414Y-29087297D01*
X22485677Y-29052817D01*
X22439990Y-29005268D01*
X22383796Y-28948222D01*
X22320532Y-28885255D01*
X22313398Y-28878227D01*
X22233670Y-28801020D01*
X22172143Y-28744330D01*
X22127579Y-28707110D01*
X22098743Y-28688315D01*
X22086042Y-28685889D01*
X22067506Y-28696471D01*
X22029039Y-28720916D01*
X21974614Y-28756612D01*
X21908202Y-28800947D01*
X21833775Y-28851311D01*
X21816399Y-28863160D01*
X21569703Y-29031626D01*
X21458294Y-28981062D01*
X21390543Y-28951595D01*
X21317817Y-28921959D01*
X21255297Y-28898330D01*
X21252543Y-28897358D01*
X21203640Y-28879457D01*
X21165943Y-28864320D01*
X21147575Y-28855210D01*
X21147544Y-28855184D01*
X21141715Y-28838717D01*
X21131808Y-28798219D01*
X21118805Y-28738242D01*
X21103691Y-28663340D01*
X21087448Y-28578064D01*
X21086119Y-28570875D01*
X21069825Y-28483014D01*
X21054867Y-28403260D01*
X21042209Y-28336681D01*
X21032814Y-28288347D01*
X21027646Y-28263325D01*
X21027556Y-28262943D01*
X21024411Y-28252299D01*
X21018296Y-28244262D01*
X21005547Y-28238467D01*
X20982500Y-28234547D01*
X20945491Y-28232135D01*
X20890856Y-28230865D01*
X20814933Y-28230371D01*
X20714056Y-28230286D01*
X20701000Y-28230286D01*
X20597090Y-28230348D01*
G36*
X17547405Y-32954966D02*
G01*
X17489979Y-32992497D01*
X17462281Y-33026096D01*
X17440338Y-33087064D01*
X17438595Y-33135308D01*
X17442543Y-33199816D01*
X17591314Y-33264934D01*
X17663651Y-33298202D01*
X17710916Y-33324964D01*
X17735493Y-33348144D01*
X17739763Y-33370667D01*
X17726111Y-33395455D01*
X17711057Y-33411886D01*
X17667254Y-33438235D01*
X17619611Y-33440081D01*
X17575855Y-33419546D01*
X17543711Y-33378752D01*
X17537962Y-33364347D01*
X17510424Y-33319356D01*
X17478742Y-33300182D01*
X17435286Y-33283779D01*
X17435286Y-33345966D01*
X17439128Y-33388283D01*
X17454177Y-33423969D01*
X17485720Y-33464943D01*
X17490408Y-33470267D01*
X17525494Y-33506720D01*
X17555653Y-33526283D01*
X17593385Y-33535283D01*
X17624665Y-33538230D01*
X17680615Y-33538965D01*
X17720445Y-33529660D01*
X17745292Y-33515846D01*
X17784344Y-33485467D01*
X17811375Y-33452613D01*
X17828483Y-33411294D01*
X17837762Y-33355521D01*
X17841307Y-33279305D01*
X17841590Y-33240622D01*
X17840628Y-33194247D01*
X17752993Y-33194247D01*
X17751977Y-33219126D01*
X17749444Y-33223200D01*
X17732726Y-33217665D01*
X17696751Y-33203017D01*
X17648669Y-33182190D01*
X17638614Y-33177714D01*
X17577848Y-33146814D01*
X17544368Y-33119657D01*
X17537010Y-33094220D01*
X17554609Y-33068481D01*
X17569144Y-33057109D01*
X17621590Y-33034364D01*
X17670678Y-33038122D01*
X17711773Y-33065884D01*
X17740242Y-33115152D01*
X17749369Y-33154257D01*
X17752993Y-33194247D01*
X17840628Y-33194247D01*
X17839715Y-33150249D01*
X17832804Y-33083384D01*
X17819116Y-33034695D01*
X17796904Y-32998849D01*
X17764426Y-32970513D01*
X17750267Y-32961355D01*
X17685947Y-32937507D01*
X17615527Y-32936006D01*
X17547405Y-32954966D01*
G37*
X17547405Y-32954966D02*
X17489979Y-32992497D01*
X17462281Y-33026096D01*
X17440338Y-33087064D01*
X17438595Y-33135308D01*
X17442543Y-33199816D01*
X17591314Y-33264934D01*
X17663651Y-33298202D01*
X17710916Y-33324964D01*
X17735493Y-33348144D01*
X17739763Y-33370667D01*
X17726111Y-33395455D01*
X17711057Y-33411886D01*
X17667254Y-33438235D01*
X17619611Y-33440081D01*
X17575855Y-33419546D01*
X17543711Y-33378752D01*
X17537962Y-33364347D01*
X17510424Y-33319356D01*
X17478742Y-33300182D01*
X17435286Y-33283779D01*
X17435286Y-33345966D01*
X17439128Y-33388283D01*
X17454177Y-33423969D01*
X17485720Y-33464943D01*
X17490408Y-33470267D01*
X17525494Y-33506720D01*
X17555653Y-33526283D01*
X17593385Y-33535283D01*
X17624665Y-33538230D01*
X17680615Y-33538965D01*
X17720445Y-33529660D01*
X17745292Y-33515846D01*
X17784344Y-33485467D01*
X17811375Y-33452613D01*
X17828483Y-33411294D01*
X17837762Y-33355521D01*
X17841307Y-33279305D01*
X17841590Y-33240622D01*
X17840628Y-33194247D01*
X17752993Y-33194247D01*
X17751977Y-33219126D01*
X17749444Y-33223200D01*
X17732726Y-33217665D01*
X17696751Y-33203017D01*
X17648669Y-33182190D01*
X17638614Y-33177714D01*
X17577848Y-33146814D01*
X17544368Y-33119657D01*
X17537010Y-33094220D01*
X17554609Y-33068481D01*
X17569144Y-33057109D01*
X17621590Y-33034364D01*
X17670678Y-33038122D01*
X17711773Y-33065884D01*
X17740242Y-33115152D01*
X17749369Y-33154257D01*
X17752993Y-33194247D01*
X17840628Y-33194247D01*
X17839715Y-33150249D01*
X17832804Y-33083384D01*
X17819116Y-33034695D01*
X17796904Y-32998849D01*
X17764426Y-32970513D01*
X17750267Y-32961355D01*
X17685947Y-32937507D01*
X17615527Y-32936006D01*
X17547405Y-32954966D01*
G36*
X18048400Y-32946752D02*
G01*
X18031052Y-32954334D01*
X17989644Y-32987128D01*
X17954235Y-33034547D01*
X17932336Y-33085151D01*
X17928771Y-33110098D01*
X17940721Y-33144927D01*
X17966933Y-33163357D01*
X17995036Y-33174516D01*
X18007905Y-33176572D01*
X18014171Y-33161649D01*
X18026544Y-33129175D01*
X18031972Y-33114502D01*
X18062410Y-33063744D01*
X18106480Y-33038427D01*
X18162990Y-33039206D01*
X18167175Y-33040203D01*
X18197345Y-33054507D01*
X18219524Y-33082393D01*
X18234673Y-33127287D01*
X18243750Y-33192615D01*
X18247714Y-33281804D01*
X18248086Y-33329261D01*
X18248270Y-33404071D01*
X18249478Y-33455069D01*
X18252691Y-33487471D01*
X18258891Y-33506495D01*
X18269060Y-33517356D01*
X18284181Y-33525272D01*
X18285054Y-33525670D01*
X18314172Y-33537981D01*
X18328597Y-33542514D01*
X18330814Y-33528809D01*
X18332711Y-33490925D01*
X18334153Y-33433715D01*
X18335002Y-33362027D01*
X18335171Y-33309565D01*
X18334308Y-33208047D01*
X18330930Y-33131032D01*
X18323858Y-33074023D01*
X18311912Y-33032526D01*
X18293910Y-33002043D01*
X18268673Y-32978080D01*
X18243753Y-32961355D01*
X18183829Y-32939097D01*
X18114089Y-32934076D01*
X18048400Y-32946752D01*
G37*
X18048400Y-32946752D02*
X18031052Y-32954334D01*
X17989644Y-32987128D01*
X17954235Y-33034547D01*
X17932336Y-33085151D01*
X17928771Y-33110098D01*
X17940721Y-33144927D01*
X17966933Y-33163357D01*
X17995036Y-33174516D01*
X18007905Y-33176572D01*
X18014171Y-33161649D01*
X18026544Y-33129175D01*
X18031972Y-33114502D01*
X18062410Y-33063744D01*
X18106480Y-33038427D01*
X18162990Y-33039206D01*
X18167175Y-33040203D01*
X18197345Y-33054507D01*
X18219524Y-33082393D01*
X18234673Y-33127287D01*
X18243750Y-33192615D01*
X18247714Y-33281804D01*
X18248086Y-33329261D01*
X18248270Y-33404071D01*
X18249478Y-33455069D01*
X18252691Y-33487471D01*
X18258891Y-33506495D01*
X18269060Y-33517356D01*
X18284181Y-33525272D01*
X18285054Y-33525670D01*
X18314172Y-33537981D01*
X18328597Y-33542514D01*
X18330814Y-33528809D01*
X18332711Y-33490925D01*
X18334153Y-33433715D01*
X18335002Y-33362027D01*
X18335171Y-33309565D01*
X18334308Y-33208047D01*
X18330930Y-33131032D01*
X18323858Y-33074023D01*
X18311912Y-33032526D01*
X18293910Y-33002043D01*
X18268673Y-32978080D01*
X18243753Y-32961355D01*
X18183829Y-32939097D01*
X18114089Y-32934076D01*
X18048400Y-32946752D01*
G36*
X18556124Y-32944335D02*
G01*
X18514333Y-32963344D01*
X18481531Y-32986378D01*
X18457497Y-33012133D01*
X18440903Y-33045358D01*
X18430423Y-33090800D01*
X18424729Y-33153207D01*
X18422493Y-33237327D01*
X18422257Y-33292721D01*
X18422257Y-33508826D01*
X18459226Y-33525670D01*
X18488344Y-33537981D01*
X18502769Y-33542514D01*
X18505528Y-33529025D01*
X18507718Y-33492653D01*
X18509058Y-33439542D01*
X18509343Y-33397372D01*
X18510566Y-33336447D01*
X18513864Y-33288115D01*
X18518679Y-33258518D01*
X18522504Y-33252229D01*
X18548217Y-33258652D01*
X18588582Y-33275125D01*
X18635321Y-33297458D01*
X18680155Y-33321457D01*
X18714807Y-33342930D01*
X18730998Y-33357685D01*
X18731062Y-33357845D01*
X18729670Y-33385152D01*
X18717182Y-33411219D01*
X18695257Y-33432392D01*
X18663257Y-33439474D01*
X18635908Y-33438649D01*
X18597174Y-33438042D01*
X18576842Y-33447116D01*
X18564631Y-33471092D01*
X18563091Y-33475613D01*
X18557797Y-33509806D01*
X18571953Y-33530568D01*
X18608852Y-33540462D01*
X18648711Y-33542292D01*
X18720438Y-33528727D01*
X18757568Y-33509355D01*
X18803424Y-33463845D01*
X18827744Y-33407983D01*
X18829927Y-33348957D01*
X18809371Y-33293953D01*
X18778451Y-33259486D01*
X18747580Y-33240189D01*
X18699058Y-33215759D01*
X18642515Y-33190985D01*
X18633090Y-33187199D01*
X18570981Y-33159791D01*
X18535178Y-33135634D01*
X18523663Y-33111619D01*
X18534420Y-33084635D01*
X18552886Y-33063543D01*
X18596531Y-33037572D01*
X18644554Y-33035624D01*
X18688594Y-33055637D01*
X18720291Y-33095551D01*
X18724451Y-33105848D01*
X18748673Y-33143724D01*
X18784035Y-33171842D01*
X18828657Y-33194917D01*
X18828657Y-33129485D01*
X18826031Y-33089506D01*
X18814770Y-33057997D01*
X18789801Y-33024378D01*
X18765831Y-32998484D01*
X18728559Y-32961817D01*
X18699599Y-32942121D01*
X18668495Y-32934220D01*
X18633287Y-32932914D01*
X18556124Y-32944335D01*
G37*
X18556124Y-32944335D02*
X18514333Y-32963344D01*
X18481531Y-32986378D01*
X18457497Y-33012133D01*
X18440903Y-33045358D01*
X18430423Y-33090800D01*
X18424729Y-33153207D01*
X18422493Y-33237327D01*
X18422257Y-33292721D01*
X18422257Y-33508826D01*
X18459226Y-33525670D01*
X18488344Y-33537981D01*
X18502769Y-33542514D01*
X18505528Y-33529025D01*
X18507718Y-33492653D01*
X18509058Y-33439542D01*
X18509343Y-33397372D01*
X18510566Y-33336447D01*
X18513864Y-33288115D01*
X18518679Y-33258518D01*
X18522504Y-33252229D01*
X18548217Y-33258652D01*
X18588582Y-33275125D01*
X18635321Y-33297458D01*
X18680155Y-33321457D01*
X18714807Y-33342930D01*
X18730998Y-33357685D01*
X18731062Y-33357845D01*
X18729670Y-33385152D01*
X18717182Y-33411219D01*
X18695257Y-33432392D01*
X18663257Y-33439474D01*
X18635908Y-33438649D01*
X18597174Y-33438042D01*
X18576842Y-33447116D01*
X18564631Y-33471092D01*
X18563091Y-33475613D01*
X18557797Y-33509806D01*
X18571953Y-33530568D01*
X18608852Y-33540462D01*
X18648711Y-33542292D01*
X18720438Y-33528727D01*
X18757568Y-33509355D01*
X18803424Y-33463845D01*
X18827744Y-33407983D01*
X18829927Y-33348957D01*
X18809371Y-33293953D01*
X18778451Y-33259486D01*
X18747580Y-33240189D01*
X18699058Y-33215759D01*
X18642515Y-33190985D01*
X18633090Y-33187199D01*
X18570981Y-33159791D01*
X18535178Y-33135634D01*
X18523663Y-33111619D01*
X18534420Y-33084635D01*
X18552886Y-33063543D01*
X18596531Y-33037572D01*
X18644554Y-33035624D01*
X18688594Y-33055637D01*
X18720291Y-33095551D01*
X18724451Y-33105848D01*
X18748673Y-33143724D01*
X18784035Y-33171842D01*
X18828657Y-33194917D01*
X18828657Y-33129485D01*
X18826031Y-33089506D01*
X18814770Y-33057997D01*
X18789801Y-33024378D01*
X18765831Y-32998484D01*
X18728559Y-32961817D01*
X18699599Y-32942121D01*
X18668495Y-32934220D01*
X18633287Y-32932914D01*
X18556124Y-32944335D01*
G36*
X18921167Y-32946663D02*
G01*
X18918952Y-32984850D01*
X18917216Y-33042886D01*
X18916101Y-33116180D01*
X18915743Y-33193055D01*
X18915743Y-33453196D01*
X18961674Y-33499127D01*
X18993325Y-33527429D01*
X19021110Y-33538893D01*
X19059085Y-33538168D01*
X19074160Y-33536321D01*
X19121274Y-33530948D01*
X19160244Y-33527869D01*
X19169743Y-33527585D01*
X19201767Y-33529445D01*
X19247568Y-33534114D01*
X19265326Y-33536321D01*
X19308943Y-33539735D01*
X19338255Y-33532320D01*
X19367320Y-33509427D01*
X19377812Y-33499127D01*
X19423743Y-33453196D01*
X19423743Y-32966602D01*
X19386774Y-32949758D01*
X19354941Y-32937282D01*
X19336317Y-32932914D01*
X19331542Y-32946718D01*
X19327079Y-32985286D01*
X19323225Y-33044356D01*
X19320278Y-33119663D01*
X19318857Y-33183286D01*
X19314886Y-33433657D01*
X19280241Y-33438556D01*
X19248732Y-33435131D01*
X19233292Y-33424041D01*
X19228977Y-33403308D01*
X19225292Y-33359145D01*
X19222531Y-33297146D01*
X19220988Y-33222909D01*
X19220765Y-33184706D01*
X19220543Y-32964783D01*
X19174834Y-32948849D01*
X19142482Y-32938015D01*
X19124885Y-32932962D01*
X19124377Y-32932914D01*
X19122612Y-32946648D01*
X19120671Y-32984730D01*
X19118718Y-33042482D01*
X19116916Y-33115227D01*
X19115657Y-33183286D01*
X19111686Y-33433657D01*
X19024600Y-33433657D01*
X19020604Y-33205240D01*
X19016608Y-32976822D01*
X18974153Y-32954868D01*
X18942808Y-32939793D01*
X18924256Y-32932951D01*
X18923721Y-32932914D01*
X18921167Y-32946663D01*
G37*
X18921167Y-32946663D02*
X18918952Y-32984850D01*
X18917216Y-33042886D01*
X18916101Y-33116180D01*
X18915743Y-33193055D01*
X18915743Y-33453196D01*
X18961674Y-33499127D01*
X18993325Y-33527429D01*
X19021110Y-33538893D01*
X19059085Y-33538168D01*
X19074160Y-33536321D01*
X19121274Y-33530948D01*
X19160244Y-33527869D01*
X19169743Y-33527585D01*
X19201767Y-33529445D01*
X19247568Y-33534114D01*
X19265326Y-33536321D01*
X19308943Y-33539735D01*
X19338255Y-33532320D01*
X19367320Y-33509427D01*
X19377812Y-33499127D01*
X19423743Y-33453196D01*
X19423743Y-32966602D01*
X19386774Y-32949758D01*
X19354941Y-32937282D01*
X19336317Y-32932914D01*
X19331542Y-32946718D01*
X19327079Y-32985286D01*
X19323225Y-33044356D01*
X19320278Y-33119663D01*
X19318857Y-33183286D01*
X19314886Y-33433657D01*
X19280241Y-33438556D01*
X19248732Y-33435131D01*
X19233292Y-33424041D01*
X19228977Y-33403308D01*
X19225292Y-33359145D01*
X19222531Y-33297146D01*
X19220988Y-33222909D01*
X19220765Y-33184706D01*
X19220543Y-32964783D01*
X19174834Y-32948849D01*
X19142482Y-32938015D01*
X19124885Y-32932962D01*
X19124377Y-32932914D01*
X19122612Y-32946648D01*
X19120671Y-32984730D01*
X19118718Y-33042482D01*
X19116916Y-33115227D01*
X19115657Y-33183286D01*
X19111686Y-33433657D01*
X19024600Y-33433657D01*
X19020604Y-33205240D01*
X19016608Y-32976822D01*
X18974153Y-32954868D01*
X18942808Y-32939793D01*
X18924256Y-32932951D01*
X18923721Y-32932914D01*
X18921167Y-32946663D01*
G36*
X19510883Y-33053358D02*
G01*
X19511067Y-33161837D01*
X19511781Y-33245287D01*
X19513325Y-33307704D01*
X19515999Y-33353085D01*
X19520106Y-33385429D01*
X19525945Y-33408733D01*
X19533818Y-33426995D01*
X19539779Y-33437418D01*
X19589145Y-33493945D01*
X19651736Y-33529377D01*
X19720987Y-33542090D01*
X19790332Y-33530463D01*
X19831625Y-33509568D01*
X19874975Y-33473422D01*
X19904519Y-33429276D01*
X19922345Y-33371462D01*
X19930537Y-33294313D01*
X19931698Y-33237714D01*
X19931542Y-33233647D01*
X19830143Y-33233647D01*
X19829524Y-33298550D01*
X19826686Y-33341514D01*
X19820160Y-33369622D01*
X19808477Y-33389953D01*
X19794517Y-33405288D01*
X19747635Y-33434890D01*
X19697299Y-33437419D01*
X19649724Y-33412705D01*
X19646021Y-33409356D01*
X19630217Y-33391935D01*
X19620307Y-33371209D01*
X19614942Y-33340362D01*
X19612772Y-33292577D01*
X19612429Y-33239748D01*
X19613173Y-33173381D01*
X19616252Y-33129106D01*
X19622939Y-33100009D01*
X19634504Y-33079173D01*
X19643987Y-33068107D01*
X19688040Y-33040198D01*
X19738776Y-33036843D01*
X19787204Y-33058159D01*
X19796550Y-33066073D01*
X19812460Y-33083647D01*
X19822390Y-33104587D01*
X19827722Y-33135782D01*
X19829837Y-33184122D01*
X19830143Y-33233647D01*
X19931542Y-33233647D01*
X19928190Y-33146568D01*
X19916274Y-33078086D01*
X19893865Y-33026600D01*
X19858876Y-32986443D01*
X19831625Y-32965861D01*
X19782093Y-32943625D01*
X19724684Y-32933304D01*
X19671318Y-32936067D01*
X19641457Y-32947212D01*
X19629739Y-32950383D01*
X19621963Y-32938557D01*
X19616535Y-32906866D01*
X19612429Y-32858593D01*
X19607933Y-32804829D01*
X19601687Y-32772482D01*
X19590324Y-32753985D01*
X19570472Y-32741770D01*
X19558000Y-32736362D01*
X19510829Y-32716601D01*
X19510883Y-33053358D01*
G37*
X19510883Y-33053358D02*
X19511067Y-33161837D01*
X19511781Y-33245287D01*
X19513325Y-33307704D01*
X19515999Y-33353085D01*
X19520106Y-33385429D01*
X19525945Y-33408733D01*
X19533818Y-33426995D01*
X19539779Y-33437418D01*
X19589145Y-33493945D01*
X19651736Y-33529377D01*
X19720987Y-33542090D01*
X19790332Y-33530463D01*
X19831625Y-33509568D01*
X19874975Y-33473422D01*
X19904519Y-33429276D01*
X19922345Y-33371462D01*
X19930537Y-33294313D01*
X19931698Y-33237714D01*
X19931542Y-33233647D01*
X19830143Y-33233647D01*
X19829524Y-33298550D01*
X19826686Y-33341514D01*
X19820160Y-33369622D01*
X19808477Y-33389953D01*
X19794517Y-33405288D01*
X19747635Y-33434890D01*
X19697299Y-33437419D01*
X19649724Y-33412705D01*
X19646021Y-33409356D01*
X19630217Y-33391935D01*
X19620307Y-33371209D01*
X19614942Y-33340362D01*
X19612772Y-33292577D01*
X19612429Y-33239748D01*
X19613173Y-33173381D01*
X19616252Y-33129106D01*
X19622939Y-33100009D01*
X19634504Y-33079173D01*
X19643987Y-33068107D01*
X19688040Y-33040198D01*
X19738776Y-33036843D01*
X19787204Y-33058159D01*
X19796550Y-33066073D01*
X19812460Y-33083647D01*
X19822390Y-33104587D01*
X19827722Y-33135782D01*
X19829837Y-33184122D01*
X19830143Y-33233647D01*
X19931542Y-33233647D01*
X19928190Y-33146568D01*
X19916274Y-33078086D01*
X19893865Y-33026600D01*
X19858876Y-32986443D01*
X19831625Y-32965861D01*
X19782093Y-32943625D01*
X19724684Y-32933304D01*
X19671318Y-32936067D01*
X19641457Y-32947212D01*
X19629739Y-32950383D01*
X19621963Y-32938557D01*
X19616535Y-32906866D01*
X19612429Y-32858593D01*
X19607933Y-32804829D01*
X19601687Y-32772482D01*
X19590324Y-32753985D01*
X19570472Y-32741770D01*
X19558000Y-32736362D01*
X19510829Y-32716601D01*
X19510883Y-33053358D01*
G36*
X20171074Y-32937755D02*
G01*
X20105142Y-32962084D01*
X20051727Y-33005117D01*
X20030836Y-33035409D01*
X20008061Y-33090994D01*
X20008534Y-33131186D01*
X20032438Y-33158217D01*
X20041283Y-33162813D01*
X20079470Y-33177144D01*
X20098972Y-33173472D01*
X20105578Y-33149407D01*
X20105914Y-33136114D01*
X20118008Y-33087210D01*
X20149529Y-33052999D01*
X20193341Y-33036476D01*
X20242305Y-33040634D01*
X20282106Y-33062227D01*
X20295550Y-33074544D01*
X20305079Y-33089487D01*
X20311515Y-33112075D01*
X20315683Y-33147328D01*
X20318403Y-33200266D01*
X20320498Y-33275907D01*
X20321040Y-33299857D01*
X20323019Y-33381790D01*
X20325269Y-33439455D01*
X20328643Y-33477608D01*
X20333994Y-33501004D01*
X20342176Y-33514398D01*
X20354041Y-33522545D01*
X20361638Y-33526144D01*
X20393898Y-33538452D01*
X20412889Y-33542514D01*
X20419164Y-33528948D01*
X20422994Y-33487934D01*
X20424400Y-33418999D01*
X20423402Y-33321669D01*
X20423092Y-33306657D01*
X20420899Y-33217859D01*
X20418307Y-33153019D01*
X20414618Y-33107067D01*
X20409136Y-33074935D01*
X20401165Y-33051553D01*
X20390007Y-33031852D01*
X20384170Y-33023410D01*
X20350704Y-32986057D01*
X20313273Y-32957003D01*
X20308691Y-32954467D01*
X20241574Y-32934443D01*
X20171074Y-32937755D01*
G37*
X20171074Y-32937755D02*
X20105142Y-32962084D01*
X20051727Y-33005117D01*
X20030836Y-33035409D01*
X20008061Y-33090994D01*
X20008534Y-33131186D01*
X20032438Y-33158217D01*
X20041283Y-33162813D01*
X20079470Y-33177144D01*
X20098972Y-33173472D01*
X20105578Y-33149407D01*
X20105914Y-33136114D01*
X20118008Y-33087210D01*
X20149529Y-33052999D01*
X20193341Y-33036476D01*
X20242305Y-33040634D01*
X20282106Y-33062227D01*
X20295550Y-33074544D01*
X20305079Y-33089487D01*
X20311515Y-33112075D01*
X20315683Y-33147328D01*
X20318403Y-33200266D01*
X20320498Y-33275907D01*
X20321040Y-33299857D01*
X20323019Y-33381790D01*
X20325269Y-33439455D01*
X20328643Y-33477608D01*
X20333994Y-33501004D01*
X20342176Y-33514398D01*
X20354041Y-33522545D01*
X20361638Y-33526144D01*
X20393898Y-33538452D01*
X20412889Y-33542514D01*
X20419164Y-33528948D01*
X20422994Y-33487934D01*
X20424400Y-33418999D01*
X20423402Y-33321669D01*
X20423092Y-33306657D01*
X20420899Y-33217859D01*
X20418307Y-33153019D01*
X20414618Y-33107067D01*
X20409136Y-33074935D01*
X20401165Y-33051553D01*
X20390007Y-33031852D01*
X20384170Y-33023410D01*
X20350704Y-32986057D01*
X20313273Y-32957003D01*
X20308691Y-32954467D01*
X20241574Y-32934443D01*
X20171074Y-32937755D01*
G36*
X20661256Y-32938968D02*
G01*
X20604384Y-32960087D01*
X20603733Y-32960493D01*
X20568560Y-32986380D01*
X20542593Y-33016633D01*
X20524330Y-33056058D01*
X20512268Y-33109462D01*
X20504904Y-33181651D01*
X20500736Y-33277432D01*
X20500371Y-33291078D01*
X20495124Y-33496842D01*
X20539284Y-33519678D01*
X20571237Y-33535110D01*
X20590530Y-33542423D01*
X20591422Y-33542514D01*
X20594761Y-33529022D01*
X20597413Y-33492626D01*
X20599044Y-33439452D01*
X20599400Y-33396393D01*
X20599408Y-33326641D01*
X20602597Y-33282837D01*
X20613712Y-33261944D01*
X20637499Y-33260925D01*
X20678704Y-33276741D01*
X20740914Y-33305815D01*
X20786659Y-33329963D01*
X20810187Y-33350913D01*
X20817104Y-33373747D01*
X20817114Y-33374877D01*
X20805701Y-33414212D01*
X20771908Y-33435462D01*
X20720191Y-33438539D01*
X20682939Y-33438006D01*
X20663297Y-33448735D01*
X20651048Y-33474505D01*
X20643998Y-33507337D01*
X20654158Y-33525966D01*
X20657983Y-33528632D01*
X20693999Y-33539340D01*
X20744434Y-33540856D01*
X20796374Y-33533759D01*
X20833178Y-33520788D01*
X20884062Y-33477585D01*
X20912986Y-33417446D01*
X20918714Y-33370462D01*
X20914343Y-33328082D01*
X20898525Y-33293488D01*
X20867203Y-33262763D01*
X20816322Y-33231990D01*
X20741824Y-33197252D01*
X20737286Y-33195288D01*
X20670179Y-33164287D01*
X20628768Y-33138862D01*
X20611019Y-33116014D01*
X20614893Y-33092745D01*
X20638357Y-33066056D01*
X20645373Y-33059914D01*
X20692370Y-33036100D01*
X20741067Y-33037103D01*
X20783478Y-33060451D01*
X20811616Y-33103675D01*
X20814231Y-33112160D01*
X20839692Y-33153308D01*
X20871999Y-33173128D01*
X20918714Y-33192770D01*
X20918714Y-33141950D01*
X20904504Y-33068082D01*
X20862325Y-33000327D01*
X20840376Y-32977661D01*
X20790483Y-32948569D01*
X20727033Y-32935400D01*
X20661256Y-32938968D01*
G37*
X20661256Y-32938968D02*
X20604384Y-32960087D01*
X20603733Y-32960493D01*
X20568560Y-32986380D01*
X20542593Y-33016633D01*
X20524330Y-33056058D01*
X20512268Y-33109462D01*
X20504904Y-33181651D01*
X20500736Y-33277432D01*
X20500371Y-33291078D01*
X20495124Y-33496842D01*
X20539284Y-33519678D01*
X20571237Y-33535110D01*
X20590530Y-33542423D01*
X20591422Y-33542514D01*
X20594761Y-33529022D01*
X20597413Y-33492626D01*
X20599044Y-33439452D01*
X20599400Y-33396393D01*
X20599408Y-33326641D01*
X20602597Y-33282837D01*
X20613712Y-33261944D01*
X20637499Y-33260925D01*
X20678704Y-33276741D01*
X20740914Y-33305815D01*
X20786659Y-33329963D01*
X20810187Y-33350913D01*
X20817104Y-33373747D01*
X20817114Y-33374877D01*
X20805701Y-33414212D01*
X20771908Y-33435462D01*
X20720191Y-33438539D01*
X20682939Y-33438006D01*
X20663297Y-33448735D01*
X20651048Y-33474505D01*
X20643998Y-33507337D01*
X20654158Y-33525966D01*
X20657983Y-33528632D01*
X20693999Y-33539340D01*
X20744434Y-33540856D01*
X20796374Y-33533759D01*
X20833178Y-33520788D01*
X20884062Y-33477585D01*
X20912986Y-33417446D01*
X20918714Y-33370462D01*
X20914343Y-33328082D01*
X20898525Y-33293488D01*
X20867203Y-33262763D01*
X20816322Y-33231990D01*
X20741824Y-33197252D01*
X20737286Y-33195288D01*
X20670179Y-33164287D01*
X20628768Y-33138862D01*
X20611019Y-33116014D01*
X20614893Y-33092745D01*
X20638357Y-33066056D01*
X20645373Y-33059914D01*
X20692370Y-33036100D01*
X20741067Y-33037103D01*
X20783478Y-33060451D01*
X20811616Y-33103675D01*
X20814231Y-33112160D01*
X20839692Y-33153308D01*
X20871999Y-33173128D01*
X20918714Y-33192770D01*
X20918714Y-33141950D01*
X20904504Y-33068082D01*
X20862325Y-33000327D01*
X20840376Y-32977661D01*
X20790483Y-32948569D01*
X20727033Y-32935400D01*
X20661256Y-32938968D01*
G36*
X21325114Y-32839289D02*
G01*
X21320861Y-32898613D01*
X21315975Y-32933572D01*
X21309205Y-32948820D01*
X21299298Y-32949015D01*
X21296086Y-32947195D01*
X21253356Y-32934015D01*
X21197773Y-32934785D01*
X21141263Y-32948333D01*
X21105918Y-32965861D01*
X21069679Y-32993861D01*
X21043187Y-33025549D01*
X21025001Y-33065813D01*
X21013678Y-33119543D01*
X21007778Y-33191626D01*
X21005857Y-33286951D01*
X21005823Y-33305237D01*
X21005800Y-33510646D01*
X21051509Y-33526580D01*
X21083973Y-33537420D01*
X21101785Y-33542468D01*
X21102309Y-33542514D01*
X21104063Y-33528828D01*
X21105556Y-33491076D01*
X21106674Y-33434224D01*
X21107303Y-33363234D01*
X21107400Y-33320073D01*
X21107602Y-33234973D01*
X21108642Y-33173981D01*
X21111169Y-33132177D01*
X21115836Y-33104642D01*
X21123293Y-33086456D01*
X21134189Y-33072698D01*
X21140993Y-33066073D01*
X21187728Y-33039375D01*
X21238728Y-33037375D01*
X21284999Y-33059955D01*
X21293556Y-33068107D01*
X21306107Y-33083436D01*
X21314812Y-33101618D01*
X21320369Y-33127909D01*
X21323474Y-33167562D01*
X21324824Y-33225832D01*
X21325114Y-33306173D01*
X21325114Y-33510646D01*
X21370823Y-33526580D01*
X21403287Y-33537420D01*
X21421099Y-33542468D01*
X21421623Y-33542514D01*
X21422963Y-33528623D01*
X21424172Y-33489439D01*
X21425199Y-33428700D01*
X21425998Y-33350141D01*
X21426519Y-33257498D01*
X21426714Y-33154509D01*
X21426714Y-32757342D01*
X21379543Y-32737444D01*
X21332371Y-32717547D01*
X21325114Y-32839289D01*
G37*
X21325114Y-32839289D02*
X21320861Y-32898613D01*
X21315975Y-32933572D01*
X21309205Y-32948820D01*
X21299298Y-32949015D01*
X21296086Y-32947195D01*
X21253356Y-32934015D01*
X21197773Y-32934785D01*
X21141263Y-32948333D01*
X21105918Y-32965861D01*
X21069679Y-32993861D01*
X21043187Y-33025549D01*
X21025001Y-33065813D01*
X21013678Y-33119543D01*
X21007778Y-33191626D01*
X21005857Y-33286951D01*
X21005823Y-33305237D01*
X21005800Y-33510646D01*
X21051509Y-33526580D01*
X21083973Y-33537420D01*
X21101785Y-33542468D01*
X21102309Y-33542514D01*
X21104063Y-33528828D01*
X21105556Y-33491076D01*
X21106674Y-33434224D01*
X21107303Y-33363234D01*
X21107400Y-33320073D01*
X21107602Y-33234973D01*
X21108642Y-33173981D01*
X21111169Y-33132177D01*
X21115836Y-33104642D01*
X21123293Y-33086456D01*
X21134189Y-33072698D01*
X21140993Y-33066073D01*
X21187728Y-33039375D01*
X21238728Y-33037375D01*
X21284999Y-33059955D01*
X21293556Y-33068107D01*
X21306107Y-33083436D01*
X21314812Y-33101618D01*
X21320369Y-33127909D01*
X21323474Y-33167562D01*
X21324824Y-33225832D01*
X21325114Y-33306173D01*
X21325114Y-33510646D01*
X21370823Y-33526580D01*
X21403287Y-33537420D01*
X21421099Y-33542468D01*
X21421623Y-33542514D01*
X21422963Y-33528623D01*
X21424172Y-33489439D01*
X21425199Y-33428700D01*
X21425998Y-33350141D01*
X21426519Y-33257498D01*
X21426714Y-33154509D01*
X21426714Y-32757342D01*
X21379543Y-32737444D01*
X21332371Y-32717547D01*
X21325114Y-32839289D01*
G36*
X22532697Y-32919239D02*
G01*
X22475473Y-32957735D01*
X22431251Y-33013335D01*
X22404833Y-33084086D01*
X22399490Y-33136162D01*
X22400097Y-33157893D01*
X22405178Y-33174531D01*
X22419145Y-33189437D01*
X22446411Y-33205973D01*
X22491388Y-33227498D01*
X22558489Y-33257374D01*
X22558829Y-33257524D01*
X22620593Y-33285813D01*
X22671241Y-33310933D01*
X22705596Y-33330179D01*
X22718482Y-33340848D01*
X22718486Y-33340934D01*
X22707128Y-33364166D01*
X22680569Y-33389774D01*
X22650077Y-33408221D01*
X22634630Y-33411886D01*
X22592485Y-33399212D01*
X22556192Y-33367471D01*
X22538483Y-33332572D01*
X22521448Y-33306845D01*
X22488078Y-33277546D01*
X22448851Y-33252235D01*
X22414244Y-33238471D01*
X22407007Y-33237714D01*
X22398861Y-33250160D01*
X22398370Y-33281972D01*
X22404357Y-33324866D01*
X22415643Y-33370558D01*
X22431050Y-33410761D01*
X22431829Y-33412322D01*
X22478196Y-33477062D01*
X22538289Y-33521097D01*
X22606535Y-33542711D01*
X22677362Y-33540185D01*
X22745196Y-33511804D01*
X22748212Y-33509808D01*
X22801573Y-33461448D01*
X22836660Y-33398352D01*
X22856078Y-33315387D01*
X22858684Y-33292078D01*
X22863299Y-33182055D01*
X22857767Y-33130748D01*
X22718486Y-33130748D01*
X22716676Y-33162753D01*
X22706778Y-33172093D01*
X22682102Y-33165105D01*
X22643205Y-33148587D01*
X22599725Y-33127881D01*
X22598644Y-33127333D01*
X22561791Y-33107949D01*
X22547000Y-33095013D01*
X22550647Y-33081451D01*
X22566005Y-33063632D01*
X22605077Y-33037845D01*
X22647154Y-33035950D01*
X22684897Y-33054717D01*
X22710966Y-33090915D01*
X22718486Y-33130748D01*
X22857767Y-33130748D01*
X22853806Y-33094027D01*
X22829450Y-33024212D01*
X22795544Y-32975302D01*
X22734347Y-32925878D01*
X22666937Y-32901359D01*
X22598120Y-32899797D01*
X22532697Y-32919239D01*
G37*
X22532697Y-32919239D02*
X22475473Y-32957735D01*
X22431251Y-33013335D01*
X22404833Y-33084086D01*
X22399490Y-33136162D01*
X22400097Y-33157893D01*
X22405178Y-33174531D01*
X22419145Y-33189437D01*
X22446411Y-33205973D01*
X22491388Y-33227498D01*
X22558489Y-33257374D01*
X22558829Y-33257524D01*
X22620593Y-33285813D01*
X22671241Y-33310933D01*
X22705596Y-33330179D01*
X22718482Y-33340848D01*
X22718486Y-33340934D01*
X22707128Y-33364166D01*
X22680569Y-33389774D01*
X22650077Y-33408221D01*
X22634630Y-33411886D01*
X22592485Y-33399212D01*
X22556192Y-33367471D01*
X22538483Y-33332572D01*
X22521448Y-33306845D01*
X22488078Y-33277546D01*
X22448851Y-33252235D01*
X22414244Y-33238471D01*
X22407007Y-33237714D01*
X22398861Y-33250160D01*
X22398370Y-33281972D01*
X22404357Y-33324866D01*
X22415643Y-33370558D01*
X22431050Y-33410761D01*
X22431829Y-33412322D01*
X22478196Y-33477062D01*
X22538289Y-33521097D01*
X22606535Y-33542711D01*
X22677362Y-33540185D01*
X22745196Y-33511804D01*
X22748212Y-33509808D01*
X22801573Y-33461448D01*
X22836660Y-33398352D01*
X22856078Y-33315387D01*
X22858684Y-33292078D01*
X22863299Y-33182055D01*
X22857767Y-33130748D01*
X22718486Y-33130748D01*
X22716676Y-33162753D01*
X22706778Y-33172093D01*
X22682102Y-33165105D01*
X22643205Y-33148587D01*
X22599725Y-33127881D01*
X22598644Y-33127333D01*
X22561791Y-33107949D01*
X22547000Y-33095013D01*
X22550647Y-33081451D01*
X22566005Y-33063632D01*
X22605077Y-33037845D01*
X22647154Y-33035950D01*
X22684897Y-33054717D01*
X22710966Y-33090915D01*
X22718486Y-33130748D01*
X22857767Y-33130748D01*
X22853806Y-33094027D01*
X22829450Y-33024212D01*
X22795544Y-32975302D01*
X22734347Y-32925878D01*
X22666937Y-32901359D01*
X22598120Y-32899797D01*
X22532697Y-32919239D01*
G36*
X23659885Y-32909962D02*
G01*
X23591855Y-32945733D01*
X23541649Y-33003301D01*
X23523815Y-33040312D01*
X23509937Y-33095882D01*
X23502833Y-33166096D01*
X23502160Y-33242727D01*
X23507573Y-33317552D01*
X23518730Y-33382342D01*
X23535286Y-33428873D01*
X23540374Y-33436887D01*
X23600645Y-33496707D01*
X23672231Y-33532535D01*
X23749908Y-33543020D01*
X23828452Y-33526810D01*
X23850311Y-33517092D01*
X23892878Y-33487143D01*
X23930237Y-33447433D01*
X23933768Y-33442397D01*
X23948119Y-33418124D01*
X23957606Y-33392178D01*
X23963210Y-33358022D01*
X23965914Y-33309119D01*
X23966701Y-33238935D01*
X23966714Y-33223200D01*
X23966678Y-33218192D01*
X23821571Y-33218192D01*
X23820727Y-33284430D01*
X23817404Y-33328386D01*
X23810417Y-33356779D01*
X23798584Y-33376325D01*
X23792543Y-33382857D01*
X23757814Y-33407680D01*
X23724097Y-33406548D01*
X23690005Y-33385016D01*
X23669671Y-33362029D01*
X23657629Y-33328478D01*
X23650866Y-33275569D01*
X23650402Y-33269399D01*
X23649248Y-33173513D01*
X23661312Y-33102299D01*
X23686430Y-33056194D01*
X23724440Y-33035635D01*
X23738008Y-33034514D01*
X23773636Y-33040152D01*
X23798006Y-33059686D01*
X23812907Y-33097042D01*
X23820125Y-33156150D01*
X23821571Y-33218192D01*
X23966678Y-33218192D01*
X23966174Y-33148413D01*
X23963904Y-33096159D01*
X23958932Y-33059949D01*
X23950287Y-33033299D01*
X23936995Y-33009722D01*
X23934057Y-33005338D01*
X23884687Y-32946249D01*
X23830891Y-32911947D01*
X23765398Y-32898331D01*
X23743158Y-32897665D01*
X23659885Y-32909962D01*
G37*
X23659885Y-32909962D02*
X23591855Y-32945733D01*
X23541649Y-33003301D01*
X23523815Y-33040312D01*
X23509937Y-33095882D01*
X23502833Y-33166096D01*
X23502160Y-33242727D01*
X23507573Y-33317552D01*
X23518730Y-33382342D01*
X23535286Y-33428873D01*
X23540374Y-33436887D01*
X23600645Y-33496707D01*
X23672231Y-33532535D01*
X23749908Y-33543020D01*
X23828452Y-33526810D01*
X23850311Y-33517092D01*
X23892878Y-33487143D01*
X23930237Y-33447433D01*
X23933768Y-33442397D01*
X23948119Y-33418124D01*
X23957606Y-33392178D01*
X23963210Y-33358022D01*
X23965914Y-33309119D01*
X23966701Y-33238935D01*
X23966714Y-33223200D01*
X23966678Y-33218192D01*
X23821571Y-33218192D01*
X23820727Y-33284430D01*
X23817404Y-33328386D01*
X23810417Y-33356779D01*
X23798584Y-33376325D01*
X23792543Y-33382857D01*
X23757814Y-33407680D01*
X23724097Y-33406548D01*
X23690005Y-33385016D01*
X23669671Y-33362029D01*
X23657629Y-33328478D01*
X23650866Y-33275569D01*
X23650402Y-33269399D01*
X23649248Y-33173513D01*
X23661312Y-33102299D01*
X23686430Y-33056194D01*
X23724440Y-33035635D01*
X23738008Y-33034514D01*
X23773636Y-33040152D01*
X23798006Y-33059686D01*
X23812907Y-33097042D01*
X23820125Y-33156150D01*
X23821571Y-33218192D01*
X23966678Y-33218192D01*
X23966174Y-33148413D01*
X23963904Y-33096159D01*
X23958932Y-33059949D01*
X23950287Y-33033299D01*
X23936995Y-33009722D01*
X23934057Y-33005338D01*
X23884687Y-32946249D01*
X23830891Y-32911947D01*
X23765398Y-32898331D01*
X23743158Y-32897665D01*
X23659885Y-32909962D01*
G36*
X21984907Y-32915780D02*
G01*
X21938328Y-32942723D01*
X21905943Y-32969466D01*
X21882258Y-32997484D01*
X21865941Y-33031748D01*
X21855661Y-33077227D01*
X21850086Y-33138892D01*
X21847884Y-33221711D01*
X21847629Y-33281246D01*
X21847629Y-33500391D01*
X21909314Y-33528044D01*
X21971000Y-33555697D01*
X21978257Y-33315670D01*
X21981256Y-33226028D01*
X21984402Y-33160962D01*
X21988299Y-33116026D01*
X21993553Y-33086770D01*
X22000769Y-33068748D01*
X22010550Y-33057511D01*
X22013688Y-33055079D01*
X22061239Y-33036083D01*
X22109303Y-33043600D01*
X22137914Y-33063543D01*
X22149553Y-33077675D01*
X22157609Y-33096220D01*
X22162729Y-33124334D01*
X22165559Y-33167173D01*
X22166744Y-33229895D01*
X22166943Y-33295261D01*
X22166982Y-33377268D01*
X22168386Y-33435316D01*
X22173086Y-33474465D01*
X22183013Y-33499780D01*
X22200097Y-33516323D01*
X22226268Y-33529156D01*
X22261225Y-33542491D01*
X22299404Y-33557007D01*
X22294859Y-33299389D01*
X22293029Y-33206519D01*
X22290888Y-33137889D01*
X22287819Y-33088711D01*
X22283206Y-33054198D01*
X22276432Y-33029562D01*
X22266881Y-33010016D01*
X22255366Y-32992770D01*
X22199810Y-32937680D01*
X22132020Y-32905822D01*
X22058287Y-32898191D01*
X21984907Y-32915780D01*
G37*
X21984907Y-32915780D02*
X21938328Y-32942723D01*
X21905943Y-32969466D01*
X21882258Y-32997484D01*
X21865941Y-33031748D01*
X21855661Y-33077227D01*
X21850086Y-33138892D01*
X21847884Y-33221711D01*
X21847629Y-33281246D01*
X21847629Y-33500391D01*
X21909314Y-33528044D01*
X21971000Y-33555697D01*
X21978257Y-33315670D01*
X21981256Y-33226028D01*
X21984402Y-33160962D01*
X21988299Y-33116026D01*
X21993553Y-33086770D01*
X22000769Y-33068748D01*
X22010550Y-33057511D01*
X22013688Y-33055079D01*
X22061239Y-33036083D01*
X22109303Y-33043600D01*
X22137914Y-33063543D01*
X22149553Y-33077675D01*
X22157609Y-33096220D01*
X22162729Y-33124334D01*
X22165559Y-33167173D01*
X22166744Y-33229895D01*
X22166943Y-33295261D01*
X22166982Y-33377268D01*
X22168386Y-33435316D01*
X22173086Y-33474465D01*
X22183013Y-33499780D01*
X22200097Y-33516323D01*
X22226268Y-33529156D01*
X22261225Y-33542491D01*
X22299404Y-33557007D01*
X22294859Y-33299389D01*
X22293029Y-33206519D01*
X22290888Y-33137889D01*
X22287819Y-33088711D01*
X22283206Y-33054198D01*
X22276432Y-33029562D01*
X22266881Y-33010016D01*
X22255366Y-32992770D01*
X22199810Y-32937680D01*
X22132020Y-32905822D01*
X22058287Y-32898191D01*
X21984907Y-32915780D01*
G36*
X23101256Y-32907918D02*
G01*
X23045799Y-32935568D01*
X22996852Y-32986480D01*
X22983371Y-33005338D01*
X22968686Y-33030015D01*
X22959158Y-33056816D01*
X22953707Y-33092587D01*
X22951253Y-33144169D01*
X22950714Y-33212267D01*
X22953148Y-33305588D01*
X22961606Y-33375657D01*
X22977826Y-33427931D01*
X23003546Y-33467869D01*
X23040503Y-33500929D01*
X23043218Y-33502886D01*
X23079640Y-33522908D01*
X23123498Y-33532815D01*
X23179276Y-33535257D01*
X23269952Y-33535257D01*
X23269990Y-33623283D01*
X23270834Y-33672308D01*
X23275976Y-33701065D01*
X23289413Y-33718311D01*
X23315142Y-33732808D01*
X23321321Y-33735769D01*
X23350236Y-33749648D01*
X23372624Y-33758414D01*
X23389271Y-33759171D01*
X23400964Y-33749023D01*
X23408490Y-33725073D01*
X23412634Y-33684426D01*
X23414185Y-33624186D01*
X23413929Y-33541455D01*
X23412651Y-33433339D01*
X23412252Y-33401000D01*
X23410815Y-33289524D01*
X23409528Y-33216603D01*
X23270029Y-33216603D01*
X23269245Y-33278499D01*
X23265760Y-33318997D01*
X23257876Y-33345708D01*
X23243895Y-33366244D01*
X23234403Y-33376260D01*
X23195596Y-33405567D01*
X23161237Y-33407952D01*
X23125784Y-33383750D01*
X23124886Y-33382857D01*
X23110461Y-33364153D01*
X23101687Y-33338732D01*
X23097261Y-33299584D01*
X23095882Y-33239697D01*
X23095857Y-33226430D01*
X23099188Y-33143901D01*
X23110031Y-33086691D01*
X23129660Y-33051766D01*
X23159350Y-33036094D01*
X23176509Y-33034514D01*
X23217234Y-33041926D01*
X23245168Y-33066330D01*
X23261983Y-33110980D01*
X23269350Y-33179130D01*
X23270029Y-33216603D01*
X23409528Y-33216603D01*
X23409292Y-33203245D01*
X23407323Y-33138333D01*
X23404550Y-33090958D01*
X23400612Y-33057290D01*
X23395151Y-33033498D01*
X23387808Y-33015753D01*
X23378223Y-33000224D01*
X23374113Y-32994381D01*
X23319595Y-32939185D01*
X23250664Y-32907890D01*
X23170928Y-32899165D01*
X23101256Y-32907918D01*
G37*
X23101256Y-32907918D02*
X23045799Y-32935568D01*
X22996852Y-32986480D01*
X22983371Y-33005338D01*
X22968686Y-33030015D01*
X22959158Y-33056816D01*
X22953707Y-33092587D01*
X22951253Y-33144169D01*
X22950714Y-33212267D01*
X22953148Y-33305588D01*
X22961606Y-33375657D01*
X22977826Y-33427931D01*
X23003546Y-33467869D01*
X23040503Y-33500929D01*
X23043218Y-33502886D01*
X23079640Y-33522908D01*
X23123498Y-33532815D01*
X23179276Y-33535257D01*
X23269952Y-33535257D01*
X23269990Y-33623283D01*
X23270834Y-33672308D01*
X23275976Y-33701065D01*
X23289413Y-33718311D01*
X23315142Y-33732808D01*
X23321321Y-33735769D01*
X23350236Y-33749648D01*
X23372624Y-33758414D01*
X23389271Y-33759171D01*
X23400964Y-33749023D01*
X23408490Y-33725073D01*
X23412634Y-33684426D01*
X23414185Y-33624186D01*
X23413929Y-33541455D01*
X23412651Y-33433339D01*
X23412252Y-33401000D01*
X23410815Y-33289524D01*
X23409528Y-33216603D01*
X23270029Y-33216603D01*
X23269245Y-33278499D01*
X23265760Y-33318997D01*
X23257876Y-33345708D01*
X23243895Y-33366244D01*
X23234403Y-33376260D01*
X23195596Y-33405567D01*
X23161237Y-33407952D01*
X23125784Y-33383750D01*
X23124886Y-33382857D01*
X23110461Y-33364153D01*
X23101687Y-33338732D01*
X23097261Y-33299584D01*
X23095882Y-33239697D01*
X23095857Y-33226430D01*
X23099188Y-33143901D01*
X23110031Y-33086691D01*
X23129660Y-33051766D01*
X23159350Y-33036094D01*
X23176509Y-33034514D01*
X23217234Y-33041926D01*
X23245168Y-33066330D01*
X23261983Y-33110980D01*
X23269350Y-33179130D01*
X23270029Y-33216603D01*
X23409528Y-33216603D01*
X23409292Y-33203245D01*
X23407323Y-33138333D01*
X23404550Y-33090958D01*
X23400612Y-33057290D01*
X23395151Y-33033498D01*
X23387808Y-33015753D01*
X23378223Y-33000224D01*
X23374113Y-32994381D01*
X23319595Y-32939185D01*
X23250664Y-32907890D01*
X23170928Y-32899165D01*
X23101256Y-32907918D01*
D11*
X34111000Y-62095748D02*
X34111000Y-62618252D01*
X32691000Y-62095748D02*
X32691000Y-62618252D01*
X19804748Y-76887000D02*
X20327252Y-76887000D01*
X19804748Y-78307000D02*
X20327252Y-78307000D01*
X140537000Y-103116748D02*
X140537000Y-103639252D01*
X139117000Y-103116748D02*
X139117000Y-103639252D01*
X107072500Y-106101248D02*
X107072500Y-106623752D01*
X105652500Y-106101248D02*
X105652500Y-106623752D01*
X14680000Y-43553748D02*
X14680000Y-44076252D01*
X13260000Y-43553748D02*
X13260000Y-44076252D01*
X103897500Y-41807498D02*
X103897500Y-42330002D01*
X102477500Y-41807498D02*
X102477500Y-42330002D01*
X69290000Y-104513748D02*
X69290000Y-105036252D01*
X67870000Y-104513748D02*
X67870000Y-105036252D01*
X131678750Y-41013748D02*
X131678750Y-41536252D01*
X130258750Y-41013748D02*
X130258750Y-41536252D01*
X25316250Y-104513748D02*
X25316250Y-105036252D01*
X23896250Y-104513748D02*
X23896250Y-105036252D01*
X65003750Y-41807498D02*
X65003750Y-42330002D01*
X63583750Y-41807498D02*
X63583750Y-42330002D01*
D12*
X5931250Y-115500000D02*
X11831250Y-115500000D01*
X5931250Y-113100000D02*
X5931250Y-115500000D01*
X11831250Y-113100000D02*
X5931250Y-113100000D01*
X11531250Y-115500000D02*
X11531250Y-113100000D01*
X11431250Y-115500000D02*
X11431250Y-113100000D01*
X11631250Y-115500000D02*
X11631250Y-113100000D01*
X11731250Y-115500000D02*
X11731250Y-113100000D01*
X11831250Y-115500000D02*
X11831250Y-113100000D01*
X5931250Y-96450000D02*
X11831250Y-96450000D01*
X5931250Y-94050000D02*
X5931250Y-96450000D01*
X11831250Y-94050000D02*
X5931250Y-94050000D01*
X11531250Y-96450000D02*
X11531250Y-94050000D01*
X11431250Y-96450000D02*
X11431250Y-94050000D01*
X11631250Y-96450000D02*
X11631250Y-94050000D01*
X11731250Y-96450000D02*
X11731250Y-94050000D01*
X11831250Y-96450000D02*
X11831250Y-94050000D01*
X5931250Y-77400000D02*
X11831250Y-77400000D01*
X5931250Y-75000000D02*
X5931250Y-77400000D01*
X11831250Y-75000000D02*
X5931250Y-75000000D01*
X11531250Y-77400000D02*
X11531250Y-75000000D01*
X11431250Y-77400000D02*
X11431250Y-75000000D01*
X11631250Y-77400000D02*
X11631250Y-75000000D01*
X11731250Y-77400000D02*
X11731250Y-75000000D01*
X11831250Y-77400000D02*
X11831250Y-75000000D01*
X5931250Y-58350000D02*
X11831250Y-58350000D01*
X5931250Y-55950000D02*
X5931250Y-58350000D01*
X11831250Y-55950000D02*
X5931250Y-55950000D01*
X11531250Y-58350000D02*
X11531250Y-55950000D01*
X11431250Y-58350000D02*
X11431250Y-55950000D01*
X11631250Y-58350000D02*
X11631250Y-55950000D01*
X11731250Y-58350000D02*
X11731250Y-55950000D01*
X11831250Y-58350000D02*
X11831250Y-55950000D01*
X5931250Y-39300000D02*
X11831250Y-39300000D01*
X5931250Y-36900000D02*
X5931250Y-39300000D01*
X11831250Y-36900000D02*
X5931250Y-36900000D01*
X11531250Y-39300000D02*
X11531250Y-36900000D01*
X11431250Y-39300000D02*
X11431250Y-36900000D01*
X11631250Y-39300000D02*
X11631250Y-36900000D01*
X11731250Y-39300000D02*
X11731250Y-36900000D01*
X11831250Y-39300000D02*
X11831250Y-36900000D01*
D11*
X43509000Y-62095748D02*
X43509000Y-62618252D01*
X42089000Y-62095748D02*
X42089000Y-62618252D01*
X140175000Y-40906250D02*
X132875000Y-40906250D01*
X140175000Y-46406250D02*
X132875000Y-46406250D01*
X132875000Y-46406250D02*
X132875000Y-45256250D01*
X101016666Y-40906250D02*
X93716666Y-40906250D01*
X101016666Y-46406250D02*
X93716666Y-46406250D01*
X93716666Y-46406250D02*
X93716666Y-45256250D01*
X61858333Y-40906250D02*
X54558333Y-40906250D01*
X61858333Y-46406250D02*
X54558333Y-46406250D01*
X54558333Y-46406250D02*
X54558333Y-45256250D01*
X22700000Y-40906250D02*
X15400000Y-40906250D01*
X22700000Y-46406250D02*
X15400000Y-46406250D01*
X15400000Y-46406250D02*
X15400000Y-45256250D01*
X16193750Y-74981250D02*
X23493750Y-74981250D01*
X16193750Y-69481250D02*
X23493750Y-69481250D01*
X23493750Y-69481250D02*
X23493750Y-70631250D01*
X15400000Y-103556250D02*
X22700000Y-103556250D01*
X15400000Y-98056250D02*
X22700000Y-98056250D01*
X22700000Y-98056250D02*
X22700000Y-99206250D01*
X59850000Y-103556250D02*
X67150000Y-103556250D01*
X59850000Y-98056250D02*
X67150000Y-98056250D01*
X67150000Y-98056250D02*
X67150000Y-99206250D01*
X106945832Y-103556250D02*
X114245832Y-103556250D01*
X106945832Y-98056250D02*
X114245832Y-98056250D01*
X114245832Y-98056250D02*
X114245832Y-99206250D01*
X141606250Y-103556250D02*
X148906250Y-103556250D01*
X141606250Y-98056250D02*
X148906250Y-98056250D01*
X148906250Y-98056250D02*
X148906250Y-99206250D01*
X43237000Y-34443000D02*
X40287000Y-34443000D01*
X40837000Y-31343000D02*
X43237000Y-31343000D01*
X25142500Y-49470000D02*
X23812500Y-49470000D01*
X25142500Y-50800000D02*
X25142500Y-49470000D01*
X22542500Y-49470000D02*
X19942500Y-49470000D01*
X22542500Y-52070000D02*
X22542500Y-49470000D01*
X25142500Y-52070000D02*
X22542500Y-52070000D01*
X19942500Y-49470000D02*
X19942500Y-57210000D01*
X25142500Y-52070000D02*
X25142500Y-57210000D01*
X25142500Y-57210000D02*
X19942500Y-57210000D01*
X51911000Y-54228000D02*
X47911000Y-54228000D01*
X51911000Y-50928000D02*
X51911000Y-54228000D01*
X38632498Y-65171250D02*
X39155002Y-65171250D01*
X38632498Y-66591250D02*
X39155002Y-66591250D01*
X57456000Y-73095752D02*
X57456000Y-72573248D01*
X58876000Y-73095752D02*
X58876000Y-72573248D01*
X37390000Y-62618252D02*
X37390000Y-62095748D01*
X38810000Y-62618252D02*
X38810000Y-62095748D01*
X27947252Y-69798000D02*
X27424748Y-69798000D01*
X27947252Y-68378000D02*
X27424748Y-68378000D01*
X35008750Y-62618252D02*
X35008750Y-62095748D01*
X36428750Y-62618252D02*
X36428750Y-62095748D01*
X43740000Y-37472252D02*
X43740000Y-36949748D01*
X45160000Y-37472252D02*
X45160000Y-36949748D01*
X38914000Y-37472252D02*
X38914000Y-36949748D01*
X40334000Y-37472252D02*
X40334000Y-36949748D01*
X41096000Y-62095748D02*
X41096000Y-62618252D01*
X39676000Y-62095748D02*
X39676000Y-62618252D01*
X48951248Y-73902500D02*
X49473752Y-73902500D01*
X48951248Y-75322500D02*
X49473752Y-75322500D01*
X47192000Y-52316748D02*
X47192000Y-52839252D01*
X45772000Y-52316748D02*
X45772000Y-52839252D01*
X60698748Y-59234000D02*
X61221252Y-59234000D01*
X60698748Y-60654000D02*
X61221252Y-60654000D01*
X52503000Y-52839252D02*
X52503000Y-52316748D01*
X53923000Y-52839252D02*
X53923000Y-52316748D01*
X56653500Y-72573248D02*
X56653500Y-73095752D01*
X55233500Y-72573248D02*
X55233500Y-73095752D01*
X48951248Y-71521250D02*
X49473752Y-71521250D01*
X48951248Y-72941250D02*
X49473752Y-72941250D01*
X48775252Y-56336000D02*
X48252748Y-56336000D01*
X48775252Y-54916000D02*
X48252748Y-54916000D01*
X41127000Y-37940064D02*
X41127000Y-36735936D01*
X42947000Y-37940064D02*
X42947000Y-36735936D01*
D12*
X144056250Y-39300000D02*
X149956250Y-39300000D01*
X144056250Y-36900000D02*
X144056250Y-39300000D01*
X149956250Y-36900000D02*
X144056250Y-36900000D01*
X149656250Y-39300000D02*
X149656250Y-36900000D01*
X149556250Y-39300000D02*
X149556250Y-36900000D01*
X149756250Y-39300000D02*
X149756250Y-36900000D01*
X149856250Y-39300000D02*
X149856250Y-36900000D01*
X149956250Y-39300000D02*
X149956250Y-36900000D01*
X148806250Y-96450000D02*
X154706250Y-96450000D01*
X148806250Y-94050000D02*
X148806250Y-96450000D01*
X154706250Y-94050000D02*
X148806250Y-94050000D01*
X154406250Y-96450000D02*
X154406250Y-94050000D01*
X154306250Y-96450000D02*
X154306250Y-94050000D01*
X154506250Y-96450000D02*
X154506250Y-94050000D01*
X154606250Y-96450000D02*
X154606250Y-94050000D01*
X154706250Y-96450000D02*
X154706250Y-94050000D01*
X139281250Y-77400000D02*
X145181250Y-77400000D01*
X139281250Y-75000000D02*
X139281250Y-77400000D01*
X145181250Y-75000000D02*
X139281250Y-75000000D01*
X144881250Y-77400000D02*
X144881250Y-75000000D01*
X144781250Y-77400000D02*
X144781250Y-75000000D01*
X144981250Y-77400000D02*
X144981250Y-75000000D01*
X145081250Y-77400000D02*
X145081250Y-75000000D01*
X145181250Y-77400000D02*
X145181250Y-75000000D01*
X134518750Y-58350000D02*
X140418750Y-58350000D01*
X134518750Y-55950000D02*
X134518750Y-58350000D01*
X140418750Y-55950000D02*
X134518750Y-55950000D01*
X140118750Y-58350000D02*
X140118750Y-55950000D01*
X140018750Y-58350000D02*
X140018750Y-55950000D01*
X140218750Y-58350000D02*
X140218750Y-55950000D01*
X140318750Y-58350000D02*
X140318750Y-55950000D01*
X140418750Y-58350000D02*
X140418750Y-55950000D01*
X124981250Y-39300000D02*
X130881250Y-39300000D01*
X124981250Y-36900000D02*
X124981250Y-39300000D01*
X130881250Y-36900000D02*
X124981250Y-36900000D01*
X130581250Y-39300000D02*
X130581250Y-36900000D01*
X130481250Y-39300000D02*
X130481250Y-36900000D01*
X130681250Y-39300000D02*
X130681250Y-36900000D01*
X130781250Y-39300000D02*
X130781250Y-36900000D01*
X130881250Y-39300000D02*
X130881250Y-36900000D01*
X146425000Y-115500000D02*
X152325000Y-115500000D01*
X146425000Y-113100000D02*
X146425000Y-115500000D01*
X152325000Y-113100000D02*
X146425000Y-113100000D01*
X152025000Y-115500000D02*
X152025000Y-113100000D01*
X151925000Y-115500000D02*
X151925000Y-113100000D01*
X152125000Y-115500000D02*
X152125000Y-113100000D01*
X152225000Y-115500000D02*
X152225000Y-113100000D01*
X152325000Y-115500000D02*
X152325000Y-113100000D01*
X129756250Y-96450000D02*
X135656250Y-96450000D01*
X129756250Y-94050000D02*
X129756250Y-96450000D01*
X135656250Y-94050000D02*
X129756250Y-94050000D01*
X135356250Y-96450000D02*
X135356250Y-94050000D01*
X135256250Y-96450000D02*
X135256250Y-94050000D01*
X135456250Y-96450000D02*
X135456250Y-94050000D01*
X135556250Y-96450000D02*
X135556250Y-94050000D01*
X135656250Y-96450000D02*
X135656250Y-94050000D01*
X120231250Y-77400000D02*
X126131250Y-77400000D01*
X120231250Y-75000000D02*
X120231250Y-77400000D01*
X126131250Y-75000000D02*
X120231250Y-75000000D01*
X125831250Y-77400000D02*
X125831250Y-75000000D01*
X125731250Y-77400000D02*
X125731250Y-75000000D01*
X125931250Y-77400000D02*
X125931250Y-75000000D01*
X126031250Y-77400000D02*
X126031250Y-75000000D01*
X126131250Y-77400000D02*
X126131250Y-75000000D01*
X115468750Y-58350000D02*
X121368750Y-58350000D01*
X115468750Y-55950000D02*
X115468750Y-58350000D01*
X121368750Y-55950000D02*
X115468750Y-55950000D01*
X121068750Y-58350000D02*
X121068750Y-55950000D01*
X120968750Y-58350000D02*
X120968750Y-55950000D01*
X121168750Y-58350000D02*
X121168750Y-55950000D01*
X121268750Y-58350000D02*
X121268750Y-55950000D01*
X121368750Y-58350000D02*
X121368750Y-55950000D01*
X105943750Y-39300000D02*
X111843750Y-39300000D01*
X105943750Y-36900000D02*
X105943750Y-39300000D01*
X111843750Y-36900000D02*
X105943750Y-36900000D01*
X111543750Y-39300000D02*
X111543750Y-36900000D01*
X111443750Y-39300000D02*
X111443750Y-36900000D01*
X111643750Y-39300000D02*
X111643750Y-36900000D01*
X111743750Y-39300000D02*
X111743750Y-36900000D01*
X111843750Y-39300000D02*
X111843750Y-36900000D01*
X113087500Y-115373000D02*
X118987500Y-115373000D01*
X113087500Y-112973000D02*
X113087500Y-115373000D01*
X118987500Y-112973000D02*
X113087500Y-112973000D01*
X118687500Y-115373000D02*
X118687500Y-112973000D01*
X118587500Y-115373000D02*
X118587500Y-112973000D01*
X118787500Y-115373000D02*
X118787500Y-112973000D01*
X118887500Y-115373000D02*
X118887500Y-112973000D01*
X118987500Y-115373000D02*
X118987500Y-112973000D01*
X110706250Y-96323000D02*
X116606250Y-96323000D01*
X110706250Y-93923000D02*
X110706250Y-96323000D01*
X116606250Y-93923000D02*
X110706250Y-93923000D01*
X116306250Y-96323000D02*
X116306250Y-93923000D01*
X116206250Y-96323000D02*
X116206250Y-93923000D01*
X116406250Y-96323000D02*
X116406250Y-93923000D01*
X116506250Y-96323000D02*
X116506250Y-93923000D01*
X116606250Y-96323000D02*
X116606250Y-93923000D01*
X101181250Y-77273000D02*
X107081250Y-77273000D01*
X101181250Y-74873000D02*
X101181250Y-77273000D01*
X107081250Y-74873000D02*
X101181250Y-74873000D01*
X106781250Y-77273000D02*
X106781250Y-74873000D01*
X106681250Y-77273000D02*
X106681250Y-74873000D01*
X106881250Y-77273000D02*
X106881250Y-74873000D01*
X106981250Y-77273000D02*
X106981250Y-74873000D01*
X107081250Y-77273000D02*
X107081250Y-74873000D01*
X96418750Y-58350000D02*
X102318750Y-58350000D01*
X96418750Y-55950000D02*
X96418750Y-58350000D01*
X102318750Y-55950000D02*
X96418750Y-55950000D01*
X102018750Y-58350000D02*
X102018750Y-55950000D01*
X101918750Y-58350000D02*
X101918750Y-55950000D01*
X102118750Y-58350000D02*
X102118750Y-55950000D01*
X102218750Y-58350000D02*
X102218750Y-55950000D01*
X102318750Y-58350000D02*
X102318750Y-55950000D01*
X86893750Y-39300000D02*
X92793750Y-39300000D01*
X86893750Y-36900000D02*
X86893750Y-39300000D01*
X92793750Y-36900000D02*
X86893750Y-36900000D01*
X92493750Y-39300000D02*
X92493750Y-36900000D01*
X92393750Y-39300000D02*
X92393750Y-36900000D01*
X92593750Y-39300000D02*
X92593750Y-36900000D01*
X92693750Y-39300000D02*
X92693750Y-36900000D01*
X92793750Y-39300000D02*
X92793750Y-36900000D01*
X79750000Y-115500000D02*
X85650000Y-115500000D01*
X79750000Y-113100000D02*
X79750000Y-115500000D01*
X85650000Y-113100000D02*
X79750000Y-113100000D01*
X85350000Y-115500000D02*
X85350000Y-113100000D01*
X85250000Y-115500000D02*
X85250000Y-113100000D01*
X85450000Y-115500000D02*
X85450000Y-113100000D01*
X85550000Y-115500000D02*
X85550000Y-113100000D01*
X85650000Y-115500000D02*
X85650000Y-113100000D01*
X91656250Y-96450000D02*
X97556250Y-96450000D01*
X91656250Y-94050000D02*
X91656250Y-96450000D01*
X97556250Y-94050000D02*
X91656250Y-94050000D01*
X97256250Y-96450000D02*
X97256250Y-94050000D01*
X97156250Y-96450000D02*
X97156250Y-94050000D01*
X97356250Y-96450000D02*
X97356250Y-94050000D01*
X97456250Y-96450000D02*
X97456250Y-94050000D01*
X97556250Y-96450000D02*
X97556250Y-94050000D01*
X82131250Y-77400000D02*
X88031250Y-77400000D01*
X82131250Y-75000000D02*
X82131250Y-77400000D01*
X88031250Y-75000000D02*
X82131250Y-75000000D01*
X87731250Y-77400000D02*
X87731250Y-75000000D01*
X87631250Y-77400000D02*
X87631250Y-75000000D01*
X87831250Y-77400000D02*
X87831250Y-75000000D01*
X87931250Y-77400000D02*
X87931250Y-75000000D01*
X88031250Y-77400000D02*
X88031250Y-75000000D01*
X77368750Y-58223000D02*
X83268750Y-58223000D01*
X77368750Y-55823000D02*
X77368750Y-58223000D01*
X83268750Y-55823000D02*
X77368750Y-55823000D01*
X82968750Y-58223000D02*
X82968750Y-55823000D01*
X82868750Y-58223000D02*
X82868750Y-55823000D01*
X83068750Y-58223000D02*
X83068750Y-55823000D01*
X83168750Y-58223000D02*
X83168750Y-55823000D01*
X83268750Y-58223000D02*
X83268750Y-55823000D01*
X67843750Y-39173000D02*
X73743750Y-39173000D01*
X67843750Y-36773000D02*
X67843750Y-39173000D01*
X73743750Y-36773000D02*
X67843750Y-36773000D01*
X73443750Y-39173000D02*
X73443750Y-36773000D01*
X73343750Y-39173000D02*
X73343750Y-36773000D01*
X73543750Y-39173000D02*
X73543750Y-36773000D01*
X73643750Y-39173000D02*
X73643750Y-36773000D01*
X73743750Y-39173000D02*
X73743750Y-36773000D01*
X55937500Y-115500000D02*
X61837500Y-115500000D01*
X55937500Y-113100000D02*
X55937500Y-115500000D01*
X61837500Y-113100000D02*
X55937500Y-113100000D01*
X61537500Y-115500000D02*
X61537500Y-113100000D01*
X61437500Y-115500000D02*
X61437500Y-113100000D01*
X61637500Y-115500000D02*
X61637500Y-113100000D01*
X61737500Y-115500000D02*
X61737500Y-113100000D01*
X61837500Y-115500000D02*
X61837500Y-113100000D01*
X72606250Y-96323000D02*
X78506250Y-96323000D01*
X72606250Y-93923000D02*
X72606250Y-96323000D01*
X78506250Y-93923000D02*
X72606250Y-93923000D01*
X78206250Y-96323000D02*
X78206250Y-93923000D01*
X78106250Y-96323000D02*
X78106250Y-93923000D01*
X78306250Y-96323000D02*
X78306250Y-93923000D01*
X78406250Y-96323000D02*
X78406250Y-93923000D01*
X78506250Y-96323000D02*
X78506250Y-93923000D01*
X63081250Y-77400000D02*
X68981250Y-77400000D01*
X63081250Y-75000000D02*
X63081250Y-77400000D01*
X68981250Y-75000000D02*
X63081250Y-75000000D01*
X68681250Y-77400000D02*
X68681250Y-75000000D01*
X68581250Y-77400000D02*
X68581250Y-75000000D01*
X68781250Y-77400000D02*
X68781250Y-75000000D01*
X68881250Y-77400000D02*
X68881250Y-75000000D01*
X68981250Y-77400000D02*
X68981250Y-75000000D01*
X58318750Y-58223000D02*
X64218750Y-58223000D01*
X58318750Y-55823000D02*
X58318750Y-58223000D01*
X64218750Y-55823000D02*
X58318750Y-55823000D01*
X63918750Y-58223000D02*
X63918750Y-55823000D01*
X63818750Y-58223000D02*
X63818750Y-55823000D01*
X64018750Y-58223000D02*
X64018750Y-55823000D01*
X64118750Y-58223000D02*
X64118750Y-55823000D01*
X64218750Y-58223000D02*
X64218750Y-55823000D01*
X48793750Y-39173000D02*
X54693750Y-39173000D01*
X48793750Y-36773000D02*
X48793750Y-39173000D01*
X54693750Y-36773000D02*
X48793750Y-36773000D01*
X54393750Y-39173000D02*
X54393750Y-36773000D01*
X54293750Y-39173000D02*
X54293750Y-36773000D01*
X54493750Y-39173000D02*
X54493750Y-36773000D01*
X54593750Y-39173000D02*
X54593750Y-36773000D01*
X54693750Y-39173000D02*
X54693750Y-36773000D01*
X32125000Y-115500000D02*
X38025000Y-115500000D01*
X32125000Y-113100000D02*
X32125000Y-115500000D01*
X38025000Y-113100000D02*
X32125000Y-113100000D01*
X37725000Y-115500000D02*
X37725000Y-113100000D01*
X37625000Y-115500000D02*
X37625000Y-113100000D01*
X37825000Y-115500000D02*
X37825000Y-113100000D01*
X37925000Y-115500000D02*
X37925000Y-113100000D01*
X38025000Y-115500000D02*
X38025000Y-113100000D01*
X41650000Y-96450000D02*
X47550000Y-96450000D01*
X41650000Y-94050000D02*
X41650000Y-96450000D01*
X47550000Y-94050000D02*
X41650000Y-94050000D01*
X47250000Y-96450000D02*
X47250000Y-94050000D01*
X47150000Y-96450000D02*
X47150000Y-94050000D01*
X47350000Y-96450000D02*
X47350000Y-94050000D01*
X47450000Y-96450000D02*
X47450000Y-94050000D01*
X47550000Y-96450000D02*
X47550000Y-94050000D01*
X36887500Y-77400000D02*
X42787500Y-77400000D01*
X36887500Y-75000000D02*
X36887500Y-77400000D01*
X42787500Y-75000000D02*
X36887500Y-75000000D01*
X42487500Y-77400000D02*
X42487500Y-75000000D01*
X42387500Y-77400000D02*
X42387500Y-75000000D01*
X42587500Y-77400000D02*
X42587500Y-75000000D01*
X42687500Y-77400000D02*
X42687500Y-75000000D01*
X42787500Y-77400000D02*
X42787500Y-75000000D01*
X34506250Y-58223000D02*
X40406250Y-58223000D01*
X34506250Y-55823000D02*
X34506250Y-58223000D01*
X40406250Y-55823000D02*
X34506250Y-55823000D01*
X40106250Y-58223000D02*
X40106250Y-55823000D01*
X40006250Y-58223000D02*
X40006250Y-55823000D01*
X40206250Y-58223000D02*
X40206250Y-55823000D01*
X40306250Y-58223000D02*
X40306250Y-55823000D01*
X40406250Y-58223000D02*
X40406250Y-55823000D01*
X29743750Y-39300000D02*
X35643750Y-39300000D01*
X29743750Y-36900000D02*
X29743750Y-39300000D01*
X35643750Y-36900000D02*
X29743750Y-36900000D01*
X35343750Y-39300000D02*
X35343750Y-36900000D01*
X35243750Y-39300000D02*
X35243750Y-36900000D01*
X35443750Y-39300000D02*
X35443750Y-36900000D01*
X35543750Y-39300000D02*
X35543750Y-36900000D01*
X35643750Y-39300000D02*
X35643750Y-36900000D01*
D13*
X46768000Y-68929000D02*
X46768000Y-68354000D01*
X57118000Y-68929000D02*
X57118000Y-68254000D01*
X57118000Y-58579000D02*
X57118000Y-59254000D01*
X46768000Y-58579000D02*
X46768000Y-59254000D01*
X46768000Y-68929000D02*
X47443000Y-68929000D01*
X46768000Y-58579000D02*
X47443000Y-58579000D01*
X57118000Y-58579000D02*
X56443000Y-58579000D01*
X57118000Y-68929000D02*
X56443000Y-68929000D01*
X46768000Y-68354000D02*
X45493000Y-68354000D01*
D11*
X30406000Y-65077000D02*
X29916000Y-65567000D01*
X30406000Y-62177000D02*
X30406000Y-65077000D01*
X30406000Y-62177000D02*
X29916000Y-61687000D01*
X24966000Y-62177000D02*
X24966000Y-65077000D01*
X24966000Y-62177000D02*
X25456000Y-61687000D01*
X28726000Y-66347000D02*
X26646000Y-66347000D01*
X24966000Y-65077000D02*
X25456000Y-65567000D01*
X28726000Y-60907000D02*
X26646000Y-60907000D01*
D13*
X34043857Y-65381142D02*
X34091476Y-65428761D01*
X34234333Y-65476380D01*
X34329571Y-65476380D01*
X34472428Y-65428761D01*
X34567666Y-65333523D01*
X34615285Y-65238285D01*
X34662904Y-65047809D01*
X34662904Y-64904952D01*
X34615285Y-64714476D01*
X34567666Y-64619238D01*
X34472428Y-64524000D01*
X34329571Y-64476380D01*
X34234333Y-64476380D01*
X34091476Y-64524000D01*
X34043857Y-64571619D01*
X33091476Y-65476380D02*
X33662904Y-65476380D01*
X33377190Y-65476380D02*
X33377190Y-64476380D01*
X33472428Y-64619238D01*
X33567666Y-64714476D01*
X33662904Y-64762095D01*
X32472428Y-64476380D02*
X32377190Y-64476380D01*
X32281952Y-64524000D01*
X32234333Y-64571619D01*
X32186714Y-64666857D01*
X32139095Y-64857333D01*
X32139095Y-65095428D01*
X32186714Y-65285904D01*
X32234333Y-65381142D01*
X32281952Y-65428761D01*
X32377190Y-65476380D01*
X32472428Y-65476380D01*
X32567666Y-65428761D01*
X32615285Y-65381142D01*
X32662904Y-65285904D01*
X32710523Y-65095428D01*
X32710523Y-64857333D01*
X32662904Y-64666857D01*
X32615285Y-64571619D01*
X32567666Y-64524000D01*
X32472428Y-64476380D01*
X20359666Y-79732142D02*
X20407285Y-79779761D01*
X20550142Y-79827380D01*
X20645380Y-79827380D01*
X20788238Y-79779761D01*
X20883476Y-79684523D01*
X20931095Y-79589285D01*
X20978714Y-79398809D01*
X20978714Y-79255952D01*
X20931095Y-79065476D01*
X20883476Y-78970238D01*
X20788238Y-78875000D01*
X20645380Y-78827380D01*
X20550142Y-78827380D01*
X20407285Y-78875000D01*
X20359666Y-78922619D01*
X19883476Y-79827380D02*
X19693000Y-79827380D01*
X19597761Y-79779761D01*
X19550142Y-79732142D01*
X19454904Y-79589285D01*
X19407285Y-79398809D01*
X19407285Y-79017857D01*
X19454904Y-78922619D01*
X19502523Y-78875000D01*
X19597761Y-78827380D01*
X19788238Y-78827380D01*
X19883476Y-78875000D01*
X19931095Y-78922619D01*
X19978714Y-79017857D01*
X19978714Y-79255952D01*
X19931095Y-79351190D01*
X19883476Y-79398809D01*
X19788238Y-79446428D01*
X19597761Y-79446428D01*
X19502523Y-79398809D01*
X19454904Y-79351190D01*
X19407285Y-79255952D01*
X138534142Y-103211333D02*
X138581761Y-103163714D01*
X138629380Y-103020857D01*
X138629380Y-102925619D01*
X138581761Y-102782761D01*
X138486523Y-102687523D01*
X138391285Y-102639904D01*
X138200809Y-102592285D01*
X138057952Y-102592285D01*
X137867476Y-102639904D01*
X137772238Y-102687523D01*
X137677000Y-102782761D01*
X137629380Y-102925619D01*
X137629380Y-103020857D01*
X137677000Y-103163714D01*
X137724619Y-103211333D01*
X138057952Y-103782761D02*
X138010333Y-103687523D01*
X137962714Y-103639904D01*
X137867476Y-103592285D01*
X137819857Y-103592285D01*
X137724619Y-103639904D01*
X137677000Y-103687523D01*
X137629380Y-103782761D01*
X137629380Y-103973238D01*
X137677000Y-104068476D01*
X137724619Y-104116095D01*
X137819857Y-104163714D01*
X137867476Y-104163714D01*
X137962714Y-104116095D01*
X138010333Y-104068476D01*
X138057952Y-103973238D01*
X138057952Y-103782761D01*
X138105571Y-103687523D01*
X138153190Y-103639904D01*
X138248428Y-103592285D01*
X138438904Y-103592285D01*
X138534142Y-103639904D01*
X138581761Y-103687523D01*
X138629380Y-103782761D01*
X138629380Y-103973238D01*
X138581761Y-104068476D01*
X138534142Y-104116095D01*
X138438904Y-104163714D01*
X138248428Y-104163714D01*
X138153190Y-104116095D01*
X138105571Y-104068476D01*
X138057952Y-103973238D01*
X105069642Y-106195833D02*
X105117261Y-106148214D01*
X105164880Y-106005357D01*
X105164880Y-105910119D01*
X105117261Y-105767261D01*
X105022023Y-105672023D01*
X104926785Y-105624404D01*
X104736309Y-105576785D01*
X104593452Y-105576785D01*
X104402976Y-105624404D01*
X104307738Y-105672023D01*
X104212500Y-105767261D01*
X104164880Y-105910119D01*
X104164880Y-106005357D01*
X104212500Y-106148214D01*
X104260119Y-106195833D01*
X104164880Y-106529166D02*
X104164880Y-107195833D01*
X105164880Y-106767261D01*
X12677142Y-43648333D02*
X12724761Y-43600714D01*
X12772380Y-43457857D01*
X12772380Y-43362619D01*
X12724761Y-43219761D01*
X12629523Y-43124523D01*
X12534285Y-43076904D01*
X12343809Y-43029285D01*
X12200952Y-43029285D01*
X12010476Y-43076904D01*
X11915238Y-43124523D01*
X11820000Y-43219761D01*
X11772380Y-43362619D01*
X11772380Y-43457857D01*
X11820000Y-43600714D01*
X11867619Y-43648333D01*
X11772380Y-44505476D02*
X11772380Y-44315000D01*
X11820000Y-44219761D01*
X11867619Y-44172142D01*
X12010476Y-44076904D01*
X12200952Y-44029285D01*
X12581904Y-44029285D01*
X12677142Y-44076904D01*
X12724761Y-44124523D01*
X12772380Y-44219761D01*
X12772380Y-44410238D01*
X12724761Y-44505476D01*
X12677142Y-44553095D01*
X12581904Y-44600714D01*
X12343809Y-44600714D01*
X12248571Y-44553095D01*
X12200952Y-44505476D01*
X12153333Y-44410238D01*
X12153333Y-44219761D01*
X12200952Y-44124523D01*
X12248571Y-44076904D01*
X12343809Y-44029285D01*
X105132142Y-41902083D02*
X105179761Y-41854464D01*
X105227380Y-41711607D01*
X105227380Y-41616369D01*
X105179761Y-41473511D01*
X105084523Y-41378273D01*
X104989285Y-41330654D01*
X104798809Y-41283035D01*
X104655952Y-41283035D01*
X104465476Y-41330654D01*
X104370238Y-41378273D01*
X104275000Y-41473511D01*
X104227380Y-41616369D01*
X104227380Y-41711607D01*
X104275000Y-41854464D01*
X104322619Y-41902083D01*
X104227380Y-42806845D02*
X104227380Y-42330654D01*
X104703571Y-42283035D01*
X104655952Y-42330654D01*
X104608333Y-42425892D01*
X104608333Y-42663988D01*
X104655952Y-42759226D01*
X104703571Y-42806845D01*
X104798809Y-42854464D01*
X105036904Y-42854464D01*
X105132142Y-42806845D01*
X105179761Y-42759226D01*
X105227380Y-42663988D01*
X105227380Y-42425892D01*
X105179761Y-42330654D01*
X105132142Y-42283035D01*
X67287142Y-104608333D02*
X67334761Y-104560714D01*
X67382380Y-104417857D01*
X67382380Y-104322619D01*
X67334761Y-104179761D01*
X67239523Y-104084523D01*
X67144285Y-104036904D01*
X66953809Y-103989285D01*
X66810952Y-103989285D01*
X66620476Y-104036904D01*
X66525238Y-104084523D01*
X66430000Y-104179761D01*
X66382380Y-104322619D01*
X66382380Y-104417857D01*
X66430000Y-104560714D01*
X66477619Y-104608333D01*
X66715714Y-105465476D02*
X67382380Y-105465476D01*
X66334761Y-105227380D02*
X67049047Y-104989285D01*
X67049047Y-105608333D01*
X129675892Y-41108333D02*
X129723511Y-41060714D01*
X129771130Y-40917857D01*
X129771130Y-40822619D01*
X129723511Y-40679761D01*
X129628273Y-40584523D01*
X129533035Y-40536904D01*
X129342559Y-40489285D01*
X129199702Y-40489285D01*
X129009226Y-40536904D01*
X128913988Y-40584523D01*
X128818750Y-40679761D01*
X128771130Y-40822619D01*
X128771130Y-40917857D01*
X128818750Y-41060714D01*
X128866369Y-41108333D01*
X128771130Y-41441666D02*
X128771130Y-42060714D01*
X129152083Y-41727380D01*
X129152083Y-41870238D01*
X129199702Y-41965476D01*
X129247321Y-42013095D01*
X129342559Y-42060714D01*
X129580654Y-42060714D01*
X129675892Y-42013095D01*
X129723511Y-41965476D01*
X129771130Y-41870238D01*
X129771130Y-41584523D01*
X129723511Y-41489285D01*
X129675892Y-41441666D01*
X23313392Y-104608333D02*
X23361011Y-104560714D01*
X23408630Y-104417857D01*
X23408630Y-104322619D01*
X23361011Y-104179761D01*
X23265773Y-104084523D01*
X23170535Y-104036904D01*
X22980059Y-103989285D01*
X22837202Y-103989285D01*
X22646726Y-104036904D01*
X22551488Y-104084523D01*
X22456250Y-104179761D01*
X22408630Y-104322619D01*
X22408630Y-104417857D01*
X22456250Y-104560714D01*
X22503869Y-104608333D01*
X22503869Y-104989285D02*
X22456250Y-105036904D01*
X22408630Y-105132142D01*
X22408630Y-105370238D01*
X22456250Y-105465476D01*
X22503869Y-105513095D01*
X22599107Y-105560714D01*
X22694345Y-105560714D01*
X22837202Y-105513095D01*
X23408630Y-104941666D01*
X23408630Y-105560714D01*
X66238392Y-41902083D02*
X66286011Y-41854464D01*
X66333630Y-41711607D01*
X66333630Y-41616369D01*
X66286011Y-41473511D01*
X66190773Y-41378273D01*
X66095535Y-41330654D01*
X65905059Y-41283035D01*
X65762202Y-41283035D01*
X65571726Y-41330654D01*
X65476488Y-41378273D01*
X65381250Y-41473511D01*
X65333630Y-41616369D01*
X65333630Y-41711607D01*
X65381250Y-41854464D01*
X65428869Y-41902083D01*
X66333630Y-42854464D02*
X66333630Y-42283035D01*
X66333630Y-42568750D02*
X65333630Y-42568750D01*
X65476488Y-42473511D01*
X65571726Y-42378273D01*
X65619345Y-42283035D01*
X141021130Y-22804166D02*
X141735416Y-22804166D01*
X141878273Y-22756547D01*
X141973511Y-22661309D01*
X142021130Y-22518452D01*
X142021130Y-22423214D01*
X141116369Y-23232738D02*
X141068750Y-23280357D01*
X141021130Y-23375595D01*
X141021130Y-23613690D01*
X141068750Y-23708928D01*
X141116369Y-23756547D01*
X141211607Y-23804166D01*
X141306845Y-23804166D01*
X141449702Y-23756547D01*
X142021130Y-23185119D01*
X142021130Y-23804166D01*
X9702678Y-116586904D02*
X9702678Y-115786904D01*
X9512202Y-115786904D01*
X9397916Y-115825000D01*
X9321726Y-115901190D01*
X9283630Y-115977380D01*
X9245535Y-116129761D01*
X9245535Y-116244047D01*
X9283630Y-116396428D01*
X9321726Y-116472619D01*
X9397916Y-116548809D01*
X9512202Y-116586904D01*
X9702678Y-116586904D01*
X8978869Y-115786904D02*
X8483630Y-115786904D01*
X8750297Y-116091666D01*
X8636011Y-116091666D01*
X8559821Y-116129761D01*
X8521726Y-116167857D01*
X8483630Y-116244047D01*
X8483630Y-116434523D01*
X8521726Y-116510714D01*
X8559821Y-116548809D01*
X8636011Y-116586904D01*
X8864583Y-116586904D01*
X8940773Y-116548809D01*
X8978869Y-116510714D01*
X7988392Y-115786904D02*
X7912202Y-115786904D01*
X7836011Y-115825000D01*
X7797916Y-115863095D01*
X7759821Y-115939285D01*
X7721726Y-116091666D01*
X7721726Y-116282142D01*
X7759821Y-116434523D01*
X7797916Y-116510714D01*
X7836011Y-116548809D01*
X7912202Y-116586904D01*
X7988392Y-116586904D01*
X8064583Y-116548809D01*
X8102678Y-116510714D01*
X8140773Y-116434523D01*
X8178869Y-116282142D01*
X8178869Y-116091666D01*
X8140773Y-115939285D01*
X8102678Y-115863095D01*
X8064583Y-115825000D01*
X7988392Y-115786904D01*
X9702678Y-97536904D02*
X9702678Y-96736904D01*
X9512202Y-96736904D01*
X9397916Y-96775000D01*
X9321726Y-96851190D01*
X9283630Y-96927380D01*
X9245535Y-97079761D01*
X9245535Y-97194047D01*
X9283630Y-97346428D01*
X9321726Y-97422619D01*
X9397916Y-97498809D01*
X9512202Y-97536904D01*
X9702678Y-97536904D01*
X8940773Y-96813095D02*
X8902678Y-96775000D01*
X8826488Y-96736904D01*
X8636011Y-96736904D01*
X8559821Y-96775000D01*
X8521726Y-96813095D01*
X8483630Y-96889285D01*
X8483630Y-96965476D01*
X8521726Y-97079761D01*
X8978869Y-97536904D01*
X8483630Y-97536904D01*
X8216964Y-96736904D02*
X7721726Y-96736904D01*
X7988392Y-97041666D01*
X7874107Y-97041666D01*
X7797916Y-97079761D01*
X7759821Y-97117857D01*
X7721726Y-97194047D01*
X7721726Y-97384523D01*
X7759821Y-97460714D01*
X7797916Y-97498809D01*
X7874107Y-97536904D01*
X8102678Y-97536904D01*
X8178869Y-97498809D01*
X8216964Y-97460714D01*
X9702678Y-78486904D02*
X9702678Y-77686904D01*
X9512202Y-77686904D01*
X9397916Y-77725000D01*
X9321726Y-77801190D01*
X9283630Y-77877380D01*
X9245535Y-78029761D01*
X9245535Y-78144047D01*
X9283630Y-78296428D01*
X9321726Y-78372619D01*
X9397916Y-78448809D01*
X9512202Y-78486904D01*
X9702678Y-78486904D01*
X8483630Y-78486904D02*
X8940773Y-78486904D01*
X8712202Y-78486904D02*
X8712202Y-77686904D01*
X8788392Y-77801190D01*
X8864583Y-77877380D01*
X8940773Y-77915476D01*
X7797916Y-77686904D02*
X7950297Y-77686904D01*
X8026488Y-77725000D01*
X8064583Y-77763095D01*
X8140773Y-77877380D01*
X8178869Y-78029761D01*
X8178869Y-78334523D01*
X8140773Y-78410714D01*
X8102678Y-78448809D01*
X8026488Y-78486904D01*
X7874107Y-78486904D01*
X7797916Y-78448809D01*
X7759821Y-78410714D01*
X7721726Y-78334523D01*
X7721726Y-78144047D01*
X7759821Y-78067857D01*
X7797916Y-78029761D01*
X7874107Y-77991666D01*
X8026488Y-77991666D01*
X8102678Y-78029761D01*
X8140773Y-78067857D01*
X8178869Y-78144047D01*
X9321726Y-59436904D02*
X9321726Y-58636904D01*
X9131250Y-58636904D01*
X9016964Y-58675000D01*
X8940773Y-58751190D01*
X8902678Y-58827380D01*
X8864583Y-58979761D01*
X8864583Y-59094047D01*
X8902678Y-59246428D01*
X8940773Y-59322619D01*
X9016964Y-59398809D01*
X9131250Y-59436904D01*
X9321726Y-59436904D01*
X8483630Y-59436904D02*
X8331250Y-59436904D01*
X8255059Y-59398809D01*
X8216964Y-59360714D01*
X8140773Y-59246428D01*
X8102678Y-59094047D01*
X8102678Y-58789285D01*
X8140773Y-58713095D01*
X8178869Y-58675000D01*
X8255059Y-58636904D01*
X8407440Y-58636904D01*
X8483630Y-58675000D01*
X8521726Y-58713095D01*
X8559821Y-58789285D01*
X8559821Y-58979761D01*
X8521726Y-59055952D01*
X8483630Y-59094047D01*
X8407440Y-59132142D01*
X8255059Y-59132142D01*
X8178869Y-59094047D01*
X8140773Y-59055952D01*
X8102678Y-58979761D01*
X9321726Y-40386904D02*
X9321726Y-39586904D01*
X9131250Y-39586904D01*
X9016964Y-39625000D01*
X8940773Y-39701190D01*
X8902678Y-39777380D01*
X8864583Y-39929761D01*
X8864583Y-40044047D01*
X8902678Y-40196428D01*
X8940773Y-40272619D01*
X9016964Y-40348809D01*
X9131250Y-40386904D01*
X9321726Y-40386904D01*
X8102678Y-40386904D02*
X8559821Y-40386904D01*
X8331250Y-40386904D02*
X8331250Y-39586904D01*
X8407440Y-39701190D01*
X8483630Y-39777380D01*
X8559821Y-39815476D01*
X43156142Y-58920142D02*
X43203761Y-58872523D01*
X43251380Y-58729666D01*
X43251380Y-58634428D01*
X43203761Y-58491571D01*
X43108523Y-58396333D01*
X43013285Y-58348714D01*
X42822809Y-58301095D01*
X42679952Y-58301095D01*
X42489476Y-58348714D01*
X42394238Y-58396333D01*
X42299000Y-58491571D01*
X42251380Y-58634428D01*
X42251380Y-58729666D01*
X42299000Y-58872523D01*
X42346619Y-58920142D01*
X43251380Y-59872523D02*
X43251380Y-59301095D01*
X43251380Y-59586809D02*
X42251380Y-59586809D01*
X42394238Y-59491571D01*
X42489476Y-59396333D01*
X42537095Y-59301095D01*
X42251380Y-60205857D02*
X42251380Y-60824904D01*
X42632333Y-60491571D01*
X42632333Y-60634428D01*
X42679952Y-60729666D01*
X42727571Y-60777285D01*
X42822809Y-60824904D01*
X43060904Y-60824904D01*
X43156142Y-60777285D01*
X43203761Y-60729666D01*
X43251380Y-60634428D01*
X43251380Y-60348714D01*
X43203761Y-60253476D01*
X43156142Y-60205857D01*
X137691666Y-40608630D02*
X138025000Y-40132440D01*
X138263095Y-40608630D02*
X138263095Y-39608630D01*
X137882142Y-39608630D01*
X137786904Y-39656250D01*
X137739285Y-39703869D01*
X137691666Y-39799107D01*
X137691666Y-39941964D01*
X137739285Y-40037202D01*
X137786904Y-40084821D01*
X137882142Y-40132440D01*
X138263095Y-40132440D01*
X136739285Y-39656250D02*
X136834523Y-39608630D01*
X136977380Y-39608630D01*
X137120238Y-39656250D01*
X137215476Y-39751488D01*
X137263095Y-39846726D01*
X137310714Y-40037202D01*
X137310714Y-40180059D01*
X137263095Y-40370535D01*
X137215476Y-40465773D01*
X137120238Y-40561011D01*
X136977380Y-40608630D01*
X136882142Y-40608630D01*
X136739285Y-40561011D01*
X136691666Y-40513392D01*
X136691666Y-40180059D01*
X136882142Y-40180059D01*
X135929761Y-40084821D02*
X135786904Y-40132440D01*
X135739285Y-40180059D01*
X135691666Y-40275297D01*
X135691666Y-40418154D01*
X135739285Y-40513392D01*
X135786904Y-40561011D01*
X135882142Y-40608630D01*
X136263095Y-40608630D01*
X136263095Y-39608630D01*
X135929761Y-39608630D01*
X135834523Y-39656250D01*
X135786904Y-39703869D01*
X135739285Y-39799107D01*
X135739285Y-39894345D01*
X135786904Y-39989583D01*
X135834523Y-40037202D01*
X135929761Y-40084821D01*
X136263095Y-40084821D01*
X135215476Y-40608630D02*
X135025000Y-40608630D01*
X134929761Y-40561011D01*
X134882142Y-40513392D01*
X134786904Y-40370535D01*
X134739285Y-40180059D01*
X134739285Y-39799107D01*
X134786904Y-39703869D01*
X134834523Y-39656250D01*
X134929761Y-39608630D01*
X135120238Y-39608630D01*
X135215476Y-39656250D01*
X135263095Y-39703869D01*
X135310714Y-39799107D01*
X135310714Y-40037202D01*
X135263095Y-40132440D01*
X135215476Y-40180059D01*
X135120238Y-40227678D01*
X134929761Y-40227678D01*
X134834523Y-40180059D01*
X134786904Y-40132440D01*
X134739285Y-40037202D01*
X140389285Y-42508630D02*
X140960714Y-42508630D01*
X140675000Y-42508630D02*
X140675000Y-41508630D01*
X140770238Y-41651488D01*
X140865476Y-41746726D01*
X140960714Y-41794345D01*
X98533332Y-40608630D02*
X98866666Y-40132440D01*
X99104761Y-40608630D02*
X99104761Y-39608630D01*
X98723808Y-39608630D01*
X98628570Y-39656250D01*
X98580951Y-39703869D01*
X98533332Y-39799107D01*
X98533332Y-39941964D01*
X98580951Y-40037202D01*
X98628570Y-40084821D01*
X98723808Y-40132440D01*
X99104761Y-40132440D01*
X97580951Y-39656250D02*
X97676189Y-39608630D01*
X97819046Y-39608630D01*
X97961904Y-39656250D01*
X98057142Y-39751488D01*
X98104761Y-39846726D01*
X98152380Y-40037202D01*
X98152380Y-40180059D01*
X98104761Y-40370535D01*
X98057142Y-40465773D01*
X97961904Y-40561011D01*
X97819046Y-40608630D01*
X97723808Y-40608630D01*
X97580951Y-40561011D01*
X97533332Y-40513392D01*
X97533332Y-40180059D01*
X97723808Y-40180059D01*
X96771427Y-40084821D02*
X96628570Y-40132440D01*
X96580951Y-40180059D01*
X96533332Y-40275297D01*
X96533332Y-40418154D01*
X96580951Y-40513392D01*
X96628570Y-40561011D01*
X96723808Y-40608630D01*
X97104761Y-40608630D01*
X97104761Y-39608630D01*
X96771427Y-39608630D01*
X96676189Y-39656250D01*
X96628570Y-39703869D01*
X96580951Y-39799107D01*
X96580951Y-39894345D01*
X96628570Y-39989583D01*
X96676189Y-40037202D01*
X96771427Y-40084821D01*
X97104761Y-40084821D01*
X95961904Y-40037202D02*
X96057142Y-39989583D01*
X96104761Y-39941964D01*
X96152380Y-39846726D01*
X96152380Y-39799107D01*
X96104761Y-39703869D01*
X96057142Y-39656250D01*
X95961904Y-39608630D01*
X95771427Y-39608630D01*
X95676189Y-39656250D01*
X95628570Y-39703869D01*
X95580951Y-39799107D01*
X95580951Y-39846726D01*
X95628570Y-39941964D01*
X95676189Y-39989583D01*
X95771427Y-40037202D01*
X95961904Y-40037202D01*
X96057142Y-40084821D01*
X96104761Y-40132440D01*
X96152380Y-40227678D01*
X96152380Y-40418154D01*
X96104761Y-40513392D01*
X96057142Y-40561011D01*
X95961904Y-40608630D01*
X95771427Y-40608630D01*
X95676189Y-40561011D01*
X95628570Y-40513392D01*
X95580951Y-40418154D01*
X95580951Y-40227678D01*
X95628570Y-40132440D01*
X95676189Y-40084821D01*
X95771427Y-40037202D01*
X101230951Y-42508630D02*
X101802380Y-42508630D01*
X101516666Y-42508630D02*
X101516666Y-41508630D01*
X101611904Y-41651488D01*
X101707142Y-41746726D01*
X101802380Y-41794345D01*
X59639583Y-48077380D02*
X59972917Y-47601190D01*
X60211012Y-48077380D02*
X60211012Y-47077380D01*
X59830059Y-47077380D01*
X59734821Y-47125000D01*
X59687202Y-47172619D01*
X59639583Y-47267857D01*
X59639583Y-47410714D01*
X59687202Y-47505952D01*
X59734821Y-47553571D01*
X59830059Y-47601190D01*
X60211012Y-47601190D01*
X58687202Y-47125000D02*
X58782440Y-47077380D01*
X58925297Y-47077380D01*
X59068155Y-47125000D01*
X59163393Y-47220238D01*
X59211012Y-47315476D01*
X59258631Y-47505952D01*
X59258631Y-47648809D01*
X59211012Y-47839285D01*
X59163393Y-47934523D01*
X59068155Y-48029761D01*
X58925297Y-48077380D01*
X58830059Y-48077380D01*
X58687202Y-48029761D01*
X58639583Y-47982142D01*
X58639583Y-47648809D01*
X58830059Y-47648809D01*
X57877678Y-47553571D02*
X57734821Y-47601190D01*
X57687202Y-47648809D01*
X57639583Y-47744047D01*
X57639583Y-47886904D01*
X57687202Y-47982142D01*
X57734821Y-48029761D01*
X57830059Y-48077380D01*
X58211012Y-48077380D01*
X58211012Y-47077380D01*
X57877678Y-47077380D01*
X57782440Y-47125000D01*
X57734821Y-47172619D01*
X57687202Y-47267857D01*
X57687202Y-47363095D01*
X57734821Y-47458333D01*
X57782440Y-47505952D01*
X57877678Y-47553571D01*
X58211012Y-47553571D01*
X57306250Y-47077380D02*
X56639583Y-47077380D01*
X57068155Y-48077380D01*
X62072618Y-42508630D02*
X62644047Y-42508630D01*
X62358333Y-42508630D02*
X62358333Y-41508630D01*
X62453571Y-41651488D01*
X62548809Y-41746726D01*
X62644047Y-41794345D01*
X20216666Y-47823380D02*
X20550000Y-47347190D01*
X20788095Y-47823380D02*
X20788095Y-46823380D01*
X20407142Y-46823380D01*
X20311904Y-46871000D01*
X20264285Y-46918619D01*
X20216666Y-47013857D01*
X20216666Y-47156714D01*
X20264285Y-47251952D01*
X20311904Y-47299571D01*
X20407142Y-47347190D01*
X20788095Y-47347190D01*
X19264285Y-46871000D02*
X19359523Y-46823380D01*
X19502380Y-46823380D01*
X19645238Y-46871000D01*
X19740476Y-46966238D01*
X19788095Y-47061476D01*
X19835714Y-47251952D01*
X19835714Y-47394809D01*
X19788095Y-47585285D01*
X19740476Y-47680523D01*
X19645238Y-47775761D01*
X19502380Y-47823380D01*
X19407142Y-47823380D01*
X19264285Y-47775761D01*
X19216666Y-47728142D01*
X19216666Y-47394809D01*
X19407142Y-47394809D01*
X18454761Y-47299571D02*
X18311904Y-47347190D01*
X18264285Y-47394809D01*
X18216666Y-47490047D01*
X18216666Y-47632904D01*
X18264285Y-47728142D01*
X18311904Y-47775761D01*
X18407142Y-47823380D01*
X18788095Y-47823380D01*
X18788095Y-46823380D01*
X18454761Y-46823380D01*
X18359523Y-46871000D01*
X18311904Y-46918619D01*
X18264285Y-47013857D01*
X18264285Y-47109095D01*
X18311904Y-47204333D01*
X18359523Y-47251952D01*
X18454761Y-47299571D01*
X18788095Y-47299571D01*
X17359523Y-46823380D02*
X17550000Y-46823380D01*
X17645238Y-46871000D01*
X17692857Y-46918619D01*
X17788095Y-47061476D01*
X17835714Y-47251952D01*
X17835714Y-47632904D01*
X17788095Y-47728142D01*
X17740476Y-47775761D01*
X17645238Y-47823380D01*
X17454761Y-47823380D01*
X17359523Y-47775761D01*
X17311904Y-47728142D01*
X17264285Y-47632904D01*
X17264285Y-47394809D01*
X17311904Y-47299571D01*
X17359523Y-47251952D01*
X17454761Y-47204333D01*
X17645238Y-47204333D01*
X17740476Y-47251952D01*
X17788095Y-47299571D01*
X17835714Y-47394809D01*
X22914285Y-42508630D02*
X23485714Y-42508630D01*
X23200000Y-42508630D02*
X23200000Y-41508630D01*
X23295238Y-41651488D01*
X23390476Y-41746726D01*
X23485714Y-41794345D01*
X21010416Y-76183630D02*
X21343750Y-75707440D01*
X21581845Y-76183630D02*
X21581845Y-75183630D01*
X21200892Y-75183630D01*
X21105654Y-75231250D01*
X21058035Y-75278869D01*
X21010416Y-75374107D01*
X21010416Y-75516964D01*
X21058035Y-75612202D01*
X21105654Y-75659821D01*
X21200892Y-75707440D01*
X21581845Y-75707440D01*
X20058035Y-75231250D02*
X20153273Y-75183630D01*
X20296130Y-75183630D01*
X20438988Y-75231250D01*
X20534226Y-75326488D01*
X20581845Y-75421726D01*
X20629464Y-75612202D01*
X20629464Y-75755059D01*
X20581845Y-75945535D01*
X20534226Y-76040773D01*
X20438988Y-76136011D01*
X20296130Y-76183630D01*
X20200892Y-76183630D01*
X20058035Y-76136011D01*
X20010416Y-76088392D01*
X20010416Y-75755059D01*
X20200892Y-75755059D01*
X19248511Y-75659821D02*
X19105654Y-75707440D01*
X19058035Y-75755059D01*
X19010416Y-75850297D01*
X19010416Y-75993154D01*
X19058035Y-76088392D01*
X19105654Y-76136011D01*
X19200892Y-76183630D01*
X19581845Y-76183630D01*
X19581845Y-75183630D01*
X19248511Y-75183630D01*
X19153273Y-75231250D01*
X19105654Y-75278869D01*
X19058035Y-75374107D01*
X19058035Y-75469345D01*
X19105654Y-75564583D01*
X19153273Y-75612202D01*
X19248511Y-75659821D01*
X19581845Y-75659821D01*
X18105654Y-75183630D02*
X18581845Y-75183630D01*
X18629464Y-75659821D01*
X18581845Y-75612202D01*
X18486607Y-75564583D01*
X18248511Y-75564583D01*
X18153273Y-75612202D01*
X18105654Y-75659821D01*
X18058035Y-75755059D01*
X18058035Y-75993154D01*
X18105654Y-76088392D01*
X18153273Y-76136011D01*
X18248511Y-76183630D01*
X18486607Y-76183630D01*
X18581845Y-76136011D01*
X18629464Y-76088392D01*
X15408035Y-74283630D02*
X15979464Y-74283630D01*
X15693750Y-74283630D02*
X15693750Y-73283630D01*
X15788988Y-73426488D01*
X15884226Y-73521726D01*
X15979464Y-73569345D01*
X20216666Y-104758630D02*
X20550000Y-104282440D01*
X20788095Y-104758630D02*
X20788095Y-103758630D01*
X20407142Y-103758630D01*
X20311904Y-103806250D01*
X20264285Y-103853869D01*
X20216666Y-103949107D01*
X20216666Y-104091964D01*
X20264285Y-104187202D01*
X20311904Y-104234821D01*
X20407142Y-104282440D01*
X20788095Y-104282440D01*
X19264285Y-103806250D02*
X19359523Y-103758630D01*
X19502380Y-103758630D01*
X19645238Y-103806250D01*
X19740476Y-103901488D01*
X19788095Y-103996726D01*
X19835714Y-104187202D01*
X19835714Y-104330059D01*
X19788095Y-104520535D01*
X19740476Y-104615773D01*
X19645238Y-104711011D01*
X19502380Y-104758630D01*
X19407142Y-104758630D01*
X19264285Y-104711011D01*
X19216666Y-104663392D01*
X19216666Y-104330059D01*
X19407142Y-104330059D01*
X18454761Y-104234821D02*
X18311904Y-104282440D01*
X18264285Y-104330059D01*
X18216666Y-104425297D01*
X18216666Y-104568154D01*
X18264285Y-104663392D01*
X18311904Y-104711011D01*
X18407142Y-104758630D01*
X18788095Y-104758630D01*
X18788095Y-103758630D01*
X18454761Y-103758630D01*
X18359523Y-103806250D01*
X18311904Y-103853869D01*
X18264285Y-103949107D01*
X18264285Y-104044345D01*
X18311904Y-104139583D01*
X18359523Y-104187202D01*
X18454761Y-104234821D01*
X18788095Y-104234821D01*
X17359523Y-104091964D02*
X17359523Y-104758630D01*
X17597619Y-103711011D02*
X17835714Y-104425297D01*
X17216666Y-104425297D01*
X14614285Y-102858630D02*
X15185714Y-102858630D01*
X14900000Y-102858630D02*
X14900000Y-101858630D01*
X14995238Y-102001488D01*
X15090476Y-102096726D01*
X15185714Y-102144345D01*
X64666666Y-104758630D02*
X65000000Y-104282440D01*
X65238095Y-104758630D02*
X65238095Y-103758630D01*
X64857142Y-103758630D01*
X64761904Y-103806250D01*
X64714285Y-103853869D01*
X64666666Y-103949107D01*
X64666666Y-104091964D01*
X64714285Y-104187202D01*
X64761904Y-104234821D01*
X64857142Y-104282440D01*
X65238095Y-104282440D01*
X63714285Y-103806250D02*
X63809523Y-103758630D01*
X63952380Y-103758630D01*
X64095238Y-103806250D01*
X64190476Y-103901488D01*
X64238095Y-103996726D01*
X64285714Y-104187202D01*
X64285714Y-104330059D01*
X64238095Y-104520535D01*
X64190476Y-104615773D01*
X64095238Y-104711011D01*
X63952380Y-104758630D01*
X63857142Y-104758630D01*
X63714285Y-104711011D01*
X63666666Y-104663392D01*
X63666666Y-104330059D01*
X63857142Y-104330059D01*
X62904761Y-104234821D02*
X62761904Y-104282440D01*
X62714285Y-104330059D01*
X62666666Y-104425297D01*
X62666666Y-104568154D01*
X62714285Y-104663392D01*
X62761904Y-104711011D01*
X62857142Y-104758630D01*
X63238095Y-104758630D01*
X63238095Y-103758630D01*
X62904761Y-103758630D01*
X62809523Y-103806250D01*
X62761904Y-103853869D01*
X62714285Y-103949107D01*
X62714285Y-104044345D01*
X62761904Y-104139583D01*
X62809523Y-104187202D01*
X62904761Y-104234821D01*
X63238095Y-104234821D01*
X62333333Y-103758630D02*
X61714285Y-103758630D01*
X62047619Y-104139583D01*
X61904761Y-104139583D01*
X61809523Y-104187202D01*
X61761904Y-104234821D01*
X61714285Y-104330059D01*
X61714285Y-104568154D01*
X61761904Y-104663392D01*
X61809523Y-104711011D01*
X61904761Y-104758630D01*
X62190476Y-104758630D01*
X62285714Y-104711011D01*
X62333333Y-104663392D01*
X59064285Y-102858630D02*
X59635714Y-102858630D01*
X59350000Y-102858630D02*
X59350000Y-101858630D01*
X59445238Y-102001488D01*
X59540476Y-102096726D01*
X59635714Y-102144345D01*
X111762498Y-104758630D02*
X112095832Y-104282440D01*
X112333927Y-104758630D02*
X112333927Y-103758630D01*
X111952974Y-103758630D01*
X111857736Y-103806250D01*
X111810117Y-103853869D01*
X111762498Y-103949107D01*
X111762498Y-104091964D01*
X111810117Y-104187202D01*
X111857736Y-104234821D01*
X111952974Y-104282440D01*
X112333927Y-104282440D01*
X110810117Y-103806250D02*
X110905355Y-103758630D01*
X111048212Y-103758630D01*
X111191070Y-103806250D01*
X111286308Y-103901488D01*
X111333927Y-103996726D01*
X111381546Y-104187202D01*
X111381546Y-104330059D01*
X111333927Y-104520535D01*
X111286308Y-104615773D01*
X111191070Y-104711011D01*
X111048212Y-104758630D01*
X110952974Y-104758630D01*
X110810117Y-104711011D01*
X110762498Y-104663392D01*
X110762498Y-104330059D01*
X110952974Y-104330059D01*
X110000593Y-104234821D02*
X109857736Y-104282440D01*
X109810117Y-104330059D01*
X109762498Y-104425297D01*
X109762498Y-104568154D01*
X109810117Y-104663392D01*
X109857736Y-104711011D01*
X109952974Y-104758630D01*
X110333927Y-104758630D01*
X110333927Y-103758630D01*
X110000593Y-103758630D01*
X109905355Y-103806250D01*
X109857736Y-103853869D01*
X109810117Y-103949107D01*
X109810117Y-104044345D01*
X109857736Y-104139583D01*
X109905355Y-104187202D01*
X110000593Y-104234821D01*
X110333927Y-104234821D01*
X109381546Y-103853869D02*
X109333927Y-103806250D01*
X109238689Y-103758630D01*
X109000593Y-103758630D01*
X108905355Y-103806250D01*
X108857736Y-103853869D01*
X108810117Y-103949107D01*
X108810117Y-104044345D01*
X108857736Y-104187202D01*
X109429165Y-104758630D01*
X108810117Y-104758630D01*
X106160117Y-102858630D02*
X106731546Y-102858630D01*
X106445832Y-102858630D02*
X106445832Y-101858630D01*
X106541070Y-102001488D01*
X106636308Y-102096726D01*
X106731546Y-102144345D01*
X146422916Y-104758630D02*
X146756250Y-104282440D01*
X146994345Y-104758630D02*
X146994345Y-103758630D01*
X146613392Y-103758630D01*
X146518154Y-103806250D01*
X146470535Y-103853869D01*
X146422916Y-103949107D01*
X146422916Y-104091964D01*
X146470535Y-104187202D01*
X146518154Y-104234821D01*
X146613392Y-104282440D01*
X146994345Y-104282440D01*
X145470535Y-103806250D02*
X145565773Y-103758630D01*
X145708630Y-103758630D01*
X145851488Y-103806250D01*
X145946726Y-103901488D01*
X145994345Y-103996726D01*
X146041964Y-104187202D01*
X146041964Y-104330059D01*
X145994345Y-104520535D01*
X145946726Y-104615773D01*
X145851488Y-104711011D01*
X145708630Y-104758630D01*
X145613392Y-104758630D01*
X145470535Y-104711011D01*
X145422916Y-104663392D01*
X145422916Y-104330059D01*
X145613392Y-104330059D01*
X144661011Y-104234821D02*
X144518154Y-104282440D01*
X144470535Y-104330059D01*
X144422916Y-104425297D01*
X144422916Y-104568154D01*
X144470535Y-104663392D01*
X144518154Y-104711011D01*
X144613392Y-104758630D01*
X144994345Y-104758630D01*
X144994345Y-103758630D01*
X144661011Y-103758630D01*
X144565773Y-103806250D01*
X144518154Y-103853869D01*
X144470535Y-103949107D01*
X144470535Y-104044345D01*
X144518154Y-104139583D01*
X144565773Y-104187202D01*
X144661011Y-104234821D01*
X144994345Y-104234821D01*
X143470535Y-104758630D02*
X144041964Y-104758630D01*
X143756250Y-104758630D02*
X143756250Y-103758630D01*
X143851488Y-103901488D01*
X143946726Y-103996726D01*
X144041964Y-104044345D01*
X140820535Y-102858630D02*
X141391964Y-102858630D01*
X141106250Y-102858630D02*
X141106250Y-101858630D01*
X141201488Y-102001488D01*
X141296726Y-102096726D01*
X141391964Y-102144345D01*
X39314285Y-32202380D02*
X39314285Y-31202380D01*
X39076190Y-31202380D01*
X38933333Y-31250000D01*
X38838095Y-31345238D01*
X38790476Y-31440476D01*
X38742857Y-31630952D01*
X38742857Y-31773809D01*
X38790476Y-31964285D01*
X38838095Y-32059523D01*
X38933333Y-32154761D01*
X39076190Y-32202380D01*
X39314285Y-32202380D01*
X38409523Y-31202380D02*
X37790476Y-31202380D01*
X38123809Y-31583333D01*
X37980952Y-31583333D01*
X37885714Y-31630952D01*
X37838095Y-31678571D01*
X37790476Y-31773809D01*
X37790476Y-32011904D01*
X37838095Y-32107142D01*
X37885714Y-32154761D01*
X37980952Y-32202380D01*
X38266666Y-32202380D01*
X38361904Y-32154761D01*
X38409523Y-32107142D01*
X36933333Y-31202380D02*
X37123809Y-31202380D01*
X37219047Y-31250000D01*
X37266666Y-31297619D01*
X37361904Y-31440476D01*
X37409523Y-31630952D01*
X37409523Y-32011904D01*
X37361904Y-32107142D01*
X37314285Y-32154761D01*
X37219047Y-32202380D01*
X37028571Y-32202380D01*
X36933333Y-32154761D01*
X36885714Y-32107142D01*
X36838095Y-32011904D01*
X36838095Y-31773809D01*
X36885714Y-31678571D01*
X36933333Y-31630952D01*
X37028571Y-31583333D01*
X37219047Y-31583333D01*
X37314285Y-31630952D01*
X37361904Y-31678571D01*
X37409523Y-31773809D01*
X22875833Y-47922380D02*
X22875833Y-48636666D01*
X22923452Y-48779523D01*
X23018690Y-48874761D01*
X23161547Y-48922380D01*
X23256785Y-48922380D01*
X21875833Y-48922380D02*
X22447261Y-48922380D01*
X22161547Y-48922380D02*
X22161547Y-47922380D01*
X22256785Y-48065238D01*
X22352023Y-48160476D01*
X22447261Y-48208095D01*
X50387190Y-50104190D02*
X50387190Y-50580380D01*
X50720523Y-49580380D02*
X50387190Y-50104190D01*
X50053857Y-49580380D01*
X49196714Y-50580380D02*
X49768142Y-50580380D01*
X49482428Y-50580380D02*
X49482428Y-49580380D01*
X49577666Y-49723238D01*
X49672904Y-49818476D01*
X49768142Y-49866095D01*
X39060416Y-67921130D02*
X39393750Y-67444940D01*
X39631845Y-67921130D02*
X39631845Y-66921130D01*
X39250892Y-66921130D01*
X39155654Y-66968750D01*
X39108035Y-67016369D01*
X39060416Y-67111607D01*
X39060416Y-67254464D01*
X39108035Y-67349702D01*
X39155654Y-67397321D01*
X39250892Y-67444940D01*
X39631845Y-67444940D01*
X38727083Y-66921130D02*
X38108035Y-66921130D01*
X38441369Y-67302083D01*
X38298511Y-67302083D01*
X38203273Y-67349702D01*
X38155654Y-67397321D01*
X38108035Y-67492559D01*
X38108035Y-67730654D01*
X38155654Y-67825892D01*
X38203273Y-67873511D01*
X38298511Y-67921130D01*
X38584226Y-67921130D01*
X38679464Y-67873511D01*
X38727083Y-67825892D01*
X58618380Y-75779333D02*
X58142190Y-75446000D01*
X58618380Y-75207904D02*
X57618380Y-75207904D01*
X57618380Y-75588857D01*
X57666000Y-75684095D01*
X57713619Y-75731714D01*
X57808857Y-75779333D01*
X57951714Y-75779333D01*
X58046952Y-75731714D01*
X58094571Y-75684095D01*
X58142190Y-75588857D01*
X58142190Y-75207904D01*
X57618380Y-76112666D02*
X57618380Y-76779333D01*
X58618380Y-76350761D01*
X38615880Y-59396333D02*
X38139690Y-59063000D01*
X38615880Y-58824904D02*
X37615880Y-58824904D01*
X37615880Y-59205857D01*
X37663500Y-59301095D01*
X37711119Y-59348714D01*
X37806357Y-59396333D01*
X37949214Y-59396333D01*
X38044452Y-59348714D01*
X38092071Y-59301095D01*
X38139690Y-59205857D01*
X38139690Y-58824904D01*
X37949214Y-60253476D02*
X38615880Y-60253476D01*
X37568261Y-60015380D02*
X38282547Y-59777285D01*
X38282547Y-60396333D01*
X27852666Y-67952880D02*
X28186000Y-67476690D01*
X28424095Y-67952880D02*
X28424095Y-66952880D01*
X28043142Y-66952880D01*
X27947904Y-67000500D01*
X27900285Y-67048119D01*
X27852666Y-67143357D01*
X27852666Y-67286214D01*
X27900285Y-67381452D01*
X27947904Y-67429071D01*
X28043142Y-67476690D01*
X28424095Y-67476690D01*
X26995523Y-66952880D02*
X27186000Y-66952880D01*
X27281238Y-67000500D01*
X27328857Y-67048119D01*
X27424095Y-67190976D01*
X27471714Y-67381452D01*
X27471714Y-67762404D01*
X27424095Y-67857642D01*
X27376476Y-67905261D01*
X27281238Y-67952880D01*
X27090761Y-67952880D01*
X26995523Y-67905261D01*
X26947904Y-67857642D01*
X26900285Y-67762404D01*
X26900285Y-67524309D01*
X26947904Y-67429071D01*
X26995523Y-67381452D01*
X27090761Y-67333833D01*
X27281238Y-67333833D01*
X27376476Y-67381452D01*
X27424095Y-67429071D01*
X27471714Y-67524309D01*
X36171130Y-59396333D02*
X35694940Y-59063000D01*
X36171130Y-58824904D02*
X35171130Y-58824904D01*
X35171130Y-59205857D01*
X35218750Y-59301095D01*
X35266369Y-59348714D01*
X35361607Y-59396333D01*
X35504464Y-59396333D01*
X35599702Y-59348714D01*
X35647321Y-59301095D01*
X35694940Y-59205857D01*
X35694940Y-58824904D01*
X35171130Y-60301095D02*
X35171130Y-59824904D01*
X35647321Y-59777285D01*
X35599702Y-59824904D01*
X35552083Y-59920142D01*
X35552083Y-60158238D01*
X35599702Y-60253476D01*
X35647321Y-60301095D01*
X35742559Y-60348714D01*
X35980654Y-60348714D01*
X36075892Y-60301095D01*
X36123511Y-60253476D01*
X36171130Y-60158238D01*
X36171130Y-59920142D01*
X36123511Y-59824904D01*
X36075892Y-59777285D01*
X46552380Y-37044333D02*
X46076190Y-36711000D01*
X46552380Y-36472904D02*
X45552380Y-36472904D01*
X45552380Y-36853857D01*
X45600000Y-36949095D01*
X45647619Y-36996714D01*
X45742857Y-37044333D01*
X45885714Y-37044333D01*
X45980952Y-36996714D01*
X46028571Y-36949095D01*
X46076190Y-36853857D01*
X46076190Y-36472904D01*
X46552380Y-37520523D02*
X46552380Y-37711000D01*
X46504761Y-37806238D01*
X46457142Y-37853857D01*
X46314285Y-37949095D01*
X46123809Y-37996714D01*
X45742857Y-37996714D01*
X45647619Y-37949095D01*
X45600000Y-37901476D01*
X45552380Y-37806238D01*
X45552380Y-37615761D01*
X45600000Y-37520523D01*
X45647619Y-37472904D01*
X45742857Y-37425285D01*
X45980952Y-37425285D01*
X46076190Y-37472904D01*
X46123809Y-37520523D01*
X46171428Y-37615761D01*
X46171428Y-37806238D01*
X46123809Y-37901476D01*
X46076190Y-37949095D01*
X45980952Y-37996714D01*
X38488880Y-37044333D02*
X38012690Y-36711000D01*
X38488880Y-36472904D02*
X37488880Y-36472904D01*
X37488880Y-36853857D01*
X37536500Y-36949095D01*
X37584119Y-36996714D01*
X37679357Y-37044333D01*
X37822214Y-37044333D01*
X37917452Y-36996714D01*
X37965071Y-36949095D01*
X38012690Y-36853857D01*
X38012690Y-36472904D01*
X37917452Y-37615761D02*
X37869833Y-37520523D01*
X37822214Y-37472904D01*
X37726976Y-37425285D01*
X37679357Y-37425285D01*
X37584119Y-37472904D01*
X37536500Y-37520523D01*
X37488880Y-37615761D01*
X37488880Y-37806238D01*
X37536500Y-37901476D01*
X37584119Y-37949095D01*
X37679357Y-37996714D01*
X37726976Y-37996714D01*
X37822214Y-37949095D01*
X37869833Y-37901476D01*
X37917452Y-37806238D01*
X37917452Y-37615761D01*
X37965071Y-37520523D01*
X38012690Y-37472904D01*
X38107928Y-37425285D01*
X38298404Y-37425285D01*
X38393642Y-37472904D01*
X38441261Y-37520523D01*
X38488880Y-37615761D01*
X38488880Y-37806238D01*
X38441261Y-37901476D01*
X38393642Y-37949095D01*
X38298404Y-37996714D01*
X38107928Y-37996714D01*
X38012690Y-37949095D01*
X37965071Y-37901476D01*
X37917452Y-37806238D01*
X40743142Y-58920142D02*
X40790761Y-58872523D01*
X40838380Y-58729666D01*
X40838380Y-58634428D01*
X40790761Y-58491571D01*
X40695523Y-58396333D01*
X40600285Y-58348714D01*
X40409809Y-58301095D01*
X40266952Y-58301095D01*
X40076476Y-58348714D01*
X39981238Y-58396333D01*
X39886000Y-58491571D01*
X39838380Y-58634428D01*
X39838380Y-58729666D01*
X39886000Y-58872523D01*
X39933619Y-58920142D01*
X40838380Y-59872523D02*
X40838380Y-59301095D01*
X40838380Y-59586809D02*
X39838380Y-59586809D01*
X39981238Y-59491571D01*
X40076476Y-59396333D01*
X40124095Y-59301095D01*
X40838380Y-60348714D02*
X40838380Y-60539190D01*
X40790761Y-60634428D01*
X40743142Y-60682047D01*
X40600285Y-60777285D01*
X40409809Y-60824904D01*
X40028857Y-60824904D01*
X39933619Y-60777285D01*
X39886000Y-60729666D01*
X39838380Y-60634428D01*
X39838380Y-60443952D01*
X39886000Y-60348714D01*
X39933619Y-60301095D01*
X40028857Y-60253476D01*
X40266952Y-60253476D01*
X40362190Y-60301095D01*
X40409809Y-60348714D01*
X40457428Y-60443952D01*
X40457428Y-60634428D01*
X40409809Y-60729666D01*
X40362190Y-60777285D01*
X40266952Y-60824904D01*
X52966857Y-75033142D02*
X53014476Y-75080761D01*
X53157333Y-75128380D01*
X53252571Y-75128380D01*
X53395428Y-75080761D01*
X53490666Y-74985523D01*
X53538285Y-74890285D01*
X53585904Y-74699809D01*
X53585904Y-74556952D01*
X53538285Y-74366476D01*
X53490666Y-74271238D01*
X53395428Y-74176000D01*
X53252571Y-74128380D01*
X53157333Y-74128380D01*
X53014476Y-74176000D01*
X52966857Y-74223619D01*
X52014476Y-75128380D02*
X52585904Y-75128380D01*
X52300190Y-75128380D02*
X52300190Y-74128380D01*
X52395428Y-74271238D01*
X52490666Y-74366476D01*
X52585904Y-74414095D01*
X51443047Y-74556952D02*
X51538285Y-74509333D01*
X51585904Y-74461714D01*
X51633523Y-74366476D01*
X51633523Y-74318857D01*
X51585904Y-74223619D01*
X51538285Y-74176000D01*
X51443047Y-74128380D01*
X51252571Y-74128380D01*
X51157333Y-74176000D01*
X51109714Y-74223619D01*
X51062095Y-74318857D01*
X51062095Y-74366476D01*
X51109714Y-74461714D01*
X51157333Y-74509333D01*
X51252571Y-74556952D01*
X51443047Y-74556952D01*
X51538285Y-74604571D01*
X51585904Y-74652190D01*
X51633523Y-74747428D01*
X51633523Y-74937904D01*
X51585904Y-75033142D01*
X51538285Y-75080761D01*
X51443047Y-75128380D01*
X51252571Y-75128380D01*
X51157333Y-75080761D01*
X51109714Y-75033142D01*
X51062095Y-74937904D01*
X51062095Y-74747428D01*
X51109714Y-74652190D01*
X51157333Y-74604571D01*
X51252571Y-74556952D01*
X47124857Y-50395142D02*
X47172476Y-50442761D01*
X47315333Y-50490380D01*
X47410571Y-50490380D01*
X47553428Y-50442761D01*
X47648666Y-50347523D01*
X47696285Y-50252285D01*
X47743904Y-50061809D01*
X47743904Y-49918952D01*
X47696285Y-49728476D01*
X47648666Y-49633238D01*
X47553428Y-49538000D01*
X47410571Y-49490380D01*
X47315333Y-49490380D01*
X47172476Y-49538000D01*
X47124857Y-49585619D01*
X46172476Y-50490380D02*
X46743904Y-50490380D01*
X46458190Y-50490380D02*
X46458190Y-49490380D01*
X46553428Y-49633238D01*
X46648666Y-49728476D01*
X46743904Y-49776095D01*
X45791523Y-49585619D02*
X45743904Y-49538000D01*
X45648666Y-49490380D01*
X45410571Y-49490380D01*
X45315333Y-49538000D01*
X45267714Y-49585619D01*
X45220095Y-49680857D01*
X45220095Y-49776095D01*
X45267714Y-49918952D01*
X45839142Y-50490380D01*
X45220095Y-50490380D01*
X64714357Y-60301142D02*
X64761976Y-60348761D01*
X64904833Y-60396380D01*
X65000071Y-60396380D01*
X65142928Y-60348761D01*
X65238166Y-60253523D01*
X65285785Y-60158285D01*
X65333404Y-59967809D01*
X65333404Y-59824952D01*
X65285785Y-59634476D01*
X65238166Y-59539238D01*
X65142928Y-59444000D01*
X65000071Y-59396380D01*
X64904833Y-59396380D01*
X64761976Y-59444000D01*
X64714357Y-59491619D01*
X63761976Y-60396380D02*
X64333404Y-60396380D01*
X64047690Y-60396380D02*
X64047690Y-59396380D01*
X64142928Y-59539238D01*
X64238166Y-59634476D01*
X64333404Y-59682095D01*
X63428642Y-59396380D02*
X62761976Y-59396380D01*
X63190547Y-60396380D01*
X53855857Y-50395142D02*
X53903476Y-50442761D01*
X54046333Y-50490380D01*
X54141571Y-50490380D01*
X54284428Y-50442761D01*
X54379666Y-50347523D01*
X54427285Y-50252285D01*
X54474904Y-50061809D01*
X54474904Y-49918952D01*
X54427285Y-49728476D01*
X54379666Y-49633238D01*
X54284428Y-49538000D01*
X54141571Y-49490380D01*
X54046333Y-49490380D01*
X53903476Y-49538000D01*
X53855857Y-49585619D01*
X52903476Y-50490380D02*
X53474904Y-50490380D01*
X53189190Y-50490380D02*
X53189190Y-49490380D01*
X53284428Y-49633238D01*
X53379666Y-49728476D01*
X53474904Y-49776095D01*
X51951095Y-50490380D02*
X52522523Y-50490380D01*
X52236809Y-50490380D02*
X52236809Y-49490380D01*
X52332047Y-49633238D01*
X52427285Y-49728476D01*
X52522523Y-49776095D01*
X56395892Y-75303142D02*
X56443511Y-75255523D01*
X56491130Y-75112666D01*
X56491130Y-75017428D01*
X56443511Y-74874571D01*
X56348273Y-74779333D01*
X56253035Y-74731714D01*
X56062559Y-74684095D01*
X55919702Y-74684095D01*
X55729226Y-74731714D01*
X55633988Y-74779333D01*
X55538750Y-74874571D01*
X55491130Y-75017428D01*
X55491130Y-75112666D01*
X55538750Y-75255523D01*
X55586369Y-75303142D01*
X56491130Y-76255523D02*
X56491130Y-75684095D01*
X56491130Y-75969809D02*
X55491130Y-75969809D01*
X55633988Y-75874571D01*
X55729226Y-75779333D01*
X55776845Y-75684095D01*
X55491130Y-77112666D02*
X55491130Y-76922190D01*
X55538750Y-76826952D01*
X55586369Y-76779333D01*
X55729226Y-76684095D01*
X55919702Y-76636476D01*
X56300654Y-76636476D01*
X56395892Y-76684095D01*
X56443511Y-76731714D01*
X56491130Y-76826952D01*
X56491130Y-77017428D01*
X56443511Y-77112666D01*
X56395892Y-77160285D01*
X56300654Y-77207904D01*
X56062559Y-77207904D01*
X55967321Y-77160285D01*
X55919702Y-77112666D01*
X55872083Y-77017428D01*
X55872083Y-76826952D01*
X55919702Y-76731714D01*
X55967321Y-76684095D01*
X56062559Y-76636476D01*
X52966857Y-72524892D02*
X53014476Y-72572511D01*
X53157333Y-72620130D01*
X53252571Y-72620130D01*
X53395428Y-72572511D01*
X53490666Y-72477273D01*
X53538285Y-72382035D01*
X53585904Y-72191559D01*
X53585904Y-72048702D01*
X53538285Y-71858226D01*
X53490666Y-71762988D01*
X53395428Y-71667750D01*
X53252571Y-71620130D01*
X53157333Y-71620130D01*
X53014476Y-71667750D01*
X52966857Y-71715369D01*
X52014476Y-72620130D02*
X52585904Y-72620130D01*
X52300190Y-72620130D02*
X52300190Y-71620130D01*
X52395428Y-71762988D01*
X52490666Y-71858226D01*
X52585904Y-71905845D01*
X51109714Y-71620130D02*
X51585904Y-71620130D01*
X51633523Y-72096321D01*
X51585904Y-72048702D01*
X51490666Y-72001083D01*
X51252571Y-72001083D01*
X51157333Y-72048702D01*
X51109714Y-72096321D01*
X51062095Y-72191559D01*
X51062095Y-72429654D01*
X51109714Y-72524892D01*
X51157333Y-72572511D01*
X51252571Y-72620130D01*
X51490666Y-72620130D01*
X51585904Y-72572511D01*
X51633523Y-72524892D01*
X46045357Y-56014892D02*
X46092976Y-56062511D01*
X46235833Y-56110130D01*
X46331071Y-56110130D01*
X46473928Y-56062511D01*
X46569166Y-55967273D01*
X46616785Y-55872035D01*
X46664404Y-55681559D01*
X46664404Y-55538702D01*
X46616785Y-55348226D01*
X46569166Y-55252988D01*
X46473928Y-55157750D01*
X46331071Y-55110130D01*
X46235833Y-55110130D01*
X46092976Y-55157750D01*
X46045357Y-55205369D01*
X45092976Y-56110130D02*
X45664404Y-56110130D01*
X45378690Y-56110130D02*
X45378690Y-55110130D01*
X45473928Y-55252988D01*
X45569166Y-55348226D01*
X45664404Y-55395845D01*
X44235833Y-55443464D02*
X44235833Y-56110130D01*
X44473928Y-55062511D02*
X44712023Y-55776797D01*
X44092976Y-55776797D01*
X42370333Y-40568571D02*
X42703666Y-40568571D01*
X42703666Y-41092380D02*
X42703666Y-40092380D01*
X42227476Y-40092380D01*
X41322714Y-41092380D02*
X41894142Y-41092380D01*
X41608428Y-41092380D02*
X41608428Y-40092380D01*
X41703666Y-40235238D01*
X41798904Y-40330476D01*
X41894142Y-40378095D01*
X147446726Y-40386904D02*
X147446726Y-39586904D01*
X147256250Y-39586904D01*
X147141964Y-39625000D01*
X147065773Y-39701190D01*
X147027678Y-39777380D01*
X146989583Y-39929761D01*
X146989583Y-40044047D01*
X147027678Y-40196428D01*
X147065773Y-40272619D01*
X147141964Y-40348809D01*
X147256250Y-40386904D01*
X147446726Y-40386904D01*
X146532440Y-39929761D02*
X146608630Y-39891666D01*
X146646726Y-39853571D01*
X146684821Y-39777380D01*
X146684821Y-39739285D01*
X146646726Y-39663095D01*
X146608630Y-39625000D01*
X146532440Y-39586904D01*
X146380059Y-39586904D01*
X146303869Y-39625000D01*
X146265773Y-39663095D01*
X146227678Y-39739285D01*
X146227678Y-39777380D01*
X146265773Y-39853571D01*
X146303869Y-39891666D01*
X146380059Y-39929761D01*
X146532440Y-39929761D01*
X146608630Y-39967857D01*
X146646726Y-40005952D01*
X146684821Y-40082142D01*
X146684821Y-40234523D01*
X146646726Y-40310714D01*
X146608630Y-40348809D01*
X146532440Y-40386904D01*
X146380059Y-40386904D01*
X146303869Y-40348809D01*
X146265773Y-40310714D01*
X146227678Y-40234523D01*
X146227678Y-40082142D01*
X146265773Y-40005952D01*
X146303869Y-39967857D01*
X146380059Y-39929761D01*
X152577678Y-97536904D02*
X152577678Y-96736904D01*
X152387202Y-96736904D01*
X152272916Y-96775000D01*
X152196726Y-96851190D01*
X152158630Y-96927380D01*
X152120535Y-97079761D01*
X152120535Y-97194047D01*
X152158630Y-97346428D01*
X152196726Y-97422619D01*
X152272916Y-97498809D01*
X152387202Y-97536904D01*
X152577678Y-97536904D01*
X151815773Y-96813095D02*
X151777678Y-96775000D01*
X151701488Y-96736904D01*
X151511011Y-96736904D01*
X151434821Y-96775000D01*
X151396726Y-96813095D01*
X151358630Y-96889285D01*
X151358630Y-96965476D01*
X151396726Y-97079761D01*
X151853869Y-97536904D01*
X151358630Y-97536904D01*
X150977678Y-97536904D02*
X150825297Y-97536904D01*
X150749107Y-97498809D01*
X150711011Y-97460714D01*
X150634821Y-97346428D01*
X150596726Y-97194047D01*
X150596726Y-96889285D01*
X150634821Y-96813095D01*
X150672916Y-96775000D01*
X150749107Y-96736904D01*
X150901488Y-96736904D01*
X150977678Y-96775000D01*
X151015773Y-96813095D01*
X151053869Y-96889285D01*
X151053869Y-97079761D01*
X151015773Y-97155952D01*
X150977678Y-97194047D01*
X150901488Y-97232142D01*
X150749107Y-97232142D01*
X150672916Y-97194047D01*
X150634821Y-97155952D01*
X150596726Y-97079761D01*
X143052678Y-78486904D02*
X143052678Y-77686904D01*
X142862202Y-77686904D01*
X142747916Y-77725000D01*
X142671726Y-77801190D01*
X142633630Y-77877380D01*
X142595535Y-78029761D01*
X142595535Y-78144047D01*
X142633630Y-78296428D01*
X142671726Y-78372619D01*
X142747916Y-78448809D01*
X142862202Y-78486904D01*
X143052678Y-78486904D01*
X142290773Y-77763095D02*
X142252678Y-77725000D01*
X142176488Y-77686904D01*
X141986011Y-77686904D01*
X141909821Y-77725000D01*
X141871726Y-77763095D01*
X141833630Y-77839285D01*
X141833630Y-77915476D01*
X141871726Y-78029761D01*
X142328869Y-78486904D01*
X141833630Y-78486904D01*
X141528869Y-77763095D02*
X141490773Y-77725000D01*
X141414583Y-77686904D01*
X141224107Y-77686904D01*
X141147916Y-77725000D01*
X141109821Y-77763095D01*
X141071726Y-77839285D01*
X141071726Y-77915476D01*
X141109821Y-78029761D01*
X141566964Y-78486904D01*
X141071726Y-78486904D01*
X138290178Y-59436904D02*
X138290178Y-58636904D01*
X138099702Y-58636904D01*
X137985416Y-58675000D01*
X137909226Y-58751190D01*
X137871130Y-58827380D01*
X137833035Y-58979761D01*
X137833035Y-59094047D01*
X137871130Y-59246428D01*
X137909226Y-59322619D01*
X137985416Y-59398809D01*
X138099702Y-59436904D01*
X138290178Y-59436904D01*
X137071130Y-59436904D02*
X137528273Y-59436904D01*
X137299702Y-59436904D02*
X137299702Y-58636904D01*
X137375892Y-58751190D01*
X137452083Y-58827380D01*
X137528273Y-58865476D01*
X136347321Y-58636904D02*
X136728273Y-58636904D01*
X136766369Y-59017857D01*
X136728273Y-58979761D01*
X136652083Y-58941666D01*
X136461607Y-58941666D01*
X136385416Y-58979761D01*
X136347321Y-59017857D01*
X136309226Y-59094047D01*
X136309226Y-59284523D01*
X136347321Y-59360714D01*
X136385416Y-59398809D01*
X136461607Y-59436904D01*
X136652083Y-59436904D01*
X136728273Y-59398809D01*
X136766369Y-59360714D01*
X128371726Y-40386904D02*
X128371726Y-39586904D01*
X128181250Y-39586904D01*
X128066964Y-39625000D01*
X127990773Y-39701190D01*
X127952678Y-39777380D01*
X127914583Y-39929761D01*
X127914583Y-40044047D01*
X127952678Y-40196428D01*
X127990773Y-40272619D01*
X128066964Y-40348809D01*
X128181250Y-40386904D01*
X128371726Y-40386904D01*
X127647916Y-39586904D02*
X127114583Y-39586904D01*
X127457440Y-40386904D01*
X150196428Y-116586904D02*
X150196428Y-115786904D01*
X150005952Y-115786904D01*
X149891666Y-115825000D01*
X149815476Y-115901190D01*
X149777380Y-115977380D01*
X149739285Y-116129761D01*
X149739285Y-116244047D01*
X149777380Y-116396428D01*
X149815476Y-116472619D01*
X149891666Y-116548809D01*
X150005952Y-116586904D01*
X150196428Y-116586904D01*
X149472619Y-115786904D02*
X148977380Y-115786904D01*
X149244047Y-116091666D01*
X149129761Y-116091666D01*
X149053571Y-116129761D01*
X149015476Y-116167857D01*
X148977380Y-116244047D01*
X148977380Y-116434523D01*
X149015476Y-116510714D01*
X149053571Y-116548809D01*
X149129761Y-116586904D01*
X149358333Y-116586904D01*
X149434523Y-116548809D01*
X149472619Y-116510714D01*
X148253571Y-115786904D02*
X148634523Y-115786904D01*
X148672619Y-116167857D01*
X148634523Y-116129761D01*
X148558333Y-116091666D01*
X148367857Y-116091666D01*
X148291666Y-116129761D01*
X148253571Y-116167857D01*
X148215476Y-116244047D01*
X148215476Y-116434523D01*
X148253571Y-116510714D01*
X148291666Y-116548809D01*
X148367857Y-116586904D01*
X148558333Y-116586904D01*
X148634523Y-116548809D01*
X148672619Y-116510714D01*
X133527678Y-97536904D02*
X133527678Y-96736904D01*
X133337202Y-96736904D01*
X133222916Y-96775000D01*
X133146726Y-96851190D01*
X133108630Y-96927380D01*
X133070535Y-97079761D01*
X133070535Y-97194047D01*
X133108630Y-97346428D01*
X133146726Y-97422619D01*
X133222916Y-97498809D01*
X133337202Y-97536904D01*
X133527678Y-97536904D01*
X132765773Y-96813095D02*
X132727678Y-96775000D01*
X132651488Y-96736904D01*
X132461011Y-96736904D01*
X132384821Y-96775000D01*
X132346726Y-96813095D01*
X132308630Y-96889285D01*
X132308630Y-96965476D01*
X132346726Y-97079761D01*
X132803869Y-97536904D01*
X132308630Y-97536904D01*
X131851488Y-97079761D02*
X131927678Y-97041666D01*
X131965773Y-97003571D01*
X132003869Y-96927380D01*
X132003869Y-96889285D01*
X131965773Y-96813095D01*
X131927678Y-96775000D01*
X131851488Y-96736904D01*
X131699107Y-96736904D01*
X131622916Y-96775000D01*
X131584821Y-96813095D01*
X131546726Y-96889285D01*
X131546726Y-96927380D01*
X131584821Y-97003571D01*
X131622916Y-97041666D01*
X131699107Y-97079761D01*
X131851488Y-97079761D01*
X131927678Y-97117857D01*
X131965773Y-97155952D01*
X132003869Y-97232142D01*
X132003869Y-97384523D01*
X131965773Y-97460714D01*
X131927678Y-97498809D01*
X131851488Y-97536904D01*
X131699107Y-97536904D01*
X131622916Y-97498809D01*
X131584821Y-97460714D01*
X131546726Y-97384523D01*
X131546726Y-97232142D01*
X131584821Y-97155952D01*
X131622916Y-97117857D01*
X131699107Y-97079761D01*
X124002678Y-78486904D02*
X124002678Y-77686904D01*
X123812202Y-77686904D01*
X123697916Y-77725000D01*
X123621726Y-77801190D01*
X123583630Y-77877380D01*
X123545535Y-78029761D01*
X123545535Y-78144047D01*
X123583630Y-78296428D01*
X123621726Y-78372619D01*
X123697916Y-78448809D01*
X123812202Y-78486904D01*
X124002678Y-78486904D01*
X123240773Y-77763095D02*
X123202678Y-77725000D01*
X123126488Y-77686904D01*
X122936011Y-77686904D01*
X122859821Y-77725000D01*
X122821726Y-77763095D01*
X122783630Y-77839285D01*
X122783630Y-77915476D01*
X122821726Y-78029761D01*
X123278869Y-78486904D01*
X122783630Y-78486904D01*
X122021726Y-78486904D02*
X122478869Y-78486904D01*
X122250297Y-78486904D02*
X122250297Y-77686904D01*
X122326488Y-77801190D01*
X122402678Y-77877380D01*
X122478869Y-77915476D01*
X119240178Y-59436904D02*
X119240178Y-58636904D01*
X119049702Y-58636904D01*
X118935416Y-58675000D01*
X118859226Y-58751190D01*
X118821130Y-58827380D01*
X118783035Y-58979761D01*
X118783035Y-59094047D01*
X118821130Y-59246428D01*
X118859226Y-59322619D01*
X118935416Y-59398809D01*
X119049702Y-59436904D01*
X119240178Y-59436904D01*
X118021130Y-59436904D02*
X118478273Y-59436904D01*
X118249702Y-59436904D02*
X118249702Y-58636904D01*
X118325892Y-58751190D01*
X118402083Y-58827380D01*
X118478273Y-58865476D01*
X117335416Y-58903571D02*
X117335416Y-59436904D01*
X117525892Y-58598809D02*
X117716369Y-59170238D01*
X117221130Y-59170238D01*
X109334226Y-40386904D02*
X109334226Y-39586904D01*
X109143750Y-39586904D01*
X109029464Y-39625000D01*
X108953273Y-39701190D01*
X108915178Y-39777380D01*
X108877083Y-39929761D01*
X108877083Y-40044047D01*
X108915178Y-40196428D01*
X108953273Y-40272619D01*
X109029464Y-40348809D01*
X109143750Y-40386904D01*
X109334226Y-40386904D01*
X108191369Y-39586904D02*
X108343750Y-39586904D01*
X108419940Y-39625000D01*
X108458035Y-39663095D01*
X108534226Y-39777380D01*
X108572321Y-39929761D01*
X108572321Y-40234523D01*
X108534226Y-40310714D01*
X108496130Y-40348809D01*
X108419940Y-40386904D01*
X108267559Y-40386904D01*
X108191369Y-40348809D01*
X108153273Y-40310714D01*
X108115178Y-40234523D01*
X108115178Y-40044047D01*
X108153273Y-39967857D01*
X108191369Y-39929761D01*
X108267559Y-39891666D01*
X108419940Y-39891666D01*
X108496130Y-39929761D01*
X108534226Y-39967857D01*
X108572321Y-40044047D01*
X116858928Y-116459904D02*
X116858928Y-115659904D01*
X116668452Y-115659904D01*
X116554166Y-115698000D01*
X116477976Y-115774190D01*
X116439880Y-115850380D01*
X116401785Y-116002761D01*
X116401785Y-116117047D01*
X116439880Y-116269428D01*
X116477976Y-116345619D01*
X116554166Y-116421809D01*
X116668452Y-116459904D01*
X116858928Y-116459904D01*
X116135119Y-115659904D02*
X115639880Y-115659904D01*
X115906547Y-115964666D01*
X115792261Y-115964666D01*
X115716071Y-116002761D01*
X115677976Y-116040857D01*
X115639880Y-116117047D01*
X115639880Y-116307523D01*
X115677976Y-116383714D01*
X115716071Y-116421809D01*
X115792261Y-116459904D01*
X116020833Y-116459904D01*
X116097023Y-116421809D01*
X116135119Y-116383714D01*
X114954166Y-115926571D02*
X114954166Y-116459904D01*
X115144642Y-115621809D02*
X115335119Y-116193238D01*
X114839880Y-116193238D01*
X114477678Y-97409904D02*
X114477678Y-96609904D01*
X114287202Y-96609904D01*
X114172916Y-96648000D01*
X114096726Y-96724190D01*
X114058630Y-96800380D01*
X114020535Y-96952761D01*
X114020535Y-97067047D01*
X114058630Y-97219428D01*
X114096726Y-97295619D01*
X114172916Y-97371809D01*
X114287202Y-97409904D01*
X114477678Y-97409904D01*
X113715773Y-96686095D02*
X113677678Y-96648000D01*
X113601488Y-96609904D01*
X113411011Y-96609904D01*
X113334821Y-96648000D01*
X113296726Y-96686095D01*
X113258630Y-96762285D01*
X113258630Y-96838476D01*
X113296726Y-96952761D01*
X113753869Y-97409904D01*
X113258630Y-97409904D01*
X112991964Y-96609904D02*
X112458630Y-96609904D01*
X112801488Y-97409904D01*
X104952678Y-78359904D02*
X104952678Y-77559904D01*
X104762202Y-77559904D01*
X104647916Y-77598000D01*
X104571726Y-77674190D01*
X104533630Y-77750380D01*
X104495535Y-77902761D01*
X104495535Y-78017047D01*
X104533630Y-78169428D01*
X104571726Y-78245619D01*
X104647916Y-78321809D01*
X104762202Y-78359904D01*
X104952678Y-78359904D01*
X104190773Y-77636095D02*
X104152678Y-77598000D01*
X104076488Y-77559904D01*
X103886011Y-77559904D01*
X103809821Y-77598000D01*
X103771726Y-77636095D01*
X103733630Y-77712285D01*
X103733630Y-77788476D01*
X103771726Y-77902761D01*
X104228869Y-78359904D01*
X103733630Y-78359904D01*
X103238392Y-77559904D02*
X103162202Y-77559904D01*
X103086011Y-77598000D01*
X103047916Y-77636095D01*
X103009821Y-77712285D01*
X102971726Y-77864666D01*
X102971726Y-78055142D01*
X103009821Y-78207523D01*
X103047916Y-78283714D01*
X103086011Y-78321809D01*
X103162202Y-78359904D01*
X103238392Y-78359904D01*
X103314583Y-78321809D01*
X103352678Y-78283714D01*
X103390773Y-78207523D01*
X103428869Y-78055142D01*
X103428869Y-77864666D01*
X103390773Y-77712285D01*
X103352678Y-77636095D01*
X103314583Y-77598000D01*
X103238392Y-77559904D01*
X100190178Y-59436904D02*
X100190178Y-58636904D01*
X99999702Y-58636904D01*
X99885416Y-58675000D01*
X99809226Y-58751190D01*
X99771130Y-58827380D01*
X99733035Y-58979761D01*
X99733035Y-59094047D01*
X99771130Y-59246428D01*
X99809226Y-59322619D01*
X99885416Y-59398809D01*
X99999702Y-59436904D01*
X100190178Y-59436904D01*
X98971130Y-59436904D02*
X99428273Y-59436904D01*
X99199702Y-59436904D02*
X99199702Y-58636904D01*
X99275892Y-58751190D01*
X99352083Y-58827380D01*
X99428273Y-58865476D01*
X98704464Y-58636904D02*
X98209226Y-58636904D01*
X98475892Y-58941666D01*
X98361607Y-58941666D01*
X98285416Y-58979761D01*
X98247321Y-59017857D01*
X98209226Y-59094047D01*
X98209226Y-59284523D01*
X98247321Y-59360714D01*
X98285416Y-59398809D01*
X98361607Y-59436904D01*
X98590178Y-59436904D01*
X98666369Y-59398809D01*
X98704464Y-59360714D01*
X90284226Y-40386904D02*
X90284226Y-39586904D01*
X90093750Y-39586904D01*
X89979464Y-39625000D01*
X89903273Y-39701190D01*
X89865178Y-39777380D01*
X89827083Y-39929761D01*
X89827083Y-40044047D01*
X89865178Y-40196428D01*
X89903273Y-40272619D01*
X89979464Y-40348809D01*
X90093750Y-40386904D01*
X90284226Y-40386904D01*
X89103273Y-39586904D02*
X89484226Y-39586904D01*
X89522321Y-39967857D01*
X89484226Y-39929761D01*
X89408035Y-39891666D01*
X89217559Y-39891666D01*
X89141369Y-39929761D01*
X89103273Y-39967857D01*
X89065178Y-40044047D01*
X89065178Y-40234523D01*
X89103273Y-40310714D01*
X89141369Y-40348809D01*
X89217559Y-40386904D01*
X89408035Y-40386904D01*
X89484226Y-40348809D01*
X89522321Y-40310714D01*
X83521428Y-116586904D02*
X83521428Y-115786904D01*
X83330952Y-115786904D01*
X83216666Y-115825000D01*
X83140476Y-115901190D01*
X83102380Y-115977380D01*
X83064285Y-116129761D01*
X83064285Y-116244047D01*
X83102380Y-116396428D01*
X83140476Y-116472619D01*
X83216666Y-116548809D01*
X83330952Y-116586904D01*
X83521428Y-116586904D01*
X82797619Y-115786904D02*
X82302380Y-115786904D01*
X82569047Y-116091666D01*
X82454761Y-116091666D01*
X82378571Y-116129761D01*
X82340476Y-116167857D01*
X82302380Y-116244047D01*
X82302380Y-116434523D01*
X82340476Y-116510714D01*
X82378571Y-116548809D01*
X82454761Y-116586904D01*
X82683333Y-116586904D01*
X82759523Y-116548809D01*
X82797619Y-116510714D01*
X82035714Y-115786904D02*
X81540476Y-115786904D01*
X81807142Y-116091666D01*
X81692857Y-116091666D01*
X81616666Y-116129761D01*
X81578571Y-116167857D01*
X81540476Y-116244047D01*
X81540476Y-116434523D01*
X81578571Y-116510714D01*
X81616666Y-116548809D01*
X81692857Y-116586904D01*
X81921428Y-116586904D01*
X81997619Y-116548809D01*
X82035714Y-116510714D01*
X95427678Y-97536904D02*
X95427678Y-96736904D01*
X95237202Y-96736904D01*
X95122916Y-96775000D01*
X95046726Y-96851190D01*
X95008630Y-96927380D01*
X94970535Y-97079761D01*
X94970535Y-97194047D01*
X95008630Y-97346428D01*
X95046726Y-97422619D01*
X95122916Y-97498809D01*
X95237202Y-97536904D01*
X95427678Y-97536904D01*
X94665773Y-96813095D02*
X94627678Y-96775000D01*
X94551488Y-96736904D01*
X94361011Y-96736904D01*
X94284821Y-96775000D01*
X94246726Y-96813095D01*
X94208630Y-96889285D01*
X94208630Y-96965476D01*
X94246726Y-97079761D01*
X94703869Y-97536904D01*
X94208630Y-97536904D01*
X93522916Y-96736904D02*
X93675297Y-96736904D01*
X93751488Y-96775000D01*
X93789583Y-96813095D01*
X93865773Y-96927380D01*
X93903869Y-97079761D01*
X93903869Y-97384523D01*
X93865773Y-97460714D01*
X93827678Y-97498809D01*
X93751488Y-97536904D01*
X93599107Y-97536904D01*
X93522916Y-97498809D01*
X93484821Y-97460714D01*
X93446726Y-97384523D01*
X93446726Y-97194047D01*
X93484821Y-97117857D01*
X93522916Y-97079761D01*
X93599107Y-97041666D01*
X93751488Y-97041666D01*
X93827678Y-97079761D01*
X93865773Y-97117857D01*
X93903869Y-97194047D01*
X85902678Y-78486904D02*
X85902678Y-77686904D01*
X85712202Y-77686904D01*
X85597916Y-77725000D01*
X85521726Y-77801190D01*
X85483630Y-77877380D01*
X85445535Y-78029761D01*
X85445535Y-78144047D01*
X85483630Y-78296428D01*
X85521726Y-78372619D01*
X85597916Y-78448809D01*
X85712202Y-78486904D01*
X85902678Y-78486904D01*
X84683630Y-78486904D02*
X85140773Y-78486904D01*
X84912202Y-78486904D02*
X84912202Y-77686904D01*
X84988392Y-77801190D01*
X85064583Y-77877380D01*
X85140773Y-77915476D01*
X84302678Y-78486904D02*
X84150297Y-78486904D01*
X84074107Y-78448809D01*
X84036011Y-78410714D01*
X83959821Y-78296428D01*
X83921726Y-78144047D01*
X83921726Y-77839285D01*
X83959821Y-77763095D01*
X83997916Y-77725000D01*
X84074107Y-77686904D01*
X84226488Y-77686904D01*
X84302678Y-77725000D01*
X84340773Y-77763095D01*
X84378869Y-77839285D01*
X84378869Y-78029761D01*
X84340773Y-78105952D01*
X84302678Y-78144047D01*
X84226488Y-78182142D01*
X84074107Y-78182142D01*
X83997916Y-78144047D01*
X83959821Y-78105952D01*
X83921726Y-78029761D01*
X81140178Y-59309904D02*
X81140178Y-58509904D01*
X80949702Y-58509904D01*
X80835416Y-58548000D01*
X80759226Y-58624190D01*
X80721130Y-58700380D01*
X80683035Y-58852761D01*
X80683035Y-58967047D01*
X80721130Y-59119428D01*
X80759226Y-59195619D01*
X80835416Y-59271809D01*
X80949702Y-59309904D01*
X81140178Y-59309904D01*
X79921130Y-59309904D02*
X80378273Y-59309904D01*
X80149702Y-59309904D02*
X80149702Y-58509904D01*
X80225892Y-58624190D01*
X80302083Y-58700380D01*
X80378273Y-58738476D01*
X79616369Y-58586095D02*
X79578273Y-58548000D01*
X79502083Y-58509904D01*
X79311607Y-58509904D01*
X79235416Y-58548000D01*
X79197321Y-58586095D01*
X79159226Y-58662285D01*
X79159226Y-58738476D01*
X79197321Y-58852761D01*
X79654464Y-59309904D01*
X79159226Y-59309904D01*
X71234226Y-40259904D02*
X71234226Y-39459904D01*
X71043750Y-39459904D01*
X70929464Y-39498000D01*
X70853273Y-39574190D01*
X70815178Y-39650380D01*
X70777083Y-39802761D01*
X70777083Y-39917047D01*
X70815178Y-40069428D01*
X70853273Y-40145619D01*
X70929464Y-40221809D01*
X71043750Y-40259904D01*
X71234226Y-40259904D01*
X70091369Y-39726571D02*
X70091369Y-40259904D01*
X70281845Y-39421809D02*
X70472321Y-39993238D01*
X69977083Y-39993238D01*
X59708928Y-116586904D02*
X59708928Y-115786904D01*
X59518452Y-115786904D01*
X59404166Y-115825000D01*
X59327976Y-115901190D01*
X59289880Y-115977380D01*
X59251785Y-116129761D01*
X59251785Y-116244047D01*
X59289880Y-116396428D01*
X59327976Y-116472619D01*
X59404166Y-116548809D01*
X59518452Y-116586904D01*
X59708928Y-116586904D01*
X58985119Y-115786904D02*
X58489880Y-115786904D01*
X58756547Y-116091666D01*
X58642261Y-116091666D01*
X58566071Y-116129761D01*
X58527976Y-116167857D01*
X58489880Y-116244047D01*
X58489880Y-116434523D01*
X58527976Y-116510714D01*
X58566071Y-116548809D01*
X58642261Y-116586904D01*
X58870833Y-116586904D01*
X58947023Y-116548809D01*
X58985119Y-116510714D01*
X58185119Y-115863095D02*
X58147023Y-115825000D01*
X58070833Y-115786904D01*
X57880357Y-115786904D01*
X57804166Y-115825000D01*
X57766071Y-115863095D01*
X57727976Y-115939285D01*
X57727976Y-116015476D01*
X57766071Y-116129761D01*
X58223214Y-116586904D01*
X57727976Y-116586904D01*
X76377678Y-97409904D02*
X76377678Y-96609904D01*
X76187202Y-96609904D01*
X76072916Y-96648000D01*
X75996726Y-96724190D01*
X75958630Y-96800380D01*
X75920535Y-96952761D01*
X75920535Y-97067047D01*
X75958630Y-97219428D01*
X75996726Y-97295619D01*
X76072916Y-97371809D01*
X76187202Y-97409904D01*
X76377678Y-97409904D01*
X75615773Y-96686095D02*
X75577678Y-96648000D01*
X75501488Y-96609904D01*
X75311011Y-96609904D01*
X75234821Y-96648000D01*
X75196726Y-96686095D01*
X75158630Y-96762285D01*
X75158630Y-96838476D01*
X75196726Y-96952761D01*
X75653869Y-97409904D01*
X75158630Y-97409904D01*
X74434821Y-96609904D02*
X74815773Y-96609904D01*
X74853869Y-96990857D01*
X74815773Y-96952761D01*
X74739583Y-96914666D01*
X74549107Y-96914666D01*
X74472916Y-96952761D01*
X74434821Y-96990857D01*
X74396726Y-97067047D01*
X74396726Y-97257523D01*
X74434821Y-97333714D01*
X74472916Y-97371809D01*
X74549107Y-97409904D01*
X74739583Y-97409904D01*
X74815773Y-97371809D01*
X74853869Y-97333714D01*
X66852678Y-78486904D02*
X66852678Y-77686904D01*
X66662202Y-77686904D01*
X66547916Y-77725000D01*
X66471726Y-77801190D01*
X66433630Y-77877380D01*
X66395535Y-78029761D01*
X66395535Y-78144047D01*
X66433630Y-78296428D01*
X66471726Y-78372619D01*
X66547916Y-78448809D01*
X66662202Y-78486904D01*
X66852678Y-78486904D01*
X65633630Y-78486904D02*
X66090773Y-78486904D01*
X65862202Y-78486904D02*
X65862202Y-77686904D01*
X65938392Y-77801190D01*
X66014583Y-77877380D01*
X66090773Y-77915476D01*
X65176488Y-78029761D02*
X65252678Y-77991666D01*
X65290773Y-77953571D01*
X65328869Y-77877380D01*
X65328869Y-77839285D01*
X65290773Y-77763095D01*
X65252678Y-77725000D01*
X65176488Y-77686904D01*
X65024107Y-77686904D01*
X64947916Y-77725000D01*
X64909821Y-77763095D01*
X64871726Y-77839285D01*
X64871726Y-77877380D01*
X64909821Y-77953571D01*
X64947916Y-77991666D01*
X65024107Y-78029761D01*
X65176488Y-78029761D01*
X65252678Y-78067857D01*
X65290773Y-78105952D01*
X65328869Y-78182142D01*
X65328869Y-78334523D01*
X65290773Y-78410714D01*
X65252678Y-78448809D01*
X65176488Y-78486904D01*
X65024107Y-78486904D01*
X64947916Y-78448809D01*
X64909821Y-78410714D01*
X64871726Y-78334523D01*
X64871726Y-78182142D01*
X64909821Y-78105952D01*
X64947916Y-78067857D01*
X65024107Y-78029761D01*
X62090178Y-59309904D02*
X62090178Y-58509904D01*
X61899702Y-58509904D01*
X61785416Y-58548000D01*
X61709226Y-58624190D01*
X61671130Y-58700380D01*
X61633035Y-58852761D01*
X61633035Y-58967047D01*
X61671130Y-59119428D01*
X61709226Y-59195619D01*
X61785416Y-59271809D01*
X61899702Y-59309904D01*
X62090178Y-59309904D01*
X60871130Y-59309904D02*
X61328273Y-59309904D01*
X61099702Y-59309904D02*
X61099702Y-58509904D01*
X61175892Y-58624190D01*
X61252083Y-58700380D01*
X61328273Y-58738476D01*
X60109226Y-59309904D02*
X60566369Y-59309904D01*
X60337797Y-59309904D02*
X60337797Y-58509904D01*
X60413988Y-58624190D01*
X60490178Y-58700380D01*
X60566369Y-58738476D01*
X52184226Y-40259904D02*
X52184226Y-39459904D01*
X51993750Y-39459904D01*
X51879464Y-39498000D01*
X51803273Y-39574190D01*
X51765178Y-39650380D01*
X51727083Y-39802761D01*
X51727083Y-39917047D01*
X51765178Y-40069428D01*
X51803273Y-40145619D01*
X51879464Y-40221809D01*
X51993750Y-40259904D01*
X52184226Y-40259904D01*
X51460416Y-39459904D02*
X50965178Y-39459904D01*
X51231845Y-39764666D01*
X51117559Y-39764666D01*
X51041369Y-39802761D01*
X51003273Y-39840857D01*
X50965178Y-39917047D01*
X50965178Y-40107523D01*
X51003273Y-40183714D01*
X51041369Y-40221809D01*
X51117559Y-40259904D01*
X51346130Y-40259904D01*
X51422321Y-40221809D01*
X51460416Y-40183714D01*
X35896428Y-116586904D02*
X35896428Y-115786904D01*
X35705952Y-115786904D01*
X35591666Y-115825000D01*
X35515476Y-115901190D01*
X35477380Y-115977380D01*
X35439285Y-116129761D01*
X35439285Y-116244047D01*
X35477380Y-116396428D01*
X35515476Y-116472619D01*
X35591666Y-116548809D01*
X35705952Y-116586904D01*
X35896428Y-116586904D01*
X35172619Y-115786904D02*
X34677380Y-115786904D01*
X34944047Y-116091666D01*
X34829761Y-116091666D01*
X34753571Y-116129761D01*
X34715476Y-116167857D01*
X34677380Y-116244047D01*
X34677380Y-116434523D01*
X34715476Y-116510714D01*
X34753571Y-116548809D01*
X34829761Y-116586904D01*
X35058333Y-116586904D01*
X35134523Y-116548809D01*
X35172619Y-116510714D01*
X33915476Y-116586904D02*
X34372619Y-116586904D01*
X34144047Y-116586904D02*
X34144047Y-115786904D01*
X34220238Y-115901190D01*
X34296428Y-115977380D01*
X34372619Y-116015476D01*
X45421428Y-97536904D02*
X45421428Y-96736904D01*
X45230952Y-96736904D01*
X45116666Y-96775000D01*
X45040476Y-96851190D01*
X45002380Y-96927380D01*
X44964285Y-97079761D01*
X44964285Y-97194047D01*
X45002380Y-97346428D01*
X45040476Y-97422619D01*
X45116666Y-97498809D01*
X45230952Y-97536904D01*
X45421428Y-97536904D01*
X44659523Y-96813095D02*
X44621428Y-96775000D01*
X44545238Y-96736904D01*
X44354761Y-96736904D01*
X44278571Y-96775000D01*
X44240476Y-96813095D01*
X44202380Y-96889285D01*
X44202380Y-96965476D01*
X44240476Y-97079761D01*
X44697619Y-97536904D01*
X44202380Y-97536904D01*
X43516666Y-97003571D02*
X43516666Y-97536904D01*
X43707142Y-96698809D02*
X43897619Y-97270238D01*
X43402380Y-97270238D01*
X40658928Y-78486904D02*
X40658928Y-77686904D01*
X40468452Y-77686904D01*
X40354166Y-77725000D01*
X40277976Y-77801190D01*
X40239880Y-77877380D01*
X40201785Y-78029761D01*
X40201785Y-78144047D01*
X40239880Y-78296428D01*
X40277976Y-78372619D01*
X40354166Y-78448809D01*
X40468452Y-78486904D01*
X40658928Y-78486904D01*
X39439880Y-78486904D02*
X39897023Y-78486904D01*
X39668452Y-78486904D02*
X39668452Y-77686904D01*
X39744642Y-77801190D01*
X39820833Y-77877380D01*
X39897023Y-77915476D01*
X39173214Y-77686904D02*
X38639880Y-77686904D01*
X38982738Y-78486904D01*
X34372428Y-57384904D02*
X34372428Y-56584904D01*
X34181952Y-56584904D01*
X34067666Y-56623000D01*
X33991476Y-56699190D01*
X33953380Y-56775380D01*
X33915285Y-56927761D01*
X33915285Y-57042047D01*
X33953380Y-57194428D01*
X33991476Y-57270619D01*
X34067666Y-57346809D01*
X34181952Y-57384904D01*
X34372428Y-57384904D01*
X33153380Y-57384904D02*
X33610523Y-57384904D01*
X33381952Y-57384904D02*
X33381952Y-56584904D01*
X33458142Y-56699190D01*
X33534333Y-56775380D01*
X33610523Y-56813476D01*
X32658142Y-56584904D02*
X32581952Y-56584904D01*
X32505761Y-56623000D01*
X32467666Y-56661095D01*
X32429571Y-56737285D01*
X32391476Y-56889666D01*
X32391476Y-57080142D01*
X32429571Y-57232523D01*
X32467666Y-57308714D01*
X32505761Y-57346809D01*
X32581952Y-57384904D01*
X32658142Y-57384904D01*
X32734333Y-57346809D01*
X32772428Y-57308714D01*
X32810523Y-57232523D01*
X32848619Y-57080142D01*
X32848619Y-56889666D01*
X32810523Y-56737285D01*
X32772428Y-56661095D01*
X32734333Y-56623000D01*
X32658142Y-56584904D01*
X33134226Y-40386904D02*
X33134226Y-39586904D01*
X32943750Y-39586904D01*
X32829464Y-39625000D01*
X32753273Y-39701190D01*
X32715178Y-39777380D01*
X32677083Y-39929761D01*
X32677083Y-40044047D01*
X32715178Y-40196428D01*
X32753273Y-40272619D01*
X32829464Y-40348809D01*
X32943750Y-40386904D01*
X33134226Y-40386904D01*
X32372321Y-39663095D02*
X32334226Y-39625000D01*
X32258035Y-39586904D01*
X32067559Y-39586904D01*
X31991369Y-39625000D01*
X31953273Y-39663095D01*
X31915178Y-39739285D01*
X31915178Y-39815476D01*
X31953273Y-39929761D01*
X32410416Y-40386904D01*
X31915178Y-40386904D01*
X43806845Y-24852380D02*
X43806845Y-25661904D01*
X43759226Y-25757142D01*
X43711607Y-25804761D01*
X43616369Y-25852380D01*
X43425892Y-25852380D01*
X43330654Y-25804761D01*
X43283035Y-25757142D01*
X43235416Y-25661904D01*
X43235416Y-24852380D01*
X42806845Y-25804761D02*
X42663988Y-25852380D01*
X42425892Y-25852380D01*
X42330654Y-25804761D01*
X42283035Y-25757142D01*
X42235416Y-25661904D01*
X42235416Y-25566666D01*
X42283035Y-25471428D01*
X42330654Y-25423809D01*
X42425892Y-25376190D01*
X42616369Y-25328571D01*
X42711607Y-25280952D01*
X42759226Y-25233333D01*
X42806845Y-25138095D01*
X42806845Y-25042857D01*
X42759226Y-24947619D01*
X42711607Y-24900000D01*
X42616369Y-24852380D01*
X42378273Y-24852380D01*
X42235416Y-24900000D01*
X41473511Y-25328571D02*
X41330654Y-25376190D01*
X41283035Y-25423809D01*
X41235416Y-25519047D01*
X41235416Y-25661904D01*
X41283035Y-25757142D01*
X41330654Y-25804761D01*
X41425892Y-25852380D01*
X41806845Y-25852380D01*
X41806845Y-24852380D01*
X41473511Y-24852380D01*
X41378273Y-24900000D01*
X41330654Y-24947619D01*
X41283035Y-25042857D01*
X41283035Y-25138095D01*
X41330654Y-25233333D01*
X41378273Y-25280952D01*
X41473511Y-25328571D01*
X41806845Y-25328571D01*
X40283035Y-25852380D02*
X40854464Y-25852380D01*
X40568750Y-25852380D02*
X40568750Y-24852380D01*
X40663988Y-24995238D01*
X40759226Y-25090476D01*
X40854464Y-25138095D01*
X52704904Y-63079380D02*
X52704904Y-63888904D01*
X52657285Y-63984142D01*
X52609666Y-64031761D01*
X52514428Y-64079380D01*
X52323952Y-64079380D01*
X52228714Y-64031761D01*
X52181095Y-63984142D01*
X52133476Y-63888904D01*
X52133476Y-63079380D01*
X51133476Y-64079380D02*
X51704904Y-64079380D01*
X51419190Y-64079380D02*
X51419190Y-63079380D01*
X51514428Y-63222238D01*
X51609666Y-63317476D01*
X51704904Y-63365095D01*
X24538380Y-61698428D02*
X24062190Y-61365095D01*
X24538380Y-61127000D02*
X23538380Y-61127000D01*
X23538380Y-61507952D01*
X23586000Y-61603190D01*
X23633619Y-61650809D01*
X23728857Y-61698428D01*
X23871714Y-61698428D01*
X23966952Y-61650809D01*
X24014571Y-61603190D01*
X24062190Y-61507952D01*
X24062190Y-61127000D01*
X24014571Y-62127000D02*
X24014571Y-62460333D01*
X24538380Y-62603190D02*
X24538380Y-62127000D01*
X23538380Y-62127000D01*
X23538380Y-62603190D01*
X24490761Y-62984142D02*
X24538380Y-63127000D01*
X24538380Y-63365095D01*
X24490761Y-63460333D01*
X24443142Y-63507952D01*
X24347904Y-63555571D01*
X24252666Y-63555571D01*
X24157428Y-63507952D01*
X24109809Y-63460333D01*
X24062190Y-63365095D01*
X24014571Y-63174619D01*
X23966952Y-63079380D01*
X23919333Y-63031761D01*
X23824095Y-62984142D01*
X23728857Y-62984142D01*
X23633619Y-63031761D01*
X23586000Y-63079380D01*
X23538380Y-63174619D01*
X23538380Y-63412714D01*
X23586000Y-63555571D01*
X24014571Y-63984142D02*
X24014571Y-64317476D01*
X24538380Y-64460333D02*
X24538380Y-63984142D01*
X23538380Y-63984142D01*
X23538380Y-64460333D01*
X23538380Y-64746047D02*
X23538380Y-65317476D01*
X24538380Y-65031761D02*
X23538380Y-65031761D01*
X24538380Y-66174619D02*
X24538380Y-65603190D01*
X24538380Y-65888904D02*
X23538380Y-65888904D01*
X23681238Y-65793666D01*
X23776476Y-65698428D01*
X23824095Y-65603190D01*
M02*
